0 small chunky delivery truck
0 Name: small chunky delivery truck.ldr
0 Author: brickify

1 71 40 -3 12 -1 0 0 0 1 0 0 0 -1 4624.dat
1 0 40 -3 12 -1 0 0 0 1 0 0 0 -1 3641.dat
1 71 40 -3 68 1 0 0 0 1 0 0 0 1 4624.dat
1 0 40 -3 68 1 0 0 0 1 0 0 0 1 3641.dat
1 71 160 -3 12 -1 0 0 0 1 0 0 0 -1 4624.dat
1 0 160 -3 12 -1 0 0 0 1 0 0 0 -1 3641.dat
1 71 160 -3 68 1 0 0 0 1 0 0 0 1 4624.dat
1 0 160 -3 68 1 0 0 0 1 0 0 0 1 3641.dat
0 STEP
1 72 90 -8 10 1 0 0 0 1 0 0 0 1 3024.dat
1 72 10 -8 40 0 0 1 0 1 0 -1 0 0 3023.dat
1 72 40 -8 10 1 0 0 0 1 0 0 0 1 3710.dat
1 72 140 -8 10 1 0 0 0 1 0 0 0 1 3710.dat
1 72 150 -8 70 1 0 0 0 1 0 0 0 1 3623.dat
1 72 190 -8 40 0 0 1 0 1 0 -1 0 0 3710.dat
1 72 100 -8 40 1 0 0 0 1 0 0 0 1 3020.dat
1 72 60 -8 70 1 0 0 0 1 0 0 0 1 3666.dat
1 0 40 -8 40 0 0 1 0 1 0 -1 0 0 4600.dat
1 0 160 -8 40 0 0 1 0 1 0 -1 0 0 4600.dat
0 STEP
1 72 10 -16 40 0 0 1 0 1 0 -1 0 0 3710.dat
1 14 190 -16 40 0 0 1 0 1 0 -1 0 0 3710.dat
1 14 160 -16 40 0 0 1 0 1 0 -1 0 0 3020.dat
1 14 80 -16 40 0 0 1 0 1 0 -1 0 0 3020.dat
1 14 40 -16 40 0 0 1 0 1 0 -1 0 0 3020.dat
1 14 120 -16 40 0 0 1 0 1 0 -1 0 0 3020.dat
0 STEP
1 14 110 -24 70 1 0 0 0 1 0 0 0 1 3024.dat
1 4 190 -24 10 1 0 0 0 1 0 0 0 1 3024.dat
1 4 190 -24 70 1 0 0 0 1 0 0 0 1 3024.dat
1 14 50 -24 10 1 0 0 0 1 0 0 0 1 3623.dat
1 15 160 -24 70 1 0 0 0 1 0 0 0 1 3023.dat
1 15 130 -24 50 0 0 1 0 1 0 -1 0 0 3623.dat
1 15 150 -24 10 1 0 0 0 1 0 0 0 1 3623.dat
1 14 60 -24 70 1 0 0 0 1 0 0 0 1 3710.dat
1 15 170 -24 40 1 0 0 0 1 0 0 0 1 3021.dat
1 14 100 -24 30 0 0 1 0 1 0 -1 0 0 3021.dat
1 14 40 -24 40 1 0 0 0 1 0 0 0 1 3020.dat
0 STEP
1 14 70 -32 70 1 0 0 0 1 0 0 0 1 3024.dat
1 14 90 -32 30 1 0 0 0 1 0 0 0 1 3024.dat
1 14 10 -32 40 0 0 1 0 1 0 -1 0 0 3023.dat
1 14 70 -32 20 0 0 1 0 1 0 -1 0 0 3023.dat
1 14 80 -32 50 1 0 0 0 1 0 0 0 1 3023.dat
1 14 110 -32 40 0 0 1 0 1 0 -1 0 0 3023.dat
1 14 40 -32 40 0 0 1 0 1 0 -1 0 0 3020.dat
1 14 30 -32 20 1 0 0 0 1 0 0 0 1 11477.dat
1 14 30 -32 60 -1 0 0 0 1 0 0 0 -1 11477.dat
1 14 50 -32 20 1 0 0 0 1 0 0 0 1 11477.dat
1 14 50 -32 60 -1 0 0 0 1 0 0 0 -1 11477.dat
1 14 70 -32 20 1 0 0 0 1 0 0 0 1 11477.dat
1 14 70 -32 60 -1 0 0 0 1 0 0 0 -1 11477.dat
0 STEP
1 43 90 -40 40 0 0 1 0 1 0 -1 0 0 3023.dat
1 14 10 -40 10 0 0 1 0 1 0 -1 0 0 87087.dat
1 14 10 -40 70 0 0 1 0 1 0 -1 0 0 87087.dat
0 STEP
1 14 100 -48 70 1 0 0 0 1 0 0 0 1 3004.dat
1 43 90 -48 40 0 0 1 0 1 0 -1 0 0 3023.dat
1 15 130 -48 40 0 0 1 0 1 0 -1 0 0 3010.dat
1 14 100 -48 10 1 0 0 0 1 0 0 0 1 3004.dat
1 15 170 -48 10 1 0 0 0 1 0 0 0 1 3622.dat
1 15 150 -48 50 0 0 1 0 1 0 -1 0 0 3622.dat
1 15 180 -48 50 0 0 1 0 1 0 -1 0 0 3002.dat
0 STEP
1 14 100 -56 10 1 0 0 0 1 0 0 0 1 3023.dat
1 43 90 -56 40 0 0 1 0 1 0 -1 0 0 3023.dat
1 14 100 -56 70 1 0 0 0 1 0 0 0 1 3023.dat
0 STEP
1 14 100 -64 40 0 0 1 0 1 0 -1 0 0 3020.dat
1 14 90 -64 20 1 0 0 0 1 0 0 0 1 11477.dat
1 14 90 -64 60 -1 0 0 0 1 0 0 0 -1 11477.dat
1 14 110 -64 20 1 0 0 0 1 0 0 0 1 11477.dat
1 14 110 -64 60 -1 0 0 0 1 0 0 0 -1 11477.dat
0 STEP
1 15 180 -72 30 0 0 1 0 1 0 -1 0 0 3002.dat
1 15 160 -72 70 1 0 0 0 1 0 0 0 1 3010.dat
1 15 140 -72 30 0 0 1 0 1 0 -1 0 0 3002.dat
1 15 130 -72 20 1 0 0 0 1 0 0 0 1 11477.dat
1 15 130 -72 60 -1 0 0 0 1 0 0 0 -1 11477.dat
1 15 150 -72 20 1 0 0 0 1 0 0 0 1 11477.dat
1 15 150 -72 60 -1 0 0 0 1 0 0 0 -1 11477.dat
1 15 180 -72 10 0 0 -1 0 1 0 1 0 0 11477.dat
1 15 180 -72 30 0 0 -1 0 1 0 1 0 0 11477.dat
1 15 170 -72 60 -1 0 0 0 1 0 0 0 -1 11477.dat
1 15 190 -72 60 -1 0 0 0 1 0 0 0 -1 11477.dat
0 STEP
1 71 -8 -30 10 0 1 0 -1 0 0 0 0 1 98138.dat
0 STEP
1 71 -8 -30 70 0 1 0 -1 0 0 0 0 1 98138.dat
0 STEP
