0 standing goose
0 Name: standing goose.ldr
0 Author: brickify

1 25 70 -8 30 1 0 0 0 1 0 0 0 1 3623.dat
1 25 70 -8 90 1 0 0 0 1 0 0 0 1 3623.dat
0 STEP
1 25 50 -16 30 1 0 0 0 1 0 0 0 1 3024.dat
1 25 50 -16 90 1 0 0 0 1 0 0 0 1 3024.dat
0 STEP
1 25 50 -24 30 1 0 0 0 1 0 0 0 1 3024.dat
1 25 50 -24 90 1 0 0 0 1 0 0 0 1 3024.dat
0 STEP
1 15 60 -32 30 1 0 0 0 1 0 0 0 1 3023.dat
1 15 50 -32 70 0 0 1 0 1 0 -1 0 0 3623.dat
1 15 30 -32 60 0 0 1 0 1 0 -1 0 0 3710.dat
0 STEP
1 15 130 -40 30 1 0 0 0 1 0 0 0 1 3024.dat
1 15 130 -40 90 1 0 0 0 1 0 0 0 1 3024.dat
1 15 80 -40 10 1 0 0 0 1 0 0 0 1 3710.dat
1 15 80 -40 110 1 0 0 0 1 0 0 0 1 3710.dat
1 15 140 -40 60 1 0 0 0 1 0 0 0 1 3022.dat
1 15 40 -40 90 1 0 0 0 1 0 0 0 1 3023.dat
1 15 50 -40 30 1 0 0 0 1 0 0 0 1 3623.dat
1 15 30 -40 60 1 0 0 0 1 0 0 0 1 3021.dat
0 STEP
1 15 100 -48 30 1 0 0 0 1 0 0 0 1 3004.dat
1 15 110 -48 70 0 0 1 0 1 0 -1 0 0 3622.dat
1 15 80 -48 70 0 0 1 0 1 0 -1 0 0 3002.dat
1 15 150 -48 60 0 0 1 0 1 0 -1 0 0 3710.dat
1 15 80 -48 10 1 0 0 0 1 0 0 0 1 3710.dat
1 15 70 -48 30 1 0 0 0 1 0 0 0 1 3024.dat
1 15 130 -48 60 0 0 1 0 1 0 -1 0 0 3666.dat
1 15 80 -48 110 1 0 0 0 1 0 0 0 1 3710.dat
1 15 50 -48 60 0 0 1 0 1 0 -1 0 0 3710.dat
1 15 10 -48 60 0 0 1 0 1 0 -1 0 0 3710.dat
1 15 30 -48 60 0 0 1 0 1 0 -1 0 0 3666.dat
0 STEP
1 15 40 -56 10 1 0 0 0 1 0 0 0 1 3023.dat
1 15 40 -56 110 1 0 0 0 1 0 0 0 1 3023.dat
1 15 20 -56 60 0 0 1 0 1 0 -1 0 0 3020.dat
0 STEP
1 15 10 -64 60 0 0 1 0 1 0 -1 0 0 3710.dat
1 15 30 -64 60 0 0 1 0 1 0 -1 0 0 3666.dat
0 STEP
1 15 130 -72 50 1 0 0 0 1 0 0 0 1 3005.dat
1 15 150 -72 60 0 0 1 0 1 0 -1 0 0 3004.dat
1 15 110 -72 70 1 0 0 0 1 0 0 0 1 3622.dat
1 15 100 -72 30 1 0 0 0 1 0 0 0 1 3009.dat
1 15 80 -72 50 1 0 0 0 1 0 0 0 1 3010.dat
1 15 100 -72 10 1 0 0 0 1 0 0 0 1 3010.dat
1 15 100 -72 110 1 0 0 0 1 0 0 0 1 3010.dat
1 15 120 -72 90 1 0 0 0 1 0 0 0 1 3010.dat
1 15 60 -72 80 1 0 0 0 1 0 0 0 1 3003.dat
1 0 10 -72 60 0 0 1 0 1 0 -1 0 0 3710.dat
1 15 30 -72 60 0 0 1 0 1 0 -1 0 0 3666.dat
0 STEP
1 15 100 -80 10 1 0 0 0 1 0 0 0 1 3710.dat
1 15 100 -80 110 1 0 0 0 1 0 0 0 1 3710.dat
1 15 140 -80 60 0 0 1 0 1 0 -1 0 0 3020.dat
1 15 30 -80 10 1 0 0 0 1 0 0 0 1 3024.dat
1 15 30 -80 110 1 0 0 0 1 0 0 0 1 3024.dat
1 15 30 -80 60 0 0 1 0 1 0 -1 0 0 3710.dat
1 0 10 -80 60 0 0 1 0 1 0 -1 0 0 3710.dat
1 15 50 -80 10 1 0 0 0 1 0 0 0 1 87087.dat
1 15 50 -80 110 -1 0 0 0 1 0 0 0 -1 87087.dat
1 0 10 -80 40 1 0 0 0 1 0 0 0 1 11477.dat
1 0 10 -80 80 -1 0 0 0 1 0 0 0 -1 11477.dat
1 15 150 -80 40 1 0 0 0 1 0 0 0 1 11477.dat
1 15 150 -80 80 -1 0 0 0 1 0 0 0 -1 11477.dat
0 STEP
1 15 80 -88 110 1 0 0 0 1 0 0 0 1 3710.dat
1 15 80 -88 10 1 0 0 0 1 0 0 0 1 3710.dat
1 15 130 -88 60 0 0 1 0 1 0 -1 0 0 3710.dat
1 0 30 -88 60 0 0 1 0 1 0 -1 0 0 3710.dat
1 15 60 -88 10 0 0 1 0 1 0 -1 0 0 11477.dat
1 15 60 -88 110 0 0 1 0 1 0 -1 0 0 11477.dat
1 15 100 -88 10 0 0 -1 0 1 0 1 0 0 11477.dat
1 15 100 -88 110 0 0 -1 0 1 0 1 0 0 11477.dat
1 15 130 -88 40 1 0 0 0 1 0 0 0 1 11477.dat
1 15 130 -88 80 -1 0 0 0 1 0 0 0 -1 11477.dat
0 STEP
1 15 30 -96 60 0 0 1 0 1 0 -1 0 0 3023.dat
1 15 50 -96 60 0 0 1 0 1 0 -1 0 0 3010.dat
1 15 110 -96 60 0 0 1 0 1 0 -1 0 0 3010.dat
1 15 80 -96 60 0 0 1 0 1 0 -1 0 0 3001.dat
1 15 60 -96 30 0 0 1 0 1 0 -1 0 0 11477.dat
1 15 60 -96 90 0 0 1 0 1 0 -1 0 0 11477.dat
1 15 100 -96 30 0 0 -1 0 1 0 1 0 0 11477.dat
1 15 100 -96 90 0 0 -1 0 1 0 1 0 0 11477.dat
0 STEP
1 15 70 -104 60 1 0 0 0 1 0 0 0 1 3021.dat
1 15 60 -104 50 0 0 1 0 1 0 -1 0 0 11477.dat
1 15 60 -104 70 0 0 1 0 1 0 -1 0 0 11477.dat
0 STEP
1 0 90 -128 60 0 0 1 0 1 0 -1 0 0 3937.dat
0 STEP
1 0 90 -128 60 0 0 1 0 1 0 -1 0 0 3938.dat
0 STEP
1 0 100 -152 60 1 0 0 0 1 0 0 0 1 3003.dat
0 STEP
1 0 100 -176 60 1 0 0 0 1 0 0 0 1 3003.dat
0 STEP
1 0 100 -184 60 1 0 0 0 1 0 0 0 1 3022.dat
0 STEP
1 0 100 -192 60 1 0 0 0 1 0 0 0 1 3022.dat
0 STEP
1 0 110 -200 60 1 0 0 0 1 0 0 0 1 3021.dat
0 STEP
1 0 90 -224 60 0 0 1 0 1 0 -1 0 0 3004.dat
1 0 110 -224 50 1 0 0 0 1 0 0 0 1 87087.dat
1 0 110 -224 70 -1 0 0 0 1 0 0 0 -1 87087.dat
1 0 130 -224 60 0 0 -1 0 1 0 1 0 0 11211.dat
1 0 100 -224 50 0 0 1 0 1 0 -1 0 0 11477.dat
1 0 100 -224 70 0 0 1 0 1 0 -1 0 0 11477.dat
0 STEP
1 15 110 -214 32 1 0 0 0 0 -1 0 1 0 6141.dat
0 STEP
1 15 110 -214 88 1 0 0 0 0 1 0 -1 0 6141.dat
0 STEP
1 25 164 -204 60 0 -1 0 1 0 0 0 0 1 3003.dat
0 STEP
1 25 172 -214 60 0 -1 0 0 0 1 -1 0 0 3023.dat
0 STEP
1 15 80 -80 -8 1 0 0 0 0 -1 0 1 0 3020.dat
0 STEP
1 15 80 -60 128 1 0 0 0 0 1 0 -1 0 3020.dat
0 STEP
