0 sitting sumo wrestler
0 Name: sitting sumo wrestler.ldr
0 Author: brickify

1 19 50 -8 30 1 0 0 0 1 0 0 0 1 3024.dat
1 19 110 -8 30 1 0 0 0 1 0 0 0 1 3024.dat
1 19 40 -8 10 1 0 0 0 1 0 0 0 1 3023.dat
1 19 100 -8 60 1 0 0 0 1 0 0 0 1 3022.dat
1 19 80 -8 20 1 0 0 0 1 0 0 0 1 3022.dat
1 19 60 -8 130 1 0 0 0 1 0 0 0 1 3710.dat
1 19 60 -8 50 1 0 0 0 1 0 0 0 1 3023.dat
1 19 20 -8 40 1 0 0 0 1 0 0 0 1 3022.dat
1 19 40 -8 70 1 0 0 0 1 0 0 0 1 3710.dat
1 19 60 -8 100 1 0 0 0 1 0 0 0 1 3795.dat
0 STEP
1 19 110 -16 100 0 0 1 0 1 0 -1 0 0 3023.dat
1 19 110 -16 50 0 0 1 0 1 0 -1 0 0 3623.dat
1 19 50 -16 130 1 0 0 0 1 0 0 0 1 3024.dat
1 19 10 -16 30 1 0 0 0 1 0 0 0 1 3024.dat
1 19 70 -16 120 0 0 1 0 1 0 -1 0 0 3023.dat
1 19 90 -16 110 0 0 1 0 1 0 -1 0 0 3623.dat
1 19 50 -16 80 0 0 1 0 1 0 -1 0 0 3710.dat
1 19 90 -16 40 0 0 1 0 1 0 -1 0 0 3710.dat
1 19 70 -16 70 0 0 1 0 1 0 -1 0 0 3623.dat
1 19 10 -16 80 0 0 1 0 1 0 -1 0 0 3710.dat
1 19 30 -16 110 0 0 1 0 1 0 -1 0 0 3623.dat
1 19 30 -16 40 0 0 1 0 1 0 -1 0 0 3710.dat
1 19 60 -16 20 1 0 0 0 1 0 0 0 1 3022.dat
1 19 90 -16 20 1 0 0 0 1 0 0 0 1 11477.dat
1 19 100 -16 50 0 0 -1 0 1 0 1 0 0 11477.dat
1 19 100 -16 70 0 0 -1 0 1 0 1 0 0 11477.dat
1 19 100 -16 90 0 0 -1 0 1 0 1 0 0 11477.dat
1 19 90 -16 120 -1 0 0 0 1 0 0 0 -1 11477.dat
0 STEP
1 19 30 -24 10 1 0 0 0 1 0 0 0 1 3024.dat
1 19 20 -24 30 1 0 0 0 1 0 0 0 1 3023.dat
1 19 60 -24 20 1 0 0 0 1 0 0 0 1 3022.dat
1 19 50 -24 130 1 0 0 0 1 0 0 0 1 3623.dat
1 19 40 -24 100 1 0 0 0 1 0 0 0 1 3020.dat
1 19 40 -24 60 1 0 0 0 1 0 0 0 1 3020.dat
1 19 10 -24 40 1 0 0 0 1 0 0 0 1 11477.dat
1 19 10 -24 100 -1 0 0 0 1 0 0 0 -1 11477.dat
1 19 30 -24 20 1 0 0 0 1 0 0 0 1 11477.dat
1 19 20 -24 70 0 0 1 0 1 0 -1 0 0 11477.dat
1 19 30 -24 120 -1 0 0 0 1 0 0 0 -1 11477.dat
1 19 60 -24 10 0 0 -1 0 1 0 1 0 0 11477.dat
1 19 60 -24 30 0 0 -1 0 1 0 1 0 0 11477.dat
1 19 60 -24 70 0 0 -1 0 1 0 1 0 0 11477.dat
1 19 60 -24 90 0 0 -1 0 1 0 1 0 0 11477.dat
1 19 50 -24 120 -1 0 0 0 1 0 0 0 -1 11477.dat
1 19 70 -24 120 -1 0 0 0 1 0 0 0 -1 11477.dat
0 STEP
1 0 30 -32 10 1 0 0 0 1 0 0 0 1 3070b.dat
1 0 30 -32 130 1 0 0 0 1 0 0 0 1 3070b.dat
0 STEP
1 19 40 -48 50 1 0 0 0 1 0 0 0 1 3937.dat
0 STEP
1 19 40 -48 50 1 0 0 0 1 0 0 0 1 3938.dat
0 STEP
1 272 60 -72 110 1 0 0 0 1 0 0 0 1 3004.dat
1 272 60 -72 30 1 0 0 0 1 0 0 0 1 3004.dat
1 272 60 -72 50 1 0 0 0 1 0 0 0 1 3010.dat
1 272 60 -72 80 1 0 0 0 1 0 0 0 1 3001.dat
0 STEP
1 19 30 -80 70 0 0 1 0 1 0 -1 0 0 3623.dat
1 19 60 -80 90 0 0 1 0 1 0 -1 0 0 3021.dat
1 19 60 -80 40 1 0 0 0 1 0 0 0 1 3022.dat
0 STEP
1 19 50 -88 30 1 0 0 0 1 0 0 0 1 3623.dat
1 19 50 -88 100 1 0 0 0 1 0 0 0 1 3021.dat
1 19 50 -88 60 1 0 0 0 1 0 0 0 1 3021.dat
0 STEP
1 19 90 -96 70 0 0 1 0 1 0 -1 0 0 3622.dat
1 19 30 -96 110 1 0 0 0 1 0 0 0 1 3024.dat
1 19 60 -96 100 1 0 0 0 1 0 0 0 1 3022.dat
1 19 30 -96 60 0 0 1 0 1 0 -1 0 0 3710.dat
1 19 60 -96 50 0 0 1 0 1 0 -1 0 0 3021.dat
0 STEP
1 19 90 -104 70 0 0 1 0 1 0 -1 0 0 3623.dat
1 19 50 -104 50 1 0 0 0 1 0 0 0 1 3623.dat
1 19 50 -104 80 1 0 0 0 1 0 0 0 1 3021.dat
1 19 90 -104 60 1 0 0 0 1 0 0 0 1 11477.dat
0 STEP
1 19 30 -112 70 0 0 1 0 1 0 -1 0 0 3623.dat
1 19 60 -112 70 0 0 1 0 1 0 -1 0 0 3021.dat
0 STEP
1 19 50 -120 50 1 0 0 0 1 0 0 0 1 3623.dat
1 19 50 -120 80 1 0 0 0 1 0 0 0 1 3021.dat
1 19 60 -120 30 1 0 0 0 1 0 0 0 1 3937.dat
1 19 60 -120 110 1 0 0 0 1 0 0 0 1 3937.dat
1 19 30 -120 60 1 0 0 0 1 0 0 0 1 11477.dat
1 19 60 -120 50 0 0 -1 0 1 0 1 0 0 11477.dat
1 19 40 -120 90 0 0 1 0 1 0 -1 0 0 11477.dat
0 STEP
1 19 60 -144 70 1 0 0 0 1 0 0 0 1 3937.dat
0 STEP
1 19 60 -144 70 1 0 0 0 1 0 0 0 1 3938.dat
0 STEP
1 19 70 -152 90 1 0 0 0 1 0 0 0 1 3623.dat
1 19 80 -152 30 1 0 0 0 1 0 0 0 1 3023.dat
1 19 80 -152 110 1 0 0 0 1 0 0 0 1 3023.dat
1 19 70 -152 60 1 0 0 0 1 0 0 0 1 3021.dat
0 STEP
1 19 60 -160 70 1 0 0 0 1 0 0 0 1 3023.dat
1 19 90 -160 90 0 0 1 0 1 0 -1 0 0 3623.dat
1 19 70 -160 100 0 0 1 0 1 0 -1 0 0 3023.dat
1 19 80 -160 40 1 0 0 0 1 0 0 0 1 3022.dat
0 STEP
1 19 110 -168 70 0 0 1 0 1 0 -1 0 0 3622.dat
1 19 70 -168 70 1 0 0 0 1 0 0 0 1 3623.dat
1 19 80 -168 100 1 0 0 0 1 0 0 0 1 3022.dat
1 19 80 -168 40 1 0 0 0 1 0 0 0 1 3022.dat
0 STEP
1 19 70 -176 40 0 0 1 0 1 0 -1 0 0 3023.dat
1 19 60 -176 70 1 0 0 0 1 0 0 0 1 3023.dat
1 19 110 -176 70 0 0 1 0 1 0 -1 0 0 3623.dat
1 19 90 -176 50 0 0 1 0 1 0 -1 0 0 3623.dat
1 19 80 -176 100 1 0 0 0 1 0 0 0 1 3022.dat
1 19 50 -176 50 0 0 1 0 1 0 -1 0 0 87087.dat
1 19 50 -176 90 0 0 1 0 1 0 -1 0 0 87087.dat
0 STEP
1 0 80 -184 110 1 0 0 0 1 0 0 0 1 3023.dat
1 0 70 -184 80 1 0 0 0 1 0 0 0 1 3021.dat
1 0 80 -184 30 1 0 0 0 1 0 0 0 1 3023.dat
1 0 70 -184 50 1 0 0 0 1 0 0 0 1 3623.dat
1 0 110 -184 70 0 0 1 0 1 0 -1 0 0 3623.dat
0 STEP
1 0 90 -192 30 1 0 0 0 1 0 0 0 1 3024.dat
1 0 70 -192 90 0 0 1 0 1 0 -1 0 0 3623.dat
1 0 110 -192 70 0 0 1 0 1 0 -1 0 0 3623.dat
1 0 70 -192 40 0 0 1 0 1 0 -1 0 0 3023.dat
1 0 90 -192 80 0 0 1 0 1 0 -1 0 0 3710.dat
1 0 50 -192 70 0 0 1 0 1 0 -1 0 0 3623.dat
1 0 50 -192 60 1 0 0 0 1 0 0 0 1 11477.dat
0 STEP
1 0 110 -200 80 0 0 1 0 1 0 -1 0 0 3023.dat
1 0 80 -200 30 1 0 0 0 1 0 0 0 1 3023.dat
1 0 90 -200 50 1 0 0 0 1 0 0 0 1 3623.dat
1 0 80 -200 90 0 0 1 0 1 0 -1 0 0 3021.dat
1 0 70 -200 40 1 0 0 0 1 0 0 0 1 11477.dat
1 0 70 -200 100 -1 0 0 0 1 0 0 0 -1 11477.dat
1 0 90 -200 40 1 0 0 0 1 0 0 0 1 11477.dat
1 0 80 -200 70 0 0 1 0 1 0 -1 0 0 11477.dat
1 0 90 -200 100 -1 0 0 0 1 0 0 0 -1 11477.dat
1 0 110 -200 60 1 0 0 0 1 0 0 0 1 11477.dat
0 STEP
1 0 70 -224 70 1 0 0 0 1 0 0 0 1 3062b.dat
0 STEP
1 0 70 -232 70 1 0 0 0 1 0 0 0 1 98138.dat
0 STEP
1 15 32 -166 50 0 1 0 -1 0 0 0 0 1 6141.dat
1 0 24 -166 50 0 1 0 -1 0 0 0 0 1 98138.dat
0 STEP
1 15 32 -166 90 0 1 0 -1 0 0 0 0 1 6141.dat
1 0 24 -166 90 0 1 0 -1 0 0 0 0 1 98138.dat
0 STEP
1 19 50 -81.81 -23.49 1 0 0 0 0.469472 -0.882948 0 0.882948 0.469472 11477.dat
1 19 70 -81.81 -23.49 1 0 0 0 0.469472 -0.882948 0 0.882948 0.469472 11477.dat
0 STEP
1 19 60 -99.47 -14.1 0 0 1 0.882948 0.469472 0 -0.469472 0.882948 0 3001.dat
0 STEP
1 19 60 -114.7 21.17 1 0 0 0 0.469472 -0.882948 0 0.882948 0.469472 3938.dat
0 STEP
1 19 50 -117.1 -4.715 -1 0 0 0 0.469472 0.882948 0 0.882948 -0.469472 11477.dat
1 19 70 -117.1 -4.715 -1 0 0 0 0.469472 0.882948 0 0.882948 -0.469472 11477.dat
0 STEP
1 19 50 -81.81 163.5 -1 0 0 0 0.469472 -0.882948 0 -0.882948 -0.469472 11477.dat
1 19 70 -81.81 163.5 -1 0 0 0 0.469472 -0.882948 0 -0.882948 -0.469472 11477.dat
0 STEP
1 19 60 -99.47 154.1 0 0 1 -0.882948 0.469472 0 -0.469472 -0.882948 0 3001.dat
0 STEP
1 19 60 -114.7 118.8 1 0 0 0 0.469472 0.882948 0 -0.882948 0.469472 3938.dat
0 STEP
1 19 50 -117.1 144.7 1 0 0 0 0.469472 0.882948 0 -0.882948 0.469472 11477.dat
1 19 70 -117.1 144.7 1 0 0 0 0.469472 0.882948 0 -0.882948 0.469472 11477.dat
0 STEP
