0 standing canada goose
0 Name: standing canada goose.ldr
0 Author: brickify

1 308 90 -8 30 1 0 0 0 1 0 0 0 1 3623.dat
1 308 90 -8 70 1 0 0 0 1 0 0 0 1 3623.dat
0 STEP
1 308 90 -16 30 1 0 0 0 1 0 0 0 1 3024.dat
1 308 90 -16 70 1 0 0 0 1 0 0 0 1 3024.dat
0 STEP
1 308 90 -24 30 1 0 0 0 1 0 0 0 1 3024.dat
1 308 90 -24 70 1 0 0 0 1 0 0 0 1 3024.dat
0 STEP
1 308 90 -32 30 1 0 0 0 1 0 0 0 1 3024.dat
1 308 90 -32 70 1 0 0 0 1 0 0 0 1 3024.dat
0 STEP
1 6 60 -40 50 0 0 1 0 1 0 -1 0 0 3021.dat
1 19 120 -40 30 1 0 0 0 1 0 0 0 1 3710.dat
1 19 120 -40 60 1 0 0 0 1 0 0 0 1 3020.dat
0 STEP
1 6 90 -48 90 1 0 0 0 1 0 0 0 1 3024.dat
1 6 50 -48 20 0 0 1 0 1 0 -1 0 0 3023.dat
1 19 90 -48 50 0 0 1 0 1 0 -1 0 0 3623.dat
1 6 70 -48 60 0 0 1 0 1 0 -1 0 0 3710.dat
1 6 80 -48 10 1 0 0 0 1 0 0 0 1 3023.dat
1 6 50 -48 70 0 0 1 0 1 0 -1 0 0 3623.dat
1 19 120 -48 60 0 0 1 0 1 0 -1 0 0 3020.dat
1 19 170 -48 50 0 0 1 0 1 0 -1 0 0 3623.dat
1 19 130 -48 10 1 0 0 0 1 0 0 0 1 3623.dat
1 19 150 -48 60 0 0 1 0 1 0 -1 0 0 3710.dat
1 6 30 -48 50 0 0 1 0 1 0 -1 0 0 3623.dat
0 STEP
1 19 110 -56 20 0 0 1 0 1 0 -1 0 0 3023.dat
1 19 110 -56 70 0 0 1 0 1 0 -1 0 0 3623.dat
1 6 90 -56 50 1 0 0 0 1 0 0 0 1 3024.dat
1 19 150 -56 10 1 0 0 0 1 0 0 0 1 3024.dat
1 19 150 -56 90 1 0 0 0 1 0 0 0 1 3024.dat
1 6 30 -56 30 1 0 0 0 1 0 0 0 1 3623.dat
1 6 80 -56 70 1 0 0 0 1 0 0 0 1 3023.dat
1 6 80 -56 30 1 0 0 0 1 0 0 0 1 3023.dat
1 19 150 -56 30 1 0 0 0 1 0 0 0 1 3623.dat
1 6 30 -56 70 1 0 0 0 1 0 0 0 1 3623.dat
1 6 60 -56 10 1 0 0 0 1 0 0 0 1 3710.dat
1 6 40 -56 50 1 0 0 0 1 0 0 0 1 3710.dat
1 19 150 -56 60 1 0 0 0 1 0 0 0 1 3021.dat
1 6 60 -56 90 1 0 0 0 1 0 0 0 1 3710.dat
0 STEP
1 19 160 -64 90 1 0 0 0 1 0 0 0 1 3023.dat
1 19 150 -64 70 1 0 0 0 1 0 0 0 1 3623.dat
1 6 90 -64 20 1 0 0 0 1 0 0 0 1 3021.dat
1 6 40 -64 30 0 0 1 0 1 0 -1 0 0 3021.dat
1 0 10 -64 50 0 0 1 0 1 0 -1 0 0 3623.dat
1 6 70 -64 70 0 0 1 0 1 0 -1 0 0 3623.dat
1 19 130 -64 40 0 0 1 0 1 0 -1 0 0 3023.dat
1 19 160 -64 30 0 0 1 0 1 0 -1 0 0 3021.dat
1 6 100 -64 70 0 0 1 0 1 0 -1 0 0 3021.dat
1 6 40 -64 80 1 0 0 0 1 0 0 0 1 3022.dat
1 19 160 -64 10 0 0 -1 0 1 0 1 0 0 11477.dat
1 19 160 -64 90 0 0 -1 0 1 0 1 0 0 11477.dat
0 STEP
1 19 130 -72 10 1 0 0 0 1 0 0 0 1 3005.dat
1 19 130 -72 90 1 0 0 0 1 0 0 0 1 3005.dat
1 6 110 -72 30 0 0 1 0 1 0 -1 0 0 3623.dat
1 6 100 -72 80 1 0 0 0 1 0 0 0 1 3022.dat
1 0 10 -72 50 0 0 1 0 1 0 -1 0 0 3623.dat
1 6 50 -72 80 1 0 0 0 1 0 0 0 1 3021.dat
1 6 60 -72 40 1 0 0 0 1 0 0 0 1 3020.dat
1 19 140 -72 50 0 0 1 0 1 0 -1 0 0 3021.dat
1 6 60 -72 10 1 0 0 0 1 0 0 0 1 3710.dat
1 0 10 -72 40 1 0 0 0 1 0 0 0 1 11477.dat
1 6 40 -72 10 0 0 1 0 1 0 -1 0 0 11477.dat
1 6 40 -72 90 0 0 1 0 1 0 -1 0 0 11477.dat
1 6 120 -72 10 0 0 -1 0 1 0 1 0 0 11477.dat
1 6 120 -72 90 0 0 -1 0 1 0 1 0 0 11477.dat
0 STEP
1 6 80 -80 50 0 0 1 0 1 0 -1 0 0 3021.dat
1 6 120 -80 50 0 0 1 0 1 0 -1 0 0 3021.dat
1 6 40 -80 50 0 0 1 0 1 0 -1 0 0 3021.dat
1 6 30 -80 40 1 0 0 0 1 0 0 0 1 11477.dat
1 6 130 -80 40 1 0 0 0 1 0 0 0 1 11477.dat
0 STEP
1 6 80 -88 70 1 0 0 0 1 0 0 0 1 3710.dat
1 6 80 -88 40 1 0 0 0 1 0 0 0 1 3020.dat
1 0 20 -88 50 1 0 0 0 1 0 0 0 1 43722.dat
1 6 50 -88 40 1 0 0 0 1 0 0 0 1 11477.dat
1 6 70 -88 40 1 0 0 0 1 0 0 0 1 11477.dat
1 6 60 -88 70 0 0 1 0 1 0 -1 0 0 11477.dat
1 6 100 -88 30 0 0 -1 0 1 0 1 0 0 11477.dat
1 6 90 -88 60 -1 0 0 0 1 0 0 0 -1 11477.dat
1 6 110 -88 60 -1 0 0 0 1 0 0 0 -1 11477.dat
0 STEP
1 0 150 -96 40 0 0 1 0 1 0 -1 0 0 3937.dat
1 0 20 -96 50 1 0 0 0 1 0 0 0 1 43723.dat
0 STEP
1 0 148.6 -95.9 40 0 0.139173 0.990268 0 0.990268 -0.139173 -1 0 0 3938.dat
0 STEP
1 15 157.4 -105.2 40 0.990268 0.139173 0 -0.139173 0.990268 0 0 0 1 3022.dat
0 STEP
1 0 156.3 -113.1 40 0.990268 0.139173 0 -0.139173 0.990268 0 0 0 1 3022.dat
0 STEP
1 0 155.2 -121.1 40 0.990268 0.139173 0 -0.139173 0.990268 0 0 0 1 3022.dat
0 STEP
1 0 151.8 -144.8 40 0.990268 0.139173 0 -0.139173 0.990268 0 0 0 1 3003.dat
0 STEP
1 0 150.7 -152.7 40 0.990268 0.139173 0 -0.139173 0.990268 0 0 0 1 3022.dat
0 STEP
1 0 149.6 -160.7 40 0.990268 0.139173 0 -0.139173 0.990268 0 0 0 1 3022.dat
0 STEP
1 0 148.5 -168.6 40 0.990268 0.139173 0 -0.139173 0.990268 0 0 0 1 3022.dat
0 STEP
1 15 177.1 -180.7 50 0.990268 0.139173 0 -0.139173 0.990268 0 0 0 1 3024.dat
0 STEP
1 0 176 -188.6 50 0.990268 0.139173 0 -0.139173 0.990268 0 0 0 1 3024.dat
1 0 135.2 -191 40 0 0.139173 0.990268 0 0.990268 -0.139173 -1 0 0 3004.dat
1 0 145.2 -192.4 30 0 0.139173 0.990268 0 0.990268 -0.139173 -1 0 0 11477.dat
1 0 145.2 -192.4 50 0 0.139173 0.990268 0 0.990268 -0.139173 -1 0 0 11477.dat
1 0 155.1 -193.8 30 0.990268 0.139173 0 -0.139173 0.990268 0 0 0 1 87087.dat
1 0 155.1 -193.8 50 -0.990268 0.139173 0 0.139173 0.990268 0 0 0 -1 87087.dat
0 STEP
1 0 174.9 -196.5 50 0.990268 0.139173 0 -0.139173 0.990268 0 0 0 1 3024.dat
1 0 174.9 -196.5 30 0 0.139173 -0.990268 0 0.990268 0.139173 1 0 0 87087.dat
0 STEP
1 15 156.4 -183.8 12 1 0 0 0 0 -1 0 1 0 6141.dat
1 0 156.4 -183.8 4 1 0 0 0 0 -1 0 1 0 98138.dat
0 STEP
1 15 156.4 -183.8 68 1 0 0 0 0 1 0 -1 0 6141.dat
1 0 156.4 -183.8 76 1 0 0 0 0 1 0 -1 0 98138.dat
0 STEP
1 25 190.1 -188.6 30 0.139173 0.990268 0 0.990268 -0.139173 0 0 0 -1 30374.dat
1 25 194.1 -189.1 30 0.139173 -0.990268 0 0.990268 0.139173 0 0 0 1 3024.dat
1 25 194.1 -189.1 30 0.139173 -0.990268 0 0.990268 0.139173 0 0 0 1 85861.dat
0 STEP
