0 small cottage house
0 Name: small cottage house.ldr
0 Author: brickify

1 2 200 -8 140 1 0 0 0 1 0 0 0 1 3020.dat
1 2 170 -8 210 0 0 1 0 1 0 -1 0 0 3623.dat
1 2 210 -8 190 1 0 0 0 1 0 0 0 1 3623.dat
1 2 200 -8 170 1 0 0 0 1 0 0 0 1 3710.dat
1 2 210 -8 220 1 0 0 0 1 0 0 0 1 3021.dat
1 2 40 -8 80 1 0 0 0 1 0 0 0 1 3020.dat
1 2 10 -8 10 1 0 0 0 1 0 0 0 1 3024.dat
1 2 130 -8 210 1 0 0 0 1 0 0 0 1 3024.dat
1 2 10 -8 170 1 0 0 0 1 0 0 0 1 3024.dat
1 2 210 -8 30 1 0 0 0 1 0 0 0 1 3024.dat
1 2 110 -8 200 0 0 1 0 1 0 -1 0 0 3023.dat
1 2 120 -8 230 1 0 0 0 1 0 0 0 1 3023.dat
1 2 150 -8 220 0 0 1 0 1 0 -1 0 0 3023.dat
1 2 190 -8 40 0 0 1 0 1 0 -1 0 0 3023.dat
1 2 220 -8 50 1 0 0 0 1 0 0 0 1 3023.dat
1 2 90 -8 60 0 0 1 0 1 0 -1 0 0 3710.dat
1 2 130 -8 170 1 0 0 0 1 0 0 0 1 3623.dat
1 2 60 -8 170 1 0 0 0 1 0 0 0 1 3710.dat
1 2 230 -8 20 0 0 1 0 1 0 -1 0 0 3023.dat
1 2 30 -8 190 1 0 0 0 1 0 0 0 1 3623.dat
1 2 60 -8 10 1 0 0 0 1 0 0 0 1 3710.dat
1 2 140 -8 190 1 0 0 0 1 0 0 0 1 3023.dat
1 2 40 -8 110 1 0 0 0 1 0 0 0 1 3710.dat
1 2 160 -8 10 1 0 0 0 1 0 0 0 1 3666.dat
1 2 160 -8 110 1 0 0 0 1 0 0 0 1 3460.dat
1 2 140 -8 80 1 0 0 0 1 0 0 0 1 3020.dat
1 2 30 -8 220 1 0 0 0 1 0 0 0 1 3021.dat
1 2 210 -8 80 1 0 0 0 1 0 0 0 1 3021.dat
1 2 80 -8 210 0 0 1 0 1 0 -1 0 0 3021.dat
1 2 140 -8 40 1 0 0 0 1 0 0 0 1 3020.dat
1 2 80 -8 140 1 0 0 0 1 0 0 0 1 3034.dat
1 2 40 -8 40 1 0 0 0 1 0 0 0 1 3020.dat
1 4 30 -16 190 1 0 0 0 1 0 0 0 1 3024.dat
1 4 210 -16 200 0 0 1 0 1 0 -1 0 0 3023.dat
1 4 170 -16 50 1 0 0 0 1 0 0 0 1 3623.dat
1 4 210 -16 80 0 0 1 0 1 0 -1 0 0 3710.dat
1 4 210 -16 150 0 0 1 0 1 0 -1 0 0 3623.dat
1 15 120 -16 50 1 0 0 0 1 0 0 0 1 3023.dat
1 4 170 -16 210 1 0 0 0 1 0 0 0 1 3623.dat
1 4 60 -16 50 1 0 0 0 1 0 0 0 1 3710.dat
1 4 80 -16 210 1 0 0 0 1 0 0 0 1 3666.dat
1 4 30 -16 120 0 0 1 0 1 0 -1 0 0 3666.dat
1 71 120 -16 30 1 0 0 0 1 0 0 0 1 3069b.dat
1 4 30 -24 190 1 0 0 0 1 0 0 0 1 3024.dat
1 4 180 -24 210 1 0 0 0 1 0 0 0 1 3710.dat
1 4 210 -24 90 0 0 1 0 1 0 -1 0 0 3623.dat
1 4 60 -24 50 1 0 0 0 1 0 0 0 1 3710.dat
1 15 120 -24 50 1 0 0 0 1 0 0 0 1 3023.dat
1 4 210 -24 160 0 0 1 0 1 0 -1 0 0 3710.dat
1 4 180 -24 50 1 0 0 0 1 0 0 0 1 3710.dat
1 4 80 -24 210 1 0 0 0 1 0 0 0 1 3666.dat
1 4 30 -24 120 0 0 1 0 1 0 -1 0 0 3666.dat
1 4 50 -32 50 1 0 0 0 1 0 0 0 1 3024.dat
1 4 180 -32 50 1 0 0 0 1 0 0 0 1 3023.dat
1 4 210 -32 120 0 0 1 0 1 0 -1 0 0 3710.dat
1 4 30 -32 120 0 0 1 0 1 0 -1 0 0 3710.dat
1 288 30 -32 10 1 0 0 0 1 0 0 0 1 3062b.dat
1 288 50 -32 10 1 0 0 0 1 0 0 0 1 3062b.dat
1 288 30 -32 30 1 0 0 0 1 0 0 0 1 3062b.dat
1 288 50 -32 30 1 0 0 0 1 0 0 0 1 3062b.dat
1 288 190 -32 10 1 0 0 0 1 0 0 0 1 3062b.dat
1 288 210 -32 10 1 0 0 0 1 0 0 0 1 3062b.dat
1 288 190 -32 30 1 0 0 0 1 0 0 0 1 3062b.dat
1 288 210 -32 30 1 0 0 0 1 0 0 0 1 3062b.dat
1 15 50 -40 50 1 0 0 0 1 0 0 0 1 3024.dat
1 15 30 -40 120 0 0 1 0 1 0 -1 0 0 3710.dat
1 15 180 -40 50 1 0 0 0 1 0 0 0 1 3023.dat
1 15 210 -40 120 0 0 1 0 1 0 -1 0 0 3710.dat
1 4 50 -48 210 1 0 0 0 1 0 0 0 1 3005.dat
1 4 150 -48 50 1 0 0 0 1 0 0 0 1 3005.dat
1 15 30 -48 90 1 0 0 0 1 0 0 0 1 3024.dat
1 15 30 -48 150 1 0 0 0 1 0 0 0 1 3024.dat
1 0 50 -48 50 1 0 0 0 1 0 0 0 1 3024.dat
1 15 210 -48 90 1 0 0 0 1 0 0 0 1 3024.dat
1 15 210 -48 150 1 0 0 0 1 0 0 0 1 3024.dat
1 4 100 -48 210 1 0 0 0 1 0 0 0 1 3010.dat
1 0 30 -48 120 0 0 1 0 1 0 -1 0 0 3023.dat
1 4 210 -48 60 0 0 1 0 1 0 -1 0 0 3004.dat
1 0 210 -48 120 0 0 1 0 1 0 -1 0 0 3023.dat
1 15 120 -48 50 1 0 0 0 1 0 0 0 1 3004.dat
1 4 30 -48 60 0 0 1 0 1 0 -1 0 0 3004.dat
1 4 80 -48 50 1 0 0 0 1 0 0 0 1 3004.dat
1 4 210 -48 190 0 0 1 0 1 0 -1 0 0 3622.dat
1 4 30 -48 190 0 0 1 0 1 0 -1 0 0 3622.dat
1 0 180 -48 50 1 0 0 0 1 0 0 0 1 3023.dat
1 4 170 -48 210 1 0 0 0 1 0 0 0 1 3622.dat
1 288 30 -56 10 1 0 0 0 1 0 0 0 1 3062b.dat
1 288 50 -56 10 1 0 0 0 1 0 0 0 1 3062b.dat
1 288 30 -56 30 1 0 0 0 1 0 0 0 1 3062b.dat
1 288 50 -56 30 1 0 0 0 1 0 0 0 1 3062b.dat
1 288 190 -56 10 1 0 0 0 1 0 0 0 1 3062b.dat
1 288 210 -56 10 1 0 0 0 1 0 0 0 1 3062b.dat
1 288 190 -56 30 1 0 0 0 1 0 0 0 1 3062b.dat
1 288 210 -56 30 1 0 0 0 1 0 0 0 1 3062b.dat
1 15 30 -72 90 1 0 0 0 1 0 0 0 1 3005.dat
1 15 30 -72 150 1 0 0 0 1 0 0 0 1 3005.dat
1 0 50 -72 50 1 0 0 0 1 0 0 0 1 3005.dat
1 15 110 -72 50 1 0 0 0 1 0 0 0 1 3005.dat
1 4 150 -72 50 1 0 0 0 1 0 0 0 1 3005.dat
1 4 190 -72 210 1 0 0 0 1 0 0 0 1 3005.dat
1 15 210 -72 90 1 0 0 0 1 0 0 0 1 3005.dat
1 15 210 -72 150 1 0 0 0 1 0 0 0 1 3005.dat
1 4 210 -72 60 0 0 1 0 1 0 -1 0 0 3004.dat
1 0 180 -72 50 1 0 0 0 1 0 0 0 1 3004.dat
1 4 30 -72 60 0 0 1 0 1 0 -1 0 0 3004.dat
1 0 30 -72 120 0 0 1 0 1 0 -1 0 0 3004.dat
1 4 210 -72 190 0 0 1 0 1 0 -1 0 0 3622.dat
1 0 210 -72 120 0 0 1 0 1 0 -1 0 0 3004.dat
1 4 30 -72 180 0 0 1 0 1 0 -1 0 0 3004.dat
1 4 80 -72 50 1 0 0 0 1 0 0 0 1 3004.dat
1 4 100 -72 210 1 0 0 0 1 0 0 0 1 3008.dat
1 15 130 -72 50 1 0 0 0 1 0 0 0 1 87087.dat
1 0 50 -80 50 1 0 0 0 1 0 0 0 1 3024.dat
1 0 120 -80 50 1 0 0 0 1 0 0 0 1 3023.dat
1 0 30 -80 120 0 0 1 0 1 0 -1 0 0 3023.dat
1 0 210 -80 120 0 0 1 0 1 0 -1 0 0 3023.dat
1 0 180 -80 50 1 0 0 0 1 0 0 0 1 3023.dat
1 0 50 -88 50 1 0 0 0 1 0 0 0 1 3024.dat
1 0 210 -88 120 0 0 1 0 1 0 -1 0 0 3023.dat
1 0 120 -88 50 1 0 0 0 1 0 0 0 1 3023.dat
1 0 30 -88 120 0 0 1 0 1 0 -1 0 0 3023.dat
1 0 180 -88 50 1 0 0 0 1 0 0 0 1 3023.dat
1 15 30 -96 90 1 0 0 0 1 0 0 0 1 3005.dat
1 15 30 -96 150 1 0 0 0 1 0 0 0 1 3005.dat
1 4 110 -96 210 1 0 0 0 1 0 0 0 1 3005.dat
1 4 150 -96 50 1 0 0 0 1 0 0 0 1 3005.dat
1 15 210 -96 90 1 0 0 0 1 0 0 0 1 3005.dat
1 15 210 -96 150 1 0 0 0 1 0 0 0 1 3005.dat
1 15 50 -96 50 1 0 0 0 1 0 0 0 1 3024.dat
1 15 120 -96 50 1 0 0 0 1 0 0 0 1 3023.dat
1 4 210 -96 60 0 0 1 0 1 0 -1 0 0 3004.dat
1 4 30 -96 60 0 0 1 0 1 0 -1 0 0 3004.dat
1 4 80 -96 50 1 0 0 0 1 0 0 0 1 3004.dat
1 15 210 -96 120 0 0 1 0 1 0 -1 0 0 3023.dat
1 4 160 -96 210 1 0 0 0 1 0 0 0 1 3010.dat
1 4 60 -96 210 1 0 0 0 1 0 0 0 1 3010.dat
1 4 30 -96 180 0 0 1 0 1 0 -1 0 0 3004.dat
1 15 30 -96 120 0 0 1 0 1 0 -1 0 0 3023.dat
1 15 180 -96 50 1 0 0 0 1 0 0 0 1 3023.dat
1 4 210 -96 190 0 0 1 0 1 0 -1 0 0 3622.dat
1 15 120 -104 50 1 0 0 0 1 0 0 0 1 3023.dat
1 15 120 -112 50 1 0 0 0 1 0 0 0 1 3023.dat
1 4 210 -120 190 1 0 0 0 1 0 0 0 1 3005.dat
1 4 40 -120 210 1 0 0 0 1 0 0 0 1 3004.dat
1 4 120 -120 50 1 0 0 0 1 0 0 0 1 3023.dat
1 4 70 -120 50 1 0 0 0 1 0 0 0 1 3622.dat
1 4 180 -120 50 1 0 0 0 1 0 0 0 1 3010.dat
1 4 30 -120 120 0 0 1 0 1 0 -1 0 0 3008.dat
1 4 210 -120 120 0 0 1 0 1 0 -1 0 0 3009.dat
1 4 140 -120 210 1 0 0 0 1 0 0 0 1 3008.dat
1 4 200 -144 210 1 0 0 0 1 0 0 0 1 3004.dat
1 4 130 -144 50 1 0 0 0 1 0 0 0 1 3622.dat
1 4 150 -144 210 1 0 0 0 1 0 0 0 1 3622.dat
1 4 80 -144 210 1 0 0 0 1 0 0 0 1 3010.dat
1 4 180 -144 50 1 0 0 0 1 0 0 0 1 3004.dat
1 4 60 -144 50 1 0 0 0 1 0 0 0 1 3010.dat
1 4 30 -144 140 0 0 1 0 1 0 -1 0 0 3008.dat
1 4 210 -144 120 0 0 1 0 1 0 -1 0 0 3008.dat
1 4 210 -152 70 0 0 1 0 1 0 -1 0 0 3623.dat
1 4 30 -152 200 0 0 1 0 1 0 -1 0 0 3023.dat
1 4 30 -152 80 0 0 1 0 1 0 -1 0 0 3710.dat
1 4 210 -152 160 0 0 1 0 1 0 -1 0 0 3666.dat
1 4 30 -152 150 0 0 1 0 1 0 -1 0 0 3623.dat
1 272 10 -160 30 1 0 0 0 1 0 0 0 1 3024.dat
1 272 10 -160 150 1 0 0 0 1 0 0 0 1 3024.dat
1 272 30 -160 110 1 0 0 0 1 0 0 0 1 3024.dat
1 272 210 -160 110 1 0 0 0 1 0 0 0 1 3024.dat
1 272 230 -160 230 1 0 0 0 1 0 0 0 1 3024.dat
1 272 20 -160 130 1 0 0 0 1 0 0 0 1 3023.dat
1 272 30 -160 170 0 0 1 0 1 0 -1 0 0 3623.dat
1 272 30 -160 220 0 0 1 0 1 0 -1 0 0 3023.dat
1 272 10 -160 80 0 0 1 0 1 0 -1 0 0 3710.dat
1 272 30 -160 60 0 0 1 0 1 0 -1 0 0 3710.dat
1 272 10 -160 200 0 0 1 0 1 0 -1 0 0 3710.dat
1 272 210 -160 180 0 0 1 0 1 0 -1 0 0 3666.dat
1 272 230 -160 160 0 0 1 0 1 0 -1 0 0 3666.dat
1 272 220 -160 60 0 0 1 0 1 0 -1 0 0 3020.dat
1 272 20 -168 170 0 0 1 0 1 0 -1 0 0 3021.dat
1 272 20 -168 220 1 0 0 0 1 0 0 0 1 3022.dat
1 4 120 -168 50 1 0 0 0 1 0 0 0 1 3008.dat
1 4 120 -168 210 1 0 0 0 1 0 0 0 1 3008.dat
1 272 220 -168 50 0 0 1 0 1 0 -1 0 0 3021.dat
1 272 20 -168 80 0 0 1 0 1 0 -1 0 0 3795.dat
1 272 220 -168 160 0 0 1 0 1 0 -1 0 0 3034.dat
1 4 50 -176 50 1 0 0 0 1 0 0 0 1 3024.dat
1 4 50 -176 210 1 0 0 0 1 0 0 0 1 3024.dat
1 4 190 -176 50 1 0 0 0 1 0 0 0 1 3024.dat
1 4 190 -176 210 1 0 0 0 1 0 0 0 1 3024.dat
1 272 10 -176 50 0 0 1 0 1 0 -1 0 0 3623.dat
1 272 230 -176 210 0 0 1 0 1 0 -1 0 0 3623.dat
1 272 230 -176 100 0 0 1 0 1 0 -1 0 0 3460.dat
1 272 10 -176 160 0 0 1 0 1 0 -1 0 0 3460.dat
1 272 50 -184 30 1 0 0 0 1 0 0 0 1 3024.dat
1 272 50 -184 100 0 0 1 0 1 0 -1 0 0 3666.dat
1 272 190 -184 50 0 0 1 0 1 0 -1 0 0 3623.dat
1 272 50 -184 200 0 0 1 0 1 0 -1 0 0 3710.dat
1 272 190 -184 160 0 0 1 0 1 0 -1 0 0 3460.dat
1 272 10 -184 60 0 0 1 0 1 0 -1 0 0 2431.dat
1 272 10 -184 140 0 0 1 0 1 0 -1 0 0 2431.dat
1 272 10 -184 200 0 0 1 0 1 0 -1 0 0 3069b.dat
1 272 10 -184 230 0 0 1 0 1 0 -1 0 0 3070b.dat
1 272 230 -184 60 0 0 1 0 1 0 -1 0 0 2431.dat
1 272 230 -184 140 0 0 1 0 1 0 -1 0 0 2431.dat
1 272 230 -184 200 0 0 1 0 1 0 -1 0 0 3069b.dat
1 272 230 -184 230 0 0 1 0 1 0 -1 0 0 3070b.dat
1 272 30 -192 110 1 0 0 0 1 0 0 0 1 3005.dat
1 4 70 -192 210 1 0 0 0 1 0 0 0 1 3005.dat
1 4 170 -192 210 1 0 0 0 1 0 0 0 1 3005.dat
1 272 190 -192 30 1 0 0 0 1 0 0 0 1 3024.dat
1 272 190 -192 220 0 0 1 0 1 0 -1 0 0 3023.dat
1 272 50 -192 200 0 0 1 0 1 0 -1 0 0 3710.dat
1 272 210 -192 210 0 0 1 0 1 0 -1 0 0 3622.dat
1 272 50 -192 130 0 0 1 0 1 0 -1 0 0 3623.dat
1 4 120 -192 210 1 0 0 0 1 0 0 0 1 3010.dat
1 272 30 -192 60 0 0 1 0 1 0 -1 0 0 3010.dat
1 272 190 -192 120 0 0 1 0 1 0 -1 0 0 3460.dat
1 4 120 -192 50 1 0 0 0 1 0 0 0 1 3009.dat
1 272 30 -192 180 0 0 1 0 1 0 -1 0 0 3009.dat
1 272 210 -192 100 0 0 1 0 1 0 -1 0 0 3008.dat
1 272 50 -192 60 0 0 1 0 1 0 -1 0 0 3710.dat
1 272 30 -200 230 1 0 0 0 1 0 0 0 1 3024.dat
1 4 70 -200 50 1 0 0 0 1 0 0 0 1 3024.dat
1 4 70 -200 210 1 0 0 0 1 0 0 0 1 3024.dat
1 4 170 -200 50 1 0 0 0 1 0 0 0 1 3024.dat
1 4 170 -200 210 1 0 0 0 1 0 0 0 1 3024.dat
1 272 210 -200 30 1 0 0 0 1 0 0 0 1 3024.dat
1 272 190 -200 180 0 0 1 0 1 0 -1 0 0 3023.dat
1 272 210 -200 80 0 0 1 0 1 0 -1 0 0 3710.dat
1 272 30 -200 40 0 0 1 0 1 0 -1 0 0 3023.dat
1 272 210 -200 180 0 0 1 0 1 0 -1 0 0 3666.dat
1 272 30 -200 140 0 0 1 0 1 0 -1 0 0 3460.dat
1 272 170 -208 130 0 0 1 0 1 0 -1 0 0 3623.dat
1 272 170 -208 200 0 0 1 0 1 0 -1 0 0 3710.dat
1 272 170 -208 60 0 0 1 0 1 0 -1 0 0 3710.dat
1 272 70 -208 210 0 0 1 0 1 0 -1 0 0 3623.dat
1 4 200 -208 180 1 0 0 0 1 0 0 0 1 3022.dat
1 272 70 -208 100 0 0 1 0 1 0 -1 0 0 3460.dat
1 272 30 -208 60 0 0 1 0 1 0 -1 0 0 2431.dat
1 272 30 -208 140 0 0 1 0 1 0 -1 0 0 2431.dat
1 272 30 -208 200 0 0 1 0 1 0 -1 0 0 3069b.dat
1 272 30 -208 230 0 0 1 0 1 0 -1 0 0 3070b.dat
1 272 210 -208 60 0 0 1 0 1 0 -1 0 0 2431.dat
1 272 210 -208 120 0 0 1 0 1 0 -1 0 0 3069b.dat
1 272 210 -208 150 0 0 1 0 1 0 -1 0 0 3070b.dat
1 272 210 -208 220 0 0 1 0 1 0 -1 0 0 3069b.dat
1 272 50 -216 230 1 0 0 0 1 0 0 0 1 3005.dat
1 272 190 -216 220 0 0 1 0 1 0 -1 0 0 3004.dat
1 272 190 -216 60 0 0 1 0 1 0 -1 0 0 3010.dat
1 272 190 -216 130 0 0 1 0 1 0 -1 0 0 3622.dat
1 272 70 -216 170 0 0 1 0 1 0 -1 0 0 3623.dat
1 272 50 -216 60 0 0 1 0 1 0 -1 0 0 3010.dat
1 272 50 -216 160 0 0 1 0 1 0 -1 0 0 3009.dat
1 272 70 -216 220 0 0 1 0 1 0 -1 0 0 3023.dat
1 272 170 -216 50 0 0 1 0 1 0 -1 0 0 3623.dat
1 4 120 -216 210 1 0 0 0 1 0 0 0 1 3010.dat
1 4 120 -216 50 1 0 0 0 1 0 0 0 1 3010.dat
1 272 70 -216 80 0 0 1 0 1 0 -1 0 0 3666.dat
1 4 200 -216 180 1 0 0 0 1 0 0 0 1 3022.dat
1 272 170 -216 160 0 0 1 0 1 0 -1 0 0 3460.dat
1 4 90 -224 50 1 0 0 0 1 0 0 0 1 3024.dat
1 4 90 -224 210 1 0 0 0 1 0 0 0 1 3024.dat
1 4 150 -224 50 1 0 0 0 1 0 0 0 1 3024.dat
1 4 150 -224 210 1 0 0 0 1 0 0 0 1 3024.dat
1 272 190 -224 220 0 0 1 0 1 0 -1 0 0 3023.dat
1 272 190 -224 60 0 0 1 0 1 0 -1 0 0 3710.dat
1 272 190 -224 130 0 0 1 0 1 0 -1 0 0 3623.dat
1 272 50 -224 50 0 0 1 0 1 0 -1 0 0 3623.dat
1 272 50 -224 160 0 0 1 0 1 0 -1 0 0 3460.dat
1 272 150 -232 110 1 0 0 0 1 0 0 0 1 3024.dat
1 272 90 -232 210 0 0 1 0 1 0 -1 0 0 3623.dat
1 272 150 -232 60 0 0 1 0 1 0 -1 0 0 3710.dat
1 272 150 -232 180 0 0 1 0 1 0 -1 0 0 3666.dat
1 272 90 -232 100 0 0 1 0 1 0 -1 0 0 3460.dat
1 272 50 -232 60 0 0 1 0 1 0 -1 0 0 2431.dat
1 272 50 -232 140 0 0 1 0 1 0 -1 0 0 2431.dat
1 272 50 -232 200 0 0 1 0 1 0 -1 0 0 3069b.dat
1 272 50 -232 230 0 0 1 0 1 0 -1 0 0 3070b.dat
1 272 190 -232 60 0 0 1 0 1 0 -1 0 0 2431.dat
1 272 190 -232 120 0 0 1 0 1 0 -1 0 0 3069b.dat
1 272 190 -232 150 0 0 1 0 1 0 -1 0 0 3070b.dat
1 272 190 -232 220 0 0 1 0 1 0 -1 0 0 3069b.dat
1 272 170 -240 30 1 0 0 0 1 0 0 0 1 3005.dat
1 272 170 -240 130 1 0 0 0 1 0 0 0 1 3005.dat
1 272 170 -240 230 1 0 0 0 1 0 0 0 1 3005.dat
1 272 150 -240 150 1 0 0 0 1 0 0 0 1 3024.dat
1 272 70 -240 220 0 0 1 0 1 0 -1 0 0 3004.dat
1 4 120 -240 50 1 0 0 0 1 0 0 0 1 3004.dat
1 4 120 -240 210 1 0 0 0 1 0 0 0 1 3004.dat
1 272 70 -240 170 0 0 1 0 1 0 -1 0 0 3622.dat
1 272 170 -240 180 0 0 1 0 1 0 -1 0 0 3010.dat
1 272 90 -240 60 0 0 1 0 1 0 -1 0 0 3710.dat
1 272 170 -240 80 0 0 1 0 1 0 -1 0 0 3010.dat
1 272 150 -240 200 0 0 1 0 1 0 -1 0 0 3710.dat
1 272 90 -240 200 0 0 1 0 1 0 -1 0 0 3710.dat
1 272 90 -240 130 0 0 1 0 1 0 -1 0 0 3623.dat
1 272 150 -240 80 0 0 1 0 1 0 -1 0 0 3666.dat
1 4 200 -240 180 1 0 0 0 1 0 0 0 1 3003.dat
1 272 70 -240 80 0 0 1 0 1 0 -1 0 0 3009.dat
1 4 120 -248 210 1 0 0 0 1 0 0 0 1 3023.dat
1 4 120 -248 50 1 0 0 0 1 0 0 0 1 3023.dat
1 272 70 -248 200 0 0 1 0 1 0 -1 0 0 3710.dat
1 272 70 -248 130 0 0 1 0 1 0 -1 0 0 3623.dat
1 272 170 -248 50 0 0 1 0 1 0 -1 0 0 3623.dat
1 272 170 -248 160 0 0 1 0 1 0 -1 0 0 3460.dat
1 272 70 -248 60 0 0 1 0 1 0 -1 0 0 3710.dat
1 272 110 -256 90 0 0 1 0 1 0 -1 0 0 3623.dat
1 272 130 -256 210 0 0 1 0 1 0 -1 0 0 3623.dat
1 272 110 -256 40 0 0 1 0 1 0 -1 0 0 3023.dat
1 272 110 -256 180 0 0 1 0 1 0 -1 0 0 3666.dat
1 272 130 -256 100 0 0 1 0 1 0 -1 0 0 3460.dat
1 272 70 -256 60 0 0 1 0 1 0 -1 0 0 2431.dat
1 272 70 -256 140 0 0 1 0 1 0 -1 0 0 2431.dat
1 272 70 -256 200 0 0 1 0 1 0 -1 0 0 3069b.dat
1 272 70 -256 230 0 0 1 0 1 0 -1 0 0 3070b.dat
1 272 170 -256 60 0 0 1 0 1 0 -1 0 0 2431.dat
1 272 170 -256 140 0 0 1 0 1 0 -1 0 0 2431.dat
1 272 170 -256 200 0 0 1 0 1 0 -1 0 0 3069b.dat
1 272 170 -256 230 0 0 1 0 1 0 -1 0 0 3070b.dat
1 272 90 -264 210 0 0 1 0 1 0 -1 0 0 3622.dat
1 272 150 -264 50 0 0 1 0 1 0 -1 0 0 3622.dat
1 4 200 -264 180 1 0 0 0 1 0 0 0 1 3003.dat
1 272 150 -264 160 0 0 1 0 1 0 -1 0 0 3008.dat
1 272 90 -264 100 0 0 1 0 1 0 -1 0 0 3008.dat
1 272 120 -264 50 0 0 1 0 1 0 -1 0 0 3021.dat
1 272 120 -264 160 0 0 1 0 1 0 -1 0 0 3034.dat
1 272 90 -272 230 1 0 0 0 1 0 0 0 1 3024.dat
1 272 150 -272 200 0 0 1 0 1 0 -1 0 0 3710.dat
1 272 150 -272 130 0 0 1 0 1 0 -1 0 0 3623.dat
1 272 90 -272 60 0 0 1 0 1 0 -1 0 0 3710.dat
1 272 150 -272 60 0 0 1 0 1 0 -1 0 0 3710.dat
1 272 90 -272 160 0 0 1 0 1 0 -1 0 0 3666.dat
1 272 90 -280 60 0 0 1 0 1 0 -1 0 0 2431.dat
1 272 90 -280 140 0 0 1 0 1 0 -1 0 0 2431.dat
1 272 90 -280 200 0 0 1 0 1 0 -1 0 0 3069b.dat
1 272 90 -280 230 0 0 1 0 1 0 -1 0 0 3070b.dat
1 272 150 -280 60 0 0 1 0 1 0 -1 0 0 2431.dat
1 272 150 -280 140 0 0 1 0 1 0 -1 0 0 2431.dat
1 272 150 -280 200 0 0 1 0 1 0 -1 0 0 3069b.dat
1 272 150 -280 230 0 0 1 0 1 0 -1 0 0 3070b.dat
1 272 110 -288 230 1 0 0 0 1 0 0 0 1 3005.dat
1 272 130 -288 220 0 0 1 0 1 0 -1 0 0 3004.dat
1 272 110 -288 60 0 0 1 0 1 0 -1 0 0 3010.dat
1 272 130 -288 170 0 0 1 0 1 0 -1 0 0 3622.dat
1 272 110 -288 160 0 0 1 0 1 0 -1 0 0 3009.dat
1 272 130 -288 80 0 0 1 0 1 0 -1 0 0 3009.dat
1 4 200 -288 180 1 0 0 0 1 0 0 0 1 3003.dat
1 272 120 -296 160 0 0 1 0 1 0 -1 0 0 3034.dat
1 272 120 -296 50 0 0 1 0 1 0 -1 0 0 3021.dat
1 4 200 -312 180 1 0 0 0 1 0 0 0 1 3003.dat
1 4 200 -320 180 1 0 0 0 1 0 0 0 1 3022.dat
1 71 200 -328 180 1 0 0 0 1 0 0 0 1 3022.dat
0 STEP
1 14 130 -62 32 1 0 0 0 0 -1 0 1 0 98138.dat
0 STEP
