0 standing penguin
0 Name: standing penguin.ldr
0 Author: brickify

1 0 60 -8 90 1 0 0 0 1 0 0 0 1 3023.dat
1 0 60 -8 10 1 0 0 0 1 0 0 0 1 3023.dat
1 25 30 -8 30 1 0 0 0 1 0 0 0 1 3623.dat
1 25 30 -8 70 1 0 0 0 1 0 0 0 1 3623.dat
1 15 40 -8 50 1 0 0 0 1 0 0 0 1 3023.dat
1 0 80 -8 50 0 0 1 0 1 0 -1 0 0 3021.dat
0 STEP
1 15 50 -16 50 1 0 0 0 1 0 0 0 1 3024.dat
1 0 50 -16 20 0 0 1 0 1 0 -1 0 0 3023.dat
1 15 30 -16 50 0 0 1 0 1 0 -1 0 0 3623.dat
1 0 70 -16 30 0 0 1 0 1 0 -1 0 0 3623.dat
1 0 90 -16 50 0 0 1 0 1 0 -1 0 0 3623.dat
1 0 60 -16 80 1 0 0 0 1 0 0 0 1 3022.dat
0 STEP
1 15 30 -24 90 1 0 0 0 1 0 0 0 1 3024.dat
1 15 40 -24 70 1 0 0 0 1 0 0 0 1 3023.dat
1 15 50 -24 40 0 0 1 0 1 0 -1 0 0 3023.dat
1 0 70 -24 10 1 0 0 0 1 0 0 0 1 3623.dat
1 15 30 -24 30 0 0 1 0 1 0 -1 0 0 3623.dat
1 0 70 -24 90 1 0 0 0 1 0 0 0 1 3623.dat
1 0 80 -24 50 0 0 1 0 1 0 -1 0 0 3021.dat
0 STEP
1 0 50 -32 10 1 0 0 0 1 0 0 0 1 3024.dat
1 0 90 -32 10 1 0 0 0 1 0 0 0 1 3024.dat
1 15 30 -32 10 1 0 0 0 1 0 0 0 1 3024.dat
1 0 90 -32 60 0 0 1 0 1 0 -1 0 0 3710.dat
1 0 60 -32 90 1 0 0 0 1 0 0 0 1 3023.dat
1 15 30 -32 60 0 0 1 0 1 0 -1 0 0 3710.dat
1 15 50 -32 50 0 0 1 0 1 0 -1 0 0 3623.dat
1 0 70 -32 40 0 0 1 0 1 0 -1 0 0 3710.dat
0 STEP
1 0 50 -40 10 1 0 0 0 1 0 0 0 1 3024.dat
1 0 50 -40 90 1 0 0 0 1 0 0 0 1 3024.dat
1 15 30 -40 10 1 0 0 0 1 0 0 0 1 3024.dat
1 15 30 -40 90 1 0 0 0 1 0 0 0 1 3024.dat
1 0 80 -40 80 1 0 0 0 1 0 0 0 1 3022.dat
1 0 80 -40 30 0 0 1 0 1 0 -1 0 0 3021.dat
1 15 40 -40 50 0 0 1 0 1 0 -1 0 0 3021.dat
0 STEP
1 0 50 -48 10 1 0 0 0 1 0 0 0 1 3024.dat
1 0 50 -48 90 1 0 0 0 1 0 0 0 1 3024.dat
1 0 70 -48 80 0 0 1 0 1 0 -1 0 0 3023.dat
1 0 90 -48 20 0 0 1 0 1 0 -1 0 0 3023.dat
1 15 50 -48 50 0 0 1 0 1 0 -1 0 0 3623.dat
1 15 30 -48 70 0 0 1 0 1 0 -1 0 0 3623.dat
1 0 90 -48 70 0 0 1 0 1 0 -1 0 0 3623.dat
1 0 70 -48 30 0 0 1 0 1 0 -1 0 0 3623.dat
1 15 30 -48 20 0 0 1 0 1 0 -1 0 0 3023.dat
0 STEP
1 15 30 -56 10 1 0 0 0 1 0 0 0 1 3024.dat
1 15 30 -56 90 1 0 0 0 1 0 0 0 1 3024.dat
1 0 70 -56 10 1 0 0 0 1 0 0 0 1 3623.dat
1 0 70 -56 90 1 0 0 0 1 0 0 0 1 3623.dat
1 15 40 -56 50 0 0 1 0 1 0 -1 0 0 3021.dat
1 0 80 -56 50 0 0 1 0 1 0 -1 0 0 3021.dat
0 STEP
1 0 50 -64 90 1 0 0 0 1 0 0 0 1 3024.dat
1 0 90 -64 90 1 0 0 0 1 0 0 0 1 3024.dat
1 15 30 -64 20 0 0 1 0 1 0 -1 0 0 3023.dat
1 15 30 -64 70 0 0 1 0 1 0 -1 0 0 3623.dat
1 0 90 -64 40 0 0 1 0 1 0 -1 0 0 3710.dat
1 0 70 -64 60 0 0 1 0 1 0 -1 0 0 3710.dat
1 0 60 -64 10 1 0 0 0 1 0 0 0 1 3023.dat
1 15 50 -64 50 0 0 1 0 1 0 -1 0 0 3623.dat
0 STEP
1 15 30 -72 90 1 0 0 0 1 0 0 0 1 3024.dat
1 0 70 -72 90 1 0 0 0 1 0 0 0 1 3623.dat
1 15 30 -72 40 0 0 1 0 1 0 -1 0 0 3710.dat
1 15 50 -72 50 0 0 1 0 1 0 -1 0 0 3623.dat
1 0 70 -72 10 1 0 0 0 1 0 0 0 1 3623.dat
1 0 80 -72 50 0 0 1 0 1 0 -1 0 0 3021.dat
0 STEP
1 15 30 -80 90 1 0 0 0 1 0 0 0 1 3024.dat
1 0 70 -80 50 0 0 1 0 1 0 -1 0 0 3623.dat
1 0 90 -80 80 0 0 1 0 1 0 -1 0 0 3023.dat
1 15 30 -80 40 0 0 1 0 1 0 -1 0 0 3710.dat
1 15 50 -80 50 0 0 1 0 1 0 -1 0 0 3623.dat
1 0 90 -80 30 0 0 1 0 1 0 -1 0 0 3623.dat
0 STEP
1 0 70 -88 70 1 0 0 0 1 0 0 0 1 3024.dat
1 0 90 -88 10 1 0 0 0 1 0 0 0 1 3024.dat
1 0 90 -88 80 0 0 1 0 1 0 -1 0 0 3023.dat
1 15 30 -88 70 0 0 1 0 1 0 -1 0 0 3623.dat
1 15 30 -88 20 0 0 1 0 1 0 -1 0 0 3023.dat
1 0 80 -88 40 1 0 0 0 1 0 0 0 1 3022.dat
1 15 50 -88 50 0 0 1 0 1 0 -1 0 0 3623.dat
0 STEP
1 0 90 -96 90 1 0 0 0 1 0 0 0 1 3024.dat
1 15 50 -96 50 0 0 1 0 1 0 -1 0 0 3623.dat
1 15 30 -96 20 0 0 1 0 1 0 -1 0 0 3023.dat
1 15 30 -96 70 0 0 1 0 1 0 -1 0 0 3623.dat
1 0 70 -96 50 0 0 1 0 1 0 -1 0 0 3623.dat
1 0 90 -96 40 0 0 1 0 1 0 -1 0 0 3710.dat
1 0 60 -96 10 1 0 0 0 1 0 0 0 1 3937.dat
1 0 60 -96 90 1 0 0 0 1 0 0 0 1 3937.dat
0 STEP
1 15 30 -104 10 1 0 0 0 1 0 0 0 1 3024.dat
1 15 50 -104 70 1 0 0 0 1 0 0 0 1 3024.dat
1 0 70 -104 70 1 0 0 0 1 0 0 0 1 3024.dat
1 0 80 -104 30 1 0 0 0 1 0 0 0 1 3023.dat
1 0 90 -104 60 0 0 1 0 1 0 -1 0 0 3023.dat
1 0 70 -104 10 1 0 0 0 1 0 0 0 1 3623.dat
1 0 70 -104 90 1 0 0 0 1 0 0 0 1 3623.dat
1 15 30 -104 70 0 0 1 0 1 0 -1 0 0 3623.dat
1 15 40 -104 30 1 0 0 0 1 0 0 0 1 3023.dat
0 STEP
1 0 60 -112 80 1 0 0 0 1 0 0 0 1 3022.dat
1 0 90 -112 50 0 0 1 0 1 0 -1 0 0 3623.dat
1 15 30 -112 50 0 0 1 0 1 0 -1 0 0 3623.dat
1 0 60 -112 20 1 0 0 0 1 0 0 0 1 3022.dat
0 STEP
1 0 60 -120 90 1 0 0 0 1 0 0 0 1 3023.dat
1 0 60 -120 70 1 0 0 0 1 0 0 0 1 3710.dat
1 0 60 -120 20 1 0 0 0 1 0 0 0 1 3022.dat
1 0 30 -120 40 0 0 1 0 1 0 -1 0 0 3023.dat
1 0 90 -120 40 0 0 1 0 1 0 -1 0 0 3023.dat
1 0 60 -120 50 1 0 0 0 1 0 0 0 1 3937.dat
0 STEP
1 0 60 -120 50 1 0 0 0 1 0 0 0 1 3938.dat
0 STEP
1 0 60 -128 70 1 0 0 0 1 0 0 0 1 3710.dat
1 0 60 -128 10 1 0 0 0 1 0 0 0 1 3023.dat
1 0 50 -128 40 1 0 0 0 1 0 0 0 1 3021.dat
0 STEP
1 0 90 -136 10 1 0 0 0 1 0 0 0 1 3024.dat
1 0 30 -136 20 0 0 1 0 1 0 -1 0 0 3023.dat
1 0 30 -136 80 0 0 1 0 1 0 -1 0 0 3023.dat
1 0 90 -136 80 0 0 1 0 1 0 -1 0 0 3023.dat
1 0 60 -136 40 0 0 1 0 1 0 -1 0 0 3020.dat
0 STEP
1 0 30 -144 90 1 0 0 0 1 0 0 0 1 3024.dat
1 0 90 -144 90 1 0 0 0 1 0 0 0 1 3024.dat
1 0 90 -144 40 0 0 1 0 1 0 -1 0 0 3004.dat
1 0 60 -144 90 1 0 0 0 1 0 0 0 1 3004.dat
1 0 50 -144 30 1 0 0 0 1 0 0 0 1 3623.dat
1 0 60 -144 50 1 0 0 0 1 0 0 0 1 3023.dat
1 0 60 -144 70 1 0 0 0 1 0 0 0 1 3710.dat
1 0 60 -144 10 1 0 0 0 1 0 0 0 1 3710.dat
0 STEP
1 0 30 -152 70 1 0 0 0 1 0 0 0 1 3024.dat
1 0 30 -152 20 0 0 1 0 1 0 -1 0 0 3023.dat
1 0 60 -152 80 1 0 0 0 1 0 0 0 1 3022.dat
1 0 60 -152 30 0 0 1 0 1 0 -1 0 0 3021.dat
1 0 30 -152 50 0 0 1 0 1 0 -1 0 0 87087.dat
0 STEP
1 0 50 -160 10 1 0 0 0 1 0 0 0 1 3623.dat
1 0 50 -160 50 1 0 0 0 1 0 0 0 1 3623.dat
1 0 60 -160 30 1 0 0 0 1 0 0 0 1 3023.dat
1 0 60 -160 80 1 0 0 0 1 0 0 0 1 3022.dat
0 STEP
1 0 30 -168 90 1 0 0 0 1 0 0 0 1 3005.dat
1 0 90 -168 20 0 0 1 0 1 0 -1 0 0 3004.dat
1 0 90 -168 70 0 0 1 0 1 0 -1 0 0 3622.dat
1 0 30 -168 10 1 0 0 0 1 0 0 0 1 3024.dat
1 0 70 -168 90 1 0 0 0 1 0 0 0 1 3024.dat
1 0 50 -168 80 0 0 1 0 1 0 -1 0 0 3023.dat
1 0 70 -168 40 0 0 1 0 1 0 -1 0 0 3710.dat
1 0 40 -168 50 1 0 0 0 1 0 0 0 1 3023.dat
1 0 50 -168 20 0 0 1 0 1 0 -1 0 0 3023.dat
0 STEP
1 0 90 -176 20 0 0 1 0 1 0 -1 0 0 3023.dat
1 0 90 -176 70 0 0 1 0 1 0 -1 0 0 3623.dat
1 0 50 -176 10 1 0 0 0 1 0 0 0 1 3623.dat
1 0 60 -176 30 1 0 0 0 1 0 0 0 1 3023.dat
1 0 50 -176 90 1 0 0 0 1 0 0 0 1 3623.dat
1 0 60 -176 70 1 0 0 0 1 0 0 0 1 3023.dat
1 0 50 -176 50 1 0 0 0 1 0 0 0 1 3623.dat
1 0 30 -176 30 0 0 1 0 1 0 -1 0 0 87087.dat
1 0 30 -176 70 0 0 1 0 1 0 -1 0 0 87087.dat
0 STEP
1 0 90 -184 50 0 0 1 0 1 0 -1 0 0 3623.dat
1 0 30 -184 50 0 0 1 0 1 0 -1 0 0 3623.dat
1 0 50 -184 20 0 0 1 0 1 0 -1 0 0 3023.dat
1 0 50 -184 70 0 0 1 0 1 0 -1 0 0 3623.dat
1 0 70 -184 80 0 0 1 0 1 0 -1 0 0 3023.dat
1 0 70 -184 30 0 0 1 0 1 0 -1 0 0 3623.dat
1 0 30 -184 40 1 0 0 0 1 0 0 0 1 11477.dat
1 0 90 -184 40 1 0 0 0 1 0 0 0 1 11477.dat
0 STEP
1 0 60 -192 50 0 0 1 0 1 0 -1 0 0 3021.dat
1 0 50 -192 40 1 0 0 0 1 0 0 0 1 11477.dat
1 0 70 -192 40 1 0 0 0 1 0 0 0 1 11477.dat
0 STEP
1 15 12 -166 30 0 1 0 -1 0 0 0 0 1 6141.dat
1 0 4 -166 30 0 1 0 -1 0 0 0 0 1 98138.dat
0 STEP
1 15 12 -166 70 0 1 0 -1 0 0 0 0 1 6141.dat
1 0 4 -166 70 0 1 0 -1 0 0 0 0 1 98138.dat
0 STEP
1 0 70 -11.49 -24.24 1 0 0 0 0.207912 -0.978148 0 0.978148 0.207912 3024.dat
0 STEP
1 0 70 -22.94 -29.99 0 0 1 0.978148 0.207912 0 -0.207912 0.978148 0 3023.dat
0 STEP
1 0 60 -60.4 -13.84 0 0 1 0.978148 0.207912 0 -0.207912 0.978148 0 3020.dat
1 0 50 -62.06 -21.67 0 0 1 0.978148 0.207912 0 -0.207912 0.978148 0 3710.dat
0 STEP
1 0 70 -71.84 -19.59 0 0 1 0.978148 0.207912 0 -0.207912 0.978148 0 3623.dat
0 STEP
1 0 60 -88.08 0.2185 1 0 0 0 0.207912 -0.978148 0 0.978148 0.207912 3938.dat
0 STEP
1 0 70 -11.49 124.2 1 0 0 0 0.207912 0.978148 0 -0.978148 0.207912 3024.dat
0 STEP
1 0 70 -32.72 127.9 0 0 1 -0.978148 0.207912 0 -0.207912 -0.978148 0 3623.dat
0 STEP
1 0 60 -60.4 113.8 0 0 1 -0.978148 0.207912 0 -0.207912 -0.978148 0 3020.dat
1 0 50 -62.06 121.7 0 0 1 -0.978148 0.207912 0 -0.207912 -0.978148 0 3710.dat
0 STEP
1 0 70 -81.62 117.5 0 0 1 -0.978148 0.207912 0 -0.207912 -0.978148 0 3023.dat
0 STEP
1 25 12 -142 50 0 1 0 -1 0 0 0 0 1 85861.dat
1 25 16 -142 50 0 -1 0 -1 0 0 0 0 -1 30374.dat
0 STEP
