0 sitting red fox
0 Name: sitting red fox.ldr
0 Author: brickify

1 0 10 -8 40 0 0 1 0 1 0 -1 0 0 3710.dat
0 STEP
1 0 10 -16 40 0 0 1 0 1 0 -1 0 0 3710.dat
0 STEP
1 25 50 -24 70 1 0 0 0 1 0 0 0 1 3622.dat
1 25 50 -24 10 1 0 0 0 1 0 0 0 1 3622.dat
1 25 10 -24 40 0 0 1 0 1 0 -1 0 0 3710.dat
1 25 50 -24 40 1 0 0 0 1 0 0 0 1 3002.dat
0 STEP
1 25 70 -32 30 1 0 0 0 1 0 0 0 1 3024.dat
1 25 10 -32 40 0 0 1 0 1 0 -1 0 0 3023.dat
0 STEP
1 19 10 -40 40 0 0 1 0 1 0 -1 0 0 3023.dat
0 STEP
1 25 70 -48 10 1 0 0 0 1 0 0 0 1 3005.dat
1 25 70 -48 60 0 0 1 0 1 0 -1 0 0 3004.dat
1 25 30 -48 40 0 0 1 0 1 0 -1 0 0 3004.dat
1 25 30 -48 70 1 0 0 0 1 0 0 0 1 3622.dat
1 25 50 -48 30 0 0 1 0 1 0 -1 0 0 3622.dat
1 25 20 -48 10 1 0 0 0 1 0 0 0 1 3004.dat
1 19 10 -48 40 0 0 1 0 1 0 -1 0 0 3023.dat
0 STEP
1 25 70 -56 30 0 0 -1 0 1 0 1 0 0 87087.dat
0 STEP
1 25 70 -64 30 1 0 0 0 1 0 0 0 1 3024.dat
0 STEP
1 25 70 -72 10 1 0 0 0 1 0 0 0 1 3005.dat
1 25 70 -72 30 1 0 0 0 1 0 0 0 1 3024.dat
1 25 20 -72 10 1 0 0 0 1 0 0 0 1 3004.dat
1 25 50 -72 20 0 0 1 0 1 0 -1 0 0 3004.dat
1 25 20 -72 70 1 0 0 0 1 0 0 0 1 3004.dat
1 19 20 -72 40 1 0 0 0 1 0 0 0 1 3003.dat
1 25 60 -72 60 1 0 0 0 1 0 0 0 1 3003.dat
0 STEP
1 25 20 -96 70 1 0 0 0 1 0 0 0 1 3004.dat
1 25 30 -96 40 0 0 1 0 1 0 -1 0 0 3004.dat
1 19 10 -96 40 0 0 1 0 1 0 -1 0 0 3004.dat
1 25 20 -96 10 1 0 0 0 1 0 0 0 1 3004.dat
1 25 60 -96 40 0 0 1 0 1 0 -1 0 0 3001.dat
1 19 10 -96 20 1 0 0 0 1 0 0 0 1 11477.dat
1 19 10 -96 60 -1 0 0 0 1 0 0 0 -1 11477.dat
0 STEP
1 25 50 -104 20 1 0 0 0 1 0 0 0 1 3021.dat
1 25 50 -104 60 1 0 0 0 1 0 0 0 1 3021.dat
0 STEP
1 25 70 -112 40 0 0 1 0 1 0 -1 0 0 3710.dat
1 25 40 -112 40 0 0 1 0 1 0 -1 0 0 3020.dat
1 25 30 -112 60 -1 0 0 0 1 0 0 0 -1 11477.dat
1 25 40 -112 10 0 0 1 0 1 0 -1 0 0 11477.dat
1 25 50 -112 60 -1 0 0 0 1 0 0 0 -1 11477.dat
1 25 70 -112 20 1 0 0 0 1 0 0 0 1 11477.dat
1 25 70 -112 60 -1 0 0 0 1 0 0 0 -1 11477.dat
0 STEP
1 25 40 -136 30 1 0 0 0 1 0 0 0 1 3937.dat
0 STEP
1 25 40 -136 30 1 0 0 0 1 0 0 0 1 3938.dat
0 STEP
1 19 0 -144 40 1 0 0 0 1 0 0 0 1 3022.dat
1 25 40 -144 0 1 0 0 0 1 0 0 0 1 3020.dat
1 25 50 -144 40 1 0 0 0 1 0 0 0 1 3021.dat
1 25 40 -144 80 1 0 0 0 1 0 0 0 1 3020.dat
0 STEP
1 19 -10 -152 50 1 0 0 0 1 0 0 0 1 3024.dat
1 19 10 -152 40 0 0 1 0 1 0 -1 0 0 3023.dat
1 25 10 -152 80 0 0 1 0 1 0 -1 0 0 3023.dat
1 25 10 -152 0 0 0 1 0 1 0 -1 0 0 3023.dat
1 25 30 -152 40 0 0 1 0 1 0 -1 0 0 3666.dat
1 25 60 -152 40 0 0 1 0 1 0 -1 0 0 3795.dat
0 STEP
1 25 10 -160 10 1 0 0 0 1 0 0 0 1 3024.dat
1 25 -10 -160 50 1 0 0 0 1 0 0 0 1 3024.dat
1 19 10 -160 40 0 0 1 0 1 0 -1 0 0 3023.dat
1 25 50 -160 90 1 0 0 0 1 0 0 0 1 3623.dat
1 25 40 -160 70 1 0 0 0 1 0 0 0 1 3710.dat
1 25 50 -160 0 1 0 0 0 1 0 0 0 1 3021.dat
1 25 50 -160 40 1 0 0 0 1 0 0 0 1 3021.dat
0 STEP
1 25 30 -168 -10 1 0 0 0 1 0 0 0 1 3024.dat
1 25 30 -168 90 1 0 0 0 1 0 0 0 1 3024.dat
1 25 20 -168 40 1 0 0 0 1 0 0 0 1 3022.dat
1 19 -10 -168 30 0 0 1 0 1 0 -1 0 0 87087.dat
0 STEP
1 25 30 -176 40 0 0 1 0 1 0 -1 0 0 3023.dat
0 STEP
1 25 60 -184 40 0 0 1 0 1 0 -1 0 0 2456.dat
1 25 30 -184 40 0 0 1 0 1 0 -1 0 0 3023.dat
1 25 30 -184 10 0 0 1 0 1 0 -1 0 0 87087.dat
1 25 30 -184 70 0 0 1 0 1 0 -1 0 0 87087.dat
1 25 40 -184 30 0 0 1 0 1 0 -1 0 0 11477.dat
1 25 40 -184 50 0 0 1 0 1 0 -1 0 0 11477.dat
0 STEP
1 25 60 -208 10 1 0 0 0 1 0 0 0 1 3937.dat
1 25 60 -208 70 1 0 0 0 1 0 0 0 1 3937.dat
0 STEP
1 0 12 -174 10 0 1 0 -1 0 0 0 0 1 98138.dat
0 STEP
1 0 12 -174 70 0 1 0 -1 0 0 0 0 1 98138.dat
0 STEP
1 0 -28 -158 30 0 1 0 -1 0 0 0 0 1 98138.dat
0 STEP
1 25 60 -207.6 7.244 1 0 0 0 0.961262 -0.275637 0 0.275637 0.961262 3938.dat
0 STEP
1 25 60 -230.7 0.6283 1 0 0 0 0.961262 -0.275637 0 0.275637 0.961262 3004.dat
0 STEP
1 25 70 -238.4 -1.577 1 0 0 0 0.961262 -0.275637 0 0.275637 0.961262 3024.dat
0 STEP
1 0 70 -246.1 -3.782 1 0 0 0 0.961262 -0.275637 0 0.275637 0.961262 3024.dat
0 STEP
1 0 70 -253.8 -5.987 1 0 0 0 0.961262 -0.275637 0 0.275637 0.961262 3024.dat
0 STEP
1 25 60 -207.6 72.76 1 0 0 0 0.961262 0.275637 0 -0.275637 0.961262 3938.dat
0 STEP
1 25 60 -230.7 79.37 1 0 0 0 0.961262 0.275637 0 -0.275637 0.961262 3004.dat
0 STEP
1 25 70 -238.4 81.58 1 0 0 0 0.961262 0.275637 0 -0.275637 0.961262 3024.dat
0 STEP
1 0 70 -246.1 83.78 1 0 0 0 0.961262 0.275637 0 -0.275637 0.961262 3024.dat
0 STEP
1 0 70 -253.8 85.99 1 0 0 0 0.961262 0.275637 0 -0.275637 0.961262 3024.dat
0 STEP
1 25 112 -26 40 0 -1 0 0 0 1 -1 0 0 3023.dat
1 25 104 -26 40 0 -1 0 0 0 1 -1 0 0 3023.dat
0 STEP
1 25 96 -36 40 0 -1 0 1 0 0 0 0 1 3022.dat
1 25 88 -36 40 0 -1 0 1 0 0 0 0 1 3022.dat
0 STEP
1 70 104 -46 40 0 -1 0 0 0 1 -1 0 0 3023.dat
0 STEP
