0 bunny
0 Name: bunny.ldr
0 Author: brickify

1 71 -210 -24 20 0 0 1 0 1 0 -1 0 0 3001.dat
1 71 -180 -24 -30 1 0 0 0 1 0 0 0 1 3622.dat
1 71 -190 -24 70 1 0 0 0 1 0 0 0 1 3004.dat
1 71 -180 -24 -10 1 0 0 0 1 0 0 0 1 3005.dat
1 71 -180 -24 120 0 0 1 0 1 0 -1 0 0 3010.dat
1 71 -150 -24 -50 1 0 0 0 1 0 0 0 1 3004.dat
1 71 -160 -24 90 1 0 0 0 1 0 0 0 1 3005.dat
1 71 -110 -24 -90 1 0 0 0 1 0 0 0 1 3004.dat
1 71 -120 -24 -70 1 0 0 0 1 0 0 0 1 3005.dat
1 71 -50 -24 -110 1 0 0 0 1 0 0 0 1 3009.dat
1 71 30 -24 -90 1 0 0 0 1 0 0 0 1 3008.dat
1 71 90 -24 -70 1 0 0 0 1 0 0 0 1 3010.dat
1 71 120 -8 -10 1 0 0 0 1 0 0 0 1 3623.dat
1 71 110 -8 -50 1 0 0 0 1 0 0 0 1 3023.dat
1 71 100 -8 10 1 0 0 0 1 0 0 0 1 3623.dat
1 71 90 -8 30 1 0 0 0 1 0 0 0 1 3023.dat
1 71 90 -8 70 1 0 0 0 1 0 0 0 1 3023.dat
1 71 80 -8 50 1 0 0 0 1 0 0 0 1 3024.dat
1 71 80 -8 90 1 0 0 0 1 0 0 0 1 3024.dat
1 71 20 -8 -70 1 0 0 0 1 0 0 0 1 3623.dat
1 71 -70 -8 -90 1 0 0 0 1 0 0 0 1 3023.dat
1 71 -110 -8 60 1 0 0 0 1 0 0 0 1 3795.dat
1 71 -90 -8 100 1 0 0 0 1 0 0 0 1 3020.dat
1 71 -90 -8 -70 1 0 0 0 1 0 0 0 1 3023.dat
1 71 -130 -8 20 1 0 0 0 1 0 0 0 1 3795.dat
1 71 -110 -8 130 1 0 0 0 1 0 0 0 1 3710.dat
1 71 -110 -8 -30 0 0 1 0 1 0 -1 0 0 3021.dat
1 71 -140 -8 -20 0 0 1 0 1 0 -1 0 0 3023.dat
1 71 -140 -8 100 0 0 1 0 1 0 -1 0 0 3023.dat
1 71 -160 -8 -10 1 0 0 0 1 0 0 0 1 3024.dat
1 71 -160 -8 120 0 0 1 0 1 0 -1 0 0 3023.dat
1 71 -180 -8 50 1 0 0 0 1 0 0 0 1 3024.dat
0 STEP
1 71 -130 -16 170 1 0 0 0 1 0 0 0 1 3460.dat
1 71 -200 -16 120 0 0 1 0 1 0 -1 0 0 3710.dat
1 71 -110 -16 190 1 0 0 0 1 0 0 0 1 3460.dat
1 71 -110 -16 40 1 0 0 0 1 0 0 0 1 3034.dat
1 71 -110 -16 10 1 0 0 0 1 0 0 0 1 3460.dat
1 71 -90 -16 140 1 0 0 0 1 0 0 0 1 3034.dat
1 71 -90 -16 110 1 0 0 0 1 0 0 0 1 3460.dat
1 71 -90 -16 70 1 0 0 0 1 0 0 0 1 3460.dat
1 71 -90 -16 -10 1 0 0 0 1 0 0 0 1 3460.dat
1 71 -70 -16 90 1 0 0 0 1 0 0 0 1 3460.dat
1 71 -70 -16 -30 1 0 0 0 1 0 0 0 1 3460.dat
1 71 -140 -16 -70 1 0 0 0 1 0 0 0 1 3024.dat
1 71 -50 -16 -50 1 0 0 0 1 0 0 0 1 3460.dat
1 71 -30 -16 -70 1 0 0 0 1 0 0 0 1 3460.dat
1 71 -70 -16 -90 1 0 0 0 1 0 0 0 1 3069b.dat
1 71 -70 -16 -130 1 0 0 0 1 0 0 0 1 3023.dat
1 71 -10 -16 210 1 0 0 0 1 0 0 0 1 3666.dat
1 71 -20 -16 230 1 0 0 0 1 0 0 0 1 3623.dat
1 71 30 -16 170 1 0 0 0 1 0 0 0 1 3460.dat
1 71 50 -16 190 1 0 0 0 1 0 0 0 1 3460.dat
1 71 50 -16 40 1 0 0 0 1 0 0 0 1 3034.dat
1 71 50 -16 10 1 0 0 0 1 0 0 0 1 3460.dat
1 71 70 -16 140 1 0 0 0 1 0 0 0 1 3034.dat
1 71 70 -16 110 1 0 0 0 1 0 0 0 1 3460.dat
1 71 70 -16 70 1 0 0 0 1 0 0 0 1 3460.dat
1 71 70 -16 -10 1 0 0 0 1 0 0 0 1 3460.dat
1 71 90 -16 90 1 0 0 0 1 0 0 0 1 3460.dat
1 71 90 -16 -30 1 0 0 0 1 0 0 0 1 3460.dat
1 71 20 -16 -110 1 0 0 0 1 0 0 0 1 3024.dat
1 71 90 -16 -50 1 0 0 0 1 0 0 0 1 3666.dat
1 71 130 -16 170 1 0 0 0 1 0 0 0 1 3023.dat
1 71 120 -16 -90 1 0 0 0 1 0 0 0 1 3024.dat
1 71 140 -16 190 1 0 0 0 1 0 0 0 1 3024.dat
1 71 170 -16 40 1 0 0 0 1 0 0 0 1 3020.dat
1 71 170 -16 10 1 0 0 0 1 0 0 0 1 3710.dat
1 71 140 -16 -70 1 0 0 0 1 0 0 0 1 3024.dat
1 71 160 -16 130 0 0 1 0 1 0 -1 0 0 3623.dat
1 71 190 -16 70 1 0 0 0 1 0 0 0 1 3710.dat
1 71 160 -16 -10 1 0 0 0 1 0 0 0 1 3024.dat
1 71 180 -16 100 0 0 1 0 1 0 -1 0 0 3023.dat
1 71 200 -16 90 1 0 0 0 1 0 0 0 1 3024.dat
1 71 220 -16 50 1 0 0 0 1 0 0 0 1 3024.dat
0 STEP
1 71 170 -24 50 1 0 0 0 1 0 0 0 1 3460.dat
1 71 170 -24 80 1 0 0 0 1 0 0 0 1 3795.dat
1 71 190 -24 20 1 0 0 0 1 0 0 0 1 3020.dat
1 71 130 -24 110 1 0 0 0 1 0 0 0 1 3460.dat
1 71 110 -24 130 1 0 0 0 1 0 0 0 1 3460.dat
1 71 170 -24 -10 1 0 0 0 1 0 0 0 1 3023.dat
1 71 90 -24 160 1 0 0 0 1 0 0 0 1 3034.dat
1 71 150 -24 -40 1 0 0 0 1 0 0 0 1 3022.dat
1 71 70 -24 190 1 0 0 0 1 0 0 0 1 3460.dat
1 71 140 -24 20 0 0 1 0 1 0 -1 0 0 3069b.dat
1 71 140 -24 -80 0 0 1 0 1 0 -1 0 0 3023.dat
1 71 120 -24 30 1 0 0 0 1 0 0 0 1 3070b.dat
1 71 50 -24 -30 1 0 0 0 1 0 0 0 1 3460.dat
1 71 120 -24 -90 1 0 0 0 1 0 0 0 1 3024.dat
1 71 100 -24 90 1 0 0 0 1 0 0 0 1 3070b.dat
1 71 10 -24 -10 1 0 0 0 1 0 0 0 1 3460.dat
1 71 10 -24 -50 1 0 0 0 1 0 0 0 1 3460.dat
1 71 -10 -24 210 1 0 0 0 1 0 0 0 1 3460.dat
1 71 10 -24 80 1 0 0 0 1 0 0 0 1 3795.dat
1 71 10 -24 40 1 0 0 0 1 0 0 0 1 3795.dat
1 71 10 -24 10 1 0 0 0 1 0 0 0 1 3666.dat
1 71 10 -24 110 1 0 0 0 1 0 0 0 1 2431.dat
1 71 30 -24 -110 1 0 0 0 1 0 0 0 1 3023.dat
1 71 -10 -24 130 1 0 0 0 1 0 0 0 1 2431.dat
1 71 -30 -24 230 1 0 0 0 1 0 0 0 1 3710.dat
1 71 -70 -24 160 1 0 0 0 1 0 0 0 1 3034.dat
1 71 -90 -24 190 1 0 0 0 1 0 0 0 1 3460.dat
1 71 -40 -24 -70 1 0 0 0 1 0 0 0 1 63864.dat
1 71 -40 -24 110 1 0 0 0 1 0 0 0 1 3070b.dat
1 71 -60 -24 -30 1 0 0 0 1 0 0 0 1 63864.dat
1 71 -60 -24 130 1 0 0 0 1 0 0 0 1 3070b.dat
1 71 -60 -24 20 0 0 1 0 1 0 -1 0 0 3069b.dat
1 71 -70 -24 -130 1 0 0 0 1 0 0 0 1 3069b.dat
1 71 -80 -24 -10 1 0 0 0 1 0 0 0 1 3070b.dat
1 71 -80 -24 -50 1 0 0 0 1 0 0 0 1 3070b.dat
1 71 -140 -24 -70 1 0 0 0 1 0 0 0 1 3024.dat
1 71 -180 -24 170 1 0 0 0 1 0 0 0 1 3623.dat
1 71 -160 -24 150 1 0 0 0 1 0 0 0 1 3070b.dat
1 71 -180 -24 190 1 0 0 0 1 0 0 0 1 3024.dat
1 71 -200 -24 130 0 0 1 0 1 0 -1 0 0 3623.dat
0 STEP
1 71 220 -48 10 1 0 0 0 1 0 0 0 1 3622.dat
1 71 240 -48 90 1 0 0 0 1 0 0 0 1 3005.dat
1 71 220 -48 110 1 0 0 0 1 0 0 0 1 3005.dat
1 71 190 -48 -10 1 0 0 0 1 0 0 0 1 3004.dat
1 71 200 -48 130 1 0 0 0 1 0 0 0 1 3005.dat
1 71 170 -48 -30 1 0 0 0 1 0 0 0 1 3004.dat
1 71 180 -48 150 1 0 0 0 1 0 0 0 1 3005.dat
1 71 150 -48 -60 1 0 0 0 1 0 0 0 1 3003.dat
1 71 130 -48 170 1 0 0 0 1 0 0 0 1 3010.dat
1 71 70 -48 -90 1 0 0 0 1 0 0 0 1 3008.dat
1 71 90 -48 190 1 0 0 0 1 0 0 0 1 3009.dat
1 71 110 -48 -70 1 0 0 0 1 0 0 0 1 3004.dat
1 71 80 -48 170 1 0 0 0 1 0 0 0 1 3005.dat
1 71 -10 -48 -110 1 0 0 0 1 0 0 0 1 3008.dat
1 71 -10 -48 210 1 0 0 0 1 0 0 0 1 3008.dat
1 71 20 -48 190 1 0 0 0 1 0 0 0 1 3005.dat
1 71 -20 -48 230 1 0 0 0 1 0 0 0 1 3622.dat
1 71 -50 -48 -90 1 0 0 0 1 0 0 0 1 3010.dat
1 71 -130 -48 190 1 0 0 0 1 0 0 0 1 3009.dat
1 71 -100 -48 -100 0 0 1 0 1 0 -1 0 0 3004.dat
1 71 -150 -48 170 1 0 0 0 1 0 0 0 1 3009.dat
1 71 -120 -48 -70 1 0 0 0 1 0 0 0 1 3005.dat
1 71 -140 -48 -50 1 0 0 0 1 0 0 0 1 3005.dat
1 71 -170 -48 -30 1 0 0 0 1 0 0 0 1 3004.dat
1 71 -170 -48 90 1 0 0 0 1 0 0 0 1 3004.dat
1 71 -190 -48 -10 1 0 0 0 1 0 0 0 1 3004.dat
1 71 -190 -48 70 1 0 0 0 1 0 0 0 1 3004.dat
1 71 -190 -48 130 0 0 1 0 1 0 -1 0 0 3002.dat
1 71 -210 -48 30 0 0 1 0 1 0 -1 0 0 3002.dat
1 71 -220 -32 -10 1 0 0 0 1 0 0 0 1 3024.dat
1 71 -200 -32 -30 1 0 0 0 1 0 0 0 1 3024.dat
1 71 -160 -32 -50 1 0 0 0 1 0 0 0 1 3070b.dat
1 71 -140 -32 -70 1 0 0 0 1 0 0 0 1 3070b.dat
1 71 -120 -32 -90 1 0 0 0 1 0 0 0 1 3024.dat
1 71 -60 -32 230 1 0 0 0 1 0 0 0 1 3024.dat
1 71 80 -32 -70 1 0 0 0 1 0 0 0 1 3024.dat
1 71 160 -32 150 1 0 0 0 1 0 0 0 1 3024.dat
1 71 180 -32 130 1 0 0 0 1 0 0 0 1 3024.dat
1 71 200 -32 110 1 0 0 0 1 0 0 0 1 3024.dat
1 71 230 -32 50 0 0 1 0 1 0 -1 0 0 3021.dat
1 71 220 -32 90 1 0 0 0 1 0 0 0 1 3024.dat
0 STEP
1 71 250 -40 50 0 0 1 0 1 0 -1 0 0 3021.dat
1 71 260 -40 90 1 0 0 0 1 0 0 0 1 3024.dat
1 71 230 -40 -10 1 0 0 0 1 0 0 0 1 3023.dat
1 71 240 -40 110 1 0 0 0 1 0 0 0 1 3024.dat
1 71 220 -40 90 1 0 0 0 1 0 0 0 1 3070b.dat
1 71 200 -40 110 1 0 0 0 1 0 0 0 1 3070b.dat
1 71 180 -40 130 1 0 0 0 1 0 0 0 1 3070b.dat
1 71 160 -40 150 1 0 0 0 1 0 0 0 1 3070b.dat
1 71 80 -40 -70 1 0 0 0 1 0 0 0 1 3070b.dat
1 71 -60 -40 230 1 0 0 0 1 0 0 0 1 3070b.dat
1 71 -100 -40 -70 1 0 0 0 1 0 0 0 1 3024.dat
1 71 -120 -40 -90 1 0 0 0 1 0 0 0 1 3070b.dat
1 71 -120 -40 -50 1 0 0 0 1 0 0 0 1 3024.dat
1 71 -140 -40 -30 1 0 0 0 1 0 0 0 1 3024.dat
1 71 -160 -40 -10 1 0 0 0 1 0 0 0 1 3024.dat
1 71 -200 -40 -30 1 0 0 0 1 0 0 0 1 3070b.dat
1 71 -220 -40 -10 1 0 0 0 1 0 0 0 1 3070b.dat
0 STEP
1 71 -160 -48 -10 1 0 0 0 1 0 0 0 1 3024.dat
1 71 -140 -48 -30 1 0 0 0 1 0 0 0 1 3024.dat
1 71 -120 -48 -50 1 0 0 0 1 0 0 0 1 3024.dat
1 71 -100 -48 -70 1 0 0 0 1 0 0 0 1 3024.dat
1 71 -60 -48 190 1 0 0 0 1 0 0 0 1 3024.dat
1 71 80 -48 -110 1 0 0 0 1 0 0 0 1 3024.dat
1 71 160 -48 190 1 0 0 0 1 0 0 0 1 3070b.dat
1 71 180 -48 170 1 0 0 0 1 0 0 0 1 3024.dat
1 71 200 -48 150 1 0 0 0 1 0 0 0 1 3024.dat
1 71 230 -48 130 1 0 0 0 1 0 0 0 1 3023.dat
1 71 230 -48 -10 1 0 0 0 1 0 0 0 1 3023.dat
1 71 250 -48 110 1 0 0 0 1 0 0 0 1 3023.dat
1 71 260 -48 60 0 0 1 0 1 0 -1 0 0 3710.dat
1 71 260 -48 10 1 0 0 0 1 0 0 0 1 3024.dat
1 71 280 -48 50 0 0 1 0 1 0 -1 0 0 3623.dat
0 STEP
1 71 -180 -72 10 0 0 1 0 1 0 -1 0 0 3622.dat
1 71 -130 -72 170 1 0 0 0 1 0 0 0 1 3010.dat
1 71 -160 -72 110 1 0 0 0 1 0 0 0 1 3005.dat
1 71 -150 -72 -20 1 0 0 0 1 0 0 0 1 3003.dat
1 71 -140 -72 90 1 0 0 0 1 0 0 0 1 3005.dat
1 71 -120 -72 -30 1 0 0 0 1 0 0 0 1 3005.dat
1 71 -100 -72 150 1 0 0 0 1 0 0 0 1 3005.dat
1 71 -100 -72 -50 1 0 0 0 1 0 0 0 1 3005.dat
1 71 -80 -72 170 1 0 0 0 1 0 0 0 1 3005.dat
1 71 -80 -72 -70 1 0 0 0 1 0 0 0 1 3005.dat
1 71 -60 -72 190 1 0 0 0 1 0 0 0 1 3005.dat
1 71 -40 -72 -90 1 0 0 0 1 0 0 0 1 3622.dat
1 71 30 -72 210 1 0 0 0 1 0 0 0 1 3008.dat
1 71 30 -72 -110 1 0 0 0 1 0 0 0 1 3008.dat
1 71 70 -72 190 1 0 0 0 1 0 0 0 1 3008.dat
1 71 110 -72 -90 1 0 0 0 1 0 0 0 1 3010.dat
1 71 160 -72 170 1 0 0 0 1 0 0 0 1 3622.dat
1 71 180 -72 150 1 0 0 0 1 0 0 0 1 3622.dat
1 71 170 -72 -70 1 0 0 0 1 0 0 0 1 3004.dat
1 71 160 -72 -90 1 0 0 0 1 0 0 0 1 3005.dat
1 71 180 -72 -50 1 0 0 0 1 0 0 0 1 3005.dat
1 71 220 -72 130 1 0 0 0 1 0 0 0 1 3622.dat
1 71 200 -72 -30 1 0 0 0 1 0 0 0 1 3005.dat
1 71 240 -72 110 1 0 0 0 1 0 0 0 1 3622.dat
1 71 240 -72 -10 1 0 0 0 1 0 0 0 1 3622.dat
1 71 270 -72 10 1 0 0 0 1 0 0 0 1 3004.dat
1 71 280 -72 60 0 0 1 0 1 0 -1 0 0 3010.dat
1 71 260 -56 60 0 0 1 0 1 0 -1 0 0 2431.dat
1 71 230 -56 10 1 0 0 0 1 0 0 0 1 3023.dat
1 71 200 -56 -10 1 0 0 0 1 0 0 0 1 3070b.dat
1 71 180 -56 -30 1 0 0 0 1 0 0 0 1 3070b.dat
1 71 160 -56 -50 1 0 0 0 1 0 0 0 1 3070b.dat
1 71 130 -56 -70 1 0 0 0 1 0 0 0 1 3023.dat
1 71 120 -56 170 1 0 0 0 1 0 0 0 1 3070b.dat
1 71 30 -56 -90 1 0 0 0 1 0 0 0 1 3710.dat
1 71 -30 -56 230 1 0 0 0 1 0 0 0 1 3069b.dat
1 71 -60 -56 210 1 0 0 0 1 0 0 0 1 3024.dat
1 71 -70 -56 -110 1 0 0 0 1 0 0 0 1 3023.dat
1 71 -80 -56 190 1 0 0 0 1 0 0 0 1 3024.dat
1 71 -90 -56 -90 1 0 0 0 1 0 0 0 1 3023.dat
1 71 -100 -56 -70 1 0 0 0 1 0 0 0 1 3024.dat
1 71 -150 -56 190 1 0 0 0 1 0 0 0 1 2431.dat
1 71 -120 -56 -50 1 0 0 0 1 0 0 0 1 3024.dat
1 71 -160 -56 80 0 0 1 0 1 0 -1 0 0 3023.dat
1 71 -180 -56 140 0 0 1 0 1 0 -1 0 0 3710.dat
1 71 -180 -56 60 0 0 1 0 1 0 -1 0 0 3023.dat
1 71 -200 -56 140 0 0 1 0 1 0 -1 0 0 3069b.dat
1 71 -200 -56 20 0 0 1 0 1 0 -1 0 0 3710.dat
0 STEP
1 71 -200 -64 30 1 0 0 0 1 0 0 0 1 3070b.dat
1 71 -170 -64 50 1 0 0 0 1 0 0 0 1 3023.dat
1 71 -170 -64 140 1 0 0 0 1 0 0 0 1 3022.dat
1 71 -180 -64 170 1 0 0 0 1 0 0 0 1 3070b.dat
1 71 -160 -64 10 1 0 0 0 1 0 0 0 1 3024.dat
1 71 -150 -64 70 1 0 0 0 1 0 0 0 1 3023.dat
1 71 -160 -64 90 1 0 0 0 1 0 0 0 1 3070b.dat
1 71 -140 -64 110 1 0 0 0 1 0 0 0 1 3024.dat
1 71 -130 -64 150 1 0 0 0 1 0 0 0 1 3023.dat
1 71 -120 -64 -50 1 0 0 0 1 0 0 0 1 3070b.dat
1 71 -100 -64 -70 1 0 0 0 1 0 0 0 1 3070b.dat
1 71 -80 -64 -90 1 0 0 0 1 0 0 0 1 3070b.dat
1 71 -80 -64 190 1 0 0 0 1 0 0 0 1 3070b.dat
1 71 -60 -64 -110 1 0 0 0 1 0 0 0 1 3070b.dat
1 71 -60 -64 210 1 0 0 0 1 0 0 0 1 3070b.dat
1 71 -30 -64 190 1 0 0 0 1 0 0 0 1 3023.dat
1 71 30 -64 -90 1 0 0 0 1 0 0 0 1 2431.dat
1 71 120 -64 -110 1 0 0 0 1 0 0 0 1 3024.dat
1 71 120 -64 210 1 0 0 0 1 0 0 0 1 3024.dat
1 71 140 -64 -70 1 0 0 0 1 0 0 0 1 3070b.dat
1 71 200 -64 -50 1 0 0 0 1 0 0 0 1 3024.dat
1 71 220 -64 -30 1 0 0 0 1 0 0 0 1 3024.dat
1 71 240 -64 10 1 0 0 0 1 0 0 0 1 3070b.dat
1 71 260 -64 130 1 0 0 0 1 0 0 0 1 3024.dat
1 71 280 -64 110 1 0 0 0 1 0 0 0 1 3024.dat
1 71 300 -64 60 0 0 1 0 1 0 -1 0 0 3710.dat
0 STEP
1 71 300 -72 40 0 0 1 0 1 0 -1 0 0 3710.dat
1 71 300 -72 90 1 0 0 0 1 0 0 0 1 3024.dat
1 71 280 -72 -10 1 0 0 0 1 0 0 0 1 3024.dat
1 71 280 -72 110 1 0 0 0 1 0 0 0 1 3024.dat
1 71 260 -72 130 1 0 0 0 1 0 0 0 1 3024.dat
1 71 230 -72 -30 1 0 0 0 1 0 0 0 1 3023.dat
1 71 200 -72 -50 1 0 0 0 1 0 0 0 1 3024.dat
1 71 130 -72 -110 1 0 0 0 1 0 0 0 1 3023.dat
1 71 120 -72 210 1 0 0 0 1 0 0 0 1 3024.dat
1 71 30 -72 -130 1 0 0 0 1 0 0 0 1 3710.dat
1 71 -30 -72 190 1 0 0 0 1 0 0 0 1 3023.dat
1 71 -60 -72 -70 1 0 0 0 1 0 0 0 1 3024.dat
1 71 -60 -72 170 1 0 0 0 1 0 0 0 1 3024.dat
1 71 -80 -72 -50 1 0 0 0 1 0 0 0 1 3024.dat
1 71 -80 -72 150 1 0 0 0 1 0 0 0 1 3024.dat
1 71 -100 -72 -30 1 0 0 0 1 0 0 0 1 3024.dat
1 71 -120 -72 -10 1 0 0 0 1 0 0 0 1 3024.dat
1 71 -120 -72 80 0 0 1 0 1 0 -1 0 0 3023.dat
1 71 -140 -72 150 1 0 0 0 1 0 0 0 1 3623.dat
1 71 -140 -72 60 0 0 1 0 1 0 -1 0 0 3023.dat
1 71 -140 -72 120 0 0 1 0 1 0 -1 0 0 3023.dat
1 71 -160 -72 30 0 0 1 0 1 0 -1 0 0 3623.dat
1 71 -160 -72 130 1 0 0 0 1 0 0 0 1 3070b.dat
0 STEP
1 71 300 -96 60 0 0 1 0 1 0 -1 0 0 3009.dat
1 71 260 -96 120 1 0 0 0 1 0 0 0 1 3002.dat
1 71 280 -96 10 0 0 1 0 1 0 -1 0 0 3622.dat
1 71 250 -96 -20 1 0 0 0 1 0 0 0 1 3003.dat
1 71 220 -96 130 1 0 0 0 1 0 0 0 1 3005.dat
1 71 220 -96 -40 0 0 1 0 1 0 -1 0 0 3004.dat
1 71 200 -96 150 1 0 0 0 1 0 0 0 1 3005.dat
1 71 200 -96 -60 0 0 1 0 1 0 -1 0 0 3004.dat
1 71 170 -96 170 1 0 0 0 1 0 0 0 1 3004.dat
1 71 180 -96 -80 0 0 1 0 1 0 -1 0 0 3004.dat
1 71 150 -96 190 1 0 0 0 1 0 0 0 1 3004.dat
1 71 140 -96 -90 1 0 0 0 1 0 0 0 1 3622.dat
1 71 70 -96 -110 1 0 0 0 1 0 0 0 1 3008.dat
1 71 70 -96 210 1 0 0 0 1 0 0 0 1 3009.dat
1 71 70 -96 230 1 0 0 0 1 0 0 0 1 3010.dat
1 71 30 -96 -130 1 0 0 0 1 0 0 0 1 3009.dat
1 71 0 -96 200 0 0 1 0 1 0 -1 0 0 3004.dat
1 71 -20 -96 190 1 0 0 0 1 0 0 0 1 3005.dat
1 71 -30 -96 -110 1 0 0 0 1 0 0 0 1 3004.dat
1 71 -40 -96 170 1 0 0 0 1 0 0 0 1 3005.dat
1 71 -50 -96 -90 1 0 0 0 1 0 0 0 1 3004.dat
1 71 -90 -96 150 1 0 0 0 1 0 0 0 1 3010.dat
1 71 -70 -96 -70 1 0 0 0 1 0 0 0 1 3004.dat
1 71 -100 -96 170 1 0 0 0 1 0 0 0 1 3622.dat
1 71 -90 -96 -50 1 0 0 0 1 0 0 0 1 3004.dat
1 71 -130 -96 -30 1 0 0 0 1 0 0 0 1 3010.dat
1 71 -130 -96 100 0 0 1 0 1 0 -1 0 0 3001.dat
1 71 -140 -96 150 1 0 0 0 1 0 0 0 1 3005.dat
1 71 -150 -96 20 0 0 1 0 1 0 -1 0 0 3001.dat
1 71 -120 -80 -10 1 0 0 0 1 0 0 0 1 3070b.dat
1 71 -60 -80 170 1 0 0 0 1 0 0 0 1 3070b.dat
1 71 -40 -80 190 1 0 0 0 1 0 0 0 1 3070b.dat
1 71 -20 -80 170 1 0 0 0 1 0 0 0 1 3024.dat
1 71 20 -80 190 1 0 0 0 1 0 0 0 1 3024.dat
1 71 100 -80 -90 1 0 0 0 1 0 0 0 1 3024.dat
1 71 120 -80 190 1 0 0 0 1 0 0 0 1 3024.dat
1 71 140 -80 170 1 0 0 0 1 0 0 0 1 3070b.dat
1 71 160 -80 -70 1 0 0 0 1 0 0 0 1 3070b.dat
1 71 180 -80 150 1 0 0 0 1 0 0 0 1 3024.dat
1 71 200 -80 130 1 0 0 0 1 0 0 0 1 3070b.dat
1 71 220 -80 110 1 0 0 0 1 0 0 0 1 3070b.dat
1 71 280 -80 70 0 0 1 0 1 0 -1 0 0 3623.dat
0 STEP
1 71 280 -88 70 0 0 1 0 1 0 -1 0 0 63864.dat
1 71 220 -88 150 1 0 0 0 1 0 0 0 1 3024.dat
1 71 200 -88 170 1 0 0 0 1 0 0 0 1 3024.dat
1 71 180 -88 150 1 0 0 0 1 0 0 0 1 3070b.dat
1 71 160 -88 -110 1 0 0 0 1 0 0 0 1 3024.dat
1 71 140 -88 210 1 0 0 0 1 0 0 0 1 3024.dat
1 71 120 -88 190 1 0 0 0 1 0 0 0 1 3070b.dat
1 71 100 -88 -90 1 0 0 0 1 0 0 0 1 3070b.dat
1 71 20 -88 190 1 0 0 0 1 0 0 0 1 3070b.dat
1 71 -20 -88 170 1 0 0 0 1 0 0 0 1 3070b.dat
1 71 -40 -88 150 1 0 0 0 1 0 0 0 1 3070b.dat
1 71 -60 -88 130 1 0 0 0 1 0 0 0 1 3070b.dat
1 71 -120 -88 -50 1 0 0 0 1 0 0 0 1 3024.dat
0 STEP
1 71 -120 -96 -50 1 0 0 0 1 0 0 0 1 3024.dat
1 71 -60 -96 170 1 0 0 0 1 0 0 0 1 3024.dat
1 71 -40 -96 190 1 0 0 0 1 0 0 0 1 3024.dat
1 71 -20 -96 210 1 0 0 0 1 0 0 0 1 3024.dat
1 71 20 -96 230 1 0 0 0 1 0 0 0 1 3024.dat
1 71 100 -96 -130 1 0 0 0 1 0 0 0 1 3024.dat
1 71 120 -96 230 1 0 0 0 1 0 0 0 1 3024.dat
1 71 140 -96 210 1 0 0 0 1 0 0 0 1 3024.dat
1 71 160 -96 -110 1 0 0 0 1 0 0 0 1 3024.dat
1 71 180 -96 190 1 0 0 0 1 0 0 0 1 3024.dat
1 71 200 -96 170 1 0 0 0 1 0 0 0 1 3024.dat
1 71 220 -96 150 1 0 0 0 1 0 0 0 1 3024.dat
1 71 300 -96 -10 1 0 0 0 1 0 0 0 1 3024.dat
1 71 320 -96 70 0 0 1 0 1 0 -1 0 0 3623.dat
0 STEP
1 71 -130 -120 -30 1 0 0 0 1 0 0 0 1 3010.dat
1 71 -160 -120 -10 1 0 0 0 1 0 0 0 1 3005.dat
1 71 -140 -120 140 0 0 1 0 1 0 -1 0 0 3004.dat
1 71 -100 -120 -50 1 0 0 0 1 0 0 0 1 3622.dat
1 71 -90 -120 160 1 0 0 0 1 0 0 0 1 3001.dat
1 71 -70 -120 -70 1 0 0 0 1 0 0 0 1 3004.dat
1 71 -50 -120 -90 1 0 0 0 1 0 0 0 1 3004.dat
1 71 -30 -120 -120 1 0 0 0 1 0 0 0 1 3003.dat
1 71 -40 -120 180 0 0 1 0 1 0 -1 0 0 3004.dat
1 71 -20 -120 200 0 0 1 0 1 0 -1 0 0 3004.dat
1 71 50 -120 -130 1 0 0 0 1 0 0 0 1 3009.dat
1 71 70 -120 210 1 0 0 0 1 0 0 0 1 3008.dat
1 71 70 -120 230 1 0 0 0 1 0 0 0 1 3009.dat
1 71 90 -120 -110 1 0 0 0 1 0 0 0 1 3009.dat
1 71 150 -120 -90 1 0 0 0 1 0 0 0 1 3010.dat
1 71 160 -120 190 1 0 0 0 1 0 0 0 1 3622.dat
1 71 160 -120 -110 1 0 0 0 1 0 0 0 1 3005.dat
1 71 160 -120 210 1 0 0 0 1 0 0 0 1 3005.dat
1 71 190 -120 -70 1 0 0 0 1 0 0 0 1 3004.dat
1 71 190 -120 170 1 0 0 0 1 0 0 0 1 3004.dat
1 71 210 -120 -50 1 0 0 0 1 0 0 0 1 3004.dat
1 71 210 -120 150 1 0 0 0 1 0 0 0 1 3004.dat
1 71 230 -120 -30 1 0 0 0 1 0 0 0 1 3004.dat
1 71 270 -120 -10 1 0 0 0 1 0 0 0 1 3010.dat
1 71 260 -120 130 1 0 0 0 1 0 0 0 1 3622.dat
1 71 280 -120 10 1 0 0 0 1 0 0 0 1 3622.dat
1 71 280 -120 110 1 0 0 0 1 0 0 0 1 3622.dat
1 71 310 -120 60 0 0 1 0 1 0 -1 0 0 3001.dat
1 71 240 -104 110 1 0 0 0 1 0 0 0 1 3070b.dat
1 71 220 -104 130 1 0 0 0 1 0 0 0 1 3070b.dat
1 71 10 -104 -110 1 0 0 0 1 0 0 0 1 3069b.dat
1 71 0 -104 190 1 0 0 0 1 0 0 0 1 3070b.dat
1 71 -120 -104 120 0 0 1 0 1 0 -1 0 0 3023.dat
1 71 -140 -104 0 0 0 1 0 1 0 -1 0 0 3069b.dat
1 71 -150 -104 80 1 0 0 0 1 0 0 0 1 3022.dat
1 71 -140 -104 110 1 0 0 0 1 0 0 0 1 3024.dat
1 71 -160 -104 30 0 0 1 0 1 0 -1 0 0 3623.dat
1 71 -180 -104 40 0 0 1 0 1 0 -1 0 0 3023.dat
0 STEP
1 71 -190 -112 50 0 0 1 0 1 0 -1 0 0 3021.dat
1 71 -170 -112 90 1 0 0 0 1 0 0 0 1 3023.dat
1 71 -170 -112 10 1 0 0 0 1 0 0 0 1 3023.dat
1 71 -180 -112 -10 1 0 0 0 1 0 0 0 1 3024.dat
1 71 -150 -112 110 1 0 0 0 1 0 0 0 1 3023.dat
1 71 -160 -112 70 1 0 0 0 1 0 0 0 1 3070b.dat
1 71 -140 -112 -50 1 0 0 0 1 0 0 0 1 3024.dat
1 71 -120 -112 130 1 0 0 0 1 0 0 0 1 3070b.dat
1 71 0 -112 230 1 0 0 0 1 0 0 0 1 3024.dat
1 71 10 -112 -150 1 0 0 0 1 0 0 0 1 3023.dat
1 71 220 -112 170 1 0 0 0 1 0 0 0 1 3024.dat
1 71 240 -112 150 1 0 0 0 1 0 0 0 1 3024.dat
1 71 300 -112 130 1 0 0 0 1 0 0 0 1 3024.dat
0 STEP
1 71 300 -120 130 1 0 0 0 1 0 0 0 1 3024.dat
1 71 240 -120 150 1 0 0 0 1 0 0 0 1 3024.dat
1 71 220 -120 170 1 0 0 0 1 0 0 0 1 3024.dat
1 71 10 -120 -150 1 0 0 0 1 0 0 0 1 3023.dat
1 71 0 -120 230 1 0 0 0 1 0 0 0 1 3024.dat
1 71 -140 -120 -50 1 0 0 0 1 0 0 0 1 3024.dat
1 71 -160 -120 120 0 0 1 0 1 0 -1 0 0 3023.dat
1 71 -180 -120 90 0 0 1 0 1 0 -1 0 0 3623.dat
1 71 -190 -120 0 1 0 0 0 1 0 0 0 1 3022.dat
1 71 -200 -120 60 0 0 1 0 1 0 -1 0 0 3710.dat
1 71 -220 -120 50 0 0 1 0 1 0 -1 0 0 3623.dat
0 STEP
1 71 310 -144 60 0 0 1 0 1 0 -1 0 0 3001.dat
1 71 280 -144 10 1 0 0 0 1 0 0 0 1 3622.dat
1 71 280 -144 110 1 0 0 0 1 0 0 0 1 3622.dat
1 71 250 -144 -10 1 0 0 0 1 0 0 0 1 3004.dat
1 71 250 -144 130 1 0 0 0 1 0 0 0 1 3004.dat
1 71 230 -144 -30 1 0 0 0 1 0 0 0 1 3004.dat
1 71 220 -144 150 1 0 0 0 1 0 0 0 1 3622.dat
1 71 210 -144 -50 1 0 0 0 1 0 0 0 1 3004.dat
1 71 200 -144 170 1 0 0 0 1 0 0 0 1 3622.dat
1 71 190 -144 -70 1 0 0 0 1 0 0 0 1 3004.dat
1 71 160 -144 -90 1 0 0 0 1 0 0 0 1 3622.dat
1 71 160 -144 190 1 0 0 0 1 0 0 0 1 3622.dat
1 71 130 -144 -110 1 0 0 0 1 0 0 0 1 3010.dat
1 71 90 -144 210 1 0 0 0 1 0 0 0 1 3008.dat
1 71 50 -144 -130 1 0 0 0 1 0 0 0 1 3008.dat
1 71 70 -144 230 1 0 0 0 1 0 0 0 1 3009.dat
1 71 80 -144 -110 1 0 0 0 1 0 0 0 1 3005.dat
1 71 10 -144 -150 1 0 0 0 1 0 0 0 1 3010.dat
1 71 0 -144 220 0 0 1 0 1 0 -1 0 0 3004.dat
1 71 -20 -144 200 0 0 1 0 1 0 -1 0 0 3004.dat
1 71 -40 -144 -110 0 0 1 0 1 0 -1 0 0 3622.dat
1 71 -70 -144 170 1 0 0 0 1 0 0 0 1 3010.dat
1 71 -40 -144 190 1 0 0 0 1 0 0 0 1 3005.dat
1 71 -60 -144 -90 0 0 1 0 1 0 -1 0 0 3622.dat
1 71 -90 -144 150 1 0 0 0 1 0 0 0 1 3010.dat
1 71 -80 -144 -60 0 0 1 0 1 0 -1 0 0 3004.dat
1 71 -120 -144 -40 1 0 0 0 1 0 0 0 1 3002.dat
1 71 -120 -144 170 1 0 0 0 1 0 0 0 1 3005.dat
1 71 -140 -144 150 1 0 0 0 1 0 0 0 1 3005.dat
1 71 -160 -144 -30 1 0 0 0 1 0 0 0 1 3005.dat
1 71 -170 -144 130 1 0 0 0 1 0 0 0 1 3004.dat
1 71 -190 -144 -10 1 0 0 0 1 0 0 0 1 3004.dat
1 71 -200 -144 110 1 0 0 0 1 0 0 0 1 3005.dat
1 71 -220 -144 40 0 0 1 0 1 0 -1 0 0 3010.dat
1 71 -220 -144 90 1 0 0 0 1 0 0 0 1 3005.dat
1 71 -200 -128 40 0 0 1 0 1 0 -1 0 0 3710.dat
1 71 -200 -128 90 1 0 0 0 1 0 0 0 1 3070b.dat
1 71 -180 -128 10 1 0 0 0 1 0 0 0 1 3070b.dat
1 71 -170 -128 110 1 0 0 0 1 0 0 0 1 3069b.dat
1 71 -160 -128 -10 1 0 0 0 1 0 0 0 1 3024.dat
1 71 -140 -128 130 1 0 0 0 1 0 0 0 1 3024.dat
1 71 60 -128 -150 1 0 0 0 1 0 0 0 1 3070b.dat
1 71 290 -128 -10 1 0 0 0 1 0 0 0 1 3023.dat
1 71 290 -128 130 1 0 0 0 1 0 0 0 1 3023.dat
0 STEP
1 71 280 -136 -10 1 0 0 0 1 0 0 0 1 3070b.dat
1 71 280 -136 130 1 0 0 0 1 0 0 0 1 3070b.dat
1 71 220 -136 -70 1 0 0 0 1 0 0 0 1 3024.dat
1 71 60 -136 -110 1 0 0 0 1 0 0 0 1 3024.dat
1 71 -140 -136 130 1 0 0 0 1 0 0 0 1 3070b.dat
1 71 -160 -136 -10 1 0 0 0 1 0 0 0 1 3070b.dat
1 71 -170 -136 150 1 0 0 0 1 0 0 0 1 3023.dat
1 71 -190 -136 -30 1 0 0 0 1 0 0 0 1 3023.dat
1 71 -200 -136 10 1 0 0 0 1 0 0 0 1 3070b.dat
1 71 -200 -136 130 1 0 0 0 1 0 0 0 1 3024.dat
1 71 -220 -136 -10 1 0 0 0 1 0 0 0 1 3024.dat
1 71 -220 -136 110 1 0 0 0 1 0 0 0 1 3024.dat
1 71 -240 -136 60 0 0 1 0 1 0 -1 0 0 3710.dat
0 STEP
1 71 -240 -144 60 0 0 1 0 1 0 -1 0 0 3710.dat
1 71 -240 -144 10 1 0 0 0 1 0 0 0 1 3024.dat
1 71 -210 -144 130 1 0 0 0 1 0 0 0 1 3023.dat
1 71 -220 -144 110 1 0 0 0 1 0 0 0 1 3024.dat
1 71 -220 -144 -10 1 0 0 0 1 0 0 0 1 3024.dat
1 71 -180 -144 150 1 0 0 0 1 0 0 0 1 3623.dat
1 71 -190 -144 -30 1 0 0 0 1 0 0 0 1 3023.dat
1 71 -160 -144 -50 1 0 0 0 1 0 0 0 1 3024.dat
1 71 -140 -144 170 1 0 0 0 1 0 0 0 1 3024.dat
1 71 60 -144 -110 1 0 0 0 1 0 0 0 1 3070b.dat
1 71 220 -144 -70 1 0 0 0 1 0 0 0 1 3024.dat
1 71 280 -144 90 1 0 0 0 1 0 0 0 1 3024.dat
1 71 280 -144 30 1 0 0 0 1 0 0 0 1 3024.dat
0 STEP
1 71 -250 -168 50 0 0 1 0 1 0 -1 0 0 3002.dat
1 71 -240 -168 100 0 0 1 0 1 0 -1 0 0 3004.dat
1 71 -240 -168 0 0 0 1 0 1 0 -1 0 0 3004.dat
1 71 -220 -168 130 1 0 0 0 1 0 0 0 1 3005.dat
1 71 -210 -168 -30 1 0 0 0 1 0 0 0 1 3004.dat
1 71 -150 -168 150 1 0 0 0 1 0 0 0 1 3009.dat
1 71 -150 -168 -50 1 0 0 0 1 0 0 0 1 3009.dat
1 71 -110 -168 170 1 0 0 0 1 0 0 0 1 3009.dat
1 71 -100 -168 -70 1 0 0 0 1 0 0 0 1 3622.dat
1 71 -80 -168 150 1 0 0 0 1 0 0 0 1 3005.dat
1 71 -70 -168 -90 1 0 0 0 1 0 0 0 1 3004.dat
1 71 -50 -168 -120 1 0 0 0 1 0 0 0 1 3003.dat
1 71 -40 -168 190 1 0 0 0 1 0 0 0 1 3005.dat
1 71 10 -168 -150 1 0 0 0 1 0 0 0 1 3009.dat
1 71 0 -168 220 1 0 0 0 1 0 0 0 1 3002.dat
1 71 50 -168 -130 1 0 0 0 1 0 0 0 1 3008.dat
1 71 90 -168 230 1 0 0 0 1 0 0 0 1 3009.dat
1 71 110 -168 210 1 0 0 0 1 0 0 0 1 3010.dat
1 71 130 -168 -110 1 0 0 0 1 0 0 0 1 3010.dat
1 71 160 -168 200 0 0 1 0 1 0 -1 0 0 3004.dat
1 71 170 -168 -90 1 0 0 0 1 0 0 0 1 3004.dat
1 71 180 -168 180 0 0 1 0 1 0 -1 0 0 3004.dat
1 71 200 -168 -70 1 0 0 0 1 0 0 0 1 3622.dat
1 71 210 -168 160 1 0 0 0 1 0 0 0 1 3003.dat
1 71 230 -168 -40 1 0 0 0 1 0 0 0 1 3003.dat
1 71 240 -168 140 0 0 1 0 1 0 -1 0 0 3004.dat
1 71 240 -168 -10 1 0 0 0 1 0 0 0 1 3005.dat
1 71 260 -168 110 1 0 0 0 1 0 0 0 1 3005.dat
1 71 260 -168 10 1 0 0 0 1 0 0 0 1 3005.dat
1 71 290 -168 90 1 0 0 0 1 0 0 0 1 3004.dat
1 71 290 -168 30 1 0 0 0 1 0 0 0 1 3004.dat
1 71 300 -168 60 0 0 1 0 1 0 -1 0 0 3004.dat
1 71 320 -152 60 0 0 1 0 1 0 -1 0 0 3710.dat
1 71 290 -152 110 1 0 0 0 1 0 0 0 1 3023.dat
1 71 290 -152 10 1 0 0 0 1 0 0 0 1 3023.dat
1 71 260 -152 130 1 0 0 0 1 0 0 0 1 3024.dat
1 71 260 -152 -10 1 0 0 0 1 0 0 0 1 3024.dat
1 71 200 -152 -50 1 0 0 0 1 0 0 0 1 3070b.dat
1 71 140 -152 -90 1 0 0 0 1 0 0 0 1 3070b.dat
1 71 80 -152 -110 1 0 0 0 1 0 0 0 1 3024.dat
1 71 50 -152 210 1 0 0 0 1 0 0 0 1 3069b.dat
1 71 -20 -152 190 1 0 0 0 1 0 0 0 1 3024.dat
1 71 -40 -152 170 1 0 0 0 1 0 0 0 1 3024.dat
1 71 -60 -152 150 1 0 0 0 1 0 0 0 1 3024.dat
1 71 -160 -152 -30 1 0 0 0 1 0 0 0 1 3623.dat
1 71 -190 -152 130 1 0 0 0 1 0 0 0 1 3023.dat
1 71 -220 -152 100 0 0 1 0 1 0 -1 0 0 3023.dat
1 71 -220 -152 0 0 0 1 0 1 0 -1 0 0 3023.dat
0 STEP
1 71 -260 -160 10 1 0 0 0 1 0 0 0 1 3024.dat
1 71 -260 -160 90 1 0 0 0 1 0 0 0 1 3024.dat
1 71 -240 -160 130 1 0 0 0 1 0 0 0 1 3024.dat
1 71 -220 -160 -10 1 0 0 0 1 0 0 0 1 3070b.dat
1 71 -220 -160 110 1 0 0 0 1 0 0 0 1 3070b.dat
1 71 -220 -160 150 1 0 0 0 1 0 0 0 1 3024.dat
1 71 -200 -160 130 1 0 0 0 1 0 0 0 1 3070b.dat
1 71 -160 -160 -30 1 0 0 0 1 0 0 0 1 63864.dat
1 71 -180 -160 170 1 0 0 0 1 0 0 0 1 3024.dat
1 71 -60 -160 150 1 0 0 0 1 0 0 0 1 3070b.dat
1 71 -40 -160 170 1 0 0 0 1 0 0 0 1 3070b.dat
1 71 -20 -160 190 1 0 0 0 1 0 0 0 1 3070b.dat
1 71 50 -160 250 1 0 0 0 1 0 0 0 1 3023.dat
1 71 80 -160 -110 1 0 0 0 1 0 0 0 1 3070b.dat
1 71 140 -160 -130 1 0 0 0 1 0 0 0 1 3070b.dat
1 71 200 -160 -90 1 0 0 0 1 0 0 0 1 3024.dat
1 71 260 -160 -10 1 0 0 0 1 0 0 0 1 3070b.dat
1 71 260 -160 130 1 0 0 0 1 0 0 0 1 3070b.dat
1 71 290 -160 10 1 0 0 0 1 0 0 0 1 3069b.dat
1 71 290 -160 110 1 0 0 0 1 0 0 0 1 3069b.dat
1 71 320 -160 70 0 0 1 0 1 0 -1 0 0 63864.dat
0 STEP
1 71 280 -168 60 0 0 1 0 1 0 -1 0 0 3023.dat
1 71 260 -168 30 1 0 0 0 1 0 0 0 1 3024.dat
1 71 260 -168 90 1 0 0 0 1 0 0 0 1 3024.dat
1 71 240 -168 10 1 0 0 0 1 0 0 0 1 3024.dat
1 71 240 -168 110 1 0 0 0 1 0 0 0 1 3024.dat
1 71 220 -168 -10 1 0 0 0 1 0 0 0 1 3070b.dat
1 71 220 -168 130 1 0 0 0 1 0 0 0 1 3024.dat
1 71 200 -168 -90 1 0 0 0 1 0 0 0 1 3024.dat
1 71 140 -168 -90 1 0 0 0 1 0 0 0 1 3024.dat
1 71 80 -168 -150 1 0 0 0 1 0 0 0 1 3024.dat
1 71 50 -168 250 1 0 0 0 1 0 0 0 1 3023.dat
1 71 -40 -168 210 1 0 0 0 1 0 0 0 1 3024.dat
1 71 -60 -168 190 1 0 0 0 1 0 0 0 1 3024.dat
1 71 -160 -168 -70 1 0 0 0 1 0 0 0 1 3623.dat
1 71 -190 -168 170 1 0 0 0 1 0 0 0 1 3023.dat
1 71 -220 -168 -50 1 0 0 0 1 0 0 0 1 3024.dat
1 71 -230 -168 150 1 0 0 0 1 0 0 0 1 3023.dat
1 71 -240 -168 -30 1 0 0 0 1 0 0 0 1 3024.dat
1 71 -240 -168 130 1 0 0 0 1 0 0 0 1 3024.dat
1 71 -260 -168 0 0 0 1 0 1 0 -1 0 0 3023.dat
1 71 -260 -168 100 0 0 1 0 1 0 -1 0 0 3023.dat
0 STEP
1 71 260 -192 100 0 0 1 0 1 0 -1 0 0 3004.dat
1 71 260 -192 10 0 0 1 0 1 0 -1 0 0 3622.dat
1 71 230 -192 140 1 0 0 0 1 0 0 0 1 3003.dat
1 71 240 -192 110 1 0 0 0 1 0 0 0 1 3005.dat
1 71 240 -192 -10 0 0 1 0 1 0 -1 0 0 3622.dat
1 71 210 -192 170 1 0 0 0 1 0 0 0 1 3004.dat
1 71 220 -192 -50 0 0 1 0 1 0 -1 0 0 3622.dat
1 71 180 -192 190 1 0 0 0 1 0 0 0 1 3622.dat
1 71 200 -192 -70 0 0 1 0 1 0 -1 0 0 3622.dat
1 71 180 -192 -80 0 0 1 0 1 0 -1 0 0 3004.dat
1 71 130 -192 210 1 0 0 0 1 0 0 0 1 3010.dat
1 71 150 -192 -100 1 0 0 0 1 0 0 0 1 3003.dat
1 71 70 -192 230 1 0 0 0 1 0 0 0 1 3008.dat
1 71 110 -192 -120 1 0 0 0 1 0 0 0 1 3003.dat
1 71 60 -192 250 1 0 0 0 1 0 0 0 1 3622.dat
1 71 30 -192 -140 1 0 0 0 1 0 0 0 1 2456.dat
1 71 -20 -192 210 1 0 0 0 1 0 0 0 1 3622.dat
1 71 -20 -192 230 1 0 0 0 1 0 0 0 1 3005.dat
1 71 -40 -192 -140 0 0 1 0 1 0 -1 0 0 3004.dat
1 71 -60 -192 190 1 0 0 0 1 0 0 0 1 3005.dat
1 71 -60 -192 -120 0 0 1 0 1 0 -1 0 0 3004.dat
1 71 -150 -192 170 1 0 0 0 1 0 0 0 1 3008.dat
1 71 -80 -192 -90 1 0 0 0 1 0 0 0 1 3005.dat
1 71 -100 -192 190 1 0 0 0 1 0 0 0 1 3005.dat
1 71 -150 -192 -70 1 0 0 0 1 0 0 0 1 3009.dat
1 71 -170 -192 -50 1 0 0 0 1 0 0 0 1 3009.dat
1 71 -220 -192 150 1 0 0 0 1 0 0 0 1 3622.dat
1 71 -250 -192 130 1 0 0 0 1 0 0 0 1 3004.dat
1 71 -250 -192 -20 1 0 0 0 1 0 0 0 1 3003.dat
1 71 -260 -192 60 0 0 1 0 1 0 -1 0 0 3009.dat
1 71 -280 -192 30 1 0 0 0 1 0 0 0 1 3005.dat
1 71 -240 -176 80 0 0 1 0 1 0 -1 0 0 3710.dat
1 71 -240 -176 10 1 0 0 0 1 0 0 0 1 3070b.dat
1 71 -220 -176 -30 1 0 0 0 1 0 0 0 1 3024.dat
1 71 -150 -176 150 1 0 0 0 1 0 0 0 1 3710.dat
1 71 -100 -176 -50 1 0 0 0 1 0 0 0 1 3024.dat
1 71 -80 -176 150 1 0 0 0 1 0 0 0 1 3024.dat
1 71 -80 -176 -70 1 0 0 0 1 0 0 0 1 3024.dat
1 71 -60 -176 170 1 0 0 0 1 0 0 0 1 3024.dat
1 71 -60 -176 -90 1 0 0 0 1 0 0 0 1 3024.dat
1 71 -40 -176 190 1 0 0 0 1 0 0 0 1 3024.dat
1 71 -40 -176 -110 1 0 0 0 1 0 0 0 1 3024.dat
1 71 20 -176 210 1 0 0 0 1 0 0 0 1 3070b.dat
1 71 180 -176 170 1 0 0 0 1 0 0 0 1 3070b.dat
1 71 280 -176 60 0 0 1 0 1 0 -1 0 0 3710.dat
1 71 300 -176 60 0 0 1 0 1 0 -1 0 0 3069b.dat
0 STEP
1 71 270 -184 60 1 0 0 0 1 0 0 0 1 3022.dat
1 71 240 -184 90 1 0 0 0 1 0 0 0 1 3024.dat
1 71 240 -184 30 1 0 0 0 1 0 0 0 1 3024.dat
1 71 180 -184 210 1 0 0 0 1 0 0 0 1 3024.dat
1 71 20 -184 250 1 0 0 0 1 0 0 0 1 3024.dat
1 71 -40 -184 190 1 0 0 0 1 0 0 0 1 3070b.dat
1 71 -40 -184 -110 1 0 0 0 1 0 0 0 1 3070b.dat
1 71 -60 -184 170 1 0 0 0 1 0 0 0 1 3070b.dat
1 71 -60 -184 -90 1 0 0 0 1 0 0 0 1 3070b.dat
1 71 -80 -184 150 1 0 0 0 1 0 0 0 1 3070b.dat
1 71 -80 -184 -70 1 0 0 0 1 0 0 0 1 3070b.dat
1 71 -100 -184 -50 1 0 0 0 1 0 0 0 1 3070b.dat
1 71 -140 -184 190 1 0 0 0 1 0 0 0 1 3623.dat
1 71 -180 -184 150 1 0 0 0 1 0 0 0 1 3070b.dat
1 71 -220 -184 -30 1 0 0 0 1 0 0 0 1 3070b.dat
1 71 -240 -184 110 1 0 0 0 1 0 0 0 1 3070b.dat
1 71 -240 -184 -50 1 0 0 0 1 0 0 0 1 3024.dat
1 71 -280 -184 70 0 0 1 0 1 0 -1 0 0 3623.dat
1 71 -280 -184 10 1 0 0 0 1 0 0 0 1 3024.dat
0 STEP
1 71 -280 -192 10 1 0 0 0 1 0 0 0 1 3024.dat
1 71 -280 -192 80 0 0 1 0 1 0 -1 0 0 3710.dat
1 71 -260 -192 150 1 0 0 0 1 0 0 0 1 3024.dat
1 71 -240 -192 -50 1 0 0 0 1 0 0 0 1 3024.dat
1 71 -220 -192 -70 1 0 0 0 1 0 0 0 1 3024.dat
1 71 -150 -192 190 1 0 0 0 1 0 0 0 1 3710.dat
1 71 -100 -192 -90 1 0 0 0 1 0 0 0 1 3070b.dat
1 71 -80 -192 -110 1 0 0 0 1 0 0 0 1 3070b.dat
1 71 -80 -192 190 1 0 0 0 1 0 0 0 1 3024.dat
1 71 -60 -192 210 1 0 0 0 1 0 0 0 1 3024.dat
1 71 -40 -192 230 1 0 0 0 1 0 0 0 1 3024.dat
1 71 20 -192 250 1 0 0 0 1 0 0 0 1 3024.dat
1 71 180 -192 210 1 0 0 0 1 0 0 0 1 3024.dat
1 71 240 -192 60 0 0 1 0 1 0 -1 0 0 3710.dat
1 71 260 -192 60 0 0 1 0 1 0 -1 0 0 3023.dat
0 STEP
1 71 -270 -216 40 0 0 1 0 1 0 -1 0 0 2456.dat
1 71 -270 -216 110 1 0 0 0 1 0 0 0 1 3004.dat
1 71 -250 -216 -30 1 0 0 0 1 0 0 0 1 3004.dat
1 71 -260 -216 140 0 0 1 0 1 0 -1 0 0 3004.dat
1 71 -220 -216 -50 1 0 0 0 1 0 0 0 1 3622.dat
1 71 -240 -216 160 0 0 1 0 1 0 -1 0 0 3004.dat
1 71 -170 -216 -70 1 0 0 0 1 0 0 0 1 3009.dat
1 71 -150 -216 170 1 0 0 0 1 0 0 0 1 3008.dat
1 71 -130 -216 190 1 0 0 0 1 0 0 0 1 3008.dat
1 71 -150 -216 -90 1 0 0 0 1 0 0 0 1 3004.dat
1 71 -100 -216 -70 1 0 0 0 1 0 0 0 1 3005.dat
1 71 -80 -216 -90 1 0 0 0 1 0 0 0 1 3005.dat
1 71 10 -216 -130 1 0 0 0 1 0 0 0 1 3008.dat
1 71 -60 -216 -110 1 0 0 0 1 0 0 0 1 3005.dat
1 71 -40 -216 210 1 0 0 0 1 0 0 0 1 3622.dat
1 71 10 -216 -150 1 0 0 0 1 0 0 0 1 3009.dat
1 71 30 -216 230 1 0 0 0 1 0 0 0 1 3008.dat
1 71 30 -216 250 1 0 0 0 1 0 0 0 1 3010.dat
1 71 80 -216 -150 1 0 0 0 1 0 0 0 1 3005.dat
1 71 80 -216 250 1 0 0 0 1 0 0 0 1 3005.dat
1 71 110 -216 -120 1 0 0 0 1 0 0 0 1 3003.dat
1 71 130 -216 210 1 0 0 0 1 0 0 0 1 3010.dat
1 71 130 -216 230 1 0 0 0 1 0 0 0 1 3004.dat
1 71 150 -216 -100 1 0 0 0 1 0 0 0 1 3003.dat
1 71 180 -216 190 1 0 0 0 1 0 0 0 1 3622.dat
1 71 190 -216 -80 1 0 0 0 1 0 0 0 1 3003.dat
1 71 180 -216 210 1 0 0 0 1 0 0 0 1 3005.dat
1 71 210 -216 170 1 0 0 0 1 0 0 0 1 3004.dat
1 71 220 -216 -50 0 0 1 0 1 0 -1 0 0 3622.dat
1 71 230 -216 140 1 0 0 0 1 0 0 0 1 3003.dat
1 71 240 -216 20 0 0 1 0 1 0 -1 0 0 3008.dat
1 71 250 -216 110 1 0 0 0 1 0 0 0 1 3004.dat
1 71 260 -216 40 0 0 1 0 1 0 -1 0 0 3009.dat
1 71 -40 -200 -110 1 0 0 0 1 0 0 0 1 3070b.dat
1 71 -60 -200 -90 1 0 0 0 1 0 0 0 1 3070b.dat
1 71 -80 -200 -70 1 0 0 0 1 0 0 0 1 3070b.dat
1 71 -110 -200 -50 1 0 0 0 1 0 0 0 1 3069b.dat
1 71 -180 -200 -50 1 0 0 0 1 0 0 0 1 3024.dat
1 71 -220 -200 150 1 0 0 0 1 0 0 0 1 3024.dat
1 71 -240 -200 130 1 0 0 0 1 0 0 0 1 3070b.dat
0 STEP
1 71 -280 -208 130 1 0 0 0 1 0 0 0 1 3024.dat
1 71 -220 -208 150 1 0 0 0 1 0 0 0 1 3070b.dat
1 71 -180 -208 -50 1 0 0 0 1 0 0 0 1 3070b.dat
1 71 -110 -208 -90 1 0 0 0 1 0 0 0 1 3023.dat
1 71 -80 -208 -110 1 0 0 0 1 0 0 0 1 3024.dat
0 STEP
1 71 -80 -216 -110 1 0 0 0 1 0 0 0 1 3024.dat
1 71 -110 -216 -90 1 0 0 0 1 0 0 0 1 3023.dat
1 71 -180 -216 -90 1 0 0 0 1 0 0 0 1 3024.dat
1 71 -220 -216 190 1 0 0 0 1 0 0 0 1 3024.dat
1 71 -240 -216 -70 1 0 0 0 1 0 0 0 1 3070b.dat
1 71 -260 -216 -50 1 0 0 0 1 0 0 0 1 3024.dat
1 71 -280 -216 130 1 0 0 0 1 0 0 0 1 3024.dat
0 STEP
1 71 250 -240 40 0 0 1 0 1 0 -1 0 0 2456.dat
1 71 250 -240 110 1 0 0 0 1 0 0 0 1 3004.dat
1 71 230 -240 -40 1 0 0 0 1 0 0 0 1 3003.dat
1 71 230 -240 140 1 0 0 0 1 0 0 0 1 3003.dat
1 71 200 -240 -70 1 0 0 0 1 0 0 0 1 3622.dat
1 71 210 -240 170 1 0 0 0 1 0 0 0 1 3004.dat
1 71 170 -240 190 1 0 0 0 1 0 0 0 1 3010.dat
1 71 160 -240 -90 1 0 0 0 1 0 0 0 1 3622.dat
1 71 130 -240 -110 1 0 0 0 1 0 0 0 1 3010.dat
1 71 130 -240 210 1 0 0 0 1 0 0 0 1 3010.dat
1 71 50 -240 -130 1 0 0 0 1 0 0 0 1 3008.dat
1 71 50 -240 230 1 0 0 0 1 0 0 0 1 3008.dat
1 71 10 -240 -150 1 0 0 0 1 0 0 0 1 3009.dat
1 71 -20 -240 210 1 0 0 0 1 0 0 0 1 3622.dat
1 71 -50 -240 -130 1 0 0 0 1 0 0 0 1 3004.dat
1 71 -70 -240 -110 1 0 0 0 1 0 0 0 1 3004.dat
1 71 -130 -240 190 1 0 0 0 1 0 0 0 1 3008.dat
1 71 -130 -240 -90 1 0 0 0 1 0 0 0 1 3009.dat
1 71 -150 -240 170 1 0 0 0 1 0 0 0 1 3008.dat
1 71 -150 -240 -70 1 0 0 0 1 0 0 0 1 3009.dat
1 71 -230 -240 -50 1 0 0 0 1 0 0 0 1 3010.dat
1 71 -220 -240 -70 1 0 0 0 1 0 0 0 1 3005.dat
1 71 -220 -240 190 1 0 0 0 1 0 0 0 1 3005.dat
1 71 -250 -240 -30 1 0 0 0 1 0 0 0 1 3004.dat
1 71 -240 -240 160 0 0 1 0 1 0 -1 0 0 3004.dat
1 71 -270 -240 -10 1 0 0 0 1 0 0 0 1 3004.dat
1 71 -260 -240 140 0 0 1 0 1 0 -1 0 0 3004.dat
1 71 -280 -240 60 0 0 1 0 1 0 -1 0 0 3009.dat
1 71 -280 -240 130 1 0 0 0 1 0 0 0 1 3005.dat
1 71 -300 -240 60 0 0 1 0 1 0 -1 0 0 3010.dat
1 71 -260 -224 10 1 0 0 0 1 0 0 0 1 3070b.dat
1 71 -260 -224 110 1 0 0 0 1 0 0 0 1 3070b.dat
1 71 -60 -224 210 1 0 0 0 1 0 0 0 1 3070b.dat
1 71 -40 -224 230 1 0 0 0 1 0 0 0 1 3070b.dat
1 71 50 -224 250 1 0 0 0 1 0 0 0 1 2431.dat
1 71 80 -224 -150 1 0 0 0 1 0 0 0 1 3070b.dat
1 71 180 -224 210 1 0 0 0 1 0 0 0 1 3024.dat
1 71 200 -224 -90 1 0 0 0 1 0 0 0 1 3024.dat
0 STEP
1 71 200 -232 -90 1 0 0 0 1 0 0 0 1 3070b.dat
1 71 180 -232 210 1 0 0 0 1 0 0 0 1 3070b.dat
1 71 80 -232 -110 1 0 0 0 1 0 0 0 1 3024.dat
1 71 50 -232 210 1 0 0 0 1 0 0 0 1 3710.dat
1 71 -40 -232 190 1 0 0 0 1 0 0 0 1 3024.dat
1 71 -60 -232 170 1 0 0 0 1 0 0 0 1 3024.dat
1 71 -300 -232 10 1 0 0 0 1 0 0 0 1 3024.dat
1 71 -300 -232 110 1 0 0 0 1 0 0 0 1 3024.dat
0 STEP
1 71 -300 -240 110 1 0 0 0 1 0 0 0 1 3024.dat
1 71 -300 -240 10 1 0 0 0 1 0 0 0 1 3070b.dat
1 71 -280 -240 -30 1 0 0 0 1 0 0 0 1 3024.dat
1 71 -60 -240 170 1 0 0 0 1 0 0 0 1 3024.dat
1 71 -40 -240 190 1 0 0 0 1 0 0 0 1 3024.dat
1 71 50 -240 210 1 0 0 0 1 0 0 0 1 3710.dat
1 71 80 -240 -110 1 0 0 0 1 0 0 0 1 3024.dat
1 71 180 -240 170 1 0 0 0 1 0 0 0 1 3024.dat
1 71 200 -240 -50 1 0 0 0 1 0 0 0 1 3024.dat
0 STEP
1 71 -290 -264 80 0 0 1 0 1 0 -1 0 0 3001.dat
1 71 -290 -264 30 1 0 0 0 1 0 0 0 1 3004.dat
1 71 -270 -264 130 1 0 0 0 1 0 0 0 1 3004.dat
1 71 -280 -264 0 0 0 1 0 1 0 -1 0 0 3004.dat
1 71 -250 -264 150 1 0 0 0 1 0 0 0 1 3004.dat
1 71 -260 -264 -30 0 0 1 0 1 0 -1 0 0 3622.dat
1 71 -170 -264 170 1 0 0 0 1 0 0 0 1 3008.dat
1 71 -240 -264 -40 0 0 1 0 1 0 -1 0 0 3004.dat
1 71 -210 -264 -60 1 0 0 0 1 0 0 0 1 3003.dat
1 71 -130 -264 190 1 0 0 0 1 0 0 0 1 3008.dat
1 71 -130 -264 -70 1 0 0 0 1 0 0 0 1 3009.dat
1 71 -110 -264 -90 1 0 0 0 1 0 0 0 1 3009.dat
1 71 -70 -264 170 1 0 0 0 1 0 0 0 1 3004.dat
1 71 -40 -264 190 1 0 0 0 1 0 0 0 1 3005.dat
1 71 -40 -264 -110 1 0 0 0 1 0 0 0 1 3005.dat
1 71 50 -264 210 1 0 0 0 1 0 0 0 1 3008.dat
1 71 30 -264 -130 1 0 0 0 1 0 0 0 1 3009.dat
1 71 50 -264 230 1 0 0 0 1 0 0 0 1 3009.dat
1 71 100 -264 -110 1 0 0 0 1 0 0 0 1 3622.dat
1 71 140 -264 200 0 0 1 0 1 0 -1 0 0 3004.dat
1 71 160 -264 -90 1 0 0 0 1 0 0 0 1 3622.dat
1 71 180 -264 190 1 0 0 0 1 0 0 0 1 3622.dat
1 71 180 -264 -70 1 0 0 0 1 0 0 0 1 3622.dat
1 71 200 -264 170 1 0 0 0 1 0 0 0 1 3622.dat
1 71 210 -264 -50 1 0 0 0 1 0 0 0 1 3004.dat
1 71 220 -264 130 0 0 1 0 1 0 -1 0 0 3622.dat
1 71 230 -264 -30 1 0 0 0 1 0 0 0 1 3004.dat
1 71 240 -264 60 0 0 1 0 1 0 -1 0 0 3008.dat
1 71 260 -264 60 0 0 1 0 1 0 -1 0 0 3010.dat
1 71 260 -264 10 1 0 0 0 1 0 0 0 1 3005.dat
1 71 260 -248 -10 1 0 0 0 1 0 0 0 1 3070b.dat
1 71 240 -248 150 1 0 0 0 1 0 0 0 1 3070b.dat
1 71 240 -248 -50 1 0 0 0 1 0 0 0 1 3070b.dat
1 71 220 -248 -70 1 0 0 0 1 0 0 0 1 3070b.dat
1 71 160 -248 210 1 0 0 0 1 0 0 0 1 3024.dat
1 71 140 -248 -110 1 0 0 0 1 0 0 0 1 3024.dat
1 71 120 -248 230 1 0 0 0 1 0 0 0 1 3024.dat
1 71 110 -248 -130 1 0 0 0 1 0 0 0 1 3023.dat
1 71 30 -248 -150 1 0 0 0 1 0 0 0 1 3710.dat
1 71 -20 -248 230 1 0 0 0 1 0 0 0 1 3024.dat
1 71 -20 -248 -150 1 0 0 0 1 0 0 0 1 3070b.dat
1 71 -40 -248 210 1 0 0 0 1 0 0 0 1 3024.dat
1 71 -40 -248 -130 1 0 0 0 1 0 0 0 1 3024.dat
1 71 -60 -248 -110 1 0 0 0 1 0 0 0 1 3024.dat
1 71 -180 -248 -90 1 0 0 0 1 0 0 0 1 3070b.dat
1 71 -220 -248 190 1 0 0 0 1 0 0 0 1 3024.dat
1 71 -260 -248 10 1 0 0 0 1 0 0 0 1 3024.dat
1 71 -280 -248 -30 1 0 0 0 1 0 0 0 1 3024.dat
0 STEP
1 71 -280 -256 -30 1 0 0 0 1 0 0 0 1 3070b.dat
1 71 -260 -256 10 1 0 0 0 1 0 0 0 1 3070b.dat
1 71 -220 -256 190 1 0 0 0 1 0 0 0 1 3070b.dat
1 71 -180 -256 -50 1 0 0 0 1 0 0 0 1 3024.dat
1 71 -60 -256 -110 1 0 0 0 1 0 0 0 1 3070b.dat
1 71 -40 -256 -130 1 0 0 0 1 0 0 0 1 3070b.dat
1 71 -40 -256 210 1 0 0 0 1 0 0 0 1 3070b.dat
1 71 -20 -256 -110 1 0 0 0 1 0 0 0 1 3024.dat
1 71 -20 -256 230 1 0 0 0 1 0 0 0 1 3070b.dat
1 71 10 -256 -150 1 0 0 0 1 0 0 0 1 3069b.dat
1 71 50 -256 -110 1 0 0 0 1 0 0 0 1 3023.dat
1 71 100 -256 -130 1 0 0 0 1 0 0 0 1 3070b.dat
1 71 120 -256 -90 1 0 0 0 1 0 0 0 1 3024.dat
1 71 120 -256 230 1 0 0 0 1 0 0 0 1 3070b.dat
1 71 140 -256 -110 1 0 0 0 1 0 0 0 1 3070b.dat
1 71 160 -256 210 1 0 0 0 1 0 0 0 1 3070b.dat
1 71 200 -256 150 1 0 0 0 1 0 0 0 1 3024.dat
1 71 220 -256 -10 1 0 0 0 1 0 0 0 1 3024.dat
0 STEP
1 71 220 -264 -10 1 0 0 0 1 0 0 0 1 3024.dat
1 71 200 -264 150 1 0 0 0 1 0 0 0 1 3024.dat
1 71 160 -264 170 1 0 0 0 1 0 0 0 1 3024.dat
1 71 140 -264 -70 1 0 0 0 1 0 0 0 1 3024.dat
1 71 110 -264 -90 1 0 0 0 1 0 0 0 1 3023.dat
1 71 120 -264 190 1 0 0 0 1 0 0 0 1 3024.dat
1 71 30 -264 -110 1 0 0 0 1 0 0 0 1 3710.dat
1 71 -20 -264 -110 1 0 0 0 1 0 0 0 1 3024.dat
1 71 -20 -264 190 1 0 0 0 1 0 0 0 1 3024.dat
1 71 -40 -264 -90 1 0 0 0 1 0 0 0 1 3024.dat
1 71 -40 -264 170 1 0 0 0 1 0 0 0 1 3024.dat
1 71 -60 -264 -70 1 0 0 0 1 0 0 0 1 3024.dat
1 71 -180 -264 -50 1 0 0 0 1 0 0 0 1 3024.dat
1 71 -220 -264 150 1 0 0 0 1 0 0 0 1 3024.dat
1 71 -300 -264 10 1 0 0 0 1 0 0 0 1 3024.dat
0 STEP
1 71 230 -288 100 1 0 0 0 1 0 0 0 1 3003.dat
1 71 240 -288 20 0 0 1 0 1 0 -1 0 0 3009.dat
1 71 220 -288 140 0 0 1 0 1 0 -1 0 0 3004.dat
1 71 220 -288 -20 0 0 1 0 1 0 -1 0 0 3010.dat
1 71 180 -288 170 1 0 0 0 1 0 0 0 1 3622.dat
1 71 200 -288 150 1 0 0 0 1 0 0 0 1 3005.dat
1 71 190 -288 -60 1 0 0 0 1 0 0 0 1 3003.dat
1 71 150 -288 190 1 0 0 0 1 0 0 0 1 3010.dat
1 71 140 -288 -80 1 0 0 0 1 0 0 0 1 3002.dat
1 71 110 -288 210 1 0 0 0 1 0 0 0 1 3004.dat
1 71 100 -288 190 1 0 0 0 1 0 0 0 1 3005.dat
1 71 90 -288 -90 1 0 0 0 1 0 0 0 1 3004.dat
1 71 -30 -288 190 1 0 0 0 1 0 0 0 1 3010.dat
1 71 -70 -288 -90 1 0 0 0 1 0 0 0 1 3008.dat
1 71 -90 -288 170 1 0 0 0 1 0 0 0 1 3008.dat
1 71 -110 -288 -70 1 0 0 0 1 0 0 0 1 3008.dat
1 71 -100 -288 150 1 0 0 0 1 0 0 0 1 3005.dat
1 71 -170 -288 190 1 0 0 0 1 0 0 0 1 3004.dat
1 71 -160 -288 -90 1 0 0 0 1 0 0 0 1 3005.dat
1 71 -210 -288 170 1 0 0 0 1 0 0 0 1 3010.dat
1 71 -210 -288 -50 1 0 0 0 1 0 0 0 1 3010.dat
1 71 -200 -288 -70 1 0 0 0 1 0 0 0 1 3005.dat
1 71 -240 -288 150 1 0 0 0 1 0 0 0 1 3622.dat
1 71 -250 -288 -30 1 0 0 0 1 0 0 0 1 3004.dat
1 71 -270 -288 130 1 0 0 0 1 0 0 0 1 3004.dat
1 71 -270 -288 -10 1 0 0 0 1 0 0 0 1 3004.dat
1 71 -280 -288 60 0 0 1 0 1 0 -1 0 0 3009.dat
1 71 -300 -288 60 0 0 1 0 1 0 -1 0 0 3010.dat
1 71 -300 -272 110 1 0 0 0 1 0 0 0 1 3024.dat
1 71 -300 -272 10 1 0 0 0 1 0 0 0 1 3070b.dat
1 71 -220 -272 -70 1 0 0 0 1 0 0 0 1 3024.dat
1 71 -200 -272 190 1 0 0 0 1 0 0 0 1 3070b.dat
1 71 -130 -272 190 1 0 0 0 1 0 0 0 1 3023.dat
1 71 -80 -272 190 1 0 0 0 1 0 0 0 1 3024.dat
1 71 30 -272 -110 1 0 0 0 1 0 0 0 1 3666.dat
1 71 30 -272 210 1 0 0 0 1 0 0 0 1 3710.dat
1 71 50 -272 230 1 0 0 0 1 0 0 0 1 2431.dat
1 71 40 -272 -130 1 0 0 0 1 0 0 0 1 63864.dat
1 71 80 -272 210 1 0 0 0 1 0 0 0 1 3024.dat
1 71 100 -272 -110 1 0 0 0 1 0 0 0 1 3070b.dat
1 71 140 -272 210 1 0 0 0 1 0 0 0 1 3024.dat
1 71 240 -272 130 1 0 0 0 1 0 0 0 1 3024.dat
1 71 260 -272 50 0 0 1 0 1 0 -1 0 0 63864.dat
0 STEP
1 71 240 -280 130 1 0 0 0 1 0 0 0 1 3070b.dat
1 71 220 -280 50 0 0 1 0 1 0 -1 0 0 3623.dat
1 71 140 -280 210 1 0 0 0 1 0 0 0 1 3070b.dat
1 71 100 -280 -70 1 0 0 0 1 0 0 0 1 3024.dat
1 71 50 -280 200 1 0 0 0 1 0 0 0 1 3020.dat
1 71 50 -280 -110 1 0 0 0 1 0 0 0 1 2431.dat
1 71 40 -280 -90 1 0 0 0 1 0 0 0 1 3623.dat
1 71 0 -280 170 1 0 0 0 1 0 0 0 1 3024.dat
1 71 -10 -280 -70 1 0 0 0 1 0 0 0 1 3023.dat
1 71 -80 -280 190 1 0 0 0 1 0 0 0 1 3070b.dat
1 71 -130 -280 190 1 0 0 0 1 0 0 0 1 3069b.dat
1 71 -200 -280 150 1 0 0 0 1 0 0 0 1 3024.dat
1 71 -220 -280 -70 1 0 0 0 1 0 0 0 1 3070b.dat
1 71 -260 -280 10 1 0 0 0 1 0 0 0 1 3024.dat
1 71 -300 -280 110 1 0 0 0 1 0 0 0 1 3070b.dat
0 STEP
1 71 -260 -288 10 1 0 0 0 1 0 0 0 1 3024.dat
1 71 -260 -288 110 1 0 0 0 1 0 0 0 1 3024.dat
1 71 -220 -288 -30 1 0 0 0 1 0 0 0 1 3024.dat
1 71 -200 -288 150 1 0 0 0 1 0 0 0 1 3024.dat
1 71 -130 -288 150 1 0 0 0 1 0 0 0 1 3023.dat
1 71 -80 -288 150 1 0 0 0 1 0 0 0 1 3024.dat
1 71 30 -288 -70 1 0 0 0 1 0 0 0 1 3666.dat
1 71 30 -288 170 1 0 0 0 1 0 0 0 1 3710.dat
1 71 40 -288 -90 1 0 0 0 1 0 0 0 1 3623.dat
1 71 50 -288 190 1 0 0 0 1 0 0 0 1 3710.dat
1 71 80 -288 170 1 0 0 0 1 0 0 0 1 3024.dat
1 71 100 -288 -70 1 0 0 0 1 0 0 0 1 3024.dat
1 71 140 -288 170 1 0 0 0 1 0 0 0 1 3024.dat
1 71 200 -288 130 1 0 0 0 1 0 0 0 1 3024.dat
1 71 220 -288 50 0 0 1 0 1 0 -1 0 0 3623.dat
0 STEP
1 71 -270 -312 0 1 0 0 0 1 0 0 0 1 3003.dat
1 71 -280 -312 60 0 0 1 0 1 0 -1 0 0 3010.dat
1 71 -270 -312 110 1 0 0 0 1 0 0 0 1 3004.dat
1 71 -240 -312 -30 1 0 0 0 1 0 0 0 1 3622.dat
1 71 -260 -312 140 0 0 1 0 1 0 -1 0 0 3004.dat
1 71 -170 -312 150 1 0 0 0 1 0 0 0 1 3008.dat
1 71 -190 -312 -50 1 0 0 0 1 0 0 0 1 3010.dat
1 71 -150 -312 170 1 0 0 0 1 0 0 0 1 3008.dat
1 71 -130 -312 -70 1 0 0 0 1 0 0 0 1 3008.dat
1 71 -70 -312 150 1 0 0 0 1 0 0 0 1 3004.dat
1 71 10 -312 -90 1 0 0 0 1 0 0 0 1 3008.dat
1 71 10 -312 170 1 0 0 0 1 0 0 0 1 3008.dat
1 71 30 -312 -70 1 0 0 0 1 0 0 0 1 3008.dat
1 71 30 -312 190 1 0 0 0 1 0 0 0 1 3010.dat
1 71 80 -312 190 1 0 0 0 1 0 0 0 1 3005.dat
1 71 100 -312 -90 1 0 0 0 1 0 0 0 1 3005.dat
1 71 130 -312 170 1 0 0 0 1 0 0 0 1 3010.dat
1 71 150 -312 -70 1 0 0 0 1 0 0 0 1 3010.dat
1 71 130 -312 190 1 0 0 0 1 0 0 0 1 3004.dat
1 71 180 -312 -50 1 0 0 0 1 0 0 0 1 3622.dat
1 71 190 -312 150 1 0 0 0 1 0 0 0 1 3004.dat
1 71 180 -312 170 1 0 0 0 1 0 0 0 1 3005.dat
1 71 210 -312 -30 1 0 0 0 1 0 0 0 1 3004.dat
1 71 210 -312 130 1 0 0 0 1 0 0 0 1 3004.dat
1 71 220 -312 40 0 0 1 0 1 0 -1 0 0 3009.dat
1 71 220 -312 110 1 0 0 0 1 0 0 0 1 3005.dat
1 71 240 -312 40 0 0 1 0 1 0 -1 0 0 3010.dat
1 71 240 -312 90 1 0 0 0 1 0 0 0 1 3005.dat
1 71 240 -296 -10 1 0 0 0 1 0 0 0 1 3024.dat
1 71 240 -296 110 1 0 0 0 1 0 0 0 1 3024.dat
1 71 220 -296 150 1 0 0 0 1 0 0 0 1 3070b.dat
1 71 160 -296 190 1 0 0 0 1 0 0 0 1 3024.dat
1 71 130 -296 -90 1 0 0 0 1 0 0 0 1 3069b.dat
1 71 100 -296 190 1 0 0 0 1 0 0 0 1 3024.dat
1 71 -30 -296 190 1 0 0 0 1 0 0 0 1 3023.dat
1 71 -110 -296 -90 1 0 0 0 1 0 0 0 1 3710.dat
1 71 -240 -296 -50 1 0 0 0 1 0 0 0 1 3024.dat
1 71 -240 -296 170 1 0 0 0 1 0 0 0 1 3070b.dat
1 71 -280 -296 130 1 0 0 0 1 0 0 0 1 3024.dat
1 71 -300 -296 60 0 0 1 0 1 0 -1 0 0 3710.dat
0 STEP
1 71 -300 -304 60 0 0 1 0 1 0 -1 0 0 3069b.dat
1 71 -280 -304 130 1 0 0 0 1 0 0 0 1 3070b.dat
1 71 -260 -304 90 1 0 0 0 1 0 0 0 1 3024.dat
1 71 -260 -304 30 1 0 0 0 1 0 0 0 1 3024.dat
1 71 -240 -304 130 1 0 0 0 1 0 0 0 1 3024.dat
1 71 -240 -304 -50 1 0 0 0 1 0 0 0 1 3070b.dat
1 71 -140 -304 -50 1 0 0 0 1 0 0 0 1 3024.dat
1 71 -100 -304 -90 1 0 0 0 1 0 0 0 1 63864.dat
1 71 -40 -304 150 1 0 0 0 1 0 0 0 1 3024.dat
1 71 -20 -304 190 1 0 0 0 1 0 0 0 1 3070b.dat
1 71 100 -304 190 1 0 0 0 1 0 0 0 1 3070b.dat
1 71 130 -304 -50 1 0 0 0 1 0 0 0 1 3023.dat
1 71 160 -304 190 1 0 0 0 1 0 0 0 1 3070b.dat
1 71 240 -304 110 1 0 0 0 1 0 0 0 1 3070b.dat
1 71 240 -304 -10 1 0 0 0 1 0 0 0 1 3070b.dat
0 STEP
1 71 200 -312 110 1 0 0 0 1 0 0 0 1 3024.dat
1 71 200 -312 -10 1 0 0 0 1 0 0 0 1 3024.dat
1 71 160 -312 150 1 0 0 0 1 0 0 0 1 3024.dat
1 71 130 -312 -50 1 0 0 0 1 0 0 0 1 3023.dat
1 71 100 -312 150 1 0 0 0 1 0 0 0 1 3024.dat
1 71 -30 -312 150 1 0 0 0 1 0 0 0 1 3023.dat
1 71 -110 -312 -50 1 0 0 0 1 0 0 0 1 3710.dat
1 71 -240 -312 170 1 0 0 0 1 0 0 0 1 3024.dat
1 71 -240 -312 130 1 0 0 0 1 0 0 0 1 3070b.dat
1 71 -240 -312 -10 1 0 0 0 1 0 0 0 1 3024.dat
1 71 -260 -312 60 0 0 1 0 1 0 -1 0 0 3710.dat
0 STEP
1 71 210 -336 0 1 0 0 0 1 0 0 0 1 3003.dat
1 71 220 -336 60 0 0 1 0 1 0 -1 0 0 3010.dat
1 71 210 -336 110 1 0 0 0 1 0 0 0 1 3004.dat
1 71 190 -336 -30 1 0 0 0 1 0 0 0 1 3004.dat
1 71 200 -336 80 0 0 1 0 1 0 -1 0 0 3004.dat
1 71 200 -336 130 1 0 0 0 1 0 0 0 1 3005.dat
1 71 150 -336 -50 1 0 0 0 1 0 0 0 1 3010.dat
1 71 150 -336 150 1 0 0 0 1 0 0 0 1 3010.dat
1 71 70 -336 -70 1 0 0 0 1 0 0 0 1 3008.dat
1 71 70 -336 170 1 0 0 0 1 0 0 0 1 3008.dat
1 71 100 -336 -50 1 0 0 0 1 0 0 0 1 3005.dat
1 71 100 -336 150 1 0 0 0 1 0 0 0 1 3005.dat
1 71 -70 -336 150 1 0 0 0 1 0 0 0 1 3008.dat
1 71 -90 -336 -70 1 0 0 0 1 0 0 0 1 3008.dat
1 71 -20 -336 170 1 0 0 0 1 0 0 0 1 3005.dat
1 71 -130 -336 -50 1 0 0 0 1 0 0 0 1 3008.dat
1 71 -170 -336 150 1 0 0 0 1 0 0 0 1 3004.dat
1 71 -190 -336 170 1 0 0 0 1 0 0 0 1 3004.dat
1 71 -220 -336 -30 1 0 0 0 1 0 0 0 1 3622.dat
1 71 -250 -336 -10 1 0 0 0 1 0 0 0 1 3004.dat
1 71 -250 -336 190 1 0 0 0 1 0 0 0 1 3004.dat
1 71 -270 -336 10 1 0 0 0 1 0 0 0 1 3004.dat
1 71 -280 -336 80 0 0 1 0 1 0 -1 0 0 3009.dat
1 71 -280 -336 150 1 0 0 0 1 0 0 0 1 3005.dat
1 71 -260 -320 100 0 0 1 0 1 0 -1 0 0 3460.dat
1 71 -230 -320 170 1 0 0 0 1 0 0 0 1 3023.dat
1 71 -220 -320 -50 1 0 0 0 1 0 0 0 1 3024.dat
1 71 -210 -320 150 1 0 0 0 1 0 0 0 1 3069b.dat
1 71 -180 -320 -70 1 0 0 0 1 0 0 0 1 3024.dat
1 71 -110 -320 170 1 0 0 0 1 0 0 0 1 3666.dat
1 71 10 -320 -90 1 0 0 0 1 0 0 0 1 3666.dat
1 71 -40 -320 170 1 0 0 0 1 0 0 0 1 3024.dat
1 71 50 -320 190 1 0 0 0 1 0 0 0 1 3710.dat
1 71 80 -320 -90 1 0 0 0 1 0 0 0 1 3070b.dat
1 71 160 -320 -70 1 0 0 0 1 0 0 0 1 3070b.dat
1 71 170 -320 170 1 0 0 0 1 0 0 0 1 3023.dat
1 71 200 -320 -50 1 0 0 0 1 0 0 0 1 3070b.dat
1 71 200 -320 150 1 0 0 0 1 0 0 0 1 3024.dat
1 71 220 -320 -30 1 0 0 0 1 0 0 0 1 3070b.dat
1 71 220 -320 130 1 0 0 0 1 0 0 0 1 3024.dat
1 71 240 -320 40 0 0 1 0 1 0 -1 0 0 3069b.dat
0 STEP
1 71 220 -328 130 1 0 0 0 1 0 0 0 1 3070b.dat
1 71 200 -328 40 0 0 1 0 1 0 -1 0 0 3023.dat
1 71 200 -328 150 1 0 0 0 1 0 0 0 1 3070b.dat
1 71 180 -328 130 1 0 0 0 1 0 0 0 1 3024.dat
1 71 160 -328 -30 1 0 0 0 1 0 0 0 1 3024.dat
1 71 160 -328 170 1 0 0 0 1 0 0 0 1 3070b.dat
1 71 80 -328 -50 1 0 0 0 1 0 0 0 1 3024.dat
1 71 80 -328 150 1 0 0 0 1 0 0 0 1 3024.dat
1 71 40 -328 -90 1 0 0 0 1 0 0 0 1 63864.dat
1 71 50 -328 190 1 0 0 0 1 0 0 0 1 3069b.dat
1 71 20 -328 150 1 0 0 0 1 0 0 0 1 3024.dat
1 71 -20 -328 -50 1 0 0 0 1 0 0 0 1 3623.dat
1 71 -40 -328 170 1 0 0 0 1 0 0 0 1 3070b.dat
1 71 -80 -328 130 1 0 0 0 1 0 0 0 1 3623.dat
1 71 -120 -328 170 1 0 0 0 1 0 0 0 1 3070b.dat
1 71 -150 -328 130 1 0 0 0 1 0 0 0 1 3023.dat
1 71 -180 -328 -70 1 0 0 0 1 0 0 0 1 3070b.dat
1 71 -210 -328 190 1 0 0 0 1 0 0 0 1 3023.dat
1 71 -220 -328 -50 1 0 0 0 1 0 0 0 1 3070b.dat
1 71 -250 -328 170 1 0 0 0 1 0 0 0 1 3710.dat
1 71 -260 -328 120 0 0 1 0 1 0 -1 0 0 3069b.dat
1 71 -280 -328 190 1 0 0 0 1 0 0 0 1 3024.dat
1 71 -300 -328 60 0 0 1 0 1 0 -1 0 0 3710.dat
1 71 -300 -328 160 0 0 1 0 1 0 -1 0 0 3023.dat
0 STEP
1 71 -290 -336 180 1 0 0 0 1 0 0 0 1 3022.dat
1 71 -300 -336 100 0 0 1 0 1 0 -1 0 0 3666.dat
1 71 -300 -336 30 1 0 0 0 1 0 0 0 1 3024.dat
1 71 -240 -336 210 1 0 0 0 1 0 0 0 1 3623.dat
1 71 -210 -336 190 1 0 0 0 1 0 0 0 1 3023.dat
1 71 -220 -336 -10 1 0 0 0 1 0 0 0 1 3024.dat
1 71 -180 -336 -30 1 0 0 0 1 0 0 0 1 3024.dat
1 71 -110 -336 130 1 0 0 0 1 0 0 0 1 3666.dat
1 71 -40 -336 130 1 0 0 0 1 0 0 0 1 3024.dat
1 71 10 -336 -50 1 0 0 0 1 0 0 0 1 3666.dat
1 71 50 -336 150 1 0 0 0 1 0 0 0 1 3710.dat
1 71 80 -336 -50 1 0 0 0 1 0 0 0 1 3024.dat
1 71 170 -336 130 1 0 0 0 1 0 0 0 1 3023.dat
1 71 160 -336 -30 1 0 0 0 1 0 0 0 1 3024.dat
1 71 200 -336 40 0 0 1 0 1 0 -1 0 0 3023.dat
0 STEP
1 71 -310 -360 70 0 0 1 0 1 0 -1 0 0 3002.dat
1 71 -300 -360 160 0 0 1 0 1 0 -1 0 0 3010.dat
1 71 -300 -360 110 1 0 0 0 1 0 0 0 1 3005.dat
1 71 -290 -360 20 1 0 0 0 1 0 0 0 1 3003.dat
1 71 -270 -360 200 1 0 0 0 1 0 0 0 1 3003.dat
1 71 -250 -360 -10 1 0 0 0 1 0 0 0 1 3010.dat
1 71 -220 -360 210 1 0 0 0 1 0 0 0 1 3622.dat
1 71 -210 -360 -30 1 0 0 0 1 0 0 0 1 3010.dat
1 71 -200 -360 190 1 0 0 0 1 0 0 0 1 3005.dat
1 71 -180 -360 170 1 0 0 0 1 0 0 0 1 3005.dat
1 71 -110 -360 -50 1 0 0 0 1 0 0 0 1 3008.dat
1 71 -150 -360 150 1 0 0 0 1 0 0 0 1 3004.dat
1 71 -90 -360 130 1 0 0 0 1 0 0 0 1 3009.dat
1 71 50 -360 150 1 0 0 0 1 0 0 0 1 3008.dat
1 71 50 -360 -50 1 0 0 0 1 0 0 0 1 3008.dat
1 71 50 -360 170 1 0 0 0 1 0 0 0 1 3010.dat
1 71 90 -360 -70 1 0 0 0 1 0 0 0 1 3004.dat
1 71 100 -360 170 1 0 0 0 1 0 0 0 1 3005.dat
1 71 150 -360 140 1 0 0 0 1 0 0 0 1 3003.dat
1 71 160 -360 -30 1 0 0 0 1 0 0 0 1 3622.dat
1 71 140 -360 -50 1 0 0 0 1 0 0 0 1 3005.dat
1 71 180 -360 120 0 0 1 0 1 0 -1 0 0 3004.dat
1 71 180 -360 -10 1 0 0 0 1 0 0 0 1 3005.dat
1 71 200 -360 60 0 0 1 0 1 0 -1 0 0 3009.dat
1 71 220 -344 60 0 0 1 0 1 0 -1 0 0 2431.dat
1 71 220 -344 10 1 0 0 0 1 0 0 0 1 3070b.dat
1 71 200 -344 130 1 0 0 0 1 0 0 0 1 3024.dat
1 71 200 -344 -10 1 0 0 0 1 0 0 0 1 3024.dat
1 71 180 -344 150 1 0 0 0 1 0 0 0 1 3070b.dat
1 71 160 -344 -50 1 0 0 0 1 0 0 0 1 3024.dat
1 71 120 -344 170 1 0 0 0 1 0 0 0 1 3024.dat
1 71 120 -344 -70 1 0 0 0 1 0 0 0 1 3024.dat
1 71 -10 -344 -70 1 0 0 0 1 0 0 0 1 3460.dat
1 71 -10 -344 170 1 0 0 0 1 0 0 0 1 3023.dat
1 71 -70 -344 150 1 0 0 0 1 0 0 0 1 3710.dat
1 71 -130 -344 -70 1 0 0 0 1 0 0 0 1 2431.dat
1 71 -120 -344 150 1 0 0 0 1 0 0 0 1 3070b.dat
1 71 -160 -344 130 1 0 0 0 1 0 0 0 1 3070b.dat
1 71 -180 -344 150 1 0 0 0 1 0 0 0 1 3070b.dat
1 71 -200 -344 170 1 0 0 0 1 0 0 0 1 3070b.dat
1 71 -200 -344 -50 1 0 0 0 1 0 0 0 1 3070b.dat
1 71 -230 -344 190 1 0 0 0 1 0 0 0 1 3069b.dat
1 71 -260 -344 10 1 0 0 0 1 0 0 0 1 3024.dat
1 71 -280 -344 140 0 0 1 0 1 0 -1 0 0 3710.dat
0 STEP
1 71 -320 -352 110 1 0 0 0 1 0 0 0 1 3024.dat
1 71 -320 -352 160 0 0 1 0 1 0 -1 0 0 3023.dat
1 71 -280 -352 130 1 0 0 0 1 0 0 0 1 3070b.dat
1 71 -260 -352 10 1 0 0 0 1 0 0 0 1 3070b.dat
1 71 -230 -352 230 1 0 0 0 1 0 0 0 1 3023.dat
1 71 -200 -352 -10 1 0 0 0 1 0 0 0 1 3024.dat
1 71 -180 -352 190 1 0 0 0 1 0 0 0 1 3024.dat
1 71 -90 -352 -30 1 0 0 0 1 0 0 0 1 3460.dat
1 71 -160 -352 170 1 0 0 0 1 0 0 0 1 3024.dat
1 71 -90 -352 110 1 0 0 0 1 0 0 0 1 3710.dat
1 71 -40 -352 150 1 0 0 0 1 0 0 0 1 3070b.dat
1 71 -20 -352 130 1 0 0 0 1 0 0 0 1 3024.dat
1 71 30 -352 -70 1 0 0 0 1 0 0 0 1 2431.dat
1 71 0 -352 170 1 0 0 0 1 0 0 0 1 3070b.dat
1 71 120 -352 -70 1 0 0 0 1 0 0 0 1 3070b.dat
1 71 120 -352 170 1 0 0 0 1 0 0 0 1 3070b.dat
1 71 160 -352 -50 1 0 0 0 1 0 0 0 1 3070b.dat
1 71 180 -352 40 0 0 1 0 1 0 -1 0 0 3710.dat
1 71 180 -352 90 1 0 0 0 1 0 0 0 1 3024.dat
1 71 200 -352 -10 1 0 0 0 1 0 0 0 1 3070b.dat
1 71 200 -352 130 1 0 0 0 1 0 0 0 1 3070b.dat
0 STEP
1 71 180 -360 40 0 0 1 0 1 0 -1 0 0 3710.dat
1 71 180 -360 90 1 0 0 0 1 0 0 0 1 3024.dat
1 71 160 -360 -10 1 0 0 0 1 0 0 0 1 3024.dat
1 71 120 -360 -30 1 0 0 0 1 0 0 0 1 3024.dat
1 71 120 -360 130 1 0 0 0 1 0 0 0 1 3024.dat
1 71 -10 -360 -30 1 0 0 0 1 0 0 0 1 3460.dat
1 71 -10 -360 130 1 0 0 0 1 0 0 0 1 3023.dat
1 71 -70 -360 110 1 0 0 0 1 0 0 0 1 3710.dat
1 71 -130 -360 -30 1 0 0 0 1 0 0 0 1 3710.dat
1 71 -120 -360 110 1 0 0 0 1 0 0 0 1 3024.dat
1 71 -160 -360 170 1 0 0 0 1 0 0 0 1 3024.dat
1 71 -180 -360 190 1 0 0 0 1 0 0 0 1 3024.dat
1 71 -200 -360 -10 1 0 0 0 1 0 0 0 1 3024.dat
1 71 -230 -360 230 1 0 0 0 1 0 0 0 1 3023.dat
1 71 -260 -360 -30 1 0 0 0 1 0 0 0 1 3024.dat
1 71 -320 -360 140 0 0 1 0 1 0 -1 0 0 3710.dat
0 STEP
1 71 180 -384 60 0 0 1 0 1 0 -1 0 0 3004.dat
1 71 160 -384 110 1 0 0 0 1 0 0 0 1 3005.dat
1 71 160 -384 0 0 0 1 0 1 0 -1 0 0 3004.dat
1 71 70 -384 130 1 0 0 0 1 0 0 0 1 3008.dat
1 71 70 -384 -30 1 0 0 0 1 0 0 0 1 3008.dat
1 71 90 -384 150 1 0 0 0 1 0 0 0 1 3010.dat
1 71 40 -384 150 1 0 0 0 1 0 0 0 1 3005.dat
1 71 -50 -384 -10 1 0 0 0 1 0 0 0 1 3004.dat
1 71 -100 -384 110 1 0 0 0 1 0 0 0 1 3622.dat
1 71 -150 -384 -30 1 0 0 0 1 0 0 0 1 3008.dat
1 71 -130 -384 130 1 0 0 0 1 0 0 0 1 3004.dat
1 71 -150 -384 150 1 0 0 0 1 0 0 0 1 3004.dat
1 71 -170 -384 170 1 0 0 0 1 0 0 0 1 3004.dat
1 71 -190 -384 190 1 0 0 0 1 0 0 0 1 3004.dat
1 71 -230 -384 -10 1 0 0 0 1 0 0 0 1 3009.dat
1 71 -230 -384 210 1 0 0 0 1 0 0 0 1 3010.dat
1 71 -230 -384 230 1 0 0 0 1 0 0 0 1 3004.dat
1 71 -250 -384 -30 1 0 0 0 1 0 0 0 1 3004.dat
1 71 -280 -384 200 0 0 1 0 1 0 -1 0 0 3004.dat
1 71 -290 -384 20 1 0 0 0 1 0 0 0 1 3003.dat
1 71 -300 -384 120 0 0 1 0 1 0 -1 0 0 3008.dat
1 71 -320 -384 120 0 0 1 0 1 0 -1 0 0 3009.dat
1 71 -320 -384 50 1 0 0 0 1 0 0 0 1 3005.dat
1 71 -300 -368 210 1 0 0 0 1 0 0 0 1 3024.dat
1 71 -260 -368 190 1 0 0 0 1 0 0 0 1 3024.dat
1 71 -130 -368 -50 1 0 0 0 1 0 0 0 1 3710.dat
1 71 -70 -368 130 1 0 0 0 1 0 0 0 1 2431.dat
1 71 -80 -368 -50 1 0 0 0 1 0 0 0 1 3070b.dat
1 71 -50 -368 110 1 0 0 0 1 0 0 0 1 3023.dat
1 71 -40 -368 -30 1 0 0 0 1 0 0 0 1 3623.dat
1 71 0 -368 150 1 0 0 0 1 0 0 0 1 3623.dat
1 71 -20 -368 130 1 0 0 0 1 0 0 0 1 3024.dat
1 71 50 -368 -50 1 0 0 0 1 0 0 0 1 3460.dat
1 71 150 -368 150 1 0 0 0 1 0 0 0 1 3069b.dat
1 71 140 -368 -50 1 0 0 0 1 0 0 0 1 3070b.dat
1 71 170 -368 130 1 0 0 0 1 0 0 0 1 3023.dat
1 71 160 -368 -30 1 0 0 0 1 0 0 0 1 3070b.dat
1 71 180 -368 100 0 0 1 0 1 0 -1 0 0 3023.dat
1 71 180 -368 10 0 0 1 0 1 0 -1 0 0 3623.dat
1 71 200 -368 60 0 0 1 0 1 0 -1 0 0 2431.dat
0 STEP
1 71 180 -376 100 0 0 1 0 1 0 -1 0 0 3069b.dat
1 71 180 -376 20 0 0 1 0 1 0 -1 0 0 3069b.dat
1 71 160 -376 130 1 0 0 0 1 0 0 0 1 3070b.dat
1 71 160 -376 60 0 0 1 0 1 0 -1 0 0 3710.dat
1 71 140 -376 110 1 0 0 0 1 0 0 0 1 3024.dat
1 71 140 -376 -10 1 0 0 0 1 0 0 0 1 3024.dat
1 71 70 -376 -50 1 0 0 0 1 0 0 0 1 3666.dat
1 71 10 -376 150 1 0 0 0 1 0 0 0 1 3069b.dat
1 71 -10 -376 -10 1 0 0 0 1 0 0 0 1 3023.dat
1 71 -20 -376 120 0 0 1 0 1 0 -1 0 0 3023.dat
1 71 -40 -376 -30 1 0 0 0 1 0 0 0 1 63864.dat
1 71 -50 -376 100 1 0 0 0 1 0 0 0 1 3022.dat
1 71 -40 -376 10 1 0 0 0 1 0 0 0 1 3024.dat
1 71 -90 -376 90 1 0 0 0 1 0 0 0 1 3023.dat
1 71 -80 -376 -10 1 0 0 0 1 0 0 0 1 3024.dat
1 71 -120 -376 -50 1 0 0 0 1 0 0 0 1 63864.dat
1 71 -160 -376 -10 1 0 0 0 1 0 0 0 1 3024.dat
1 71 -260 -376 190 1 0 0 0 1 0 0 0 1 3070b.dat
1 71 -300 -376 210 1 0 0 0 1 0 0 0 1 3070b.dat
0 STEP
1 71 -260 -384 230 1 0 0 0 1 0 0 0 1 3024.dat
1 71 -130 -384 -10 1 0 0 0 1 0 0 0 1 3710.dat
1 71 -70 -384 90 1 0 0 0 1 0 0 0 1 3710.dat
1 71 -80 -384 -10 1 0 0 0 1 0 0 0 1 3024.dat
1 71 -50 -384 70 1 0 0 0 1 0 0 0 1 3710.dat
1 71 -40 -384 20 1 0 0 0 1 0 0 0 1 3021.dat
1 71 -50 -384 50 1 0 0 0 1 0 0 0 1 3023.dat
1 71 50 -384 -10 1 0 0 0 1 0 0 0 1 3460.dat
1 71 -20 -384 100 0 0 1 0 1 0 -1 0 0 3023.dat
1 71 10 -384 110 1 0 0 0 1 0 0 0 1 3023.dat
1 71 140 -384 10 0 0 1 0 1 0 -1 0 0 3623.dat
1 71 150 -384 90 1 0 0 0 1 0 0 0 1 3023.dat
1 71 140 -384 110 1 0 0 0 1 0 0 0 1 3024.dat
1 71 160 -384 50 0 0 1 0 1 0 -1 0 0 3623.dat
0 STEP
1 71 -310 -408 80 0 0 1 0 1 0 -1 0 0 3001.dat
1 71 -290 -408 20 1 0 0 0 1 0 0 0 1 3003.dat
1 71 -300 -408 160 0 0 1 0 1 0 -1 0 0 3010.dat
1 71 -210 -408 -10 1 0 0 0 1 0 0 0 1 3008.dat
1 71 -280 -408 200 0 0 1 0 1 0 -1 0 0 3004.dat
1 71 -210 -408 -30 1 0 0 0 1 0 0 0 1 3009.dat
1 71 -250 -408 220 1 0 0 0 1 0 0 0 1 3003.dat
1 71 -210 -408 210 1 0 0 0 1 0 0 0 1 3004.dat
1 71 -190 -408 190 1 0 0 0 1 0 0 0 1 3004.dat
1 71 -170 -408 170 1 0 0 0 1 0 0 0 1 3004.dat
1 71 -150 -408 150 1 0 0 0 1 0 0 0 1 3004.dat
1 71 -140 -408 130 1 0 0 0 1 0 0 0 1 3005.dat
1 71 -120 -408 110 1 0 0 0 1 0 0 0 1 3005.dat
1 71 70 -408 110 1 0 0 0 1 0 0 0 1 3010.dat
1 71 120 -408 10 1 0 0 0 1 0 0 0 1 3005.dat
1 71 150 -392 40 0 0 1 0 1 0 -1 0 0 3020.dat
1 71 150 -392 90 1 0 0 0 1 0 0 0 1 3023.dat
1 71 70 -392 -10 1 0 0 0 1 0 0 0 1 3460.dat
1 71 130 -392 110 1 0 0 0 1 0 0 0 1 3023.dat
1 71 70 -392 130 1 0 0 0 1 0 0 0 1 3666.dat
1 71 70 -392 -30 1 0 0 0 1 0 0 0 1 2431.dat
1 71 20 -392 -30 1 0 0 0 1 0 0 0 1 3070b.dat
1 71 0 -392 10 1 0 0 0 1 0 0 0 1 3623.dat
1 71 10 -392 110 1 0 0 0 1 0 0 0 1 3023.dat
1 71 -10 -392 60 0 0 1 0 1 0 -1 0 0 3020.dat
1 71 -50 -392 50 0 0 1 0 1 0 -1 0 0 3021.dat
1 71 -70 -392 10 1 0 0 0 1 0 0 0 1 3023.dat
1 71 -100 -392 -10 1 0 0 0 1 0 0 0 1 3623.dat
1 71 -80 -392 60 0 0 1 0 1 0 -1 0 0 3710.dat
1 71 -120 -392 -30 1 0 0 0 1 0 0 0 1 63864.dat
1 71 -100 -392 90 0 0 1 0 1 0 -1 0 0 3623.dat
1 71 -120 -392 130 1 0 0 0 1 0 0 0 1 3024.dat
1 71 -220 -392 230 1 0 0 0 1 0 0 0 1 3070b.dat
1 71 -320 -392 150 0 0 1 0 1 0 -1 0 0 3623.dat
0 STEP
1 71 -320 -400 130 1 0 0 0 1 0 0 0 1 3070b.dat
1 71 -280 -400 160 0 0 1 0 1 0 -1 0 0 3023.dat
1 71 -220 -400 190 1 0 0 0 1 0 0 0 1 3024.dat
1 71 -140 -400 110 1 0 0 0 1 0 0 0 1 3024.dat
1 71 -110 -400 10 1 0 0 0 1 0 0 0 1 3710.dat
1 71 -120 -400 130 1 0 0 0 1 0 0 0 1 3070b.dat
1 71 -110 -400 80 1 0 0 0 1 0 0 0 1 3022.dat
1 71 -110 -400 -10 1 0 0 0 1 0 0 0 1 3069b.dat
1 71 -90 -400 40 1 0 0 0 1 0 0 0 1 3022.dat
1 71 10 -400 50 1 0 0 0 1 0 0 0 1 3710.dat
1 71 30 -400 80 1 0 0 0 1 0 0 0 1 3020.dat
1 71 50 -400 20 1 0 0 0 1 0 0 0 1 3795.dat
1 71 20 -400 110 1 0 0 0 1 0 0 0 1 3070b.dat
1 71 70 -400 -10 1 0 0 0 1 0 0 0 1 3666.dat
1 71 80 -400 130 1 0 0 0 1 0 0 0 1 63864.dat
1 71 60 -400 50 1 0 0 0 1 0 0 0 1 3024.dat
1 71 110 -400 90 1 0 0 0 1 0 0 0 1 3710.dat
1 71 130 -400 110 1 0 0 0 1 0 0 0 1 3069b.dat
1 71 130 -400 50 0 0 1 0 1 0 -1 0 0 3021.dat
1 71 140 -400 10 1 0 0 0 1 0 0 0 1 3070b.dat
0 STEP
1 71 70 -408 80 1 0 0 0 1 0 0 0 1 3795.dat
1 71 70 -408 40 1 0 0 0 1 0 0 0 1 3795.dat
1 71 70 -408 10 1 0 0 0 1 0 0 0 1 2431.dat
1 71 -110 -408 30 0 0 1 0 1 0 -1 0 0 3021.dat
1 71 -130 -408 80 1 0 0 0 1 0 0 0 1 3022.dat
1 71 -140 -408 110 1 0 0 0 1 0 0 0 1 3024.dat
1 71 -140 -408 10 1 0 0 0 1 0 0 0 1 3024.dat
1 71 -160 -408 130 1 0 0 0 1 0 0 0 1 3024.dat
1 71 -220 -408 190 1 0 0 0 1 0 0 0 1 3024.dat
1 71 -280 -408 150 0 0 1 0 1 0 -1 0 0 3623.dat
0 STEP
1 71 -130 -432 50 0 0 1 0 1 0 -1 0 0 3002.dat
1 71 -210 -432 -10 1 0 0 0 1 0 0 0 1 3008.dat
1 71 -140 -432 10 1 0 0 0 1 0 0 0 1 3005.dat
1 71 -140 -432 110 0 0 1 0 1 0 -1 0 0 3622.dat
1 71 -160 -432 140 0 0 1 0 1 0 -1 0 0 3004.dat
1 71 -210 -432 -30 1 0 0 0 1 0 0 0 1 3010.dat
1 71 -180 -432 160 0 0 1 0 1 0 -1 0 0 3004.dat
1 71 -200 -432 180 0 0 1 0 1 0 -1 0 0 3004.dat
1 71 -220 -432 200 0 0 1 0 1 0 -1 0 0 3004.dat
1 71 -260 -432 210 1 0 0 0 1 0 0 0 1 3622.dat
1 71 -290 -432 30 0 0 1 0 1 0 -1 0 0 3002.dat
1 71 -290 -432 160 0 0 1 0 1 0 -1 0 0 3001.dat
1 71 -300 -432 90 0 0 1 0 1 0 -1 0 0 3622.dat
1 71 -320 -416 90 0 0 1 0 1 0 -1 0 0 63864.dat
1 71 -260 -416 -30 1 0 0 0 1 0 0 0 1 3070b.dat
1 71 -250 -416 230 1 0 0 0 1 0 0 0 1 3069b.dat
1 71 -160 -416 -30 1 0 0 0 1 0 0 0 1 3070b.dat
1 71 -140 -416 150 1 0 0 0 1 0 0 0 1 3070b.dat
1 71 -120 -416 10 1 0 0 0 1 0 0 0 1 3070b.dat
1 71 -120 -416 100 0 0 1 0 1 0 -1 0 0 3023.dat
1 71 90 -416 60 1 0 0 0 1 0 0 0 1 3068b.dat
0 STEP
1 71 -120 -424 90 1 0 0 0 1 0 0 0 1 3070b.dat
1 71 -160 -424 10 1 0 0 0 1 0 0 0 1 3024.dat
1 71 -160 -424 110 1 0 0 0 1 0 0 0 1 3024.dat
1 71 -250 -424 190 1 0 0 0 1 0 0 0 1 3023.dat
1 71 -260 -424 10 1 0 0 0 1 0 0 0 1 3024.dat
1 71 -280 -424 90 0 0 1 0 1 0 -1 0 0 3623.dat
0 STEP
1 71 -280 -432 90 0 0 1 0 1 0 -1 0 0 3623.dat
1 71 -250 -432 190 1 0 0 0 1 0 0 0 1 3023.dat
1 71 -260 -432 10 1 0 0 0 1 0 0 0 1 3024.dat
1 71 -160 -432 100 0 0 1 0 1 0 -1 0 0 3023.dat
1 71 -160 -432 10 1 0 0 0 1 0 0 0 1 3024.dat
0 STEP
1 71 -290 -456 120 0 0 1 0 1 0 -1 0 0 2456.dat
1 71 -290 -456 50 1 0 0 0 1 0 0 0 1 3004.dat
1 71 -250 -456 190 1 0 0 0 1 0 0 0 1 3010.dat
1 71 -280 -456 20 0 0 1 0 1 0 -1 0 0 3004.dat
1 71 -260 -456 0 0 0 1 0 1 0 -1 0 0 3004.dat
1 71 -240 -456 -20 0 0 1 0 1 0 -1 0 0 3004.dat
1 71 -200 -456 -30 1 0 0 0 1 0 0 0 1 3622.dat
1 71 -200 -456 180 0 0 1 0 1 0 -1 0 0 3004.dat
1 71 -180 -456 150 1 0 0 0 1 0 0 0 1 3005.dat
1 71 -170 -456 -10 1 0 0 0 1 0 0 0 1 3004.dat
1 71 -160 -456 80 0 0 1 0 1 0 -1 0 0 3009.dat
1 71 -150 -456 10 1 0 0 0 1 0 0 0 1 3004.dat
1 71 -140 -456 80 0 0 1 0 1 0 -1 0 0 3010.dat
1 71 -140 -456 30 1 0 0 0 1 0 0 0 1 3005.dat
1 71 -140 -440 130 1 0 0 0 1 0 0 0 1 3070b.dat
1 71 -140 -440 -10 1 0 0 0 1 0 0 0 1 3070b.dat
1 71 -160 -440 150 1 0 0 0 1 0 0 0 1 3070b.dat
1 71 -180 -440 170 1 0 0 0 1 0 0 0 1 3070b.dat
1 71 -210 -440 -10 1 0 0 0 1 0 0 0 1 3023.dat
1 71 -240 -440 210 1 0 0 0 1 0 0 0 1 3623.dat
1 71 -300 -440 30 1 0 0 0 1 0 0 0 1 3024.dat
0 STEP
1 71 -300 -448 30 1 0 0 0 1 0 0 0 1 3070b.dat
1 71 -240 -448 210 1 0 0 0 1 0 0 0 1 63864.dat
1 71 -210 -448 -10 1 0 0 0 1 0 0 0 1 3069b.dat
1 71 -220 -448 170 1 0 0 0 1 0 0 0 1 3024.dat
1 71 -200 -448 150 1 0 0 0 1 0 0 0 1 3024.dat
1 71 -180 -448 130 1 0 0 0 1 0 0 0 1 3024.dat
0 STEP
1 71 -180 -456 130 1 0 0 0 1 0 0 0 1 3024.dat
1 71 -180 -456 170 1 0 0 0 1 0 0 0 1 3024.dat
1 71 -210 -456 -50 1 0 0 0 1 0 0 0 1 3023.dat
1 71 -200 -456 150 1 0 0 0 1 0 0 0 1 3024.dat
1 71 -240 -456 170 1 0 0 0 1 0 0 0 1 3623.dat
1 71 -260 -456 30 1 0 0 0 1 0 0 0 1 3024.dat
0 STEP
1 71 -120 -480 20 0 0 1 0 1 0 -1 0 0 3004.dat
1 71 -150 -480 80 1 0 0 0 1 0 0 0 1 3003.dat
1 71 -140 -480 50 1 0 0 0 1 0 0 0 1 3005.dat
1 71 -140 -480 10 1 0 0 0 1 0 0 0 1 3005.dat
1 71 -160 -480 120 0 0 1 0 1 0 -1 0 0 3004.dat
1 71 -160 -480 -10 1 0 0 0 1 0 0 0 1 3005.dat
1 71 -180 -480 140 0 0 1 0 1 0 -1 0 0 3004.dat
1 71 -180 -480 -30 1 0 0 0 1 0 0 0 1 3005.dat
1 71 -230 -480 170 1 0 0 0 1 0 0 0 1 3010.dat
1 71 -200 -480 150 1 0 0 0 1 0 0 0 1 3005.dat
1 71 -210 -480 -60 1 0 0 0 1 0 0 0 1 3003.dat
1 71 -230 -480 -30 1 0 0 0 1 0 0 0 1 3004.dat
1 71 -250 -480 -10 1 0 0 0 1 0 0 0 1 3004.dat
1 71 -240 -480 -50 1 0 0 0 1 0 0 0 1 3005.dat
1 71 -270 -480 20 1 0 0 0 1 0 0 0 1 3003.dat
1 71 -280 -480 100 0 0 1 0 1 0 -1 0 0 3009.dat
1 71 -300 -480 100 0 0 1 0 1 0 -1 0 0 3010.dat
1 71 -300 -480 50 1 0 0 0 1 0 0 0 1 3005.dat
1 71 -300 -464 150 1 0 0 0 1 0 0 0 1 3024.dat
1 71 -280 -464 170 1 0 0 0 1 0 0 0 1 3024.dat
1 71 -240 -464 190 1 0 0 0 1 0 0 0 1 3623.dat
1 71 -200 -464 -30 1 0 0 0 1 0 0 0 1 3024.dat
1 71 -180 -464 170 1 0 0 0 1 0 0 0 1 3024.dat
1 71 -180 -464 -10 1 0 0 0 1 0 0 0 1 3024.dat
1 71 -160 -464 50 1 0 0 0 1 0 0 0 1 3070b.dat
1 71 -160 -464 10 1 0 0 0 1 0 0 0 1 3024.dat
1 71 -140 -464 110 1 0 0 0 1 0 0 0 1 3070b.dat
1 71 -140 -464 30 1 0 0 0 1 0 0 0 1 3024.dat
0 STEP
1 71 -120 -472 50 1 0 0 0 1 0 0 0 1 3024.dat
1 71 -130 -472 -10 1 0 0 0 1 0 0 0 1 3023.dat
1 71 -140 -472 30 1 0 0 0 1 0 0 0 1 3070b.dat
1 71 -160 -472 150 1 0 0 0 1 0 0 0 1 3024.dat
1 71 -160 -472 10 1 0 0 0 1 0 0 0 1 3070b.dat
1 71 -180 -472 170 1 0 0 0 1 0 0 0 1 3070b.dat
1 71 -180 -472 110 1 0 0 0 1 0 0 0 1 3024.dat
1 71 -180 -472 -10 1 0 0 0 1 0 0 0 1 3070b.dat
1 71 -200 -472 -30 1 0 0 0 1 0 0 0 1 3070b.dat
1 71 -210 -472 -100 1 0 0 0 1 0 0 0 1 3022.dat
1 71 -240 -472 190 1 0 0 0 1 0 0 0 1 63864.dat
1 71 -240 -472 -70 1 0 0 0 1 0 0 0 1 3024.dat
1 71 -280 -472 170 1 0 0 0 1 0 0 0 1 3070b.dat
1 71 -300 -472 150 1 0 0 0 1 0 0 0 1 3070b.dat
0 STEP
1 71 -240 -480 150 1 0 0 0 1 0 0 0 1 3623.dat
1 71 -220 -480 -120 1 0 0 0 1 0 0 0 1 3021.dat
1 71 -220 -480 -90 1 0 0 0 1 0 0 0 1 3623.dat
1 71 -240 -480 -70 1 0 0 0 1 0 0 0 1 3024.dat
1 71 -220 -480 -150 1 0 0 0 1 0 0 0 1 3024.dat
1 71 -180 -480 -60 0 0 1 0 1 0 -1 0 0 3023.dat
1 71 -180 -480 110 1 0 0 0 1 0 0 0 1 3024.dat
1 71 -160 -480 -30 1 0 0 0 1 0 0 0 1 3024.dat
1 71 -160 -480 150 1 0 0 0 1 0 0 0 1 3070b.dat
1 71 -120 -480 -10 1 0 0 0 1 0 0 0 1 3623.dat
1 71 -120 -480 50 1 0 0 0 1 0 0 0 1 3024.dat
1 71 -100 -480 20 0 0 1 0 1 0 -1 0 0 3023.dat
0 STEP
1 71 -280 -504 60 0 0 1 0 1 0 -1 0 0 3010.dat
1 71 -280 -504 110 1 0 0 0 1 0 0 0 1 3005.dat
1 71 -260 -504 20 0 0 1 0 1 0 -1 0 0 3004.dat
1 71 -230 -504 -100 0 0 1 0 1 0 -1 0 0 2456.dat
1 71 -230 -504 -30 1 0 0 0 1 0 0 0 1 3004.dat
1 71 -240 -504 -10 1 0 0 0 1 0 0 0 1 3005.dat
1 71 -220 -504 150 1 0 0 0 1 0 0 0 1 3622.dat
1 71 -210 -504 -170 1 0 0 0 1 0 0 0 1 3004.dat
1 71 -200 -504 -100 0 0 1 0 1 0 -1 0 0 3009.dat
1 71 -180 -504 -60 0 0 1 0 1 0 -1 0 0 3010.dat
1 71 -170 -504 120 1 0 0 0 1 0 0 0 1 3003.dat
1 71 -160 -504 -20 0 0 1 0 1 0 -1 0 0 3004.dat
1 71 -150 -504 70 1 0 0 0 1 0 0 0 1 3004.dat
1 71 -160 -504 90 1 0 0 0 1 0 0 0 1 3005.dat
1 71 -110 -504 -10 1 0 0 0 1 0 0 0 1 3010.dat
1 71 -140 -504 10 1 0 0 0 1 0 0 0 1 3005.dat
1 71 -130 -504 50 1 0 0 0 1 0 0 0 1 3004.dat
1 71 -110 -504 30 1 0 0 0 1 0 0 0 1 3004.dat
1 71 -90 -504 10 1 0 0 0 1 0 0 0 1 3004.dat
1 71 -120 -488 10 1 0 0 0 1 0 0 0 1 3070b.dat
1 71 -140 -488 90 1 0 0 0 1 0 0 0 1 3024.dat
1 71 -180 -488 150 1 0 0 0 1 0 0 0 1 3024.dat
1 71 -230 -488 170 1 0 0 0 1 0 0 0 1 2431.dat
1 71 -260 -488 -10 1 0 0 0 1 0 0 0 1 3024.dat
1 71 -270 -488 150 1 0 0 0 1 0 0 0 1 3023.dat
1 71 -280 -488 10 1 0 0 0 1 0 0 0 1 3070b.dat
1 71 -290 -488 130 1 0 0 0 1 0 0 0 1 3023.dat
1 71 -300 -488 80 0 0 1 0 1 0 -1 0 0 3710.dat
0 STEP
1 71 -300 -496 80 0 0 1 0 1 0 -1 0 0 2431.dat
1 71 -250 -496 130 1 0 0 0 1 0 0 0 1 3710.dat
1 71 -260 -496 150 1 0 0 0 1 0 0 0 1 3070b.dat
1 71 -260 -496 -10 1 0 0 0 1 0 0 0 1 3070b.dat
1 71 -240 -496 10 1 0 0 0 1 0 0 0 1 3024.dat
1 71 -210 -496 -190 1 0 0 0 1 0 0 0 1 3023.dat
1 71 -200 -496 130 1 0 0 0 1 0 0 0 1 3024.dat
1 71 -180 -496 150 1 0 0 0 1 0 0 0 1 3070b.dat
1 71 -180 -496 -110 1 0 0 0 1 0 0 0 1 3024.dat
1 71 -140 -496 90 1 0 0 0 1 0 0 0 1 3070b.dat
1 71 -100 -496 -30 1 0 0 0 1 0 0 0 1 3623.dat
1 71 -60 -496 -10 1 0 0 0 1 0 0 0 1 3024.dat
0 STEP
1 71 -50 -504 -10 1 0 0 0 1 0 0 0 1 3023.dat
1 71 -60 -504 10 1 0 0 0 1 0 0 0 1 3024.dat
1 71 -90 -504 -30 1 0 0 0 1 0 0 0 1 3710.dat
1 71 -80 -504 30 1 0 0 0 1 0 0 0 1 3024.dat
1 71 -210 -504 80 1 0 0 0 1 0 0 0 1 3020.dat
1 71 -210 -504 50 1 0 0 0 1 0 0 0 1 3710.dat
1 71 -180 -504 -120 0 0 1 0 1 0 -1 0 0 3023.dat
1 71 -230 -504 120 1 0 0 0 1 0 0 0 1 3020.dat
1 71 -220 -504 30 1 0 0 0 1 0 0 0 1 3623.dat
1 71 -200 -504 10 1 0 0 0 1 0 0 0 1 3024.dat
1 71 -210 -504 -200 1 0 0 0 1 0 0 0 1 3022.dat
1 71 -220 -504 -10 1 0 0 0 1 0 0 0 1 3024.dat
1 71 -240 -504 10 1 0 0 0 1 0 0 0 1 3024.dat
1 71 -260 -504 70 0 0 1 0 1 0 -1 0 0 3623.dat
0 STEP
1 71 -50 -528 -10 0 0 1 0 1 0 -1 0 0 3002.dat
1 71 -110 -528 -30 1 0 0 0 1 0 0 0 1 3010.dat
1 71 -90 -528 10 1 0 0 0 1 0 0 0 1 3004.dat
1 71 -110 -528 30 1 0 0 0 1 0 0 0 1 3004.dat
1 71 -130 -528 -10 1 0 0 0 1 0 0 0 1 3004.dat
1 71 -190 -528 -120 0 0 1 0 1 0 -1 0 0 3001.dat
1 71 -190 -528 -70 1 0 0 0 1 0 0 0 1 3004.dat
1 71 -210 -528 -190 0 0 1 0 1 0 -1 0 0 3002.dat
1 71 -220 -528 -130 0 0 1 0 1 0 -1 0 0 3622.dat
1 71 -230 -528 -40 1 0 0 0 1 0 0 0 1 3003.dat
1 71 -220 -528 -10 1 0 0 0 1 0 0 0 1 3005.dat
1 71 -240 -528 -100 0 0 1 0 1 0 -1 0 0 3010.dat
1 71 -210 -512 60 1 0 0 0 1 0 0 0 1 3795.dat
1 71 -230 -512 100 1 0 0 0 1 0 0 0 1 3020.dat
1 71 -240 -512 10 0 0 1 0 1 0 -1 0 0 3623.dat
1 71 -220 -512 -80 0 0 1 0 1 0 -1 0 0 3069b.dat
1 71 -200 -512 20 1 0 0 0 1 0 0 0 1 3021.dat
1 71 -210 -512 130 1 0 0 0 1 0 0 0 1 3069b.dat
1 71 -200 -512 -10 1 0 0 0 1 0 0 0 1 3024.dat
1 71 -170 -512 -40 1 0 0 0 1 0 0 0 1 3022.dat
1 71 -170 -512 90 1 0 0 0 1 0 0 0 1 3069b.dat
1 71 -180 -512 110 1 0 0 0 1 0 0 0 1 3070b.dat
1 71 -130 -512 50 1 0 0 0 1 0 0 0 1 3023.dat
1 71 -140 -512 70 1 0 0 0 1 0 0 0 1 3070b.dat
1 71 -90 -512 -10 1 0 0 0 1 0 0 0 1 3069b.dat
1 71 -80 -512 30 1 0 0 0 1 0 0 0 1 3024.dat
0 STEP
1 71 -50 -520 -50 1 0 0 0 1 0 0 0 1 3710.dat
1 71 -20 -520 -20 0 0 1 0 1 0 -1 0 0 3023.dat
1 71 -80 -520 30 1 0 0 0 1 0 0 0 1 3070b.dat
1 71 -100 -520 -50 1 0 0 0 1 0 0 0 1 3024.dat
1 71 -140 -520 50 1 0 0 0 1 0 0 0 1 63864.dat
1 71 -160 -520 30 1 0 0 0 1 0 0 0 1 3623.dat
1 71 -170 -520 -10 0 0 1 0 1 0 -1 0 0 3021.dat
1 71 -180 -520 -170 1 0 0 0 1 0 0 0 1 3024.dat
1 71 -190 -520 -50 1 0 0 0 1 0 0 0 1 3023.dat
1 71 -200 -520 -230 1 0 0 0 1 0 0 0 1 3024.dat
1 71 -200 -520 -20 0 0 1 0 1 0 -1 0 0 3023.dat
1 71 -220 -520 10 1 0 0 0 1 0 0 0 1 3070b.dat
1 71 -240 -520 -150 1 0 0 0 1 0 0 0 1 3024.dat
1 71 -240 -520 -10 1 0 0 0 1 0 0 0 1 3070b.dat
1 71 -260 -520 -80 0 0 1 0 1 0 -1 0 0 3023.dat
0 STEP
1 71 -260 -528 -80 0 0 1 0 1 0 -1 0 0 3023.dat
1 71 -240 -528 -150 1 0 0 0 1 0 0 0 1 3024.dat
1 71 -210 -528 -230 1 0 0 0 1 0 0 0 1 3023.dat
1 71 -200 -528 -40 0 0 1 0 1 0 -1 0 0 3023.dat
1 71 -170 -528 -10 1 0 0 0 1 0 0 0 1 3023.dat
1 71 -180 -528 -180 0 0 1 0 1 0 -1 0 0 3023.dat
1 71 -150 -528 20 1 0 0 0 1 0 0 0 1 3022.dat
1 71 -120 -528 10 1 0 0 0 1 0 0 0 1 3024.dat
1 71 -50 -528 -50 1 0 0 0 1 0 0 0 1 3666.dat
1 71 -80 -528 -10 1 0 0 0 1 0 0 0 1 3024.dat
1 71 -20 -528 -20 0 0 1 0 1 0 -1 0 0 3023.dat
1 71 0 -528 -30 1 0 0 0 1 0 0 0 1 3024.dat
0 STEP
1 71 -250 -552 -110 1 0 0 0 1 0 0 0 1 3004.dat
1 71 -220 -552 -70 1 0 0 0 1 0 0 0 1 3622.dat
1 71 -240 -552 -90 1 0 0 0 1 0 0 0 1 3005.dat
1 71 -240 -552 -140 0 0 1 0 1 0 -1 0 0 3004.dat
1 71 -210 -552 -200 0 0 1 0 1 0 -1 0 0 3001.dat
1 71 -200 -552 -120 0 0 1 0 1 0 -1 0 0 3010.dat
1 71 -180 -552 -180 0 0 1 0 1 0 -1 0 0 3009.dat
1 71 -130 -552 0 1 0 0 0 1 0 0 0 1 3003.dat
1 71 -110 -552 30 1 0 0 0 1 0 0 0 1 3004.dat
1 71 -70 -552 -30 1 0 0 0 1 0 0 0 1 3009.dat
1 71 -90 -552 10 1 0 0 0 1 0 0 0 1 3004.dat
1 71 -50 -552 -50 1 0 0 0 1 0 0 0 1 3009.dat
1 71 -70 -552 -10 1 0 0 0 1 0 0 0 1 3004.dat
1 71 0 -552 -30 1 0 0 0 1 0 0 0 1 3005.dat
1 71 20 -552 -50 1 0 0 0 1 0 0 0 1 3005.dat
1 71 -30 -536 -10 1 0 0 0 1 0 0 0 1 3023.dat
1 71 -60 -536 10 1 0 0 0 1 0 0 0 1 3070b.dat
1 71 -150 -536 30 1 0 0 0 1 0 0 0 1 3023.dat
1 71 -140 -536 -30 1 0 0 0 1 0 0 0 1 3070b.dat
1 71 -160 -536 0 0 0 1 0 1 0 -1 0 0 3023.dat
1 71 -180 -536 -100 0 0 1 0 1 0 -1 0 0 3023.dat
1 71 -220 -536 -50 1 0 0 0 1 0 0 0 1 3623.dat
1 71 -230 -536 -30 1 0 0 0 1 0 0 0 1 3069b.dat
1 71 -220 -536 -140 0 0 1 0 1 0 -1 0 0 3023.dat
1 71 -260 -536 -80 0 0 1 0 1 0 -1 0 0 3023.dat
0 STEP
1 71 -260 -544 -130 1 0 0 0 1 0 0 0 1 3024.dat
1 71 -260 -544 -90 1 0 0 0 1 0 0 0 1 3070b.dat
1 71 -240 -544 -170 1 0 0 0 1 0 0 0 1 3024.dat
1 71 -230 -544 -50 1 0 0 0 1 0 0 0 1 3069b.dat
1 71 -220 -544 -150 1 0 0 0 1 0 0 0 1 3070b.dat
1 71 -220 -544 -90 1 0 0 0 1 0 0 0 1 3024.dat
1 71 -200 -544 -250 1 0 0 0 1 0 0 0 1 3024.dat
1 71 -180 -544 -110 1 0 0 0 1 0 0 0 1 3070b.dat
1 71 -160 -544 10 1 0 0 0 1 0 0 0 1 3070b.dat
1 71 -140 -544 30 1 0 0 0 1 0 0 0 1 3070b.dat
1 71 -30 -544 -70 1 0 0 0 1 0 0 0 1 3710.dat
1 71 -40 -544 -10 1 0 0 0 1 0 0 0 1 3070b.dat
1 71 20 -544 -70 1 0 0 0 1 0 0 0 1 3024.dat
1 71 20 -544 -30 1 0 0 0 1 0 0 0 1 3070b.dat
0 STEP
1 71 20 -552 -80 0 0 1 0 1 0 -1 0 0 3023.dat
1 71 -30 -552 -70 1 0 0 0 1 0 0 0 1 3710.dat
1 71 -190 -552 -250 1 0 0 0 1 0 0 0 1 3023.dat
1 71 -220 -552 -100 0 0 1 0 1 0 -1 0 0 3023.dat
1 71 -240 -552 -170 1 0 0 0 1 0 0 0 1 3024.dat
1 71 -260 -552 -140 0 0 1 0 1 0 -1 0 0 3023.dat
0 STEP
1 71 20 -576 -90 1 0 0 0 1 0 0 0 1 3622.dat
1 71 -10 -576 -70 1 0 0 0 1 0 0 0 1 3010.dat
1 71 -50 -576 -50 1 0 0 0 1 0 0 0 1 3009.dat
1 71 -70 -576 -30 1 0 0 0 1 0 0 0 1 3010.dat
1 71 -70 -576 -10 1 0 0 0 1 0 0 0 1 3004.dat
1 71 -60 -576 -70 1 0 0 0 1 0 0 0 1 3005.dat
1 71 -90 -576 10 1 0 0 0 1 0 0 0 1 3004.dat
1 71 -120 -576 -10 1 0 0 0 1 0 0 0 1 3005.dat
1 71 -190 -576 -230 0 0 1 0 1 0 -1 0 0 3002.dat
1 71 -210 -576 -170 0 0 1 0 1 0 -1 0 0 3002.dat
1 71 -220 -576 -120 0 0 1 0 1 0 -1 0 0 3004.dat
1 71 -220 -576 -220 0 0 1 0 1 0 -1 0 0 3004.dat
1 71 -240 -576 -160 0 0 1 0 1 0 -1 0 0 3010.dat
1 71 -260 -576 -150 1 0 0 0 1 0 0 0 1 3005.dat
1 71 -250 -560 -110 1 0 0 0 1 0 0 0 1 3023.dat
1 71 -260 -560 -130 1 0 0 0 1 0 0 0 1 3024.dat
1 71 -220 -560 -90 1 0 0 0 1 0 0 0 1 3623.dat
1 71 -220 -560 -70 1 0 0 0 1 0 0 0 1 3070b.dat
1 71 -200 -560 -120 0 0 1 0 1 0 -1 0 0 3023.dat
1 71 -180 -560 -180 0 0 1 0 1 0 -1 0 0 3023.dat
1 71 -130 -560 10 1 0 0 0 1 0 0 0 1 3023.dat
1 71 -140 -560 -10 1 0 0 0 1 0 0 0 1 3070b.dat
1 71 -120 -560 -30 1 0 0 0 1 0 0 0 1 3024.dat
1 71 -100 -560 30 1 0 0 0 1 0 0 0 1 3070b.dat
1 71 -20 -560 -30 1 0 0 0 1 0 0 0 1 3070b.dat
1 71 20 -560 -50 1 0 0 0 1 0 0 0 1 3070b.dat
0 STEP
1 71 20 -568 -110 1 0 0 0 1 0 0 0 1 3024.dat
1 71 -20 -568 -90 1 0 0 0 1 0 0 0 1 3024.dat
1 71 -100 -568 -10 1 0 0 0 1 0 0 0 1 3024.dat
1 71 -120 -568 10 1 0 0 0 1 0 0 0 1 3070b.dat
1 71 -120 -568 -30 1 0 0 0 1 0 0 0 1 3070b.dat
1 71 -180 -568 -190 1 0 0 0 1 0 0 0 1 3070b.dat
1 71 -200 -568 -120 0 0 1 0 1 0 -1 0 0 3069b.dat
1 71 -230 -568 -90 1 0 0 0 1 0 0 0 1 3069b.dat
1 71 -240 -568 -110 1 0 0 0 1 0 0 0 1 3070b.dat
1 71 -260 -568 -130 1 0 0 0 1 0 0 0 1 3070b.dat
1 71 -260 -568 -170 1 0 0 0 1 0 0 0 1 3024.dat
0 STEP
1 71 -260 -576 -170 1 0 0 0 1 0 0 0 1 3024.dat
1 71 -100 -576 -10 1 0 0 0 1 0 0 0 1 3024.dat
1 71 -20 -576 -90 1 0 0 0 1 0 0 0 1 3024.dat
1 71 30 -576 -110 1 0 0 0 1 0 0 0 1 3023.dat
0 STEP
1 71 -240 -600 -190 1 0 0 0 1 0 0 0 1 3622.dat
1 71 -220 -600 -210 1 0 0 0 1 0 0 0 1 3622.dat
1 71 -240 -600 -170 1 0 0 0 1 0 0 0 1 3005.dat
1 71 -200 -600 -230 1 0 0 0 1 0 0 0 1 3622.dat
1 71 -190 -600 -250 1 0 0 0 1 0 0 0 1 3004.dat
1 71 -70 -600 -20 1 0 0 0 1 0 0 0 1 3003.dat
1 71 -40 -600 -60 1 0 0 0 1 0 0 0 1 3002.dat
1 71 -40 -600 -30 1 0 0 0 1 0 0 0 1 3005.dat
1 71 0 -600 -90 1 0 0 0 1 0 0 0 1 3622.dat
1 71 10 -600 -110 1 0 0 0 1 0 0 0 1 3004.dat
1 71 0 -600 -70 1 0 0 0 1 0 0 0 1 3005.dat
1 71 40 -584 -100 0 0 1 0 1 0 -1 0 0 3023.dat
1 71 20 -584 -70 1 0 0 0 1 0 0 0 1 3024.dat
1 71 0 -584 -50 1 0 0 0 1 0 0 0 1 3070b.dat
1 71 -80 -584 -50 1 0 0 0 1 0 0 0 1 3024.dat
1 71 -80 -584 10 1 0 0 0 1 0 0 0 1 3070b.dat
1 71 -100 -584 -20 0 0 1 0 1 0 -1 0 0 3069b.dat
1 71 -180 -584 -210 1 0 0 0 1 0 0 0 1 3070b.dat
1 71 -200 -584 -180 0 0 1 0 1 0 -1 0 0 3023.dat
1 71 -220 -584 -160 0 0 1 0 1 0 -1 0 0 3023.dat
1 71 -240 -584 -150 1 0 0 0 1 0 0 0 1 3070b.dat
1 71 -260 -584 -170 1 0 0 0 1 0 0 0 1 3024.dat
0 STEP
1 71 -260 -592 -170 1 0 0 0 1 0 0 0 1 3070b.dat
1 71 -220 -592 -170 1 0 0 0 1 0 0 0 1 3070b.dat
1 71 -200 -592 -190 1 0 0 0 1 0 0 0 1 3070b.dat
1 71 -80 -592 -50 1 0 0 0 1 0 0 0 1 3070b.dat
1 71 -40 -592 -10 1 0 0 0 1 0 0 0 1 3070b.dat
1 71 20 -592 -70 1 0 0 0 1 0 0 0 1 3070b.dat
1 71 40 -592 -110 1 0 0 0 1 0 0 0 1 3070b.dat
0 STEP
1 71 10 -624 -100 1 0 0 0 1 0 0 0 1 3003.dat
1 71 -20 -624 -70 1 0 0 0 1 0 0 0 1 3622.dat
1 71 -20 -624 -90 1 0 0 0 1 0 0 0 1 3005.dat
1 71 -30 -624 -50 1 0 0 0 1 0 0 0 1 3004.dat
1 71 -40 -624 -30 1 0 0 0 1 0 0 0 1 3005.dat
1 71 -220 -608 -220 1 0 0 0 1 0 0 0 1 3021.dat
1 71 -230 -608 -190 1 0 0 0 1 0 0 0 1 3069b.dat
1 71 -200 -608 -250 1 0 0 0 1 0 0 0 1 3070b.dat
1 71 -60 -608 -40 0 0 1 0 1 0 -1 0 0 3023.dat
1 71 -20 -608 -30 1 0 0 0 1 0 0 0 1 3024.dat
0 STEP
1 71 -20 -616 -30 1 0 0 0 1 0 0 0 1 3070b.dat
1 71 -60 -616 -30 1 0 0 0 1 0 0 0 1 3070b.dat
1 71 -210 -616 -230 1 0 0 0 1 0 0 0 1 3069b.dat
1 71 -230 -616 -210 1 0 0 0 1 0 0 0 1 3069b.dat
0 STEP
1 71 10 -632 -100 1 0 0 0 1 0 0 0 1 3022.dat
1 71 -10 -632 -70 1 0 0 0 1 0 0 0 1 3023.dat
1 71 -20 -632 -50 1 0 0 0 1 0 0 0 1 3024.dat
1 71 -20 -632 -90 1 0 0 0 1 0 0 0 1 3070b.dat
0 STEP
1 71 -10 -640 -70 1 0 0 0 1 0 0 0 1 3069b.dat
1 71 -20 -640 -50 1 0 0 0 1 0 0 0 1 3070b.dat
1 71 0 -640 -90 1 0 0 0 1 0 0 0 1 3070b.dat
0 STEP
