0 cow
0 Name: cow.ldr
0 Author: brickify

1 71 -250 -24 -80 0 0 1 0 1 0 -1 0 0 3002.dat
1 71 -250 -24 70 1 0 0 0 1 0 0 0 1 3003.dat
1 71 -260 -24 100 1 0 0 0 1 0 0 0 1 3005.dat
1 71 90 -24 -60 1 0 0 0 1 0 0 0 1 3004.dat
1 71 90 -24 60 1 0 0 0 1 0 0 0 1 3004.dat
1 71 -240 -8 100 1 0 0 0 1 0 0 0 1 3024.dat
0 STEP
1 71 -280 -16 70 0 0 1 0 1 0 -1 0 0 3023.dat
1 71 -280 -16 -80 1 0 0 0 1 0 0 0 1 3024.dat
1 71 -240 -16 100 1 0 0 0 1 0 0 0 1 3070b.dat
1 71 -220 -16 70 0 0 1 0 1 0 -1 0 0 3069b.dat
1 71 -220 -16 -80 1 0 0 0 1 0 0 0 1 3070b.dat
1 71 100 -16 80 1 0 0 0 1 0 0 0 1 3623.dat
1 71 90 -16 40 1 0 0 0 1 0 0 0 1 3023.dat
1 71 80 -16 -40 1 0 0 0 1 0 0 0 1 3024.dat
1 71 100 -16 -80 1 0 0 0 1 0 0 0 1 3623.dat
1 71 120 -16 60 1 0 0 0 1 0 0 0 1 3024.dat
1 71 120 -16 -60 1 0 0 0 1 0 0 0 1 3024.dat
0 STEP
1 71 100 -24 80 1 0 0 0 1 0 0 0 1 3623.dat
1 71 120 -24 60 1 0 0 0 1 0 0 0 1 3070b.dat
1 71 120 -24 -70 0 0 1 0 1 0 -1 0 0 3069b.dat
1 71 90 -24 40 1 0 0 0 1 0 0 0 1 3023.dat
1 71 90 -24 -40 1 0 0 0 1 0 0 0 1 3023.dat
1 71 90 -24 -80 1 0 0 0 1 0 0 0 1 3023.dat
1 71 -280 -24 70 0 0 1 0 1 0 -1 0 0 3023.dat
1 71 -280 -24 -70 0 0 1 0 1 0 -1 0 0 3023.dat
0 STEP
1 71 90 -48 -60 1 0 0 0 1 0 0 0 1 3004.dat
1 71 90 -48 60 1 0 0 0 1 0 0 0 1 3004.dat
1 71 80 -48 -80 1 0 0 0 1 0 0 0 1 3005.dat
1 71 80 -48 -40 1 0 0 0 1 0 0 0 1 3005.dat
1 71 80 -48 40 1 0 0 0 1 0 0 0 1 3005.dat
1 71 -270 -48 -70 1 0 0 0 1 0 0 0 1 3003.dat
1 71 -270 -48 70 1 0 0 0 1 0 0 0 1 3003.dat
1 71 -260 -32 -100 1 0 0 0 1 0 0 0 1 3070b.dat
1 71 -240 -32 -70 0 0 1 0 1 0 -1 0 0 3023.dat
1 71 -240 -32 70 0 0 1 0 1 0 -1 0 0 3023.dat
1 71 90 -32 80 1 0 0 0 1 0 0 0 1 3023.dat
1 71 100 -32 -80 1 0 0 0 1 0 0 0 1 3024.dat
1 71 100 -32 -40 1 0 0 0 1 0 0 0 1 3070b.dat
1 71 100 -32 40 1 0 0 0 1 0 0 0 1 3024.dat
0 STEP
1 71 100 -40 -80 1 0 0 0 1 0 0 0 1 3070b.dat
1 71 100 -40 40 1 0 0 0 1 0 0 0 1 3070b.dat
1 71 90 -40 80 1 0 0 0 1 0 0 0 1 3069b.dat
1 71 60 -40 -70 0 0 1 0 1 0 -1 0 0 3023.dat
1 71 60 -40 60 1 0 0 0 1 0 0 0 1 3024.dat
1 71 -240 -40 -70 0 0 1 0 1 0 -1 0 0 3069b.dat
1 71 -240 -40 70 0 0 1 0 1 0 -1 0 0 3069b.dat
0 STEP
1 71 60 -48 50 0 0 1 0 1 0 -1 0 0 3023.dat
1 71 60 -48 -70 0 0 1 0 1 0 -1 0 0 3023.dat
0 STEP
1 71 -280 -72 70 0 0 1 0 1 0 -1 0 0 3004.dat
1 71 -270 -72 -70 1 0 0 0 1 0 0 0 1 3003.dat
1 71 -260 -72 60 1 0 0 0 1 0 0 0 1 3005.dat
1 71 70 -72 50 1 0 0 0 1 0 0 0 1 3003.dat
1 71 70 -72 -60 1 0 0 0 1 0 0 0 1 3004.dat
1 71 100 -56 60 1 0 0 0 1 0 0 0 1 3070b.dat
1 71 100 -56 -60 1 0 0 0 1 0 0 0 1 3070b.dat
1 71 80 -56 -40 1 0 0 0 1 0 0 0 1 3024.dat
1 71 70 -56 -80 1 0 0 0 1 0 0 0 1 3069b.dat
1 71 -260 -56 80 1 0 0 0 1 0 0 0 1 3024.dat
0 STEP
1 71 -260 -64 80 1 0 0 0 1 0 0 0 1 3070b.dat
1 71 80 -64 -40 1 0 0 0 1 0 0 0 1 3070b.dat
0 STEP
1 71 70 -96 50 1 0 0 0 1 0 0 0 1 3003.dat
1 71 80 -96 -50 0 0 1 0 1 0 -1 0 0 3004.dat
1 71 60 -96 -60 1 0 0 0 1 0 0 0 1 3005.dat
1 71 -270 -96 60 1 0 0 0 1 0 0 0 1 3004.dat
1 71 -270 -96 -70 1 0 0 0 1 0 0 0 1 3003.dat
1 71 -280 -80 80 1 0 0 0 1 0 0 0 1 3024.dat
0 STEP
1 71 -280 -88 80 1 0 0 0 1 0 0 0 1 3070b.dat
0 STEP
1 71 60 -96 -40 1 0 0 0 1 0 0 0 1 3024.dat
0 STEP
1 71 -280 -120 -60 1 0 0 0 1 0 0 0 1 3622.dat
1 71 -280 -120 60 1 0 0 0 1 0 0 0 1 3622.dat
1 71 -270 -120 -80 1 0 0 0 1 0 0 0 1 3004.dat
1 71 -280 -120 80 1 0 0 0 1 0 0 0 1 3005.dat
1 71 70 -120 -50 1 0 0 0 1 0 0 0 1 3003.dat
1 71 70 -120 50 1 0 0 0 1 0 0 0 1 3003.dat
1 71 80 -120 -80 1 0 0 0 1 0 0 0 1 3005.dat
1 71 60 -104 -80 1 0 0 0 1 0 0 0 1 3070b.dat
0 STEP
1 71 -230 -112 40 1 0 0 0 1 0 0 0 1 3666.dat
1 71 -260 -112 80 1 0 0 0 1 0 0 0 1 3024.dat
1 71 -240 -112 60 1 0 0 0 1 0 0 0 1 3024.dat
1 71 -210 -112 20 1 0 0 0 1 0 0 0 1 3710.dat
1 71 -210 -112 -40 1 0 0 0 1 0 0 0 1 3710.dat
1 71 -240 -112 -60 1 0 0 0 1 0 0 0 1 3024.dat
1 71 -200 -112 -20 1 0 0 0 1 0 0 0 1 3024.dat
0 STEP
1 71 60 -120 -80 1 0 0 0 1 0 0 0 1 3024.dat
1 71 -210 -120 30 1 0 0 0 1 0 0 0 1 3020.dat
1 71 -200 -120 -30 1 0 0 0 1 0 0 0 1 3021.dat
1 71 -210 -120 0 1 0 0 0 1 0 0 0 1 3023.dat
1 71 -240 -120 60 1 0 0 0 1 0 0 0 1 3024.dat
1 71 -240 -120 -50 0 0 1 0 1 0 -1 0 0 3023.dat
1 71 -260 -120 80 1 0 0 0 1 0 0 0 1 3024.dat
1 71 -270 -120 40 1 0 0 0 1 0 0 0 1 3023.dat
1 71 -360 -120 10 0 0 1 0 1 0 -1 0 0 3023.dat
0 STEP
1 71 70 -144 -60 0 0 1 0 1 0 -1 0 0 3002.dat
1 71 70 -144 50 1 0 0 0 1 0 0 0 1 3003.dat
1 71 40 -144 -60 1 0 0 0 1 0 0 0 1 3005.dat
1 71 40 -144 60 1 0 0 0 1 0 0 0 1 3005.dat
1 71 -170 -144 20 1 0 0 0 1 0 0 0 1 3004.dat
1 71 -200 -144 -40 1 0 0 0 1 0 0 0 1 3622.dat
1 71 -200 -144 40 1 0 0 0 1 0 0 0 1 3622.dat
1 71 -270 -144 -60 1 0 0 0 1 0 0 0 1 3010.dat
1 71 -270 -144 60 1 0 0 0 1 0 0 0 1 3010.dat
1 71 -270 -144 -80 1 0 0 0 1 0 0 0 1 3004.dat
1 71 -270 -144 80 1 0 0 0 1 0 0 0 1 3004.dat
1 71 -290 -144 40 1 0 0 0 1 0 0 0 1 3004.dat
1 71 -350 -144 0 1 0 0 0 1 0 0 0 1 3004.dat
1 71 -360 -128 20 1 0 0 0 1 0 0 0 1 3070b.dat
1 71 -250 -128 -40 1 0 0 0 1 0 0 0 1 3023.dat
1 71 -250 -128 30 1 0 0 0 1 0 0 0 1 3022.dat
1 71 -210 -128 -10 1 0 0 0 1 0 0 0 1 3020.dat
1 71 -210 -128 20 1 0 0 0 1 0 0 0 1 3023.dat
1 71 -160 -128 -20 1 0 0 0 1 0 0 0 1 3024.dat
1 71 -90 -128 0 0 0 1 0 1 0 -1 0 0 3021.dat
0 STEP
1 71 40 -136 40 1 0 0 0 1 0 0 0 1 3024.dat
1 71 -90 -136 -30 1 0 0 0 1 0 0 0 1 3795.dat
1 71 -90 -136 10 1 0 0 0 1 0 0 0 1 3795.dat
1 71 -90 -136 -60 1 0 0 0 1 0 0 0 1 3710.dat
1 71 -90 -136 40 1 0 0 0 1 0 0 0 1 3710.dat
1 71 -100 -136 60 1 0 0 0 1 0 0 0 1 3623.dat
1 71 -140 -136 40 1 0 0 0 1 0 0 0 1 3024.dat
1 71 -160 -136 -20 0 0 1 0 1 0 -1 0 0 3623.dat
1 71 -180 -136 -10 0 0 1 0 1 0 -1 0 0 3069b.dat
1 71 -200 -136 -20 1 0 0 0 1 0 0 0 1 3070b.dat
1 71 -210 -136 20 1 0 0 0 1 0 0 0 1 3069b.dat
1 71 -220 -136 -60 1 0 0 0 1 0 0 0 1 3024.dat
1 71 -240 -136 -80 1 0 0 0 1 0 0 0 1 3024.dat
1 71 -250 -136 -10 1 0 0 0 1 0 0 0 1 3022.dat
1 71 -240 -136 40 1 0 0 0 1 0 0 0 1 3070b.dat
1 71 -280 -136 -40 1 0 0 0 1 0 0 0 1 3623.dat
1 71 -280 -136 20 1 0 0 0 1 0 0 0 1 3623.dat
1 71 -320 -136 -10 0 0 1 0 1 0 -1 0 0 3023.dat
1 71 -340 -136 -20 1 0 0 0 1 0 0 0 1 3024.dat
0 STEP
1 71 -310 -144 -20 1 0 0 0 1 0 0 0 1 3710.dat
1 71 -300 -144 10 1 0 0 0 1 0 0 0 1 3021.dat
1 71 -300 -144 -40 1 0 0 0 1 0 0 0 1 3623.dat
1 71 -260 -144 -10 0 0 1 0 1 0 -1 0 0 3069b.dat
1 71 -240 -144 80 1 0 0 0 1 0 0 0 1 3024.dat
1 71 -240 -144 -80 1 0 0 0 1 0 0 0 1 3024.dat
1 71 -210 -144 60 1 0 0 0 1 0 0 0 1 3023.dat
1 71 -150 -144 -60 1 0 0 0 1 0 0 0 1 3460.dat
1 71 -90 -144 40 1 0 0 0 1 0 0 0 1 3460.dat
1 71 -140 -144 0 1 0 0 0 1 0 0 0 1 63864.dat
1 71 -90 -144 -40 1 0 0 0 1 0 0 0 1 3460.dat
1 71 -90 -144 60 1 0 0 0 1 0 0 0 1 3666.dat
1 71 -130 -144 20 1 0 0 0 1 0 0 0 1 3069b.dat
1 71 -130 -144 -20 1 0 0 0 1 0 0 0 1 3069b.dat
1 71 -40 -144 10 1 0 0 0 1 0 0 0 1 3021.dat
1 71 -30 -144 -20 1 0 0 0 1 0 0 0 1 3710.dat
1 71 -50 -144 -60 1 0 0 0 1 0 0 0 1 3023.dat
1 71 0 -144 0 1 0 0 0 1 0 0 0 1 3024.dat
1 71 30 -144 40 1 0 0 0 1 0 0 0 1 3023.dat
1 71 60 -144 20 1 0 0 0 1 0 0 0 1 3623.dat
1 71 40 -144 -40 1 0 0 0 1 0 0 0 1 3024.dat
1 71 70 -144 80 1 0 0 0 1 0 0 0 1 3023.dat
1 71 70 -144 -20 1 0 0 0 1 0 0 0 1 3023.dat
1 71 100 -144 40 1 0 0 0 1 0 0 0 1 3024.dat
1 71 110 -144 0 1 0 0 0 1 0 0 0 1 3023.dat
1 71 100 -144 -40 1 0 0 0 1 0 0 0 1 3024.dat
1 71 120 -144 20 1 0 0 0 1 0 0 0 1 3024.dat
1 71 120 -144 -20 1 0 0 0 1 0 0 0 1 3024.dat
0 STEP
1 71 -330 -168 -10 1 0 0 0 1 0 0 0 1 3003.dat
1 71 -300 -168 20 1 0 0 0 1 0 0 0 1 3005.dat
1 71 -300 -168 -30 0 0 1 0 1 0 -1 0 0 3004.dat
1 71 -210 -168 60 1 0 0 0 1 0 0 0 1 3008.dat
1 71 -280 -168 40 1 0 0 0 1 0 0 0 1 3005.dat
1 71 -280 -168 -60 0 0 1 0 1 0 -1 0 0 3622.dat
1 71 -250 -168 80 1 0 0 0 1 0 0 0 1 3004.dat
1 71 -250 -168 -70 1 0 0 0 1 0 0 0 1 3003.dat
1 71 -190 -168 -60 1 0 0 0 1 0 0 0 1 3010.dat
1 71 -180 -168 40 1 0 0 0 1 0 0 0 1 3622.dat
1 71 -190 -168 -40 1 0 0 0 1 0 0 0 1 3004.dat
1 71 -90 -168 -80 1 0 0 0 1 0 0 0 1 3010.dat
1 71 -90 -168 80 1 0 0 0 1 0 0 0 1 3004.dat
1 71 -50 -168 60 1 0 0 0 1 0 0 0 1 3004.dat
1 71 -30 -168 -60 1 0 0 0 1 0 0 0 1 3004.dat
1 71 0 -168 40 1 0 0 0 1 0 0 0 1 3622.dat
1 71 10 -168 -40 1 0 0 0 1 0 0 0 1 3004.dat
1 71 50 -168 -60 1 0 0 0 1 0 0 0 1 3010.dat
1 71 70 -168 60 1 0 0 0 1 0 0 0 1 3010.dat
1 71 60 -168 -80 1 0 0 0 1 0 0 0 1 3622.dat
1 71 70 -168 80 1 0 0 0 1 0 0 0 1 3004.dat
1 71 100 -168 -60 1 0 0 0 1 0 0 0 1 3005.dat
1 71 120 -168 10 0 0 1 0 1 0 -1 0 0 3010.dat
1 71 130 -168 -40 1 0 0 0 1 0 0 0 1 3004.dat
1 71 140 -168 0 0 0 1 0 1 0 -1 0 0 3622.dat
1 71 100 -152 10 0 0 1 0 1 0 -1 0 0 3710.dat
1 71 100 -152 -40 1 0 0 0 1 0 0 0 1 3024.dat
1 71 30 -152 10 1 0 0 0 1 0 0 0 1 3795.dat
1 71 30 -152 -20 1 0 0 0 1 0 0 0 1 3666.dat
1 71 40 -152 40 1 0 0 0 1 0 0 0 1 3070b.dat
1 71 40 -152 -40 1 0 0 0 1 0 0 0 1 3070b.dat
1 71 -30 -152 -40 1 0 0 0 1 0 0 0 1 3023.dat
1 71 -50 -152 40 1 0 0 0 1 0 0 0 1 3023.dat
1 71 -90 -152 -60 1 0 0 0 1 0 0 0 1 3710.dat
1 71 -100 -152 60 1 0 0 0 1 0 0 0 1 3623.dat
1 71 -130 -152 40 1 0 0 0 1 0 0 0 1 3069b.dat
1 71 -140 -152 -50 0 0 1 0 1 0 -1 0 0 3023.dat
1 71 -160 -152 -40 1 0 0 0 1 0 0 0 1 3024.dat
1 71 -220 -152 40 1 0 0 0 1 0 0 0 1 3024.dat
1 71 -220 -152 -40 1 0 0 0 1 0 0 0 1 3070b.dat
1 71 -260 -152 40 1 0 0 0 1 0 0 0 1 3070b.dat
1 71 -280 -152 80 1 0 0 0 1 0 0 0 1 3070b.dat
1 71 -280 -152 0 0 0 1 0 1 0 -1 0 0 63864.dat
1 71 -300 -152 0 1 0 0 0 1 0 0 0 1 3070b.dat
1 71 -360 -152 0 1 0 0 0 1 0 0 0 1 3024.dat
0 STEP
1 71 -360 -160 0 1 0 0 0 1 0 0 0 1 3070b.dat
1 71 -320 -160 20 1 0 0 0 1 0 0 0 1 3024.dat
1 71 -300 -160 40 1 0 0 0 1 0 0 0 1 3024.dat
1 71 -220 -160 -80 1 0 0 0 1 0 0 0 1 3024.dat
1 71 -220 -160 40 1 0 0 0 1 0 0 0 1 3070b.dat
1 71 -160 -160 -40 1 0 0 0 1 0 0 0 1 3070b.dat
1 71 -140 -160 -70 0 0 1 0 1 0 -1 0 0 3023.dat
1 71 -130 -160 80 1 0 0 0 1 0 0 0 1 3023.dat
1 71 -100 -160 -100 1 0 0 0 1 0 0 0 1 3623.dat
1 71 -100 -160 60 1 0 0 0 1 0 0 0 1 63864.dat
1 71 -60 -160 -60 1 0 0 0 1 0 0 0 1 3070b.dat
1 71 -60 -160 80 1 0 0 0 1 0 0 0 1 3024.dat
1 71 -40 -160 -80 1 0 0 0 1 0 0 0 1 3024.dat
1 71 -40 -160 40 1 0 0 0 1 0 0 0 1 3070b.dat
1 71 -20 -160 -40 1 0 0 0 1 0 0 0 1 3070b.dat
1 71 -20 -160 60 1 0 0 0 1 0 0 0 1 3024.dat
1 71 0 -160 -60 1 0 0 0 1 0 0 0 1 3024.dat
1 71 10 -160 20 1 0 0 0 1 0 0 0 1 3069b.dat
1 71 30 -160 -10 1 0 0 0 1 0 0 0 1 3068b.dat
1 71 20 -160 60 1 0 0 0 1 0 0 0 1 3024.dat
1 71 40 -160 80 1 0 0 0 1 0 0 0 1 3024.dat
1 71 70 -160 0 1 0 0 0 1 0 0 0 1 3069b.dat
1 71 100 -160 -30 0 0 1 0 1 0 -1 0 0 3069b.dat
1 71 100 -160 30 0 0 1 0 1 0 -1 0 0 3069b.dat
1 71 140 -160 40 1 0 0 0 1 0 0 0 1 3024.dat
0 STEP
1 71 140 -168 40 1 0 0 0 1 0 0 0 1 3024.dat
1 71 120 -168 -60 1 0 0 0 1 0 0 0 1 3024.dat
1 71 120 -168 60 1 0 0 0 1 0 0 0 1 3024.dat
1 71 100 -168 -80 1 0 0 0 1 0 0 0 1 3024.dat
1 71 100 -168 80 1 0 0 0 1 0 0 0 1 3024.dat
1 71 40 -168 80 1 0 0 0 1 0 0 0 1 3024.dat
1 71 0 -168 60 1 0 0 0 1 0 0 0 1 3623.dat
1 71 0 -168 -60 1 0 0 0 1 0 0 0 1 3024.dat
1 71 -30 -168 -80 1 0 0 0 1 0 0 0 1 3023.dat
1 71 -50 -168 80 1 0 0 0 1 0 0 0 1 3023.dat
1 71 -90 -168 -100 1 0 0 0 1 0 0 0 1 3710.dat
1 71 -100 -168 100 1 0 0 0 1 0 0 0 1 3623.dat
1 71 -130 -168 80 1 0 0 0 1 0 0 0 1 3023.dat
1 71 -140 -168 -90 0 0 1 0 1 0 -1 0 0 3023.dat
1 71 -160 -168 -80 1 0 0 0 1 0 0 0 1 3024.dat
1 71 -220 -168 -80 1 0 0 0 1 0 0 0 1 3024.dat
1 71 -220 -168 80 1 0 0 0 1 0 0 0 1 3024.dat
1 71 -300 -168 40 1 0 0 0 1 0 0 0 1 3024.dat
1 71 -320 -168 20 1 0 0 0 1 0 0 0 1 3024.dat
0 STEP
1 71 140 -192 10 0 0 1 0 1 0 -1 0 0 3010.dat
1 71 130 -192 -40 1 0 0 0 1 0 0 0 1 3004.dat
1 71 50 -192 60 1 0 0 0 1 0 0 0 1 3008.dat
1 71 120 -192 40 1 0 0 0 1 0 0 0 1 3005.dat
1 71 70 -192 -60 1 0 0 0 1 0 0 0 1 3009.dat
1 71 70 -192 80 1 0 0 0 1 0 0 0 1 3010.dat
1 71 70 -192 -80 1 0 0 0 1 0 0 0 1 3010.dat
1 71 20 -192 40 1 0 0 0 1 0 0 0 1 3005.dat
1 71 0 -192 -70 0 0 1 0 1 0 -1 0 0 3004.dat
1 71 -40 -192 80 1 0 0 0 1 0 0 0 1 3622.dat
1 71 -40 -192 -80 1 0 0 0 1 0 0 0 1 3622.dat
1 71 -90 -192 -100 1 0 0 0 1 0 0 0 1 3009.dat
1 71 -90 -192 100 1 0 0 0 1 0 0 0 1 3010.dat
1 71 -130 -192 80 1 0 0 0 1 0 0 0 1 3010.dat
1 71 -140 -192 100 1 0 0 0 1 0 0 0 1 3005.dat
1 71 -160 -192 -80 1 0 0 0 1 0 0 0 1 3005.dat
1 71 -230 -192 60 1 0 0 0 1 0 0 0 1 3009.dat
1 71 -230 -192 -60 1 0 0 0 1 0 0 0 1 3009.dat
1 71 -240 -192 80 1 0 0 0 1 0 0 0 1 3622.dat
1 71 -250 -192 -80 1 0 0 0 1 0 0 0 1 3010.dat
1 71 -290 -192 40 1 0 0 0 1 0 0 0 1 3004.dat
1 71 -310 -192 20 1 0 0 0 1 0 0 0 1 3004.dat
1 71 -300 -192 -50 0 0 1 0 1 0 -1 0 0 3004.dat
1 71 -330 -192 -10 1 0 0 0 1 0 0 0 1 3003.dat
1 71 -320 -192 -40 1 0 0 0 1 0 0 0 1 3005.dat
1 71 -190 -176 40 1 0 0 0 1 0 0 0 1 3023.dat
1 71 -190 -176 -40 1 0 0 0 1 0 0 0 1 3069b.dat
1 71 -160 -176 60 1 0 0 0 1 0 0 0 1 3024.dat
1 71 -160 -176 -60 1 0 0 0 1 0 0 0 1 3070b.dat
1 71 -110 -176 -80 1 0 0 0 1 0 0 0 1 3710.dat
1 71 -80 -176 80 1 0 0 0 1 0 0 0 1 3024.dat
1 71 -40 -176 60 1 0 0 0 1 0 0 0 1 3070b.dat
1 71 -20 -176 -60 1 0 0 0 1 0 0 0 1 3024.dat
1 71 0 -176 40 1 0 0 0 1 0 0 0 1 3070b.dat
1 71 20 -176 -40 1 0 0 0 1 0 0 0 1 3024.dat
1 71 120 -176 0 0 0 1 0 1 0 -1 0 0 3623.dat
0 STEP
1 71 120 -184 0 0 0 1 0 1 0 -1 0 0 63864.dat
1 71 20 -184 -40 1 0 0 0 1 0 0 0 1 3070b.dat
1 71 0 -184 80 1 0 0 0 1 0 0 0 1 3024.dat
1 71 -20 -184 -60 1 0 0 0 1 0 0 0 1 3070b.dat
1 71 -40 -184 100 1 0 0 0 1 0 0 0 1 3024.dat
1 71 -80 -184 80 1 0 0 0 1 0 0 0 1 3070b.dat
1 71 -90 -184 -120 1 0 0 0 1 0 0 0 1 3023.dat
1 71 -130 -184 -80 1 0 0 0 1 0 0 0 1 3069b.dat
1 71 -160 -184 60 1 0 0 0 1 0 0 0 1 3070b.dat
1 71 -160 -184 -100 1 0 0 0 1 0 0 0 1 3024.dat
1 71 -190 -184 40 1 0 0 0 1 0 0 0 1 3069b.dat
1 71 -190 -184 -80 1 0 0 0 1 0 0 0 1 3023.dat
0 STEP
1 71 -190 -192 -80 1 0 0 0 1 0 0 0 1 3023.dat
1 71 -190 -192 80 1 0 0 0 1 0 0 0 1 3023.dat
1 71 -160 -192 -100 1 0 0 0 1 0 0 0 1 3024.dat
1 71 -160 -192 100 1 0 0 0 1 0 0 0 1 3024.dat
1 71 -110 -192 -120 1 0 0 0 1 0 0 0 1 3710.dat
1 71 -80 -192 120 1 0 0 0 1 0 0 0 1 3024.dat
1 71 -40 -192 100 1 0 0 0 1 0 0 0 1 3024.dat
1 71 -20 -192 -100 1 0 0 0 1 0 0 0 1 3024.dat
1 71 0 -192 80 1 0 0 0 1 0 0 0 1 3024.dat
1 71 20 -192 -80 1 0 0 0 1 0 0 0 1 3024.dat
1 71 160 -192 0 0 0 1 0 1 0 -1 0 0 3623.dat
0 STEP
1 71 -330 -216 0 1 0 0 0 1 0 0 0 1 3004.dat
1 71 -320 -216 -20 1 0 0 0 1 0 0 0 1 3005.dat
1 71 -310 -216 20 1 0 0 0 1 0 0 0 1 3004.dat
1 71 -290 -216 -60 1 0 0 0 1 0 0 0 1 3004.dat
1 71 -300 -216 -40 1 0 0 0 1 0 0 0 1 3005.dat
1 71 -290 -216 40 1 0 0 0 1 0 0 0 1 3004.dat
1 71 -230 -216 -80 1 0 0 0 1 0 0 0 1 3009.dat
1 71 -250 -216 70 1 0 0 0 1 0 0 0 1 3001.dat
1 71 -230 -216 -100 1 0 0 0 1 0 0 0 1 3004.dat
1 71 -200 -216 70 0 0 1 0 1 0 -1 0 0 3004.dat
1 71 -170 -216 80 1 0 0 0 1 0 0 0 1 3004.dat
1 71 -90 -216 -100 1 0 0 0 1 0 0 0 1 3008.dat
1 71 -160 -216 -80 1 0 0 0 1 0 0 0 1 3005.dat
1 71 -110 -216 100 1 0 0 0 1 0 0 0 1 3009.dat
1 71 -110 -216 -120 1 0 0 0 1 0 0 0 1 3010.dat
1 71 -100 -216 120 1 0 0 0 1 0 0 0 1 3622.dat
1 71 -60 -216 -120 1 0 0 0 1 0 0 0 1 3005.dat
1 71 -30 -216 80 1 0 0 0 1 0 0 0 1 3010.dat
1 71 30 -216 -80 1 0 0 0 1 0 0 0 1 3008.dat
1 71 -40 -216 100 1 0 0 0 1 0 0 0 1 3005.dat
1 71 50 -216 60 1 0 0 0 1 0 0 0 1 3009.dat
1 71 70 -216 -60 1 0 0 0 1 0 0 0 1 3009.dat
1 71 70 -216 80 1 0 0 0 1 0 0 0 1 3010.dat
1 71 130 -216 40 1 0 0 0 1 0 0 0 1 3004.dat
1 71 120 -216 60 1 0 0 0 1 0 0 0 1 3005.dat
1 71 140 -216 -10 0 0 1 0 1 0 -1 0 0 3010.dat
1 71 160 -216 0 0 0 1 0 1 0 -1 0 0 3622.dat
1 71 120 -200 -40 1 0 0 0 1 0 0 0 1 3024.dat
1 71 20 -200 40 1 0 0 0 1 0 0 0 1 3070b.dat
1 71 0 -200 -60 1 0 0 0 1 0 0 0 1 3024.dat
1 71 -20 -200 60 1 0 0 0 1 0 0 0 1 3070b.dat
1 71 -140 -200 80 1 0 0 0 1 0 0 0 1 3024.dat
1 71 -190 -200 -60 1 0 0 0 1 0 0 0 1 3023.dat
1 71 -180 -200 60 1 0 0 0 1 0 0 0 1 3024.dat
1 71 -260 -200 -60 1 0 0 0 1 0 0 0 1 3070b.dat
1 71 -320 -200 -40 1 0 0 0 1 0 0 0 1 3024.dat
1 71 -340 -200 -20 1 0 0 0 1 0 0 0 1 3024.dat
0 STEP
1 71 -340 -208 -20 1 0 0 0 1 0 0 0 1 3070b.dat
1 71 -320 -208 -40 1 0 0 0 1 0 0 0 1 3070b.dat
1 71 -260 -208 -100 1 0 0 0 1 0 0 0 1 3024.dat
1 71 -200 -208 -60 1 0 0 0 1 0 0 0 1 3070b.dat
1 71 -180 -208 60 1 0 0 0 1 0 0 0 1 3070b.dat
1 71 -180 -208 -100 1 0 0 0 1 0 0 0 1 3024.dat
1 71 -140 -208 80 1 0 0 0 1 0 0 0 1 3070b.dat
1 71 -20 -208 100 1 0 0 0 1 0 0 0 1 3024.dat
1 71 0 -208 -60 1 0 0 0 1 0 0 0 1 3070b.dat
1 71 20 -208 80 1 0 0 0 1 0 0 0 1 3024.dat
1 71 120 -208 -40 1 0 0 0 1 0 0 0 1 3070b.dat
1 71 120 -208 -80 1 0 0 0 1 0 0 0 1 3024.dat
0 STEP
1 71 160 -216 -40 1 0 0 0 1 0 0 0 1 3024.dat
1 71 140 -216 -60 1 0 0 0 1 0 0 0 1 3024.dat
1 71 120 -216 -80 1 0 0 0 1 0 0 0 1 3024.dat
1 71 20 -216 80 1 0 0 0 1 0 0 0 1 3024.dat
1 71 0 -216 -100 1 0 0 0 1 0 0 0 1 3024.dat
1 71 -20 -216 100 1 0 0 0 1 0 0 0 1 3024.dat
1 71 -140 -216 120 1 0 0 0 1 0 0 0 1 3024.dat
1 71 -180 -216 100 1 0 0 0 1 0 0 0 1 3024.dat
1 71 -190 -216 -100 1 0 0 0 1 0 0 0 1 3023.dat
1 71 -260 -216 -100 1 0 0 0 1 0 0 0 1 3024.dat
1 71 -280 -216 -40 1 0 0 0 1 0 0 0 1 3024.dat
1 71 -300 -216 -20 1 0 0 0 1 0 0 0 1 3024.dat
0 STEP
1 71 170 -240 0 0 0 1 0 1 0 -1 0 0 3002.dat
1 71 150 -240 -40 1 0 0 0 1 0 0 0 1 3004.dat
1 71 130 -240 -60 1 0 0 0 1 0 0 0 1 3004.dat
1 71 140 -240 40 1 0 0 0 1 0 0 0 1 3005.dat
1 71 50 -240 -80 1 0 0 0 1 0 0 0 1 3008.dat
1 71 70 -240 70 1 0 0 0 1 0 0 0 1 2456.dat
1 71 60 -240 -100 1 0 0 0 1 0 0 0 1 3005.dat
1 71 20 -240 -60 1 0 0 0 1 0 0 0 1 3005.dat
1 71 -70 -240 -100 1 0 0 0 1 0 0 0 1 3008.dat
1 71 0 -240 70 0 0 1 0 1 0 -1 0 0 3004.dat
1 71 -40 -240 90 1 0 0 0 1 0 0 0 1 3002.dat
1 71 -40 -240 -80 1 0 0 0 1 0 0 0 1 3005.dat
1 71 -90 -240 -120 1 0 0 0 1 0 0 0 1 3010.dat
1 71 -110 -240 110 1 0 0 0 1 0 0 0 1 3001.dat
1 71 -140 -240 -120 1 0 0 0 1 0 0 0 1 3005.dat
1 71 -210 -240 -90 1 0 0 0 1 0 0 0 1 2456.dat
1 71 -190 -240 90 1 0 0 0 1 0 0 0 1 3001.dat
1 71 -260 -240 80 1 0 0 0 1 0 0 0 1 3622.dat
1 71 -240 -240 100 1 0 0 0 1 0 0 0 1 3005.dat
1 71 -270 -240 60 1 0 0 0 1 0 0 0 1 3004.dat
1 71 -280 -240 -60 0 0 1 0 1 0 -1 0 0 3622.dat
1 71 -290 -240 30 1 0 0 0 1 0 0 0 1 3003.dat
1 71 -300 -240 -20 0 0 1 0 1 0 -1 0 0 3622.dat
1 71 -320 -240 -10 0 0 1 0 1 0 -1 0 0 3004.dat
1 71 -260 -224 -60 1 0 0 0 1 0 0 0 1 3024.dat
1 71 40 -224 -60 1 0 0 0 1 0 0 0 1 3070b.dat
1 71 90 -224 -60 1 0 0 0 1 0 0 0 1 3023.dat
1 71 120 -224 40 1 0 0 0 1 0 0 0 1 3070b.dat
1 71 140 -224 20 1 0 0 0 1 0 0 0 1 3070b.dat
0 STEP
1 71 160 -232 40 1 0 0 0 1 0 0 0 1 3024.dat
1 71 140 -232 60 1 0 0 0 1 0 0 0 1 3024.dat
1 71 100 -232 -60 1 0 0 0 1 0 0 0 1 3070b.dat
1 71 80 -232 -100 1 0 0 0 1 0 0 0 1 3024.dat
1 71 40 -232 -100 1 0 0 0 1 0 0 0 1 3024.dat
1 71 -260 -232 -60 1 0 0 0 1 0 0 0 1 3070b.dat
0 STEP
1 71 -300 -240 -60 1 0 0 0 1 0 0 0 1 3024.dat
1 71 40 -240 -100 1 0 0 0 1 0 0 0 1 3024.dat
1 71 90 -240 -100 1 0 0 0 1 0 0 0 1 3023.dat
1 71 140 -240 60 1 0 0 0 1 0 0 0 1 3024.dat
1 71 160 -240 40 1 0 0 0 1 0 0 0 1 3024.dat
0 STEP
1 71 -310 -264 0 1 0 0 0 1 0 0 0 1 3004.dat
1 71 -290 -264 30 1 0 0 0 1 0 0 0 1 3003.dat
1 71 -300 -264 -40 0 0 1 0 1 0 -1 0 0 3622.dat
1 71 -270 -264 70 1 0 0 0 1 0 0 0 1 3003.dat
1 71 -280 -264 -60 0 0 1 0 1 0 -1 0 0 3622.dat
1 71 -210 -264 -80 1 0 0 0 1 0 0 0 1 3009.dat
1 71 -210 -264 80 1 0 0 0 1 0 0 0 1 3010.dat
1 71 -170 -264 -100 1 0 0 0 1 0 0 0 1 3008.dat
1 71 -150 -264 100 1 0 0 0 1 0 0 0 1 3008.dat
1 71 -160 -264 80 1 0 0 0 1 0 0 0 1 3005.dat
1 71 -110 -264 -120 1 0 0 0 1 0 0 0 1 3010.dat
1 71 -50 -264 -100 1 0 0 0 1 0 0 0 1 3010.dat
1 71 -40 -264 90 1 0 0 0 1 0 0 0 1 3002.dat
1 71 -60 -264 -120 1 0 0 0 1 0 0 0 1 3005.dat
1 71 30 -264 -80 1 0 0 0 1 0 0 0 1 3008.dat
1 71 50 -264 80 1 0 0 0 1 0 0 0 1 3009.dat
1 71 0 -264 -100 1 0 0 0 1 0 0 0 1 3005.dat
1 71 70 -264 60 1 0 0 0 1 0 0 0 1 3009.dat
1 71 90 -264 -100 1 0 0 0 1 0 0 0 1 3004.dat
1 71 120 -264 80 1 0 0 0 1 0 0 0 1 3005.dat
1 71 130 -264 -60 1 0 0 0 1 0 0 0 1 3004.dat
1 71 120 -264 -80 1 0 0 0 1 0 0 0 1 3005.dat
1 71 140 -264 50 0 0 1 0 1 0 -1 0 0 3004.dat
1 71 160 -264 30 0 0 1 0 1 0 -1 0 0 3004.dat
1 71 160 -264 -40 1 0 0 0 1 0 0 0 1 3005.dat
1 71 180 -264 0 0 0 1 0 1 0 -1 0 0 3622.dat
1 71 160 -248 -10 0 0 1 0 1 0 -1 0 0 3023.dat
1 71 140 -248 -40 1 0 0 0 1 0 0 0 1 3024.dat
1 71 40 -248 -100 1 0 0 0 1 0 0 0 1 3623.dat
1 71 0 -248 100 1 0 0 0 1 0 0 0 1 3070b.dat
1 71 -110 -248 120 1 0 0 0 1 0 0 0 1 3710.dat
1 71 -240 -248 100 1 0 0 0 1 0 0 0 1 3070b.dat
1 71 -260 -248 -100 1 0 0 0 1 0 0 0 1 3070b.dat
1 71 -320 -248 -20 1 0 0 0 1 0 0 0 1 3024.dat
0 STEP
1 71 -320 -256 -20 1 0 0 0 1 0 0 0 1 3070b.dat
1 71 -300 -256 60 1 0 0 0 1 0 0 0 1 3024.dat
1 71 -260 -256 -60 1 0 0 0 1 0 0 0 1 3024.dat
1 71 -240 -256 60 1 0 0 0 1 0 0 0 1 3024.dat
1 71 -140 -256 80 1 0 0 0 1 0 0 0 1 3024.dat
1 71 -100 -256 120 1 0 0 0 1 0 0 0 1 63864.dat
1 71 0 -256 60 1 0 0 0 1 0 0 0 1 3024.dat
1 71 30 -256 -100 1 0 0 0 1 0 0 0 1 3069b.dat
1 71 60 -256 -60 1 0 0 0 1 0 0 0 1 3024.dat
1 71 140 -256 -40 1 0 0 0 1 0 0 0 1 3070b.dat
1 71 160 -256 -20 1 0 0 0 1 0 0 0 1 3070b.dat
1 71 200 -256 0 0 0 1 0 1 0 -1 0 0 3623.dat
0 STEP
1 71 200 -264 0 0 0 1 0 1 0 -1 0 0 3623.dat
1 71 180 -264 -40 1 0 0 0 1 0 0 0 1 3024.dat
1 71 160 -264 -60 1 0 0 0 1 0 0 0 1 3024.dat
1 71 140 -264 -80 1 0 0 0 1 0 0 0 1 3024.dat
1 71 40 -264 -60 1 0 0 0 1 0 0 0 1 3623.dat
1 71 0 -264 60 1 0 0 0 1 0 0 0 1 3024.dat
1 71 -110 -264 80 1 0 0 0 1 0 0 0 1 3710.dat
1 71 -240 -264 60 1 0 0 0 1 0 0 0 1 3024.dat
1 71 -260 -264 -60 1 0 0 0 1 0 0 0 1 3024.dat
1 71 -280 -264 -20 1 0 0 0 1 0 0 0 1 3024.dat
1 71 -300 -264 60 1 0 0 0 1 0 0 0 1 3024.dat
0 STEP
1 71 200 -288 0 0 0 1 0 1 0 -1 0 0 3622.dat
1 71 170 -288 30 1 0 0 0 1 0 0 0 1 3003.dat
1 71 180 -288 -30 0 0 1 0 1 0 -1 0 0 3004.dat
1 71 160 -288 -40 1 0 0 0 1 0 0 0 1 3005.dat
1 71 70 -288 60 1 0 0 0 1 0 0 0 1 3008.dat
1 71 140 -288 40 1 0 0 0 1 0 0 0 1 3005.dat
1 71 130 -288 -60 1 0 0 0 1 0 0 0 1 3004.dat
1 71 50 -288 80 1 0 0 0 1 0 0 0 1 3008.dat
1 71 50 -288 -80 1 0 0 0 1 0 0 0 1 3008.dat
1 71 40 -288 -60 1 0 0 0 1 0 0 0 1 3622.dat
1 71 -90 -288 -100 1 0 0 0 1 0 0 0 1 3008.dat
1 71 -110 -288 80 1 0 0 0 1 0 0 0 1 3008.dat
1 71 -50 -288 -80 1 0 0 0 1 0 0 0 1 3004.dat
1 71 -110 -288 100 1 0 0 0 1 0 0 0 1 3009.dat
1 71 -210 -288 -80 1 0 0 0 1 0 0 0 1 3008.dat
1 71 -210 -288 -100 1 0 0 0 1 0 0 0 1 3010.dat
1 71 -230 -288 80 1 0 0 0 1 0 0 0 1 3010.dat
1 71 -270 -288 60 1 0 0 0 1 0 0 0 1 3010.dat
1 71 -280 -288 -60 1 0 0 0 1 0 0 0 1 3622.dat
1 71 -280 -288 80 1 0 0 0 1 0 0 0 1 3005.dat
1 71 -290 -288 30 1 0 0 0 1 0 0 0 1 3003.dat
1 71 -290 -288 -30 1 0 0 0 1 0 0 0 1 3003.dat
1 71 -310 -288 0 1 0 0 0 1 0 0 0 1 3004.dat
1 71 -200 -272 100 1 0 0 0 1 0 0 0 1 63864.dat
1 71 -100 -272 -120 1 0 0 0 1 0 0 0 1 63864.dat
1 71 -30 -272 100 1 0 0 0 1 0 0 0 1 3023.dat
1 71 0 -272 -100 1 0 0 0 1 0 0 0 1 3070b.dat
1 71 90 -272 -100 1 0 0 0 1 0 0 0 1 3069b.dat
1 71 140 -272 -80 1 0 0 0 1 0 0 0 1 3070b.dat
1 71 160 -272 -60 1 0 0 0 1 0 0 0 1 3070b.dat
1 71 180 -272 0 1 0 0 0 1 0 0 0 1 3070b.dat
0 STEP
1 71 220 -280 0 0 0 1 0 1 0 -1 0 0 3623.dat
1 71 160 -280 -20 1 0 0 0 1 0 0 0 1 3024.dat
1 71 140 -280 -40 1 0 0 0 1 0 0 0 1 3024.dat
1 71 90 -280 -60 1 0 0 0 1 0 0 0 1 3023.dat
1 71 0 -280 -60 1 0 0 0 1 0 0 0 1 3024.dat
1 71 -20 -280 60 1 0 0 0 1 0 0 0 1 3024.dat
1 71 -40 -280 100 1 0 0 0 1 0 0 0 1 3070b.dat
1 71 -100 -280 -80 1 0 0 0 1 0 0 0 1 3623.dat
1 71 -200 -280 60 1 0 0 0 1 0 0 0 1 3623.dat
0 STEP
1 71 -200 -288 60 1 0 0 0 1 0 0 0 1 3623.dat
1 71 -100 -288 -80 1 0 0 0 1 0 0 0 1 3623.dat
1 71 -30 -288 60 1 0 0 0 1 0 0 0 1 3023.dat
1 71 0 -288 -60 1 0 0 0 1 0 0 0 1 3024.dat
1 71 90 -288 -60 1 0 0 0 1 0 0 0 1 3023.dat
1 71 140 -288 -40 1 0 0 0 1 0 0 0 1 3024.dat
1 71 160 -288 -20 1 0 0 0 1 0 0 0 1 3024.dat
1 71 200 -288 -40 1 0 0 0 1 0 0 0 1 3024.dat
1 71 220 -288 0 0 0 1 0 1 0 -1 0 0 3623.dat
0 STEP
1 71 -310 -312 -10 1 0 0 0 1 0 0 0 1 3003.dat
1 71 -290 -312 -50 1 0 0 0 1 0 0 0 1 3003.dat
1 71 -290 -312 40 0 0 1 0 1 0 -1 0 0 3002.dat
1 71 -210 -312 -80 1 0 0 0 1 0 0 0 1 3008.dat
1 71 -260 -312 -60 1 0 0 0 1 0 0 0 1 3005.dat
1 71 -230 -312 70 1 0 0 0 1 0 0 0 1 3001.dat
1 71 -200 -312 -60 1 0 0 0 1 0 0 0 1 3005.dat
1 71 -180 -312 70 0 0 1 0 1 0 -1 0 0 3004.dat
1 71 -140 -312 -100 1 0 0 0 1 0 0 0 1 3622.dat
1 71 -90 -312 80 1 0 0 0 1 0 0 0 1 3008.dat
1 71 -50 -312 -80 1 0 0 0 1 0 0 0 1 3008.dat
1 71 10 -312 60 1 0 0 0 1 0 0 0 1 3008.dat
1 71 50 -312 -60 1 0 0 0 1 0 0 0 1 3008.dat
1 71 0 -312 80 1 0 0 0 1 0 0 0 1 3005.dat
1 71 70 -312 -80 1 0 0 0 1 0 0 0 1 3010.dat
1 71 60 -312 80 1 0 0 0 1 0 0 0 1 3622.dat
1 71 110 -312 60 1 0 0 0 1 0 0 0 1 3004.dat
1 71 140 -312 -50 0 0 1 0 1 0 -1 0 0 3004.dat
1 71 160 -312 40 1 0 0 0 1 0 0 0 1 3622.dat
1 71 180 -312 -30 1 0 0 0 1 0 0 0 1 3002.dat
1 71 190 -312 20 1 0 0 0 1 0 0 0 1 3010.dat
1 71 220 -312 0 1 0 0 0 1 0 0 0 1 3622.dat
1 71 220 -312 -20 1 0 0 0 1 0 0 0 1 3005.dat
1 71 140 -296 60 1 0 0 0 1 0 0 0 1 3024.dat
1 71 120 -296 -80 1 0 0 0 1 0 0 0 1 3024.dat
1 71 110 -296 80 1 0 0 0 1 0 0 0 1 3023.dat
1 71 20 -296 80 1 0 0 0 1 0 0 0 1 3024.dat
1 71 -70 -296 -100 1 0 0 0 1 0 0 0 1 3710.dat
1 71 -110 -296 100 1 0 0 0 1 0 0 0 1 3710.dat
1 71 -160 -296 100 1 0 0 0 1 0 0 0 1 3070b.dat
1 71 -180 -296 -100 1 0 0 0 1 0 0 0 1 3070b.dat
1 71 -230 -296 -100 1 0 0 0 1 0 0 0 1 3023.dat
1 71 -280 -296 80 1 0 0 0 1 0 0 0 1 3070b.dat
0 STEP
1 71 -240 -304 -60 1 0 0 0 1 0 0 0 1 3024.dat
1 71 -220 -304 -100 1 0 0 0 1 0 0 0 1 3070b.dat
1 71 -180 -304 -60 1 0 0 0 1 0 0 0 1 3024.dat
1 71 -160 -304 60 1 0 0 0 1 0 0 0 1 3024.dat
1 71 -130 -304 100 1 0 0 0 1 0 0 0 1 3069b.dat
1 71 -90 -304 60 1 0 0 0 1 0 0 0 1 3023.dat
1 71 -90 -304 -100 1 0 0 0 1 0 0 0 1 3069b.dat
1 71 -50 -304 -60 1 0 0 0 1 0 0 0 1 3023.dat
1 71 20 -304 80 1 0 0 0 1 0 0 0 1 3070b.dat
1 71 100 -304 80 1 0 0 0 1 0 0 0 1 3070b.dat
1 71 120 -304 40 1 0 0 0 1 0 0 0 1 3024.dat
1 71 120 -304 -80 1 0 0 0 1 0 0 0 1 3070b.dat
1 71 140 -304 60 1 0 0 0 1 0 0 0 1 3070b.dat
1 71 220 -304 -40 1 0 0 0 1 0 0 0 1 3024.dat
1 71 240 -304 20 1 0 0 0 1 0 0 0 1 3024.dat
1 71 250 -304 -20 1 0 0 0 1 0 0 0 1 3023.dat
1 71 260 -304 0 1 0 0 0 1 0 0 0 1 3024.dat
0 STEP
1 71 290 -312 0 0 0 1 0 1 0 -1 0 0 3021.dat
1 71 260 -312 0 0 0 1 0 1 0 -1 0 0 3623.dat
1 71 240 -312 20 1 0 0 0 1 0 0 0 1 3024.dat
1 71 240 -312 -30 0 0 1 0 1 0 -1 0 0 3023.dat
1 71 220 -312 -40 1 0 0 0 1 0 0 0 1 3024.dat
1 71 140 -312 20 1 0 0 0 1 0 0 0 1 3024.dat
1 71 110 -312 40 1 0 0 0 1 0 0 0 1 3023.dat
1 71 120 -312 -40 1 0 0 0 1 0 0 0 1 3024.dat
1 71 20 -312 40 1 0 0 0 1 0 0 0 1 3024.dat
1 71 -70 -312 -60 1 0 0 0 1 0 0 0 1 3710.dat
1 71 -110 -312 60 1 0 0 0 1 0 0 0 1 3710.dat
1 71 -160 -312 60 1 0 0 0 1 0 0 0 1 3024.dat
1 71 -180 -312 -60 1 0 0 0 1 0 0 0 1 3024.dat
1 71 -230 -312 -60 1 0 0 0 1 0 0 0 1 3023.dat
0 STEP
1 71 330 -336 0 0 0 1 0 1 0 -1 0 0 3002.dat
1 71 230 -336 -20 1 0 0 0 1 0 0 0 1 3008.dat
1 71 230 -336 20 1 0 0 0 1 0 0 0 1 3008.dat
1 71 210 -336 -40 1 0 0 0 1 0 0 0 1 3008.dat
1 71 260 -336 40 1 0 0 0 1 0 0 0 1 3005.dat
1 71 150 -336 40 1 0 0 0 1 0 0 0 1 3008.dat
1 71 140 -336 -20 1 0 0 0 1 0 0 0 1 3005.dat
1 71 140 -336 20 1 0 0 0 1 0 0 0 1 3005.dat
1 71 110 -336 -50 1 0 0 0 1 0 0 0 1 3003.dat
1 71 30 -336 60 1 0 0 0 1 0 0 0 1 3008.dat
1 71 10 -336 -60 1 0 0 0 1 0 0 0 1 3008.dat
1 71 30 -336 40 1 0 0 0 1 0 0 0 1 3010.dat
1 71 -20 -336 40 1 0 0 0 1 0 0 0 1 3005.dat
1 71 -130 -336 60 1 0 0 0 1 0 0 0 1 3008.dat
1 71 -150 -336 -60 1 0 0 0 1 0 0 0 1 3008.dat
1 71 -190 -336 -80 1 0 0 0 1 0 0 0 1 3008.dat
1 71 -190 -336 80 1 0 0 0 1 0 0 0 1 3009.dat
1 71 -250 -336 60 1 0 0 0 1 0 0 0 1 3010.dat
1 71 -270 -336 -60 1 0 0 0 1 0 0 0 1 3010.dat
1 71 -260 -336 80 1 0 0 0 1 0 0 0 1 3005.dat
1 71 -280 -336 -80 1 0 0 0 1 0 0 0 1 3005.dat
1 71 -290 -336 -40 1 0 0 0 1 0 0 0 1 3004.dat
1 71 -290 -336 30 1 0 0 0 1 0 0 0 1 3003.dat
1 71 -310 -336 -10 1 0 0 0 1 0 0 0 1 3003.dat
1 71 -300 -336 60 1 0 0 0 1 0 0 0 1 3005.dat
1 71 -90 -320 80 1 0 0 0 1 0 0 0 1 3710.dat
1 71 -30 -320 -80 1 0 0 0 1 0 0 0 1 3460.dat
1 71 -40 -320 80 1 0 0 0 1 0 0 0 1 3070b.dat
1 71 70 -320 -80 1 0 0 0 1 0 0 0 1 3023.dat
1 71 120 -320 60 1 0 0 0 1 0 0 0 1 3024.dat
1 71 240 -320 0 1 0 0 0 1 0 0 0 1 3070b.dat
1 71 290 -320 0 1 0 0 0 1 0 0 0 1 3023.dat
0 STEP
1 71 360 -328 0 0 0 1 0 1 0 -1 0 0 3623.dat
1 71 300 -328 -40 1 0 0 0 1 0 0 0 1 3024.dat
1 71 300 -328 0 1 0 0 0 1 0 0 0 1 3070b.dat
1 71 280 -328 40 1 0 0 0 1 0 0 0 1 3024.dat
1 71 240 -328 40 1 0 0 0 1 0 0 0 1 3024.dat
1 71 120 -328 60 1 0 0 0 1 0 0 0 1 3070b.dat
1 71 80 -328 -40 1 0 0 0 1 0 0 0 1 3024.dat
1 71 60 -328 -80 1 0 0 0 1 0 0 0 1 3070b.dat
1 71 10 -328 -40 1 0 0 0 1 0 0 0 1 3710.dat
1 71 -40 -328 -40 1 0 0 0 1 0 0 0 1 3024.dat
1 71 -60 -328 40 1 0 0 0 1 0 0 0 1 3623.dat
1 71 -80 -328 -80 1 0 0 0 1 0 0 0 1 63864.dat
1 71 -110 -328 80 1 0 0 0 1 0 0 0 1 3069b.dat
0 STEP
1 71 -90 -336 40 1 0 0 0 1 0 0 0 1 3710.dat
1 71 -30 -336 -40 1 0 0 0 1 0 0 0 1 3460.dat
1 71 -40 -336 40 1 0 0 0 1 0 0 0 1 3024.dat
1 71 70 -336 -40 1 0 0 0 1 0 0 0 1 3023.dat
1 71 120 -336 20 1 0 0 0 1 0 0 0 1 3024.dat
1 71 240 -336 40 1 0 0 0 1 0 0 0 1 3024.dat
1 71 290 -336 40 1 0 0 0 1 0 0 0 1 3023.dat
1 71 300 -336 -40 1 0 0 0 1 0 0 0 1 3024.dat
1 71 360 -336 0 0 0 1 0 1 0 -1 0 0 3623.dat
0 STEP
1 71 -310 -360 -10 1 0 0 0 1 0 0 0 1 3003.dat
1 71 -290 -360 40 1 0 0 0 1 0 0 0 1 3004.dat
1 71 -300 -360 20 1 0 0 0 1 0 0 0 1 3005.dat
1 71 -290 -360 -40 1 0 0 0 1 0 0 0 1 3004.dat
1 71 -210 -360 60 1 0 0 0 1 0 0 0 1 3008.dat
1 71 -210 -360 -60 1 0 0 0 1 0 0 0 1 3008.dat
1 71 -210 -360 -80 1 0 0 0 1 0 0 0 1 3009.dat
1 71 -170 -360 80 1 0 0 0 1 0 0 0 1 3004.dat
1 71 -70 -360 40 1 0 0 0 1 0 0 0 1 3008.dat
1 71 -120 -360 60 1 0 0 0 1 0 0 0 1 3005.dat
1 71 -110 -360 -50 1 0 0 0 1 0 0 0 1 3003.dat
1 71 -10 -360 -40 1 0 0 0 1 0 0 0 1 3008.dat
1 71 0 -360 20 1 0 0 0 1 0 0 0 1 3622.dat
1 71 70 -360 40 1 0 0 0 1 0 0 0 1 3009.dat
1 71 150 -360 -40 1 0 0 0 1 0 0 0 1 3008.dat
1 71 170 -360 20 1 0 0 0 1 0 0 0 1 3008.dat
1 71 190 -360 -20 1 0 0 0 1 0 0 0 1 3008.dat
1 71 170 -360 0 1 0 0 0 1 0 0 0 1 3004.dat
1 71 250 -360 40 1 0 0 0 1 0 0 0 1 3009.dat
1 71 270 -360 -40 1 0 0 0 1 0 0 0 1 3010.dat
1 71 290 -360 20 1 0 0 0 1 0 0 0 1 3010.dat
1 71 310 -360 -20 1 0 0 0 1 0 0 0 1 3010.dat
1 71 330 -360 0 1 0 0 0 1 0 0 0 1 3004.dat
1 71 340 -360 20 1 0 0 0 1 0 0 0 1 3005.dat
1 71 360 -344 0 0 0 1 0 1 0 -1 0 0 3623.dat
1 71 140 -344 40 1 0 0 0 1 0 0 0 1 3070b.dat
1 71 30 -344 -60 1 0 0 0 1 0 0 0 1 3460.dat
1 71 60 -344 60 1 0 0 0 1 0 0 0 1 63864.dat
1 71 -70 -344 60 1 0 0 0 1 0 0 0 1 3710.dat
1 71 -70 -344 -60 1 0 0 0 1 0 0 0 1 3023.dat
1 71 -140 -344 -80 1 0 0 0 1 0 0 0 1 3070b.dat
1 71 -230 -344 80 1 0 0 0 1 0 0 0 1 3710.dat
1 71 -280 -344 20 1 0 0 0 1 0 0 0 1 3024.dat
1 71 -300 -344 -60 1 0 0 0 1 0 0 0 1 3024.dat
0 STEP
1 71 -300 -352 -60 1 0 0 0 1 0 0 0 1 3070b.dat
1 71 -280 -352 20 1 0 0 0 1 0 0 0 1 3070b.dat
1 71 -260 -352 40 1 0 0 0 1 0 0 0 1 3024.dat
1 71 -220 -352 80 1 0 0 0 1 0 0 0 1 63864.dat
1 71 -140 -352 -40 1 0 0 0 1 0 0 0 1 3024.dat
1 71 -100 -352 60 1 0 0 0 1 0 0 0 1 3070b.dat
1 71 -70 -352 -60 1 0 0 0 1 0 0 0 1 3069b.dat
1 71 -60 -352 20 1 0 0 0 1 0 0 0 1 3623.dat
1 71 -20 -352 -20 1 0 0 0 1 0 0 0 1 3623.dat
1 71 50 -352 -60 1 0 0 0 1 0 0 0 1 2431.dat
1 71 60 -352 20 1 0 0 0 1 0 0 0 1 3623.dat
1 71 100 -352 -20 1 0 0 0 1 0 0 0 1 3024.dat
1 71 140 -352 0 1 0 0 0 1 0 0 0 1 3024.dat
1 71 360 -352 0 0 0 1 0 1 0 -1 0 0 63864.dat
0 STEP
1 71 140 -360 0 1 0 0 0 1 0 0 0 1 3024.dat
1 71 30 -360 -20 1 0 0 0 1 0 0 0 1 3460.dat
1 71 60 -360 20 1 0 0 0 1 0 0 0 1 3623.dat
1 71 -70 -360 20 1 0 0 0 1 0 0 0 1 3710.dat
1 71 -70 -360 -20 1 0 0 0 1 0 0 0 1 3023.dat
1 71 -140 -360 -40 1 0 0 0 1 0 0 0 1 3024.dat
1 71 -230 -360 40 1 0 0 0 1 0 0 0 1 3710.dat
1 71 -320 -360 20 1 0 0 0 1 0 0 0 1 3024.dat
0 STEP
1 71 320 -384 -10 0 0 1 0 1 0 -1 0 0 3004.dat
1 71 290 -384 30 1 0 0 0 1 0 0 0 1 3003.dat
1 71 290 -384 -30 1 0 0 0 1 0 0 0 1 3003.dat
1 71 260 -384 40 1 0 0 0 1 0 0 0 1 3005.dat
1 71 260 -384 -40 1 0 0 0 1 0 0 0 1 3005.dat
1 71 220 -384 40 1 0 0 0 1 0 0 0 1 3005.dat
1 71 210 -384 -40 1 0 0 0 1 0 0 0 1 3004.dat
1 71 150 -384 20 1 0 0 0 1 0 0 0 1 3009.dat
1 71 130 -384 -20 1 0 0 0 1 0 0 0 1 3008.dat
1 71 150 -384 0 1 0 0 0 1 0 0 0 1 3010.dat
1 71 100 -384 0 1 0 0 0 1 0 0 0 1 3005.dat
1 71 40 -384 -20 1 0 0 0 1 0 0 0 1 3005.dat
1 71 20 -384 0 1 0 0 0 1 0 0 0 1 3005.dat
1 71 -230 -384 -40 1 0 0 0 1 0 0 0 1 3010.dat
1 71 -250 -384 40 1 0 0 0 1 0 0 0 1 3010.dat
1 71 -280 -384 -40 1 0 0 0 1 0 0 0 1 3005.dat
1 71 -300 -384 -10 0 0 1 0 1 0 -1 0 0 3004.dat
1 71 -320 -368 0 0 0 1 0 1 0 -1 0 0 3623.dat
1 71 -300 -368 30 0 0 1 0 1 0 -1 0 0 3023.dat
1 71 -300 -368 -40 1 0 0 0 1 0 0 0 1 3024.dat
1 71 -210 -368 60 1 0 0 0 1 0 0 0 1 3460.dat
1 71 -210 -368 -60 1 0 0 0 1 0 0 0 1 3460.dat
1 71 -150 -368 40 1 0 0 0 1 0 0 0 1 3666.dat
1 71 -130 -368 -40 1 0 0 0 1 0 0 0 1 3666.dat
1 71 -160 -368 -80 1 0 0 0 1 0 0 0 1 3070b.dat
1 71 -70 -368 20 1 0 0 0 1 0 0 0 1 3460.dat
1 71 -50 -368 -20 1 0 0 0 1 0 0 0 1 3460.dat
1 71 -120 -368 -60 1 0 0 0 1 0 0 0 1 3070b.dat
1 71 -50 -368 0 1 0 0 0 1 0 0 0 1 3666.dat
1 71 -80 -368 40 1 0 0 0 1 0 0 0 1 3070b.dat
1 71 -60 -368 -40 1 0 0 0 1 0 0 0 1 3070b.dat
1 71 50 -368 20 1 0 0 0 1 0 0 0 1 3710.dat
1 71 70 -368 -40 1 0 0 0 1 0 0 0 1 3666.dat
1 71 60 -368 40 1 0 0 0 1 0 0 0 1 63864.dat
1 71 180 -368 -40 1 0 0 0 1 0 0 0 1 3024.dat
1 71 200 -368 40 1 0 0 0 1 0 0 0 1 3070b.dat
1 71 240 -368 20 1 0 0 0 1 0 0 0 1 3623.dat
1 71 240 -368 -20 1 0 0 0 1 0 0 0 1 3623.dat
1 71 240 -368 40 1 0 0 0 1 0 0 0 1 3024.dat
1 71 240 -368 -40 1 0 0 0 1 0 0 0 1 3024.dat
1 71 320 -368 20 1 0 0 0 1 0 0 0 1 3024.dat
1 71 340 -368 -10 0 0 1 0 1 0 -1 0 0 3069b.dat
0 STEP
1 71 320 -376 20 1 0 0 0 1 0 0 0 1 3070b.dat
1 71 300 -376 0 1 0 0 0 1 0 0 0 1 3024.dat
1 71 260 -376 20 1 0 0 0 1 0 0 0 1 3070b.dat
1 71 260 -376 -20 1 0 0 0 1 0 0 0 1 3070b.dat
1 71 240 -376 50 0 0 1 0 1 0 -1 0 0 3023.dat
1 71 240 -376 -50 0 0 1 0 1 0 -1 0 0 3023.dat
1 71 220 -376 20 1 0 0 0 1 0 0 0 1 3070b.dat
1 71 220 -376 -60 1 0 0 0 1 0 0 0 1 3024.dat
1 71 200 -376 0 1 0 0 0 1 0 0 0 1 3070b.dat
1 71 180 -376 -40 1 0 0 0 1 0 0 0 1 3070b.dat
1 71 60 -376 10 1 0 0 0 1 0 0 0 1 3021.dat
1 71 -50 -376 20 1 0 0 0 1 0 0 0 1 3460.dat
1 71 -50 -376 -20 1 0 0 0 1 0 0 0 1 3460.dat
1 71 -70 -376 0 1 0 0 0 1 0 0 0 1 3460.dat
1 71 -170 -376 30 1 0 0 0 1 0 0 0 1 3020.dat
1 71 -160 -376 -30 1 0 0 0 1 0 0 0 1 3021.dat
1 71 -180 -376 0 1 0 0 0 1 0 0 0 1 3623.dat
1 71 -210 -376 -60 1 0 0 0 1 0 0 0 1 3666.dat
1 71 -200 -376 -20 1 0 0 0 1 0 0 0 1 3024.dat
1 71 -230 -376 20 1 0 0 0 1 0 0 0 1 3023.dat
1 71 -250 -376 60 1 0 0 0 1 0 0 0 1 3069b.dat
1 71 -290 -376 20 1 0 0 0 1 0 0 0 1 3023.dat
1 71 -280 -376 -60 1 0 0 0 1 0 0 0 1 3070b.dat
1 71 -300 -376 40 1 0 0 0 1 0 0 0 1 3070b.dat
1 71 -300 -376 -40 1 0 0 0 1 0 0 0 1 3070b.dat
1 71 -320 -376 -10 0 0 1 0 1 0 -1 0 0 3069b.dat
0 STEP
1 71 -210 -384 -20 1 0 0 0 1 0 0 0 1 3460.dat
1 71 -280 -384 10 0 0 1 0 1 0 -1 0 0 3023.dat
1 71 -210 -384 20 1 0 0 0 1 0 0 0 1 3666.dat
1 71 -190 -384 0 1 0 0 0 1 0 0 0 1 3666.dat
1 71 -120 -384 0 1 0 0 0 1 0 0 0 1 3070b.dat
1 71 60 -384 0 1 0 0 0 1 0 0 0 1 63864.dat
1 71 200 -384 40 1 0 0 0 1 0 0 0 1 3024.dat
1 71 230 -384 -70 1 0 0 0 1 0 0 0 1 3022.dat
1 71 230 -384 70 1 0 0 0 1 0 0 0 1 3022.dat
1 71 260 -384 -60 1 0 0 0 1 0 0 0 1 3024.dat
1 71 260 -384 60 1 0 0 0 1 0 0 0 1 3024.dat
1 71 300 -384 0 1 0 0 0 1 0 0 0 1 3024.dat
0 STEP
1 71 180 -408 0 0 0 1 0 1 0 -1 0 0 3622.dat
1 71 210 -408 -40 1 0 0 0 1 0 0 0 1 3004.dat
1 71 200 -408 -20 1 0 0 0 1 0 0 0 1 3005.dat
1 71 200 -408 30 0 0 1 0 1 0 -1 0 0 3004.dat
1 71 230 -408 -80 0 0 1 0 1 0 -1 0 0 3002.dat
1 71 220 -408 60 0 0 1 0 1 0 -1 0 0 3622.dat
1 71 250 -408 60 1 0 0 0 1 0 0 0 1 3004.dat
1 71 240 -408 80 1 0 0 0 1 0 0 0 1 3005.dat
1 71 260 -408 -50 0 0 1 0 1 0 -1 0 0 3004.dat
1 71 270 -408 40 1 0 0 0 1 0 0 0 1 3004.dat
1 71 290 -408 -10 0 0 1 0 1 0 -1 0 0 3001.dat
1 71 300 -392 40 1 0 0 0 1 0 0 0 1 3024.dat
1 71 150 -392 -10 1 0 0 0 1 0 0 0 1 3022.dat
1 71 160 -392 20 1 0 0 0 1 0 0 0 1 3070b.dat
1 71 120 -392 0 1 0 0 0 1 0 0 0 1 3070b.dat
1 71 -250 -392 -10 1 0 0 0 1 0 0 0 1 3020.dat
1 71 -270 -392 20 1 0 0 0 1 0 0 0 1 3069b.dat
1 71 -300 -392 -10 0 0 1 0 1 0 -1 0 0 3069b.dat
0 STEP
1 71 -270 -400 0 1 0 0 0 1 0 0 0 1 3069b.dat
1 71 160 -400 -10 0 0 1 0 1 0 -1 0 0 3069b.dat
1 71 220 -400 100 1 0 0 0 1 0 0 0 1 3024.dat
1 71 300 -400 40 1 0 0 0 1 0 0 0 1 3070b.dat
0 STEP
1 71 230 -408 100 1 0 0 0 1 0 0 0 1 3023.dat
1 71 200 -408 0 1 0 0 0 1 0 0 0 1 3024.dat
0 STEP
1 71 250 -432 -50 1 0 0 0 1 0 0 0 1 3003.dat
1 71 260 -432 10 0 0 1 0 1 0 -1 0 0 3010.dat
1 71 250 -432 60 1 0 0 0 1 0 0 0 1 3004.dat
1 71 240 -432 -80 1 0 0 0 1 0 0 0 1 3005.dat
1 71 230 -432 40 1 0 0 0 1 0 0 0 1 3004.dat
1 71 240 -432 80 1 0 0 0 1 0 0 0 1 3005.dat
1 71 220 -432 -10 0 0 1 0 1 0 -1 0 0 3010.dat
1 71 200 -416 0 0 0 1 0 1 0 -1 0 0 3623.dat
1 71 220 -416 -80 0 0 1 0 1 0 -1 0 0 3623.dat
1 71 220 -416 80 0 0 1 0 1 0 -1 0 0 3623.dat
1 71 240 -416 -100 1 0 0 0 1 0 0 0 1 3024.dat
1 71 240 -416 100 1 0 0 0 1 0 0 0 1 3024.dat
1 71 280 -416 -10 0 0 1 0 1 0 -1 0 0 3710.dat
1 71 280 -416 40 1 0 0 0 1 0 0 0 1 3070b.dat
0 STEP
1 71 280 -424 0 1 0 0 0 1 0 0 0 1 3070b.dat
1 71 230 -424 -100 1 0 0 0 1 0 0 0 1 3069b.dat
1 71 240 -424 -20 1 0 0 0 1 0 0 0 1 3024.dat
1 71 240 -424 20 1 0 0 0 1 0 0 0 1 3024.dat
1 71 230 -424 100 1 0 0 0 1 0 0 0 1 3069b.dat
1 71 220 -424 -80 1 0 0 0 1 0 0 0 1 3070b.dat
1 71 220 -424 80 1 0 0 0 1 0 0 0 1 3070b.dat
1 71 200 -424 -10 0 0 1 0 1 0 -1 0 0 3069b.dat
0 STEP
1 71 240 -432 0 0 0 1 0 1 0 -1 0 0 3623.dat
1 71 280 -432 60 1 0 0 0 1 0 0 0 1 3024.dat
1 71 280 -432 -60 1 0 0 0 1 0 0 0 1 3024.dat
0 STEP
1 71 270 -440 60 1 0 0 0 1 0 0 0 1 3710.dat
1 71 270 -440 -60 1 0 0 0 1 0 0 0 1 3710.dat
1 71 250 -440 40 1 0 0 0 1 0 0 0 1 3023.dat
1 71 250 -440 -40 1 0 0 0 1 0 0 0 1 3069b.dat
1 71 260 -440 -80 1 0 0 0 1 0 0 0 1 3024.dat
1 71 240 -440 0 0 0 1 0 1 0 -1 0 0 63864.dat
1 71 220 -440 -10 0 0 1 0 1 0 -1 0 0 3069b.dat
0 STEP
1 71 270 -448 -60 1 0 0 0 1 0 0 0 1 2431.dat
1 71 270 -448 60 1 0 0 0 1 0 0 0 1 2431.dat
1 71 260 -448 -80 1 0 0 0 1 0 0 0 1 3070b.dat
1 71 260 -448 40 1 0 0 0 1 0 0 0 1 3070b.dat
0 STEP
