0 dog holding an umbrella
0 Name: dog holding an umbrella.ldr
0 Author: brickify

1 15 190 -8 130 1 0 0 0 1 0 0 0 1 3623.dat
1 15 190 -16 130 1 0 0 0 1 0 0 0 1 3623.dat
1 15 60 -24 130 1 0 0 0 1 0 0 0 1 3004.dat
1 15 60 -24 70 1 0 0 0 1 0 0 0 1 3004.dat
1 15 180 -24 130 1 0 0 0 1 0 0 0 1 3023.dat
1 15 60 -48 70 1 0 0 0 1 0 0 0 1 3004.dat
1 15 60 -48 130 1 0 0 0 1 0 0 0 1 3004.dat
1 15 180 -48 130 1 0 0 0 1 0 0 0 1 3004.dat
1 84 60 -72 70 1 0 0 0 1 0 0 0 1 3004.dat
1 84 60 -72 130 1 0 0 0 1 0 0 0 1 3004.dat
1 15 180 -72 130 1 0 0 0 1 0 0 0 1 3004.dat
1 15 120 -80 100 1 0 0 0 1 0 0 0 1 3020.dat
1 15 210 -80 70 1 0 0 0 1 0 0 0 1 3024.dat
1 15 180 -80 100 0 0 1 0 1 0 -1 0 0 3020.dat
1 15 180 -88 130 1 0 0 0 1 0 0 0 1 3023.dat
1 15 190 -88 70 1 0 0 0 1 0 0 0 1 3623.dat
1 15 140 -88 100 1 0 0 0 1 0 0 0 1 3795.dat
1 84 150 -96 70 1 0 0 0 1 0 0 0 1 3005.dat
1 84 70 -96 110 0 0 1 0 1 0 -1 0 0 3622.dat
1 84 100 -96 70 1 0 0 0 1 0 0 0 1 3010.dat
1 84 120 -96 130 1 0 0 0 1 0 0 0 1 3010.dat
1 84 170 -96 100 0 0 1 0 1 0 -1 0 0 3710.dat
1 84 50 -96 100 0 0 1 0 1 0 -1 0 0 3010.dat
1 84 120 -96 100 1 0 0 0 1 0 0 0 1 3020.dat
1 15 200 -96 70 1 0 0 0 1 0 0 0 1 3023.dat
1 15 190 -96 110 0 0 1 0 1 0 -1 0 0 3623.dat
1 15 190 -104 70 1 0 0 0 1 0 0 0 1 3024.dat
1 84 50 -104 70 1 0 0 0 1 0 0 0 1 3024.dat
1 15 220 -104 10 1 0 0 0 1 0 0 0 1 3023.dat
1 15 210 -104 50 0 0 1 0 1 0 -1 0 0 3623.dat
1 84 50 -104 120 0 0 1 0 1 0 -1 0 0 3023.dat
1 84 70 -104 90 1 0 0 0 1 0 0 0 1 3623.dat
1 15 230 -104 40 0 0 1 0 1 0 -1 0 0 3023.dat
1 84 120 -104 90 1 0 0 0 1 0 0 0 1 3023.dat
1 84 100 -104 70 1 0 0 0 1 0 0 0 1 3710.dat
1 84 150 -104 80 0 0 1 0 1 0 -1 0 0 3023.dat
1 15 190 -112 70 1 0 0 0 1 0 0 0 1 3024.dat
1 15 230 -112 30 0 0 1 0 1 0 -1 0 0 3623.dat
1 84 70 -112 80 0 0 1 0 1 0 -1 0 0 3023.dat
1 84 50 -112 100 0 0 1 0 1 0 -1 0 0 3710.dat
1 15 210 -112 40 0 0 1 0 1 0 -1 0 0 3710.dat
1 84 120 -112 80 1 0 0 0 1 0 0 0 1 3020.dat
1 84 70 -120 130 1 0 0 0 1 0 0 0 1 3005.dat
1 84 170 -120 130 1 0 0 0 1 0 0 0 1 3005.dat
1 84 170 -120 80 0 0 1 0 1 0 -1 0 0 3004.dat
1 84 120 -120 130 1 0 0 0 1 0 0 0 1 3010.dat
1 15 190 -120 110 0 0 1 0 1 0 -1 0 0 3622.dat
1 84 120 -120 110 1 0 0 0 1 0 0 0 1 3009.dat
1 84 130 -120 90 1 0 0 0 1 0 0 0 1 3623.dat
1 15 200 -120 70 1 0 0 0 1 0 0 0 1 3023.dat
1 84 80 -120 90 1 0 0 0 1 0 0 0 1 3023.dat
1 84 50 -120 110 0 0 1 0 1 0 -1 0 0 3623.dat
1 15 220 -120 30 0 0 1 0 1 0 -1 0 0 3021.dat
1 84 100 -120 70 1 0 0 0 1 0 0 0 1 3666.dat
1 84 30 -128 100 0 0 1 0 1 0 -1 0 0 3023.dat
1 15 210 -128 100 0 0 1 0 1 0 -1 0 0 3710.dat
1 84 50 -128 100 0 0 1 0 1 0 -1 0 0 3710.dat
1 84 180 -128 100 0 0 1 0 1 0 -1 0 0 3020.dat
1 84 50 -136 70 1 0 0 0 1 0 0 0 1 3024.dat
1 84 50 -136 130 1 0 0 0 1 0 0 0 1 3024.dat
1 84 40 -136 100 1 0 0 0 1 0 0 0 1 3022.dat
1 84 180 -136 100 0 0 1 0 1 0 -1 0 0 3020.dat
1 15 210 -136 100 0 0 1 0 1 0 -1 0 0 3710.dat
1 84 150 -144 100 0 0 1 0 1 0 -1 0 0 3010.dat
1 70 80 -144 100 0 0 1 0 1 0 -1 0 0 3001.dat
1 70 120 -144 100 0 0 1 0 1 0 -1 0 0 3001.dat
1 84 30 -144 100 0 0 1 0 1 0 -1 0 0 3023.dat
1 15 210 -144 100 0 0 1 0 1 0 -1 0 0 3710.dat
1 84 50 -144 100 0 0 1 0 1 0 -1 0 0 3710.dat
1 84 180 -144 100 0 0 1 0 1 0 -1 0 0 3020.dat
1 0 220 -144 10 1 0 0 0 1 0 0 0 1 3937.dat
1 84 50 -144 80 1 0 0 0 1 0 0 0 1 11477.dat
1 84 50 -144 120 -1 0 0 0 1 0 0 0 -1 11477.dat
1 70 70 -144 80 1 0 0 0 1 0 0 0 1 11477.dat
1 70 70 -144 120 -1 0 0 0 1 0 0 0 -1 11477.dat
1 70 90 -144 80 1 0 0 0 1 0 0 0 1 11477.dat
1 70 90 -144 120 -1 0 0 0 1 0 0 0 -1 11477.dat
1 70 110 -144 80 1 0 0 0 1 0 0 0 1 11477.dat
1 70 110 -144 120 -1 0 0 0 1 0 0 0 -1 11477.dat
1 70 130 -144 80 1 0 0 0 1 0 0 0 1 11477.dat
1 70 130 -144 120 -1 0 0 0 1 0 0 0 -1 11477.dat
1 15 270 -152 70 1 0 0 0 1 0 0 0 1 3024.dat
1 15 270 -152 130 1 0 0 0 1 0 0 0 1 3024.dat
1 29 270 -152 100 0 0 1 0 1 0 -1 0 0 3023.dat
1 70 30 -152 100 0 0 1 0 1 0 -1 0 0 3023.dat
1 0 270 -160 100 0 0 1 0 1 0 -1 0 0 3710.dat
1 70 30 -160 100 0 0 1 0 1 0 -1 0 0 3023.dat
1 84 150 -168 150 1 0 0 0 1 0 0 0 1 3005.dat
1 84 230 -168 50 1 0 0 0 1 0 0 0 1 3005.dat
1 84 160 -168 130 1 0 0 0 1 0 0 0 1 3004.dat
1 84 150 -168 100 0 0 1 0 1 0 -1 0 0 3004.dat
1 15 270 -168 100 0 0 1 0 1 0 -1 0 0 3710.dat
1 84 160 -168 70 1 0 0 0 1 0 0 0 1 3004.dat
1 15 250 -168 110 0 0 1 0 1 0 -1 0 0 3622.dat
1 84 200 -168 150 1 0 0 0 1 0 0 0 1 3010.dat
1 15 220 -168 70 1 0 0 0 1 0 0 0 1 3010.dat
1 84 180 -168 50 1 0 0 0 1 0 0 0 1 3010.dat
1 15 210 -168 130 1 0 0 0 1 0 0 0 1 3622.dat
1 15 200 -168 100 1 0 0 0 1 0 0 0 1 3001.dat
1 70 30 -168 100 0 0 1 0 1 0 -1 0 0 3023.dat
1 15 170 -176 100 0 0 1 0 1 0 -1 0 0 3023.dat
1 15 220 -176 130 1 0 0 0 1 0 0 0 1 3710.dat
1 15 250 -176 90 0 0 1 0 1 0 -1 0 0 3623.dat
1 15 270 -176 100 0 0 1 0 1 0 -1 0 0 3710.dat
1 15 210 -176 70 1 0 0 0 1 0 0 0 1 3623.dat
1 70 20 -176 100 1 0 0 0 1 0 0 0 1 3022.dat
1 15 190 -184 70 1 0 0 0 1 0 0 0 1 3024.dat
1 15 190 -184 130 1 0 0 0 1 0 0 0 1 3024.dat
1 15 170 -184 100 0 0 1 0 1 0 -1 0 0 3023.dat
1 15 260 -184 100 1 0 0 0 1 0 0 0 1 3022.dat
1 15 240 -184 70 1 0 0 0 1 0 0 0 1 3710.dat
1 15 240 -184 130 1 0 0 0 1 0 0 0 1 3710.dat
1 70 20 -184 100 1 0 0 0 1 0 0 0 1 3022.dat
1 15 260 -184 90 0 0 -1 0 1 0 1 0 0 11477.dat
1 15 270 -184 120 -1 0 0 0 1 0 0 0 -1 11477.dat
1 84 170 -192 100 0 0 1 0 1 0 -1 0 0 3023.dat
1 84 160 -192 140 1 0 0 0 1 0 0 0 1 3003.dat
1 84 210 -192 150 1 0 0 0 1 0 0 0 1 3622.dat
1 84 210 -192 130 1 0 0 0 1 0 0 0 1 3623.dat
1 84 170 -192 60 0 0 1 0 1 0 -1 0 0 3004.dat
1 84 150 -192 80 0 0 1 0 1 0 -1 0 0 3010.dat
1 84 210 -192 70 1 0 0 0 1 0 0 0 1 3623.dat
1 84 210 -192 50 1 0 0 0 1 0 0 0 1 3622.dat
1 15 210 -192 100 1 0 0 0 1 0 0 0 1 3002.dat
1 70 20 -192 100 1 0 0 0 1 0 0 0 1 3022.dat
1 0 260 -192 100 1 0 0 0 1 0 0 0 1 3068b.dat
1 15 10 -200 100 0 0 1 0 1 0 -1 0 0 3023.dat
1 15 10 -208 100 0 0 1 0 1 0 -1 0 0 3023.dat
1 84 210 -216 50 1 0 0 0 1 0 0 0 1 3622.dat
1 84 210 -216 150 1 0 0 0 1 0 0 0 1 3622.dat
1 84 200 -216 130 1 0 0 0 1 0 0 0 1 3004.dat
1 84 170 -216 100 0 0 1 0 1 0 -1 0 0 3010.dat
1 84 200 -216 70 1 0 0 0 1 0 0 0 1 3004.dat
1 15 210 -216 100 1 0 0 0 1 0 0 0 1 3002.dat
1 84 150 -216 100 0 0 1 0 1 0 -1 0 0 3009.dat
1 15 10 -216 100 0 0 1 0 1 0 -1 0 0 3023.dat
1 84 230 -216 70 0 0 -1 0 1 0 1 0 0 87087.dat
1 84 230 -216 130 0 0 -1 0 1 0 1 0 0 87087.dat
1 84 170 -216 50 1 0 0 0 1 0 0 0 1 87087.dat
1 84 170 -216 150 -1 0 0 0 1 0 0 0 -1 87087.dat
1 84 160 -216 50 0 0 1 0 1 0 -1 0 0 11477.dat
1 84 160 -216 150 0 0 1 0 1 0 -1 0 0 11477.dat
1 84 220 -216 50 0 0 -1 0 1 0 1 0 0 11477.dat
1 84 220 -216 150 0 0 -1 0 1 0 1 0 0 11477.dat
1 84 150 -240 100 0 0 1 0 1 0 -1 0 0 3010.dat
1 84 200 -240 130 1 0 0 0 1 0 0 0 1 3010.dat
1 84 200 -240 70 1 0 0 0 1 0 0 0 1 3010.dat
1 15 200 -240 100 1 0 0 0 1 0 0 0 1 3001.dat
1 84 150 -240 80 1 0 0 0 1 0 0 0 1 11477.dat
1 84 150 -240 120 -1 0 0 0 1 0 0 0 -1 11477.dat
1 15 170 -240 80 1 0 0 0 1 0 0 0 1 11477.dat
1 15 170 -240 120 -1 0 0 0 1 0 0 0 -1 11477.dat
1 15 190 -240 80 1 0 0 0 1 0 0 0 1 11477.dat
1 15 190 -240 120 -1 0 0 0 1 0 0 0 -1 11477.dat
1 84 220 -240 70 0 0 -1 0 1 0 1 0 0 11477.dat
1 15 220 -240 90 0 0 -1 0 1 0 1 0 0 11477.dat
1 15 210 -240 120 -1 0 0 0 1 0 0 0 -1 11477.dat
1 15 230 -240 120 -1 0 0 0 1 0 0 0 -1 11477.dat
0 STEP
1 0 220 -143.8 12.08 1 0 0 0 0.978148 0.207912 0 -0.207912 0.978148 3938.dat
1 0 220 -151.6 13.74 1 0 0 0 0.978148 0.207912 0 -0.207912 0.978148 3023.dat
1 0 210 -159.4 15.41 1 0 0 0 0.978148 0.207912 0 -0.207912 0.978148 3024.dat
1 0 210 -167.3 17.07 1 0 0 0 0.978148 0.207912 0 -0.207912 0.978148 3024.dat
1 0 210 -190.7 22.06 1 0 0 0 0.978148 0.207912 0 -0.207912 0.978148 3005.dat
1 0 210 -214.2 27.05 1 0 0 0 0.978148 0.207912 0 -0.207912 0.978148 3005.dat
1 0 210 -237.7 32.04 1 0 0 0 0.978148 0.207912 0 -0.207912 0.978148 3005.dat
1 0 210 -261.2 37.03 1 0 0 0 0.978148 0.207912 0 -0.207912 0.978148 3005.dat
1 0 210 -272.2 100.7 1 0 0 0 0.978148 0.207912 0 -0.207912 0.978148 6141.dat
1 0 170 -276.3 81.14 1 0 0 0 0.978148 0.207912 0 -0.207912 0.978148 6141.dat
1 0 250 -276.3 81.14 1 0 0 0 0.978148 0.207912 0 -0.207912 0.978148 6141.dat
1 4 250 -280 102.4 1 0 0 0 0.978148 0.207912 0 -0.207912 0.978148 3024.dat
1 4 200 -280 102.4 1 0 0 0 0.978148 0.207912 0 -0.207912 0.978148 3710.dat
1 4 160 -284.1 82.81 1 0 0 0 0.978148 0.207912 0 -0.207912 0.978148 3023.dat
1 4 210 -284.1 82.81 1 0 0 0 0.978148 0.207912 0 -0.207912 0.978148 3623.dat
1 0 210 -284.6 42.02 1 0 0 0 0.978148 0.207912 0 -0.207912 0.978148 3005.dat
1 0 150 -284.6 42.02 1 0 0 0 0.978148 0.207912 0 -0.207912 0.978148 6141.dat
1 0 270 -284.6 42.02 1 0 0 0 0.978148 0.207912 0 -0.207912 0.978148 6141.dat
1 4 260 -286.2 73.03 1 0 0 0 0.978148 0.207912 0 -0.207912 0.978148 3022.dat
1 4 210 -287.8 104 1 0 0 0 0.978148 0.207912 0 -0.207912 0.978148 3024.dat
1 4 180 -287.8 104 0 0 1 -0.207912 0.978148 0 -0.978148 -0.207912 0 11477.dat
1 4 240 -287.8 104 0 0 -1 0.207912 0.978148 0 0.978148 -0.207912 0 11477.dat
1 4 200 -288.3 63.24 1 0 0 0 0.978148 0.207912 0 -0.207912 0.978148 3710.dat
1 4 230 -289.9 94.25 0 0 1 -0.207912 0.978148 0 -0.978148 -0.207912 0 3023.dat
1 4 150 -290.4 53.46 0 0 1 -0.207912 0.978148 0 -0.978148 -0.207912 0 3023.dat
1 4 270 -292 84.47 1 0 0 0 0.978148 0.207912 0 -0.207912 0.978148 3024.dat
1 4 250 -292 84.47 0 0 1 -0.207912 0.978148 0 -0.978148 -0.207912 0 3623.dat
1 4 220 -292.5 43.68 1 0 0 0 0.978148 0.207912 0 -0.207912 0.978148 3666.dat
1 0 170 -293 2.892 1 0 0 0 0.978148 0.207912 0 -0.207912 0.978148 6141.dat
1 0 250 -293 2.892 1 0 0 0 0.978148 0.207912 0 -0.207912 0.978148 6141.dat
1 4 150 -294 74.69 0 0 1 -0.207912 0.978148 0 -0.978148 -0.207912 0 3023.dat
1 4 180 -294 74.69 0 0 1 -0.207912 0.978148 0 -0.978148 -0.207912 0 3020.dat
1 4 150 -294 74.69 -1 0 0 0 0.978148 -0.207912 0 -0.207912 -0.978148 11477.dat
1 4 270 -294 74.69 -1 0 0 0 0.978148 -0.207912 0 -0.207912 -0.978148 11477.dat
1 0 210 -297.1 -16.67 1 0 0 0 0.978148 0.207912 0 -0.207912 0.978148 6141.dat
1 4 210 -298.2 55.13 0 0 1 -0.207912 0.978148 0 -0.978148 -0.207912 0 3710.dat
1 4 250 -298.7 14.34 1 0 0 0 0.978148 0.207912 0 -0.207912 0.978148 3021.dat
1 4 180 -298.7 14.34 1 0 0 0 0.978148 0.207912 0 -0.207912 0.978148 3020.dat
1 4 240 -299.8 86.13 0 0 -1 0.207912 0.978148 0 0.978148 -0.207912 0 11477.dat
1 4 230 -300.3 45.34 0 0 1 -0.207912 0.978148 0 -0.978148 -0.207912 0 3623.dat
1 4 190 -301.9 76.35 1 0 0 0 0.978148 0.207912 0 -0.207912 0.978148 3021.dat
1 4 170 -301.9 76.35 -1 0 0 0 0.978148 -0.207912 0 -0.207912 -0.978148 11477.dat
1 4 270 -302.4 35.56 0 0 1 -0.207912 0.978148 0 -0.978148 -0.207912 0 3710.dat
1 4 240 -304 66.57 0 0 1 -0.207912 0.978148 0 -0.978148 -0.207912 0 3021.dat
1 4 150 -304.4 25.78 0 0 1 -0.207912 0.978148 0 -0.978148 -0.207912 0 3623.dat
1 4 180 -304.9 -15.01 1 0 0 0 0.978148 0.207912 0 -0.207912 0.978148 3023.dat
1 4 230 -304.9 -15.01 1 0 0 0 0.978148 0.207912 0 -0.207912 0.978148 3623.dat
1 4 250 -306.5 16 0 0 1 -0.207912 0.978148 0 -0.978148 -0.207912 0 3710.dat
1 4 150 -306.5 16 1 0 0 0 0.978148 0.207912 0 -0.207912 0.978148 11477.dat
1 4 270 -306.5 16 1 0 0 0 0.978148 0.207912 0 -0.207912 0.978148 11477.dat
1 4 200 -308.1 47.01 1 0 0 0 0.978148 0.207912 0 -0.207912 0.978148 3023.dat
1 4 180 -308.6 6.219 0 0 1 -0.207912 0.978148 0 -0.978148 -0.207912 0 3021.dat
1 4 220 -310.7 -3.562 1 0 0 0 0.978148 0.207912 0 -0.207912 0.978148 3022.dat
1 4 170 -312.3 27.45 0 0 1 -0.207912 0.978148 0 -0.978148 -0.207912 0 3623.dat
1 4 180 -312.8 -13.34 0 0 1 -0.207912 0.978148 0 -0.978148 -0.207912 0 11477.dat
1 4 240 -312.8 -13.34 0 0 -1 0.207912 0.978148 0 0.978148 -0.207912 0 11477.dat
1 4 210 -313.9 58.45 -1 0 0 0 0.978148 -0.207912 0 -0.207912 -0.978148 11477.dat
1 4 230 -313.9 58.45 -1 0 0 0 0.978148 -0.207912 0 -0.207912 -0.978148 11477.dat
1 4 220 -314.3 17.66 1 0 0 0 0.978148 0.207912 0 -0.207912 0.978148 3020.dat
1 4 170 -314.3 17.66 1 0 0 0 0.978148 0.207912 0 -0.207912 0.978148 11477.dat
1 4 230 -315.9 48.67 0 0 1 -0.207912 0.978148 0 -0.978148 -0.207912 0 3623.dat
1 4 200 -315.9 48.67 0 0 1 -0.207912 0.978148 0 -0.978148 -0.207912 0 3021.dat
1 4 240 -316.4 7.882 0 0 -1 0.207912 0.978148 0 0.978148 -0.207912 0 11477.dat
1 4 190 -318 38.89 1 0 0 0 0.978148 0.207912 0 -0.207912 0.978148 11477.dat
1 4 220 -320.1 29.11 0 0 -1 0.207912 0.978148 0 0.978148 -0.207912 0 11477.dat
1 0 210 -339.4 53.66 1 0 0 0 0.978148 0.207912 0 -0.207912 0.978148 3062b.dat
0 STEP
1 0 248 -206 70 0 -1 0 1 0 0 0 0 1 98138.dat
0 STEP
1 0 248 -206 130 0 -1 0 1 0 0 0 0 1 98138.dat
0 STEP
1 70 170 -196 32 1 0 0 0 0 -1 0 1 0 3021.dat
1 70 170 -196 24 1 0 0 0 0 -1 0 1 0 11477.dat
1 70 190 -216 24 0 0 1 1 0 0 0 1 0 3023.dat
1 70 150 -216 24 0 0 1 1 0 0 0 1 0 3023.dat
1 70 170 -216 24 0 0 1 1 0 0 0 1 0 3710.dat
1 70 170 -236 32 1 0 0 0 0 -1 0 1 0 3021.dat
1 70 170 -236 24 -1 0 0 0 0 1 0 1 0 11477.dat
0 STEP
1 70 170 -176 168 1 0 0 0 0 1 0 -1 0 3021.dat
1 70 170 -176 176 -1 0 0 0 0 -1 0 -1 0 11477.dat
1 70 190 -196 176 0 0 1 -1 0 0 0 -1 0 3023.dat
1 70 150 -196 176 0 0 1 -1 0 0 0 -1 0 3023.dat
1 70 170 -196 176 0 0 1 -1 0 0 0 -1 0 3710.dat
1 70 170 -216 168 1 0 0 0 0 1 0 -1 0 3021.dat
1 70 170 -216 176 1 0 0 0 0 1 0 -1 0 11477.dat
0 STEP
