0 dog
0 Name: dog.ldr
0 Author: brickify

1 19 150 -24 40 0 0 1 0 1 0 -1 0 0 3004.dat
1 19 20 -24 120 1 0 0 0 1 0 0 0 1 3003.dat
1 19 20 -24 40 1 0 0 0 1 0 0 0 1 3003.dat
1 19 110 -24 30 1 0 0 0 1 0 0 0 1 3622.dat
1 19 110 -24 90 1 0 0 0 1 0 0 0 1 3622.dat
1 15 60 -24 80 1 0 0 0 1 0 0 0 1 3003.dat
1 19 110 -24 60 1 0 0 0 1 0 0 0 1 3002.dat
1 19 120 -24 120 1 0 0 0 1 0 0 0 1 3001.dat
1 19 10 -24 40 1 0 0 0 1 0 0 0 1 11477.dat
1 19 10 -24 120 -1 0 0 0 1 0 0 0 -1 11477.dat
1 19 30 -48 130 1 0 0 0 1 0 0 0 1 3005.dat
1 19 90 -48 30 1 0 0 0 1 0 0 0 1 3005.dat
1 19 150 -48 30 1 0 0 0 1 0 0 0 1 3005.dat
1 19 150 -48 130 1 0 0 0 1 0 0 0 1 3005.dat
1 19 30 -48 40 0 0 1 0 1 0 -1 0 0 3004.dat
1 19 50 -48 110 1 0 0 0 1 0 0 0 1 3622.dat
1 15 50 -48 80 0 0 1 0 1 0 -1 0 0 3004.dat
1 19 70 -48 50 1 0 0 0 1 0 0 0 1 3622.dat
1 19 120 -48 40 1 0 0 0 1 0 0 0 1 3003.dat
1 19 110 -48 120 1 0 0 0 1 0 0 0 1 3002.dat
1 19 100 -48 80 1 0 0 0 1 0 0 0 1 3001.dat
1 19 30 -72 30 1 0 0 0 1 0 0 0 1 3005.dat
1 19 110 -72 110 1 0 0 0 1 0 0 0 1 3622.dat
1 19 30 -72 120 0 0 1 0 1 0 -1 0 0 3004.dat
1 19 120 -72 130 1 0 0 0 1 0 0 0 1 3010.dat
1 19 60 -72 110 1 0 0 0 1 0 0 0 1 3004.dat
1 19 80 -72 50 1 0 0 0 1 0 0 0 1 3009.dat
1 19 120 -72 30 1 0 0 0 1 0 0 0 1 3010.dat
1 15 40 -72 80 1 0 0 0 1 0 0 0 1 3003.dat
1 19 100 -72 80 1 0 0 0 1 0 0 0 1 3001.dat
1 19 140 -72 30 0 0 -1 0 1 0 1 0 0 11477.dat
1 19 130 -72 120 -1 0 0 0 1 0 0 0 -1 11477.dat
1 19 50 -96 40 0 0 1 0 1 0 -1 0 0 3004.dat
1 19 50 -96 120 0 0 1 0 1 0 -1 0 0 3004.dat
1 19 70 -96 80 0 0 1 0 1 0 -1 0 0 3010.dat
1 19 110 -96 120 0 0 1 0 1 0 -1 0 0 3004.dat
1 15 40 -96 80 1 0 0 0 1 0 0 0 1 3003.dat
1 19 100 -96 40 1 0 0 0 1 0 0 0 1 3003.dat
1 19 90 -96 100 0 0 1 0 1 0 -1 0 0 3010.dat
1 19 130 -96 80 0 0 1 0 1 0 -1 0 0 3937.dat
1 15 40 -104 80 1 0 0 0 1 0 0 0 1 3022.dat
1 15 40 -112 80 1 0 0 0 1 0 0 0 1 3022.dat
1 19 70 -120 110 1 0 0 0 1 0 0 0 1 3622.dat
1 19 70 -120 50 1 0 0 0 1 0 0 0 1 3622.dat
1 19 80 -120 80 1 0 0 0 1 0 0 0 1 3003.dat
1 15 40 -120 80 1 0 0 0 1 0 0 0 1 3022.dat
1 15 10 -128 80 0 0 1 0 1 0 -1 0 0 3023.dat
1 15 30 -128 80 0 0 1 0 1 0 -1 0 0 3710.dat
1 15 30 -136 50 1 0 0 0 1 0 0 0 1 3024.dat
1 15 30 -136 110 1 0 0 0 1 0 0 0 1 3024.dat
1 15 20 -136 80 1 0 0 0 1 0 0 0 1 3022.dat
1 19 30 -144 30 1 0 0 0 1 0 0 0 1 3005.dat
1 19 50 -144 110 1 0 0 0 1 0 0 0 1 3005.dat
1 19 40 -144 130 1 0 0 0 1 0 0 0 1 3004.dat
1 19 50 -144 60 0 0 1 0 1 0 -1 0 0 3010.dat
1 19 110 -144 80 0 0 1 0 1 0 -1 0 0 3009.dat
1 19 80 -144 80 0 0 1 0 1 0 -1 0 0 2456.dat
1 15 10 -144 80 0 0 1 0 1 0 -1 0 0 3023.dat
1 15 30 -144 80 0 0 1 0 1 0 -1 0 0 3710.dat
1 15 30 -152 110 1 0 0 0 1 0 0 0 1 3024.dat
1 15 20 -152 90 1 0 0 0 1 0 0 0 1 3023.dat
1 15 30 -152 60 0 0 1 0 1 0 -1 0 0 3023.dat
1 15 10 -160 90 1 0 0 0 1 0 0 0 1 3024.dat
1 15 30 -160 80 0 0 1 0 1 0 -1 0 0 3710.dat
1 19 30 -168 130 1 0 0 0 1 0 0 0 1 3005.dat
1 19 110 -168 10 1 0 0 0 1 0 0 0 1 3005.dat
1 19 50 -168 150 1 0 0 0 1 0 0 0 1 3622.dat
1 19 40 -168 30 1 0 0 0 1 0 0 0 1 3004.dat
1 19 90 -168 30 1 0 0 0 1 0 0 0 1 3622.dat
1 19 60 -168 10 1 0 0 0 1 0 0 0 1 3010.dat
1 19 60 -168 110 0 0 1 0 1 0 -1 0 0 3002.dat
1 19 80 -168 60 1 0 0 0 1 0 0 0 1 3001.dat
1 19 100 -168 120 0 0 1 0 1 0 -1 0 0 3001.dat
1 15 10 -168 90 1 0 0 0 1 0 0 0 1 3024.dat
1 15 30 -168 80 0 0 1 0 1 0 -1 0 0 3710.dat
1 15 10 -168 70 0 0 1 0 1 0 -1 0 0 87087.dat
1 15 30 -176 80 0 0 1 0 1 0 -1 0 0 3023.dat
1 15 30 -184 80 0 0 1 0 1 0 -1 0 0 3023.dat
1 19 50 -192 10 1 0 0 0 1 0 0 0 1 3005.dat
1 19 50 -192 110 1 0 0 0 1 0 0 0 1 3005.dat
1 19 30 -192 20 0 0 1 0 1 0 -1 0 0 3004.dat
1 19 40 -192 140 1 0 0 0 1 0 0 0 1 3003.dat
1 19 50 -192 60 0 0 1 0 1 0 -1 0 0 3010.dat
1 19 70 -192 80 0 0 1 0 1 0 -1 0 0 3009.dat
1 19 100 -192 80 0 0 1 0 1 0 -1 0 0 3007.dat
1 15 30 -192 80 0 0 1 0 1 0 -1 0 0 3023.dat
1 19 30 -192 50 0 0 1 0 1 0 -1 0 0 87087.dat
1 19 30 -192 110 0 0 1 0 1 0 -1 0 0 87087.dat
1 19 70 -192 10 1 0 0 0 1 0 0 0 1 87087.dat
1 19 70 -192 150 -1 0 0 0 1 0 0 0 -1 87087.dat
1 19 30 -216 130 1 0 0 0 1 0 0 0 1 3005.dat
1 19 40 -216 110 1 0 0 0 1 0 0 0 1 3004.dat
1 19 30 -216 40 0 0 1 0 1 0 -1 0 0 3004.dat
1 19 50 -216 30 0 0 1 0 1 0 -1 0 0 3622.dat
1 19 70 -216 150 1 0 0 0 1 0 0 0 1 3622.dat
1 19 80 -216 130 1 0 0 0 1 0 0 0 1 3010.dat
1 19 90 -216 110 1 0 0 0 1 0 0 0 1 3622.dat
1 19 110 -216 60 0 0 1 0 1 0 -1 0 0 3010.dat
1 19 60 -216 80 1 0 0 0 1 0 0 0 1 3001.dat
1 19 80 -216 30 0 0 1 0 1 0 -1 0 0 3002.dat
1 19 30 -216 40 1 0 0 0 1 0 0 0 1 11477.dat
1 19 30 -216 120 -1 0 0 0 1 0 0 0 -1 11477.dat
1 19 50 -216 20 1 0 0 0 1 0 0 0 1 11477.dat
1 19 40 -216 70 0 0 1 0 1 0 -1 0 0 11477.dat
1 19 40 -216 90 0 0 1 0 1 0 -1 0 0 11477.dat
1 19 50 -216 140 -1 0 0 0 1 0 0 0 -1 11477.dat
1 19 80 -216 10 0 0 -1 0 1 0 1 0 0 11477.dat
1 19 70 -216 140 -1 0 0 0 1 0 0 0 -1 11477.dat
1 19 100 -216 30 0 0 -1 0 1 0 1 0 0 11477.dat
1 19 100 -216 50 0 0 -1 0 1 0 1 0 0 11477.dat
1 19 100 -216 70 0 0 -1 0 1 0 1 0 0 11477.dat
1 19 100 -216 90 0 0 -1 0 1 0 1 0 0 11477.dat
1 19 100 -216 110 0 0 -1 0 1 0 1 0 0 11477.dat
1 19 90 -216 140 -1 0 0 0 1 0 0 0 -1 11477.dat
0 STEP
1 0 -24 -158 70 0 1 0 -1 0 0 0 0 1 3062b.dat
0 STEP
1 0 12 -182 50 0 1 0 -1 0 0 0 0 1 98138.dat
0 STEP
1 0 12 -182 110 0 1 0 -1 0 0 0 0 1 98138.dat
0 STEP
1 70 80 -162 -16 0 0 -1 -1 0 0 0 1 0 11477.dat
1 70 70 -172 -8 1 0 0 0 0 -1 0 1 0 3021.dat
1 70 50 -172 -16 1 0 0 0 0 -1 0 1 0 11477.dat
1 70 80 -182 -16 0 0 -1 -1 0 0 0 1 0 11477.dat
1 70 50 -192 -16 0 0 1 1 0 0 0 1 0 3710.dat
1 70 80 -192 -16 0 0 1 1 0 0 0 1 0 3020.dat
1 70 70 -212 -8 1 0 0 0 0 -1 0 1 0 3021.dat
1 70 50 -212 -16 -1 0 0 0 0 1 0 1 0 11477.dat
1 70 70 -212 -16 -1 0 0 0 0 1 0 1 0 11477.dat
1 70 90 -212 -16 -1 0 0 0 0 1 0 1 0 11477.dat
0 STEP
1 70 70 -152 168 1 0 0 0 0 1 0 -1 0 3021.dat
1 70 50 -152 176 -1 0 0 0 0 -1 0 -1 0 11477.dat
1 70 70 -152 176 -1 0 0 0 0 -1 0 -1 0 11477.dat
1 70 90 -152 176 -1 0 0 0 0 -1 0 -1 0 11477.dat
1 70 50 -172 176 0 0 1 -1 0 0 0 -1 0 3710.dat
1 70 80 -172 176 0 0 1 -1 0 0 0 -1 0 3020.dat
1 70 80 -182 176 0 0 -1 1 0 0 0 -1 0 11477.dat
1 70 70 -192 168 1 0 0 0 0 1 0 -1 0 3021.dat
1 70 50 -192 176 1 0 0 0 0 1 0 -1 0 11477.dat
1 70 80 -202 176 0 0 -1 1 0 0 0 -1 0 11477.dat
0 STEP
1 19 121.3 -91 80 0 0.866025 0.5 0 0.5 -0.866025 -1 0 0 3938.dat
1 19 124.4 -112.3 80 0.5 0.866025 0 -0.866025 0.5 0 0 0 1 3021.dat
1 19 117.5 -116.3 80 0.5 0.866025 0 -0.866025 0.5 0 0 0 1 3021.dat
1 70 144.4 -147 80 0 0.866025 0.5 0 0.5 -0.866025 -1 0 0 3023.dat
1 70 137.5 -151 80 0 0.866025 0.5 0 0.5 -0.866025 -1 0 0 3023.dat
0 STEP
