0 horse
0 Name: horse.ldr
0 Author: brickify

1 71 -10 -24 -310 1 0 0 0 1 0 0 0 1 3003.dat
0 STEP
1 71 -10 -16 -270 1 0 0 0 1 0 0 0 1 3022.dat
1 71 -20 -16 -340 1 0 0 0 1 0 0 0 1 3024.dat
0 STEP
1 71 -10 -24 -260 0 0 1 0 1 0 -1 0 0 3021.dat
1 71 -10 -24 -340 1 0 0 0 1 0 0 0 1 3023.dat
1 71 -10 -24 -380 1 0 0 0 1 0 0 0 1 3023.dat
1 71 -20 -24 -360 1 0 0 0 1 0 0 0 1 3024.dat
1 71 -20 -24 -400 1 0 0 0 1 0 0 0 1 3024.dat
1 71 -40 -24 -310 0 0 1 0 1 0 -1 0 0 3023.dat
0 STEP
1 71 -10 -48 -330 0 0 1 0 1 0 -1 0 0 3007.dat
1 71 -10 -48 -230 1 0 0 0 1 0 0 0 1 3003.dat
1 71 -40 -48 -380 0 0 1 0 1 0 -1 0 0 3622.dat
1 71 -40 -48 -300 0 0 1 0 1 0 -1 0 0 3622.dat
1 71 20 -32 -310 0 0 1 0 1 0 -1 0 0 3023.dat
0 STEP
1 71 20 -40 -310 0 0 1 0 1 0 -1 0 0 3069b.dat
1 71 -10 -40 -190 1 0 0 0 1 0 0 0 1 3022.dat
1 71 -40 -40 -340 1 0 0 0 1 0 0 0 1 3024.dat
0 STEP
1 71 -40 -48 -340 1 0 0 0 1 0 0 0 1 3024.dat
1 71 -10 -48 -150 0 0 1 0 1 0 -1 0 0 3020.dat
1 71 -10 -48 -200 1 0 0 0 1 0 0 0 1 3023.dat
1 71 20 -48 -380 1 0 0 0 1 0 0 0 1 3024.dat
0 STEP
1 71 -20 -72 -190 1 0 0 0 1 0 0 0 1 3002.dat
1 71 -20 -72 -370 1 0 0 0 1 0 0 0 1 3002.dat
1 71 -20 -72 -400 1 0 0 0 1 0 0 0 1 3622.dat
1 71 0 -72 -130 1 0 0 0 1 0 0 0 1 3002.dat
1 71 0 -72 -160 1 0 0 0 1 0 0 0 1 3622.dat
1 71 -10 -72 -230 1 0 0 0 1 0 0 0 1 3003.dat
1 71 20 -72 -180 1 0 0 0 1 0 0 0 1 3005.dat
1 71 20 -56 -380 1 0 0 0 1 0 0 0 1 3070b.dat
1 71 -10 -56 -290 0 0 1 0 1 0 -1 0 0 3020.dat
1 71 -20 -56 -340 1 0 0 0 1 0 0 0 1 3623.dat
1 71 -40 -56 -310 0 0 1 0 1 0 -1 0 0 3069b.dat
0 STEP
1 71 -40 -64 -160 1 0 0 0 1 0 0 0 1 3024.dat
1 71 -20 -64 -310 0 0 1 0 1 0 -1 0 0 2431.dat
1 71 -10 -64 -260 1 0 0 0 1 0 0 0 1 3069b.dat
1 71 0 -64 -100 1 0 0 0 1 0 0 0 1 3623.dat
1 71 0 -64 -340 1 0 0 0 1 0 0 0 1 3070b.dat
1 71 0 -64 -290 0 0 1 0 1 0 -1 0 0 3069b.dat
1 71 20 -64 -200 1 0 0 0 1 0 0 0 1 3024.dat
0 STEP
1 71 20 -72 -200 1 0 0 0 1 0 0 0 1 3024.dat
1 71 0 -72 -100 1 0 0 0 1 0 0 0 1 3623.dat
1 71 -40 -72 -160 1 0 0 0 1 0 0 0 1 3024.dat
0 STEP
1 71 10 -96 -130 0 0 1 0 1 0 -1 0 0 3001.dat
1 71 -10 -96 -180 1 0 0 0 1 0 0 0 1 3004.dat
1 71 -20 -96 -130 0 0 1 0 1 0 -1 0 0 3010.dat
1 71 -40 -96 -160 1 0 0 0 1 0 0 0 1 3005.dat
1 71 -40 -80 -190 0 0 1 0 1 0 -1 0 0 3023.dat
1 71 -20 -80 -390 1 0 0 0 1 0 0 0 1 3021.dat
1 71 -10 -80 -210 1 0 0 0 1 0 0 0 1 3022.dat
1 71 20 -80 -190 0 0 1 0 1 0 -1 0 0 3023.dat
0 STEP
1 71 20 -88 -180 1 0 0 0 1 0 0 0 1 3070b.dat
1 71 -10 -88 -80 1 0 0 0 1 0 0 0 1 3023.dat
1 71 -10 -88 -200 1 0 0 0 1 0 0 0 1 3069b.dat
1 71 -20 -88 -400 1 0 0 0 1 0 0 0 1 3070b.dat
1 71 -40 -88 -140 1 0 0 0 1 0 0 0 1 3024.dat
1 71 -40 -88 -180 1 0 0 0 1 0 0 0 1 3070b.dat
0 STEP
1 71 -40 -96 -140 1 0 0 0 1 0 0 0 1 3024.dat
1 71 0 -96 -80 1 0 0 0 1 0 0 0 1 3623.dat
1 71 0 -96 -60 1 0 0 0 1 0 0 0 1 3024.dat
1 71 10 -96 20 1 0 0 0 1 0 0 0 1 3023.dat
1 71 30 -96 60 0 0 1 0 1 0 -1 0 0 3021.dat
0 STEP
1 71 -20 -120 -130 1 0 0 0 1 0 0 0 1 3002.dat
1 71 0 -120 -90 1 0 0 0 1 0 0 0 1 3002.dat
1 71 0 -120 -60 1 0 0 0 1 0 0 0 1 3622.dat
1 71 -20 -120 -10 0 0 1 0 1 0 -1 0 0 3004.dat
1 71 0 -120 -40 1 0 0 0 1 0 0 0 1 3005.dat
1 71 0 -120 50 0 0 1 0 1 0 -1 0 0 3010.dat
1 71 0 -120 100 1 0 0 0 1 0 0 0 1 3005.dat
1 71 20 -120 -120 1 0 0 0 1 0 0 0 1 3005.dat
1 71 20 -120 -10 0 0 1 0 1 0 -1 0 0 3004.dat
1 71 30 -120 120 1 0 0 0 1 0 0 0 1 3004.dat
1 71 40 -120 10 0 0 1 0 1 0 -1 0 0 3004.dat
1 71 60 -120 40 1 0 0 0 1 0 0 0 1 3005.dat
1 71 170 -120 -300 1 0 0 0 1 0 0 0 1 3004.dat
1 71 180 -120 -320 1 0 0 0 1 0 0 0 1 3005.dat
1 71 50 -104 80 0 0 1 0 1 0 -1 0 0 3021.dat
1 71 30 -104 40 1 0 0 0 1 0 0 0 1 3023.dat
1 71 -10 -104 -160 1 0 0 0 1 0 0 0 1 3710.dat
1 71 20 -104 -140 1 0 0 0 1 0 0 0 1 3024.dat
1 71 20 -104 20 1 0 0 0 1 0 0 0 1 3070b.dat
1 71 20 -104 80 0 0 1 0 1 0 -1 0 0 3623.dat
1 71 0 -104 -10 0 0 1 0 1 0 -1 0 0 3023.dat
1 71 -20 -104 -180 1 0 0 0 1 0 0 0 1 3070b.dat
0 STEP
1 71 -40 -112 -80 0 0 1 0 1 0 -1 0 0 3623.dat
1 71 -20 -112 20 1 0 0 0 1 0 0 0 1 3024.dat
1 71 -20 -112 -40 1 0 0 0 1 0 0 0 1 3024.dat
1 71 -10 -112 -160 1 0 0 0 1 0 0 0 1 3069b.dat
1 71 0 -112 120 1 0 0 0 1 0 0 0 1 3024.dat
1 71 0 -112 -10 0 0 1 0 1 0 -1 0 0 3069b.dat
1 71 70 -112 100 1 0 0 0 1 0 0 0 1 3666.dat
1 71 20 -112 60 0 0 1 0 1 0 -1 0 0 63864.dat
1 71 20 -112 -40 1 0 0 0 1 0 0 0 1 3024.dat
1 71 20 -112 -140 1 0 0 0 1 0 0 0 1 3070b.dat
1 71 40 -112 40 1 0 0 0 1 0 0 0 1 3070b.dat
1 71 40 -112 -20 1 0 0 0 1 0 0 0 1 3024.dat
1 71 90 -112 120 1 0 0 0 1 0 0 0 1 3710.dat
1 71 70 -112 70 1 0 0 0 1 0 0 0 1 3022.dat
1 71 60 -112 20 1 0 0 0 1 0 0 0 1 3024.dat
1 71 130 -112 80 1 0 0 0 1 0 0 0 1 3710.dat
1 71 140 -112 110 0 0 1 0 1 0 -1 0 0 3023.dat
1 71 170 -112 -280 1 0 0 0 1 0 0 0 1 3023.dat
1 71 160 -112 -320 1 0 0 0 1 0 0 0 1 3024.dat
1 71 180 -112 -340 1 0 0 0 1 0 0 0 1 3024.dat
1 71 200 -112 -300 1 0 0 0 1 0 0 0 1 3024.dat
0 STEP
1 71 200 -120 -310 0 0 1 0 1 0 -1 0 0 3023.dat
1 71 130 -120 90 1 0 0 0 1 0 0 0 1 3795.dat
1 71 130 -120 60 1 0 0 0 1 0 0 0 1 3666.dat
1 71 180 -120 -260 0 0 1 0 1 0 -1 0 0 3623.dat
1 71 170 -120 -340 1 0 0 0 1 0 0 0 1 3023.dat
1 71 110 -120 120 1 0 0 0 1 0 0 0 1 3666.dat
1 71 150 -120 40 1 0 0 0 1 0 0 0 1 3023.dat
1 71 160 -120 -270 0 0 1 0 1 0 -1 0 0 3023.dat
1 71 160 -120 -320 1 0 0 0 1 0 0 0 1 3024.dat
1 71 70 -120 140 1 0 0 0 1 0 0 0 1 3666.dat
1 71 80 -120 40 1 0 0 0 1 0 0 0 1 3024.dat
1 71 60 -120 20 1 0 0 0 1 0 0 0 1 3024.dat
1 71 40 -120 -20 1 0 0 0 1 0 0 0 1 3024.dat
1 71 20 -120 -40 1 0 0 0 1 0 0 0 1 3024.dat
1 71 0 -120 120 1 0 0 0 1 0 0 0 1 3024.dat
1 71 -20 -120 70 0 0 1 0 1 0 -1 0 0 3710.dat
1 71 -20 -120 20 1 0 0 0 1 0 0 0 1 3024.dat
1 71 -30 -120 -40 1 0 0 0 1 0 0 0 1 3023.dat
1 71 -40 -120 -10 0 0 1 0 1 0 -1 0 0 3023.dat
1 71 -40 -120 -80 0 0 1 0 1 0 -1 0 0 3623.dat
0 STEP
1 71 190 -144 -310 0 0 1 0 1 0 -1 0 0 3001.dat
1 71 170 -144 -380 0 0 1 0 1 0 -1 0 0 3002.dat
1 71 170 -144 -230 0 0 1 0 1 0 -1 0 0 3001.dat
1 71 170 -144 70 0 0 1 0 1 0 -1 0 0 3001.dat
1 71 170 -144 120 1 0 0 0 1 0 0 0 1 3004.dat
1 71 160 -144 -310 0 0 1 0 1 0 -1 0 0 3010.dat
1 71 160 -144 20 1 0 0 0 1 0 0 0 1 3005.dat
1 71 90 -144 140 1 0 0 0 1 0 0 0 1 3008.dat
1 71 90 -144 40 1 0 0 0 1 0 0 0 1 3010.dat
1 71 80 -144 160 1 0 0 0 1 0 0 0 1 3005.dat
1 71 50 -144 20 1 0 0 0 1 0 0 0 1 3004.dat
1 71 30 -144 0 1 0 0 0 1 0 0 0 1 3004.dat
1 71 -10 -144 -40 1 0 0 0 1 0 0 0 1 3010.dat
1 71 20 -144 -20 1 0 0 0 1 0 0 0 1 3005.dat
1 71 -10 -144 -90 0 0 1 0 1 0 -1 0 0 3001.dat
1 71 0 -144 130 0 0 1 0 1 0 -1 0 0 3004.dat
1 71 -20 -144 100 0 0 1 0 1 0 -1 0 0 3622.dat
1 71 -40 -144 -90 0 0 1 0 1 0 -1 0 0 3010.dat
1 71 -40 -144 30 0 0 1 0 1 0 -1 0 0 3009.dat
1 71 -20 -128 -140 1 0 0 0 1 0 0 0 1 3623.dat
1 71 -20 -128 10 0 0 1 0 1 0 -1 0 0 3710.dat
1 71 -20 -128 60 1 0 0 0 1 0 0 0 1 3024.dat
1 71 0 -128 100 1 0 0 0 1 0 0 0 1 3070b.dat
1 71 20 -128 -90 0 0 1 0 1 0 -1 0 0 3710.dat
1 71 40 -128 120 1 0 0 0 1 0 0 0 1 63864.dat
1 71 40 -128 -20 1 0 0 0 1 0 0 0 1 3070b.dat
1 71 110 -128 60 1 0 0 0 1 0 0 0 1 3710.dat
1 71 120 -128 120 1 0 0 0 1 0 0 0 1 3623.dat
1 71 140 -128 -310 0 0 1 0 1 0 -1 0 0 3023.dat
1 71 140 -128 40 1 0 0 0 1 0 0 0 1 3024.dat
0 STEP
1 71 200 -136 -380 0 0 1 0 1 0 -1 0 0 3623.dat
1 71 170 -136 -170 1 0 0 0 1 0 0 0 1 3022.dat
1 71 180 -136 20 1 0 0 0 1 0 0 0 1 3024.dat
1 71 140 -136 -310 0 0 1 0 1 0 -1 0 0 3069b.dat
1 71 140 -136 30 0 0 1 0 1 0 -1 0 0 3023.dat
1 71 140 -136 120 1 0 0 0 1 0 0 0 1 3070b.dat
1 71 110 -136 60 1 0 0 0 1 0 0 0 1 3069b.dat
1 71 110 -136 160 1 0 0 0 1 0 0 0 1 3023.dat
1 71 80 -136 20 1 0 0 0 1 0 0 0 1 3024.dat
1 71 40 -136 160 1 0 0 0 1 0 0 0 1 3623.dat
1 71 20 -136 -80 0 0 1 0 1 0 -1 0 0 63864.dat
1 71 -10 -136 -20 1 0 0 0 1 0 0 0 1 3023.dat
1 71 -30 -136 -140 1 0 0 0 1 0 0 0 1 3069b.dat
1 71 -20 -136 30 0 0 1 0 1 0 -1 0 0 2431.dat
1 71 -40 -136 100 1 0 0 0 1 0 0 0 1 3024.dat
0 STEP
1 71 -60 -144 30 0 0 1 0 1 0 -1 0 0 3710.dat
1 71 -60 -144 -20 1 0 0 0 1 0 0 0 1 3024.dat
1 71 -40 -144 100 1 0 0 0 1 0 0 0 1 3024.dat
1 71 -20 -144 140 1 0 0 0 1 0 0 0 1 3024.dat
1 71 0 -144 -20 1 0 0 0 1 0 0 0 1 3070b.dat
1 71 40 -144 160 1 0 0 0 1 0 0 0 1 3623.dat
1 71 110 -144 20 1 0 0 0 1 0 0 0 1 3710.dat
1 71 130 -144 160 1 0 0 0 1 0 0 0 1 3710.dat
1 71 160 -144 0 1 0 0 0 1 0 0 0 1 3623.dat
1 71 140 -144 -380 0 0 1 0 1 0 -1 0 0 3623.dat
1 71 170 -144 -150 0 0 1 0 1 0 -1 0 0 3020.dat
1 71 180 -144 140 1 0 0 0 1 0 0 0 1 3024.dat
1 71 180 -144 20 1 0 0 0 1 0 0 0 1 3024.dat
1 71 200 -144 -380 0 0 1 0 1 0 -1 0 0 3623.dat
0 STEP
1 71 -50 -168 30 0 0 1 0 1 0 -1 0 0 2456.dat
1 71 -30 -168 120 1 0 0 0 1 0 0 0 1 3004.dat
1 71 -40 -168 100 1 0 0 0 1 0 0 0 1 3005.dat
1 71 -30 -168 -70 0 0 1 0 1 0 -1 0 0 3001.dat
1 71 -10 -168 140 1 0 0 0 1 0 0 0 1 3004.dat
1 71 70 -168 160 1 0 0 0 1 0 0 0 1 3008.dat
1 71 0 -168 -70 0 0 1 0 1 0 -1 0 0 3010.dat
1 71 20 -168 -20 1 0 0 0 1 0 0 0 1 3005.dat
1 71 50 -168 0 1 0 0 0 1 0 0 0 1 3004.dat
1 71 80 -168 20 1 0 0 0 1 0 0 0 1 3622.dat
1 71 120 -168 0 1 0 0 0 1 0 0 0 1 3005.dat
1 71 150 -168 -150 0 0 1 0 1 0 -1 0 0 3001.dat
1 71 170 -168 -370 1 0 0 0 1 0 0 0 1 3001.dat
1 71 170 -168 -400 1 0 0 0 1 0 0 0 1 3010.dat
1 71 160 -168 150 0 0 1 0 1 0 -1 0 0 3004.dat
1 71 160 -168 -100 1 0 0 0 1 0 0 0 1 3005.dat
1 71 170 -168 -220 0 0 1 0 1 0 -1 0 0 3002.dat
1 71 170 -168 -340 1 0 0 0 1 0 0 0 1 3004.dat
1 71 180 -168 70 0 0 1 0 1 0 -1 0 0 3008.dat
1 71 180 -168 -20 1 0 0 0 1 0 0 0 1 3005.dat
1 71 180 -168 -150 0 0 1 0 1 0 -1 0 0 3010.dat
1 71 200 -168 90 0 0 1 0 1 0 -1 0 0 3010.dat
1 71 180 -152 -310 1 0 0 0 1 0 0 0 1 3021.dat
1 71 200 -152 -340 1 0 0 0 1 0 0 0 1 3070b.dat
1 71 170 -152 -270 1 0 0 0 1 0 0 0 1 3022.dat
1 71 160 -152 10 0 0 1 0 1 0 -1 0 0 3710.dat
1 71 90 -152 140 1 0 0 0 1 0 0 0 1 3666.dat
1 71 140 -152 10 0 0 1 0 1 0 -1 0 0 3023.dat
1 71 120 -152 20 1 0 0 0 1 0 0 0 1 3024.dat
1 71 90 -152 40 1 0 0 0 1 0 0 0 1 3069b.dat
1 71 40 -152 -20 1 0 0 0 1 0 0 0 1 3070b.dat
1 71 20 -152 140 1 0 0 0 1 0 0 0 1 3024.dat
1 71 20 -152 -40 1 0 0 0 1 0 0 0 1 3070b.dat
1 71 -20 -152 -120 1 0 0 0 1 0 0 0 1 3623.dat
1 71 -20 -152 100 1 0 0 0 1 0 0 0 1 3024.dat
0 STEP
1 71 -20 -160 -120 1 0 0 0 1 0 0 0 1 3070b.dat
1 71 -20 -160 100 1 0 0 0 1 0 0 0 1 3070b.dat
1 71 0 -160 -20 1 0 0 0 1 0 0 0 1 3070b.dat
1 71 20 -160 0 1 0 0 0 1 0 0 0 1 3070b.dat
1 71 20 -160 140 1 0 0 0 1 0 0 0 1 3070b.dat
1 71 40 -160 20 1 0 0 0 1 0 0 0 1 3070b.dat
1 71 70 -160 180 1 0 0 0 1 0 0 0 1 3710.dat
1 71 90 -160 0 1 0 0 0 1 0 0 0 1 3023.dat
1 71 120 -160 20 1 0 0 0 1 0 0 0 1 3070b.dat
1 71 120 -160 180 1 0 0 0 1 0 0 0 1 3024.dat
1 71 150 -160 -20 1 0 0 0 1 0 0 0 1 3023.dat
1 71 140 -160 0 1 0 0 0 1 0 0 0 1 3070b.dat
1 71 140 -160 140 1 0 0 0 1 0 0 0 1 3070b.dat
1 71 170 -160 -260 1 0 0 0 1 0 0 0 1 3069b.dat
1 71 160 -160 -80 1 0 0 0 1 0 0 0 1 3024.dat
1 71 160 -160 -40 1 0 0 0 1 0 0 0 1 3024.dat
1 71 160 -160 20 1 0 0 0 1 0 0 0 1 3070b.dat
1 71 180 -160 -320 1 0 0 0 1 0 0 0 1 3070b.dat
1 71 180 -160 -280 1 0 0 0 1 0 0 0 1 3070b.dat
1 71 180 -160 -100 1 0 0 0 1 0 0 0 1 3024.dat
1 71 200 -160 0 1 0 0 0 1 0 0 0 1 3024.dat
1 71 200 -160 40 1 0 0 0 1 0 0 0 1 3024.dat
0 STEP
1 71 200 -168 -150 0 0 1 0 1 0 -1 0 0 3023.dat
1 71 200 -168 10 0 0 1 0 1 0 -1 0 0 3710.dat
1 71 200 -168 140 1 0 0 0 1 0 0 0 1 3024.dat
1 71 180 -168 -100 1 0 0 0 1 0 0 0 1 3024.dat
1 71 160 -168 -40 1 0 0 0 1 0 0 0 1 3623.dat
1 71 180 -168 160 1 0 0 0 1 0 0 0 1 3024.dat
1 71 160 -168 -70 0 0 1 0 1 0 -1 0 0 3023.dat
1 71 140 -168 -90 0 0 1 0 1 0 -1 0 0 3023.dat
1 71 130 -168 -20 1 0 0 0 1 0 0 0 1 3023.dat
1 71 90 -168 180 1 0 0 0 1 0 0 0 1 3666.dat
1 71 90 -168 0 1 0 0 0 1 0 0 0 1 3023.dat
1 71 40 -168 -20 1 0 0 0 1 0 0 0 1 3024.dat
1 71 20 -168 -40 1 0 0 0 1 0 0 0 1 3024.dat
1 71 20 -168 180 1 0 0 0 1 0 0 0 1 3024.dat
1 71 -20 -168 160 1 0 0 0 1 0 0 0 1 3024.dat
1 71 -40 -168 140 1 0 0 0 1 0 0 0 1 3024.dat
1 71 -60 -168 100 1 0 0 0 1 0 0 0 1 3024.dat
0 STEP
1 71 210 -192 70 0 0 1 0 1 0 -1 0 0 3001.dat
1 71 200 -192 130 0 0 1 0 1 0 -1 0 0 3004.dat
1 71 200 -192 -10 0 0 1 0 1 0 -1 0 0 3010.dat
1 71 170 -192 -150 1 0 0 0 1 0 0 0 1 3001.dat
1 71 110 -192 160 1 0 0 0 1 0 0 0 1 3008.dat
1 71 180 -192 140 1 0 0 0 1 0 0 0 1 3005.dat
1 71 180 -192 -50 0 0 1 0 1 0 -1 0 0 3009.dat
1 71 160 -192 -120 1 0 0 0 1 0 0 0 1 3622.dat
1 71 170 -192 -180 1 0 0 0 1 0 0 0 1 3004.dat
1 71 170 -192 -390 1 0 0 0 1 0 0 0 1 3003.dat
1 71 90 -192 180 1 0 0 0 1 0 0 0 1 3008.dat
1 71 150 -192 -80 0 0 1 0 1 0 -1 0 0 3002.dat
1 71 130 -192 -40 1 0 0 0 1 0 0 0 1 3004.dat
1 71 90 -192 -20 1 0 0 0 1 0 0 0 1 3010.dat
1 71 80 -192 0 1 0 0 0 1 0 0 0 1 3622.dat
1 71 40 -192 -30 0 0 1 0 1 0 -1 0 0 3004.dat
1 71 0 -192 160 1 0 0 0 1 0 0 0 1 3622.dat
1 71 20 -192 -50 0 0 1 0 1 0 -1 0 0 3004.dat
1 71 -20 -192 -60 1 0 0 0 1 0 0 0 1 3622.dat
1 71 -30 -192 140 1 0 0 0 1 0 0 0 1 3004.dat
1 71 -30 -192 -40 1 0 0 0 1 0 0 0 1 3004.dat
1 71 -40 -192 50 0 0 1 0 1 0 -1 0 0 3008.dat
1 71 -60 -192 50 0 0 1 0 1 0 -1 0 0 3009.dat
1 71 -60 -192 -20 1 0 0 0 1 0 0 0 1 3005.dat
1 71 -20 -176 -80 1 0 0 0 1 0 0 0 1 3623.dat
1 71 -20 -176 120 1 0 0 0 1 0 0 0 1 3024.dat
1 71 -20 -176 -100 1 0 0 0 1 0 0 0 1 3070b.dat
1 71 0 -176 140 1 0 0 0 1 0 0 0 1 3070b.dat
1 71 140 -176 -180 1 0 0 0 1 0 0 0 1 3024.dat
1 71 140 -176 -390 0 0 1 0 1 0 -1 0 0 3069b.dat
1 71 170 -176 -210 1 0 0 0 1 0 0 0 1 3022.dat
1 71 180 -176 -360 1 0 0 0 1 0 0 0 1 3623.dat
1 71 180 -176 120 1 0 0 0 1 0 0 0 1 3070b.dat
1 71 180 -176 20 1 0 0 0 1 0 0 0 1 3070b.dat
1 71 200 -176 -180 1 0 0 0 1 0 0 0 1 3024.dat
1 71 200 -176 -390 0 0 1 0 1 0 -1 0 0 3023.dat
0 STEP
1 71 220 -184 120 1 0 0 0 1 0 0 0 1 3024.dat
1 71 220 -184 20 1 0 0 0 1 0 0 0 1 3024.dat
1 71 200 -184 160 1 0 0 0 1 0 0 0 1 3024.dat
1 71 200 -184 -100 0 0 1 0 1 0 -1 0 0 3623.dat
1 71 200 -184 -180 1 0 0 0 1 0 0 0 1 3070b.dat
1 71 200 -184 -380 1 0 0 0 1 0 0 0 1 3070b.dat
1 71 170 -184 -200 1 0 0 0 1 0 0 0 1 3069b.dat
1 71 170 -184 -360 1 0 0 0 1 0 0 0 1 3069b.dat
1 71 140 -184 -180 1 0 0 0 1 0 0 0 1 3070b.dat
1 71 0 -184 180 1 0 0 0 1 0 0 0 1 3024.dat
1 71 -20 -184 -80 1 0 0 0 1 0 0 0 1 63864.dat
1 71 -20 -184 120 1 0 0 0 1 0 0 0 1 3070b.dat
0 STEP
1 71 -60 -192 120 1 0 0 0 1 0 0 0 1 3024.dat
1 71 0 -192 -40 1 0 0 0 1 0 0 0 1 3024.dat
1 71 0 -192 180 1 0 0 0 1 0 0 0 1 3024.dat
1 71 200 -192 -90 0 0 1 0 1 0 -1 0 0 3710.dat
1 71 200 -192 160 1 0 0 0 1 0 0 0 1 3024.dat
1 71 220 -192 20 1 0 0 0 1 0 0 0 1 3024.dat
1 71 220 -192 120 1 0 0 0 1 0 0 0 1 3024.dat
0 STEP
1 71 -50 -216 50 0 0 1 0 1 0 -1 0 0 3007.dat
1 71 -10 -216 -40 1 0 0 0 1 0 0 0 1 3010.dat
1 71 -30 -216 140 1 0 0 0 1 0 0 0 1 3004.dat
1 71 10 -216 160 1 0 0 0 1 0 0 0 1 3010.dat
1 71 70 -216 180 1 0 0 0 1 0 0 0 1 3008.dat
1 71 70 -216 -20 1 0 0 0 1 0 0 0 1 3009.dat
1 71 80 -216 0 1 0 0 0 1 0 0 0 1 3622.dat
1 71 130 -216 -40 1 0 0 0 1 0 0 0 1 3004.dat
1 71 150 -216 -110 0 0 1 0 1 0 -1 0 0 3001.dat
1 71 170 -216 -60 1 0 0 0 1 0 0 0 1 3010.dat
1 71 170 -216 160 1 0 0 0 1 0 0 0 1 3010.dat
1 71 170 -216 180 1 0 0 0 1 0 0 0 1 3004.dat
1 71 180 -216 -110 0 0 1 0 1 0 -1 0 0 3010.dat
1 71 190 -216 -30 1 0 0 0 1 0 0 0 1 3003.dat
1 71 200 -216 -100 0 0 1 0 1 0 -1 0 0 3622.dat
1 71 210 -216 50 0 0 1 0 1 0 -1 0 0 2456.dat
1 71 210 -216 120 1 0 0 0 1 0 0 0 1 3004.dat
1 71 200 -216 140 1 0 0 0 1 0 0 0 1 3005.dat
1 71 200 -200 -140 1 0 0 0 1 0 0 0 1 3070b.dat
1 71 160 -200 -160 1 0 0 0 1 0 0 0 1 3623.dat
1 71 180 -200 140 1 0 0 0 1 0 0 0 1 3024.dat
1 71 90 -200 160 1 0 0 0 1 0 0 0 1 3710.dat
1 71 40 -200 -40 1 0 0 0 1 0 0 0 1 3024.dat
1 71 -20 -200 -60 1 0 0 0 1 0 0 0 1 63864.dat
0 STEP
1 71 -10 -208 -20 1 0 0 0 1 0 0 0 1 3023.dat
1 71 40 -208 -40 1 0 0 0 1 0 0 0 1 3070b.dat
1 71 70 -208 160 1 0 0 0 1 0 0 0 1 3069b.dat
1 71 100 -208 200 1 0 0 0 1 0 0 0 1 3024.dat
1 71 120 -208 160 1 0 0 0 1 0 0 0 1 3070b.dat
1 71 170 -208 -160 1 0 0 0 1 0 0 0 1 3069b.dat
1 71 180 -208 140 1 0 0 0 1 0 0 0 1 3070b.dat
0 STEP
1 71 220 -216 140 1 0 0 0 1 0 0 0 1 3024.dat
1 71 90 -216 200 1 0 0 0 1 0 0 0 1 3710.dat
1 71 40 -216 0 1 0 0 0 1 0 0 0 1 3024.dat
1 71 -10 -216 -20 1 0 0 0 1 0 0 0 1 3023.dat
1 71 -40 -216 160 1 0 0 0 1 0 0 0 1 3024.dat
0 STEP
1 71 210 -240 70 0 0 1 0 1 0 -1 0 0 3007.dat
1 71 190 -240 -70 0 0 1 0 1 0 -1 0 0 3001.dat
1 71 190 -240 -20 1 0 0 0 1 0 0 0 1 3004.dat
1 71 180 -240 160 1 0 0 0 1 0 0 0 1 3622.dat
1 71 110 -240 180 1 0 0 0 1 0 0 0 1 3008.dat
1 71 150 -240 -80 0 0 1 0 1 0 -1 0 0 3002.dat
1 71 130 -240 -40 1 0 0 0 1 0 0 0 1 3004.dat
1 71 90 -240 200 1 0 0 0 1 0 0 0 1 3009.dat
1 71 50 -240 -20 1 0 0 0 1 0 0 0 1 3008.dat
1 71 70 -240 0 1 0 0 0 1 0 0 0 1 3010.dat
1 71 20 -240 0 1 0 0 0 1 0 0 0 1 3005.dat
1 71 0 -240 170 1 0 0 0 1 0 0 0 1 3002.dat
1 71 -30 -240 140 1 0 0 0 1 0 0 0 1 3004.dat
1 71 -40 -240 50 0 0 1 0 1 0 -1 0 0 3008.dat
1 71 -40 -240 160 1 0 0 0 1 0 0 0 1 3005.dat
1 71 -60 -240 50 0 0 1 0 1 0 -1 0 0 3009.dat
1 71 -60 -240 120 1 0 0 0 1 0 0 0 1 3005.dat
1 71 -60 -224 -20 1 0 0 0 1 0 0 0 1 3024.dat
1 71 -10 -224 -40 1 0 0 0 1 0 0 0 1 3069b.dat
1 71 170 -224 -120 1 0 0 0 1 0 0 0 1 3710.dat
1 71 170 -224 -140 1 0 0 0 1 0 0 0 1 3069b.dat
0 STEP
1 71 170 -232 -120 1 0 0 0 1 0 0 0 1 3069b.dat
1 71 -10 -232 0 1 0 0 0 1 0 0 0 1 3023.dat
1 71 -60 -232 -20 1 0 0 0 1 0 0 0 1 3070b.dat
0 STEP
1 71 -10 -240 0 1 0 0 0 1 0 0 0 1 3023.dat
0 STEP
1 71 -50 -264 70 0 0 1 0 1 0 -1 0 0 2456.dat
1 71 10 -264 0 1 0 0 0 1 0 0 0 1 3008.dat
1 71 -30 -264 150 1 0 0 0 1 0 0 0 1 3003.dat
1 71 50 -264 180 1 0 0 0 1 0 0 0 1 3008.dat
1 71 50 -264 -20 1 0 0 0 1 0 0 0 1 3008.dat
1 71 10 -264 160 1 0 0 0 1 0 0 0 1 3004.dat
1 71 90 -264 200 1 0 0 0 1 0 0 0 1 3009.dat
1 71 100 -264 0 1 0 0 0 1 0 0 0 1 3005.dat
1 71 160 -264 180 1 0 0 0 1 0 0 0 1 3622.dat
1 71 140 -264 -40 1 0 0 0 1 0 0 0 1 3005.dat
1 71 180 -264 160 1 0 0 0 1 0 0 0 1 3622.dat
1 71 170 -264 -60 1 0 0 0 1 0 0 0 1 3004.dat
1 71 190 -264 -30 1 0 0 0 1 0 0 0 1 3003.dat
1 71 210 -264 70 0 0 1 0 1 0 -1 0 0 3007.dat
1 71 200 -248 -70 0 0 1 0 1 0 -1 0 0 3023.dat
1 71 170 -248 -90 1 0 0 0 1 0 0 0 1 3022.dat
1 71 140 -248 -70 0 0 1 0 1 0 -1 0 0 3023.dat
1 71 120 -248 -40 1 0 0 0 1 0 0 0 1 3024.dat
1 71 -40 -248 -20 1 0 0 0 1 0 0 0 1 3070b.dat
0 STEP
1 71 120 -256 -40 1 0 0 0 1 0 0 0 1 3070b.dat
1 71 140 -256 -60 1 0 0 0 1 0 0 0 1 3070b.dat
1 71 170 -256 -80 1 0 0 0 1 0 0 0 1 3069b.dat
1 71 200 -256 -60 1 0 0 0 1 0 0 0 1 3070b.dat
0 STEP
1 71 160 -264 -40 1 0 0 0 1 0 0 0 1 3024.dat
1 71 140 -264 -20 1 0 0 0 1 0 0 0 1 3024.dat
1 71 120 -264 0 1 0 0 0 1 0 0 0 1 3024.dat
0 STEP
1 71 210 -288 70 0 0 1 0 1 0 -1 0 0 3001.dat
1 71 210 -288 20 1 0 0 0 1 0 0 0 1 3004.dat
1 71 190 -288 150 1 0 0 0 1 0 0 0 1 3003.dat
1 71 200 -288 120 1 0 0 0 1 0 0 0 1 3005.dat
1 71 200 -288 -10 0 0 1 0 1 0 -1 0 0 3004.dat
1 71 110 -288 180 1 0 0 0 1 0 0 0 1 3008.dat
1 71 170 -288 -30 1 0 0 0 1 0 0 0 1 3003.dat
1 71 160 -288 160 1 0 0 0 1 0 0 0 1 3005.dat
1 71 90 -288 200 1 0 0 0 1 0 0 0 1 3009.dat
1 71 70 -288 -20 1 0 0 0 1 0 0 0 1 3008.dat
1 71 50 -288 0 1 0 0 0 1 0 0 0 1 3009.dat
1 71 0 -288 170 1 0 0 0 1 0 0 0 1 3002.dat
1 71 -30 -288 130 1 0 0 0 1 0 0 0 1 3003.dat
1 71 -20 -288 10 0 0 1 0 1 0 -1 0 0 3004.dat
1 71 -40 -288 160 1 0 0 0 1 0 0 0 1 3005.dat
1 71 -40 -288 70 0 0 1 0 1 0 -1 0 0 3010.dat
1 71 -40 -288 20 1 0 0 0 1 0 0 0 1 3005.dat
1 71 -60 -272 70 0 0 1 0 1 0 -1 0 0 2431.dat
1 71 -60 -272 20 1 0 0 0 1 0 0 0 1 3070b.dat
1 71 -40 -272 0 1 0 0 0 1 0 0 0 1 3024.dat
1 71 120 -272 0 1 0 0 0 1 0 0 0 1 3024.dat
1 71 140 -272 -40 1 0 0 0 1 0 0 0 1 3070b.dat
1 71 220 -272 120 1 0 0 0 1 0 0 0 1 3070b.dat
1 71 220 -272 0 1 0 0 0 1 0 0 0 1 3070b.dat
0 STEP
1 71 180 -280 120 1 0 0 0 1 0 0 0 1 3024.dat
1 71 180 -280 0 1 0 0 0 1 0 0 0 1 3024.dat
1 71 130 -280 0 1 0 0 0 1 0 0 0 1 3069b.dat
1 71 -20 -280 70 0 0 1 0 1 0 -1 0 0 3710.dat
1 71 -40 -280 0 1 0 0 0 1 0 0 0 1 3070b.dat
0 STEP
1 71 -20 -288 70 0 0 1 0 1 0 -1 0 0 3710.dat
1 71 130 -288 -40 1 0 0 0 1 0 0 0 1 3023.dat
1 71 180 -288 0 1 0 0 0 1 0 0 0 1 3024.dat
1 71 180 -288 120 1 0 0 0 1 0 0 0 1 3024.dat
0 STEP
1 71 -30 -312 70 0 0 1 0 1 0 -1 0 0 2456.dat
1 71 -30 -312 140 1 0 0 0 1 0 0 0 1 3004.dat
1 71 -20 -312 0 1 0 0 0 1 0 0 0 1 3005.dat
1 71 0 -312 160 1 0 0 0 1 0 0 0 1 3622.dat
1 71 70 -312 -20 1 0 0 0 1 0 0 0 1 3008.dat
1 71 70 -312 180 1 0 0 0 1 0 0 0 1 3008.dat
1 71 90 -312 -40 1 0 0 0 1 0 0 0 1 3009.dat
1 71 110 -312 200 1 0 0 0 1 0 0 0 1 3004.dat
1 71 160 -312 -30 0 0 1 0 1 0 -1 0 0 3004.dat
1 71 170 -312 170 1 0 0 0 1 0 0 0 1 3003.dat
1 71 180 -312 50 0 0 1 0 1 0 -1 0 0 3008.dat
1 71 190 -312 140 1 0 0 0 1 0 0 0 1 3004.dat
1 71 200 -312 70 0 0 1 0 1 0 -1 0 0 3009.dat
1 71 200 -312 160 1 0 0 0 1 0 0 0 1 3005.dat
1 71 200 -296 -10 0 0 1 0 1 0 -1 0 0 3023.dat
1 71 180 -296 -40 1 0 0 0 1 0 0 0 1 3070b.dat
1 71 140 -296 200 1 0 0 0 1 0 0 0 1 3024.dat
1 71 60 -296 200 1 0 0 0 1 0 0 0 1 3623.dat
1 71 10 -296 0 1 0 0 0 1 0 0 0 1 3023.dat
0 STEP
1 71 -40 -304 0 1 0 0 0 1 0 0 0 1 3024.dat
1 71 -20 -304 -20 1 0 0 0 1 0 0 0 1 3024.dat
1 71 0 -304 0 1 0 0 0 1 0 0 0 1 3070b.dat
1 71 20 -304 -40 1 0 0 0 1 0 0 0 1 3024.dat
1 71 40 -304 160 1 0 0 0 1 0 0 0 1 3024.dat
1 71 70 -304 200 1 0 0 0 1 0 0 0 1 3069b.dat
1 71 140 -304 200 1 0 0 0 1 0 0 0 1 3070b.dat
1 71 200 -304 0 1 0 0 0 1 0 0 0 1 3070b.dat
0 STEP
1 71 160 -312 0 1 0 0 0 1 0 0 0 1 3024.dat
1 71 140 -312 160 1 0 0 0 1 0 0 0 1 3024.dat
1 71 60 -312 160 1 0 0 0 1 0 0 0 1 3623.dat
1 71 10 -312 -40 1 0 0 0 1 0 0 0 1 3023.dat
1 71 -20 -312 -20 1 0 0 0 1 0 0 0 1 3024.dat
1 71 -40 -312 0 1 0 0 0 1 0 0 0 1 3024.dat
0 STEP
1 71 190 -336 90 0 0 1 0 1 0 -1 0 0 3001.dat
1 71 190 -336 140 1 0 0 0 1 0 0 0 1 3004.dat
1 71 180 -336 20 0 0 1 0 1 0 -1 0 0 3622.dat
1 71 110 -336 160 1 0 0 0 1 0 0 0 1 3008.dat
1 71 160 -336 -10 0 0 1 0 1 0 -1 0 0 3004.dat
1 71 90 -336 180 1 0 0 0 1 0 0 0 1 3008.dat
1 71 70 -336 -40 1 0 0 0 1 0 0 0 1 3008.dat
1 71 140 -336 -20 1 0 0 0 1 0 0 0 1 3005.dat
1 71 70 -336 -60 1 0 0 0 1 0 0 0 1 3010.dat
1 71 0 -336 160 1 0 0 0 1 0 0 0 1 3622.dat
1 71 -20 -336 -10 0 0 1 0 1 0 -1 0 0 3004.dat
1 71 -30 -336 110 1 0 0 0 1 0 0 0 1 3003.dat
1 71 -20 -336 140 1 0 0 0 1 0 0 0 1 3005.dat
1 71 -40 -336 30 0 0 1 0 1 0 -1 0 0 3010.dat
1 71 -40 -336 80 1 0 0 0 1 0 0 0 1 3005.dat
1 71 -40 -320 140 1 0 0 0 1 0 0 0 1 3070b.dat
1 71 -20 -320 50 0 0 1 0 1 0 -1 0 0 3710.dat
1 71 10 -320 -20 1 0 0 0 1 0 0 0 1 3023.dat
1 71 0 -320 180 1 0 0 0 1 0 0 0 1 3024.dat
1 71 120 -320 -20 1 0 0 0 1 0 0 0 1 3070b.dat
1 71 160 -320 -40 1 0 0 0 1 0 0 0 1 3070b.dat
1 71 160 -320 30 0 0 1 0 1 0 -1 0 0 3023.dat
1 71 180 -320 -20 1 0 0 0 1 0 0 0 1 3070b.dat
1 71 180 -320 180 1 0 0 0 1 0 0 0 1 3070b.dat
0 STEP
1 71 200 -328 40 1 0 0 0 1 0 0 0 1 3024.dat
1 71 160 -328 20 1 0 0 0 1 0 0 0 1 3070b.dat
1 71 120 -328 -60 1 0 0 0 1 0 0 0 1 3024.dat
1 71 20 -328 -60 1 0 0 0 1 0 0 0 1 3024.dat
1 71 0 -328 -20 1 0 0 0 1 0 0 0 1 3070b.dat
1 71 0 -328 140 1 0 0 0 1 0 0 0 1 3024.dat
1 71 0 -328 180 1 0 0 0 1 0 0 0 1 3070b.dat
1 71 -20 -328 -40 1 0 0 0 1 0 0 0 1 3024.dat
1 71 -20 -328 50 0 0 1 0 1 0 -1 0 0 2431.dat
1 71 -40 -328 -20 1 0 0 0 1 0 0 0 1 3024.dat
0 STEP
1 71 -60 -336 50 0 0 1 0 1 0 -1 0 0 3710.dat
1 71 -40 -336 -20 1 0 0 0 1 0 0 0 1 3024.dat
1 71 -20 -336 -40 1 0 0 0 1 0 0 0 1 3024.dat
1 71 0 -336 140 1 0 0 0 1 0 0 0 1 3024.dat
1 71 10 -336 -60 1 0 0 0 1 0 0 0 1 3023.dat
1 71 120 -336 -60 1 0 0 0 1 0 0 0 1 3024.dat
1 71 160 -336 -40 1 0 0 0 1 0 0 0 1 3024.dat
1 71 180 -336 -20 1 0 0 0 1 0 0 0 1 3024.dat
1 71 200 -336 30 0 0 1 0 1 0 -1 0 0 3023.dat
0 STEP
1 71 -50 -360 50 0 0 1 0 1 0 -1 0 0 3001.dat
1 71 -50 -360 0 1 0 0 0 1 0 0 0 1 3004.dat
1 71 -30 -360 110 1 0 0 0 1 0 0 0 1 3003.dat
1 71 -30 -360 -20 1 0 0 0 1 0 0 0 1 3004.dat
1 71 -10 -360 140 1 0 0 0 1 0 0 0 1 3004.dat
1 71 -10 -360 -40 1 0 0 0 1 0 0 0 1 3004.dat
1 71 70 -360 160 1 0 0 0 1 0 0 0 1 3008.dat
1 71 70 -360 -60 1 0 0 0 1 0 0 0 1 3008.dat
1 71 90 -360 180 1 0 0 0 1 0 0 0 1 3010.dat
1 71 60 -360 -80 1 0 0 0 1 0 0 0 1 3005.dat
1 71 140 -360 -40 1 0 0 0 1 0 0 0 1 3622.dat
1 71 140 -360 180 1 0 0 0 1 0 0 0 1 3005.dat
1 71 160 -360 150 0 0 1 0 1 0 -1 0 0 3004.dat
1 71 170 -360 -20 1 0 0 0 1 0 0 0 1 3004.dat
1 71 180 -360 70 0 0 1 0 1 0 -1 0 0 3008.dat
1 71 200 -360 70 0 0 1 0 1 0 -1 0 0 3009.dat
1 71 180 -344 160 1 0 0 0 1 0 0 0 1 3024.dat
1 71 160 -344 180 1 0 0 0 1 0 0 0 1 3070b.dat
1 71 160 -344 0 1 0 0 0 1 0 0 0 1 3070b.dat
1 71 90 -344 -40 1 0 0 0 1 0 0 0 1 3023.dat
1 71 30 -344 180 1 0 0 0 1 0 0 0 1 3023.dat
1 71 30 -344 -40 1 0 0 0 1 0 0 0 1 3023.dat
0 STEP
1 71 -40 -352 -40 1 0 0 0 1 0 0 0 1 3024.dat
1 71 20 -352 -40 1 0 0 0 1 0 0 0 1 3070b.dat
1 71 20 -352 140 1 0 0 0 1 0 0 0 1 3024.dat
1 71 40 -352 -80 1 0 0 0 1 0 0 0 1 3024.dat
1 71 40 -352 180 1 0 0 0 1 0 0 0 1 3070b.dat
1 71 80 -352 -80 1 0 0 0 1 0 0 0 1 3024.dat
1 71 100 -352 -40 1 0 0 0 1 0 0 0 1 3070b.dat
1 71 180 -352 160 1 0 0 0 1 0 0 0 1 3070b.dat
1 71 200 -352 0 1 0 0 0 1 0 0 0 1 3024.dat
0 STEP
1 71 200 -360 0 1 0 0 0 1 0 0 0 1 3024.dat
1 71 90 -360 -80 1 0 0 0 1 0 0 0 1 3023.dat
1 71 30 -360 -80 1 0 0 0 1 0 0 0 1 3023.dat
1 71 30 -360 140 1 0 0 0 1 0 0 0 1 3023.dat
1 71 -20 -360 -60 1 0 0 0 1 0 0 0 1 3024.dat
1 71 -40 -360 -40 1 0 0 0 1 0 0 0 1 3024.dat
0 STEP
1 71 190 -384 70 0 0 1 0 1 0 -1 0 0 2456.dat
1 71 190 -384 0 1 0 0 0 1 0 0 0 1 3004.dat
1 71 160 -384 140 1 0 0 0 1 0 0 0 1 3622.dat
1 71 180 -384 -20 1 0 0 0 1 0 0 0 1 3005.dat
1 71 90 -384 160 1 0 0 0 1 0 0 0 1 3008.dat
1 71 150 -384 -40 1 0 0 0 1 0 0 0 1 3004.dat
1 71 70 -384 -60 1 0 0 0 1 0 0 0 1 3008.dat
1 71 70 -384 -80 1 0 0 0 1 0 0 0 1 3009.dat
1 71 30 -384 140 1 0 0 0 1 0 0 0 1 3010.dat
1 71 -20 -384 120 1 0 0 0 1 0 0 0 1 3622.dat
1 71 -20 -384 140 1 0 0 0 1 0 0 0 1 3005.dat
1 71 -30 -384 100 1 0 0 0 1 0 0 0 1 3004.dat
1 71 -20 -384 -50 0 0 1 0 1 0 -1 0 0 3004.dat
1 71 -50 -384 30 0 0 1 0 1 0 -1 0 0 2456.dat
1 71 -40 -384 -40 1 0 0 0 1 0 0 0 1 3005.dat
1 71 0 -368 -40 1 0 0 0 1 0 0 0 1 3070b.dat
1 71 100 -368 180 1 0 0 0 1 0 0 0 1 63864.dat
1 71 160 -368 -20 1 0 0 0 1 0 0 0 1 3024.dat
0 STEP
1 71 180 -376 -40 1 0 0 0 1 0 0 0 1 3024.dat
1 71 160 -376 -20 1 0 0 0 1 0 0 0 1 3070b.dat
1 71 160 -376 -60 1 0 0 0 1 0 0 0 1 3024.dat
1 71 100 -376 140 1 0 0 0 1 0 0 0 1 3623.dat
1 71 0 -376 -80 1 0 0 0 1 0 0 0 1 3024.dat
0 STEP
1 71 0 -384 -80 1 0 0 0 1 0 0 0 1 3024.dat
1 71 100 -384 140 1 0 0 0 1 0 0 0 1 3623.dat
1 71 160 -384 -60 1 0 0 0 1 0 0 0 1 3024.dat
1 71 180 -384 -40 1 0 0 0 1 0 0 0 1 3024.dat
1 71 200 -384 -20 1 0 0 0 1 0 0 0 1 3024.dat
0 STEP
1 71 -50 -408 30 0 0 1 0 1 0 -1 0 0 2456.dat
1 71 -30 -408 -40 1 0 0 0 1 0 0 0 1 3004.dat
1 71 -30 -408 110 1 0 0 0 1 0 0 0 1 3003.dat
1 71 0 -408 -60 1 0 0 0 1 0 0 0 1 3622.dat
1 71 70 -408 -80 1 0 0 0 1 0 0 0 1 3008.dat
1 71 0 -408 130 0 0 1 0 1 0 -1 0 0 3004.dat
1 71 70 -408 150 1 0 0 0 1 0 0 0 1 2456.dat
1 71 130 -408 -60 1 0 0 0 1 0 0 0 1 3010.dat
1 71 160 -408 140 1 0 0 0 1 0 0 0 1 3622.dat
1 71 140 -408 160 1 0 0 0 1 0 0 0 1 3005.dat
1 71 170 -408 -40 1 0 0 0 1 0 0 0 1 3004.dat
1 71 180 -408 120 1 0 0 0 1 0 0 0 1 3622.dat
1 71 190 -408 30 0 0 1 0 1 0 -1 0 0 2456.dat
1 71 190 -408 100 1 0 0 0 1 0 0 0 1 3004.dat
1 71 60 -392 -60 1 0 0 0 1 0 0 0 1 3623.dat
1 71 -20 -392 140 1 0 0 0 1 0 0 0 1 3070b.dat
0 STEP
1 71 50 -400 -100 1 0 0 0 1 0 0 0 1 3023.dat
1 71 80 -400 -60 1 0 0 0 1 0 0 0 1 3070b.dat
0 STEP
1 71 60 -408 -100 1 0 0 0 1 0 0 0 1 3623.dat
1 71 -20 -408 -80 1 0 0 0 1 0 0 0 1 3024.dat
1 71 -40 -408 -60 1 0 0 0 1 0 0 0 1 3024.dat
0 STEP
1 71 190 -432 30 0 0 1 0 1 0 -1 0 0 2456.dat
1 71 190 -432 100 1 0 0 0 1 0 0 0 1 3004.dat
1 71 170 -432 -40 1 0 0 0 1 0 0 0 1 3004.dat
1 71 170 -432 120 1 0 0 0 1 0 0 0 1 3004.dat
1 71 140 -432 -60 1 0 0 0 1 0 0 0 1 3622.dat
1 71 90 -432 140 1 0 0 0 1 0 0 0 1 3008.dat
1 71 70 -432 -80 1 0 0 0 1 0 0 0 1 3008.dat
1 71 90 -432 160 1 0 0 0 1 0 0 0 1 3009.dat
1 71 70 -432 -100 1 0 0 0 1 0 0 0 1 3010.dat
1 71 20 -432 -100 1 0 0 0 1 0 0 0 1 3005.dat
1 71 0 -432 120 1 0 0 0 1 0 0 0 1 3622.dat
1 71 -20 -432 -60 1 0 0 0 1 0 0 0 1 3622.dat
1 71 0 -432 140 1 0 0 0 1 0 0 0 1 3005.dat
1 71 -20 -432 -80 1 0 0 0 1 0 0 0 1 3005.dat
1 71 -30 -432 -40 1 0 0 0 1 0 0 0 1 3004.dat
1 71 -30 -432 100 1 0 0 0 1 0 0 0 1 3004.dat
1 71 -50 -432 30 0 0 1 0 1 0 -1 0 0 2456.dat
1 71 -40 -416 120 1 0 0 0 1 0 0 0 1 3070b.dat
0 STEP
1 71 -50 -456 30 0 0 1 0 1 0 -1 0 0 2456.dat
1 71 -30 -456 100 1 0 0 0 1 0 0 0 1 3004.dat
1 71 -30 -456 -50 1 0 0 0 1 0 0 0 1 3003.dat
1 71 0 -456 120 1 0 0 0 1 0 0 0 1 3622.dat
1 71 50 -456 -80 1 0 0 0 1 0 0 0 1 3008.dat
1 71 70 -456 140 1 0 0 0 1 0 0 0 1 3008.dat
1 71 0 -456 -60 1 0 0 0 1 0 0 0 1 3005.dat
1 71 50 -456 -100 1 0 0 0 1 0 0 0 1 3010.dat
1 71 90 -456 160 1 0 0 0 1 0 0 0 1 3010.dat
1 71 100 -456 -100 1 0 0 0 1 0 0 0 1 3005.dat
1 71 140 -456 -60 1 0 0 0 1 0 0 0 1 3622.dat
1 71 160 -456 120 1 0 0 0 1 0 0 0 1 3622.dat
1 71 140 -456 -80 1 0 0 0 1 0 0 0 1 3005.dat
1 71 160 -456 140 1 0 0 0 1 0 0 0 1 3005.dat
1 71 170 -456 -40 1 0 0 0 1 0 0 0 1 3004.dat
1 71 190 -456 50 0 0 1 0 1 0 -1 0 0 2456.dat
1 71 190 -456 -20 1 0 0 0 1 0 0 0 1 3004.dat
1 71 40 -440 160 1 0 0 0 1 0 0 0 1 3070b.dat
0 STEP
1 71 40 -448 120 1 0 0 0 1 0 0 0 1 3024.dat
0 STEP
1 71 40 -456 120 1 0 0 0 1 0 0 0 1 3024.dat
0 STEP
1 71 190 -480 30 0 0 1 0 1 0 -1 0 0 3001.dat
1 71 180 -480 90 0 0 1 0 1 0 -1 0 0 3004.dat
1 71 170 -480 -30 1 0 0 0 1 0 0 0 1 3003.dat
1 71 140 -480 120 1 0 0 0 1 0 0 0 1 3622.dat
1 71 160 -480 100 1 0 0 0 1 0 0 0 1 3005.dat
1 71 140 -480 -60 1 0 0 0 1 0 0 0 1 3622.dat
1 71 70 -480 140 1 0 0 0 1 0 0 0 1 3008.dat
1 71 70 -480 -80 1 0 0 0 1 0 0 0 1 3008.dat
1 71 90 -480 160 1 0 0 0 1 0 0 0 1 3004.dat
1 71 70 -480 -100 1 0 0 0 1 0 0 0 1 3010.dat
1 71 10 -480 120 1 0 0 0 1 0 0 0 1 3010.dat
1 71 20 -480 -100 1 0 0 0 1 0 0 0 1 3005.dat
1 71 -10 -480 -60 1 0 0 0 1 0 0 0 1 3004.dat
1 71 -30 -480 100 1 0 0 0 1 0 0 0 1 3004.dat
1 71 -30 -480 -40 1 0 0 0 1 0 0 0 1 3004.dat
1 71 -40 -480 30 0 0 1 0 1 0 -1 0 0 3009.dat
1 71 -60 -480 30 0 0 1 0 1 0 -1 0 0 3010.dat
1 71 -60 -464 80 1 0 0 0 1 0 0 0 1 3024.dat
1 71 -60 -464 -20 1 0 0 0 1 0 0 0 1 3070b.dat
1 71 -20 -464 -80 1 0 0 0 1 0 0 0 1 3024.dat
1 71 60 -464 120 1 0 0 0 1 0 0 0 1 3024.dat
1 71 160 -464 140 1 0 0 0 1 0 0 0 1 3024.dat
1 71 180 -464 120 1 0 0 0 1 0 0 0 1 3024.dat
1 71 200 -464 80 1 0 0 0 1 0 0 0 1 3024.dat
0 STEP
1 71 200 -472 80 1 0 0 0 1 0 0 0 1 3070b.dat
1 71 180 -472 120 1 0 0 0 1 0 0 0 1 3070b.dat
1 71 160 -472 140 1 0 0 0 1 0 0 0 1 3070b.dat
1 71 60 -472 120 1 0 0 0 1 0 0 0 1 3070b.dat
1 71 -20 -472 -20 1 0 0 0 1 0 0 0 1 3024.dat
1 71 -20 -472 -80 1 0 0 0 1 0 0 0 1 3070b.dat
1 71 -60 -472 80 1 0 0 0 1 0 0 0 1 3070b.dat
0 STEP
1 71 -20 -480 -20 1 0 0 0 1 0 0 0 1 3024.dat
1 71 -20 -480 80 1 0 0 0 1 0 0 0 1 3024.dat
1 71 60 -480 160 1 0 0 0 1 0 0 0 1 3024.dat
1 71 160 -480 80 1 0 0 0 1 0 0 0 1 3024.dat
0 STEP
1 71 -40 -504 30 0 0 1 0 1 0 -1 0 0 3009.dat
1 71 -20 -504 100 1 0 0 0 1 0 0 0 1 3622.dat
1 71 -20 -504 -40 0 0 1 0 1 0 -1 0 0 3622.dat
1 71 -20 -504 80 1 0 0 0 1 0 0 0 1 3005.dat
1 71 0 -504 120 1 0 0 0 1 0 0 0 1 3622.dat
1 71 50 -504 -80 1 0 0 0 1 0 0 0 1 3009.dat
1 71 0 -504 -60 1 0 0 0 1 0 0 0 1 3005.dat
1 71 50 -504 -100 1 0 0 0 1 0 0 0 1 3010.dat
1 71 70 -504 140 1 0 0 0 1 0 0 0 1 3009.dat
1 71 80 -504 160 1 0 0 0 1 0 0 0 1 3622.dat
1 71 100 -504 -100 1 0 0 0 1 0 0 0 1 3005.dat
1 71 120 -504 -70 0 0 1 0 1 0 -1 0 0 3004.dat
1 71 140 -504 120 1 0 0 0 1 0 0 0 1 3622.dat
1 71 140 -504 -60 1 0 0 0 1 0 0 0 1 3005.dat
1 71 140 -504 140 1 0 0 0 1 0 0 0 1 3005.dat
1 71 160 -504 -20 0 0 1 0 1 0 -1 0 0 3622.dat
1 71 170 -504 80 0 0 1 0 1 0 -1 0 0 3002.dat
1 71 180 -504 10 0 0 1 0 1 0 -1 0 0 3010.dat
1 71 200 -488 30 0 0 1 0 1 0 -1 0 0 3069b.dat
1 71 180 -488 -40 1 0 0 0 1 0 0 0 1 3070b.dat
1 71 160 -488 -60 1 0 0 0 1 0 0 0 1 3070b.dat
1 71 140 -488 -80 1 0 0 0 1 0 0 0 1 3070b.dat
1 71 40 -488 120 1 0 0 0 1 0 0 0 1 3070b.dat
1 71 -40 -488 -40 1 0 0 0 1 0 0 0 1 3024.dat
1 71 -60 -488 30 0 0 1 0 1 0 -1 0 0 3710.dat
0 STEP
1 71 -60 -496 30 0 0 1 0 1 0 -1 0 0 3069b.dat
1 71 -40 -496 -40 1 0 0 0 1 0 0 0 1 3070b.dat
1 71 -20 -496 60 1 0 0 0 1 0 0 0 1 3024.dat
1 71 -20 -496 0 1 0 0 0 1 0 0 0 1 3024.dat
1 71 40 -496 160 1 0 0 0 1 0 0 0 1 3024.dat
1 71 140 -496 -40 1 0 0 0 1 0 0 0 1 3024.dat
1 71 160 -496 30 0 0 1 0 1 0 -1 0 0 3023.dat
0 STEP
1 71 160 -504 30 0 0 1 0 1 0 -1 0 0 3023.dat
1 71 140 -504 -40 1 0 0 0 1 0 0 0 1 3024.dat
1 71 40 -504 160 1 0 0 0 1 0 0 0 1 3024.dat
1 71 0 -504 -40 1 0 0 0 1 0 0 0 1 3024.dat
1 71 -20 -504 30 0 0 1 0 1 0 -1 0 0 3710.dat
0 STEP
1 71 170 -528 30 0 0 1 0 1 0 -1 0 0 3001.dat
1 71 170 -528 80 1 0 0 0 1 0 0 0 1 3004.dat
1 71 160 -528 -30 0 0 1 0 1 0 -1 0 0 3004.dat
1 71 160 -528 110 0 0 1 0 1 0 -1 0 0 3004.dat
1 71 140 -528 -50 0 0 1 0 1 0 -1 0 0 3004.dat
1 71 140 -528 130 0 0 1 0 1 0 -1 0 0 3004.dat
1 71 70 -528 -80 1 0 0 0 1 0 0 0 1 3009.dat
1 71 120 -528 -60 1 0 0 0 1 0 0 0 1 3005.dat
1 71 100 -528 140 1 0 0 0 1 0 0 0 1 3622.dat
1 71 70 -528 -100 1 0 0 0 1 0 0 0 1 3010.dat
1 71 70 -528 160 1 0 0 0 1 0 0 0 1 3010.dat
1 71 20 -528 140 1 0 0 0 1 0 0 0 1 3622.dat
1 71 20 -528 -100 1 0 0 0 1 0 0 0 1 3005.dat
1 71 10 -528 -60 1 0 0 0 1 0 0 0 1 3004.dat
1 71 0 -528 -80 1 0 0 0 1 0 0 0 1 3005.dat
1 71 -10 -528 -40 1 0 0 0 1 0 0 0 1 3004.dat
1 71 -10 -528 120 1 0 0 0 1 0 0 0 1 3004.dat
1 71 -20 -528 30 0 0 1 0 1 0 -1 0 0 3009.dat
1 71 -20 -528 100 1 0 0 0 1 0 0 0 1 3005.dat
1 71 -40 -528 30 0 0 1 0 1 0 -1 0 0 3010.dat
1 71 -40 -528 80 1 0 0 0 1 0 0 0 1 3005.dat
1 71 -40 -512 -20 1 0 0 0 1 0 0 0 1 3024.dat
1 71 -40 -512 100 1 0 0 0 1 0 0 0 1 3070b.dat
1 71 20 -512 120 1 0 0 0 1 0 0 0 1 3070b.dat
1 71 60 -512 140 1 0 0 0 1 0 0 0 1 3024.dat
1 71 120 -512 120 1 0 0 0 1 0 0 0 1 3024.dat
1 71 180 -512 -20 1 0 0 0 1 0 0 0 1 3070b.dat
1 71 180 -512 100 1 0 0 0 1 0 0 0 1 3070b.dat
0 STEP
1 71 140 -520 -20 1 0 0 0 1 0 0 0 1 3024.dat
1 71 140 -520 100 1 0 0 0 1 0 0 0 1 3024.dat
1 71 120 -520 120 1 0 0 0 1 0 0 0 1 3070b.dat
1 71 60 -520 140 1 0 0 0 1 0 0 0 1 3070b.dat
1 71 20 -520 160 1 0 0 0 1 0 0 0 1 3024.dat
1 71 0 -520 100 1 0 0 0 1 0 0 0 1 3024.dat
1 71 -40 -520 -20 1 0 0 0 1 0 0 0 1 3070b.dat
0 STEP
1 71 0 -528 100 1 0 0 0 1 0 0 0 1 3024.dat
1 71 0 -528 -20 1 0 0 0 1 0 0 0 1 3024.dat
1 71 20 -528 160 1 0 0 0 1 0 0 0 1 3024.dat
1 71 60 -528 180 1 0 0 0 1 0 0 0 1 3024.dat
1 71 120 -528 160 1 0 0 0 1 0 0 0 1 3024.dat
1 71 120 -528 -100 1 0 0 0 1 0 0 0 1 3024.dat
1 71 140 -528 100 1 0 0 0 1 0 0 0 1 3024.dat
1 71 140 -528 -20 1 0 0 0 1 0 0 0 1 3024.dat
1 71 160 -528 -310 1 0 0 0 1 0 0 0 1 3021.dat
1 71 160 -528 -280 1 0 0 0 1 0 0 0 1 3024.dat
0 STEP
1 71 -30 -552 50 0 0 1 0 1 0 -1 0 0 3001.dat
1 71 -10 -552 110 1 0 0 0 1 0 0 0 1 3003.dat
1 71 -20 -552 -10 0 0 1 0 1 0 -1 0 0 3004.dat
1 71 10 -552 140 1 0 0 0 1 0 0 0 1 3004.dat
1 71 0 -552 -40 0 0 1 0 1 0 -1 0 0 3622.dat
1 71 70 -552 160 1 0 0 0 1 0 0 0 1 3009.dat
1 71 20 -552 -70 0 0 1 0 1 0 -1 0 0 3004.dat
1 71 60 -552 180 1 0 0 0 1 0 0 0 1 3622.dat
1 71 70 -552 -90 1 0 0 0 1 0 0 0 1 3001.dat
1 71 130 -552 140 1 0 0 0 1 0 0 0 1 3004.dat
1 71 120 -552 -70 0 0 1 0 1 0 -1 0 0 3010.dat
1 71 150 -552 110 1 0 0 0 1 0 0 0 1 3003.dat
1 71 150 -552 -10 1 0 0 0 1 0 0 0 1 3003.dat
1 71 140 -552 -40 1 0 0 0 1 0 0 0 1 3005.dat
1 71 150 -552 -310 0 0 1 0 1 0 -1 0 0 3001.dat
1 71 160 -552 50 0 0 1 0 1 0 -1 0 0 3010.dat
1 71 160 -552 -260 1 0 0 0 1 0 0 0 1 3005.dat
1 71 180 -552 -310 0 0 1 0 1 0 -1 0 0 3004.dat
1 71 180 -536 50 0 0 1 0 1 0 -1 0 0 3710.dat
1 71 140 -536 -60 1 0 0 0 1 0 0 0 1 3070b.dat
1 71 100 -536 140 1 0 0 0 1 0 0 0 1 3070b.dat
1 71 20 -536 -100 1 0 0 0 1 0 0 0 1 3024.dat
1 71 -20 -536 -40 1 0 0 0 1 0 0 0 1 3070b.dat
1 71 -40 -536 0 1 0 0 0 1 0 0 0 1 3024.dat
0 STEP
1 71 -40 -544 0 1 0 0 0 1 0 0 0 1 3070b.dat
1 71 0 -544 160 1 0 0 0 1 0 0 0 1 3024.dat
1 71 20 -544 -100 1 0 0 0 1 0 0 0 1 3070b.dat
1 71 20 -544 -40 1 0 0 0 1 0 0 0 1 3024.dat
1 71 100 -544 -60 1 0 0 0 1 0 0 0 1 3070b.dat
1 71 100 -544 180 1 0 0 0 1 0 0 0 1 3024.dat
1 71 160 -544 -380 1 0 0 0 1 0 0 0 1 3623.dat
1 71 140 -544 -260 1 0 0 0 1 0 0 0 1 3024.dat
1 71 140 -544 20 1 0 0 0 1 0 0 0 1 3024.dat
1 71 170 -544 -400 1 0 0 0 1 0 0 0 1 3023.dat
1 71 170 -544 -360 1 0 0 0 1 0 0 0 1 3023.dat
1 71 160 -544 -240 1 0 0 0 1 0 0 0 1 3024.dat
1 71 180 -544 -340 1 0 0 0 1 0 0 0 1 3024.dat
1 71 180 -544 -280 1 0 0 0 1 0 0 0 1 3024.dat
1 71 180 -544 60 0 0 1 0 1 0 -1 0 0 63864.dat
0 STEP
1 71 170 -552 -380 0 0 1 0 1 0 -1 0 0 3021.dat
1 71 180 -552 -340 1 0 0 0 1 0 0 0 1 3024.dat
1 71 180 -552 -280 1 0 0 0 1 0 0 0 1 3024.dat
1 71 150 -552 -230 1 0 0 0 1 0 0 0 1 3022.dat
1 71 140 -552 -380 0 0 1 0 1 0 -1 0 0 3623.dat
1 71 140 -552 -260 1 0 0 0 1 0 0 0 1 3024.dat
1 71 140 -552 -200 1 0 0 0 1 0 0 0 1 3024.dat
1 71 140 -552 -70 0 0 1 0 1 0 -1 0 0 3023.dat
1 71 140 -552 50 0 0 1 0 1 0 -1 0 0 3710.dat
1 71 100 -552 180 1 0 0 0 1 0 0 0 1 3024.dat
1 71 20 -552 -40 1 0 0 0 1 0 0 0 1 3024.dat
1 71 20 -552 180 1 0 0 0 1 0 0 0 1 3024.dat
1 71 0 -552 0 1 0 0 0 1 0 0 0 1 3024.dat
1 71 0 -552 160 1 0 0 0 1 0 0 0 1 3024.dat
0 STEP
1 71 170 -576 60 0 0 1 0 1 0 -1 0 0 3002.dat
1 71 170 -576 -370 0 0 1 0 1 0 -1 0 0 3001.dat
1 71 150 -576 110 1 0 0 0 1 0 0 0 1 3003.dat
1 71 160 -576 0 0 0 1 0 1 0 -1 0 0 3622.dat
1 71 150 -576 -250 0 0 1 0 1 0 -1 0 0 3007.dat
1 71 140 -576 140 1 0 0 0 1 0 0 0 1 3005.dat
1 71 140 -576 -50 0 0 1 0 1 0 -1 0 0 3009.dat
1 71 140 -576 -160 1 0 0 0 1 0 0 0 1 3005.dat
1 71 140 -576 -370 0 0 1 0 1 0 -1 0 0 3010.dat
1 71 120 -576 160 1 0 0 0 1 0 0 0 1 3005.dat
1 71 120 -576 -90 0 0 1 0 1 0 -1 0 0 3010.dat
1 71 120 -576 -200 0 0 1 0 1 0 -1 0 0 3622.dat
1 71 70 -576 180 1 0 0 0 1 0 0 0 1 3010.dat
1 71 70 -576 -100 1 0 0 0 1 0 0 0 1 3010.dat
1 71 70 -576 200 1 0 0 0 1 0 0 0 1 3004.dat
1 71 50 -576 -80 1 0 0 0 1 0 0 0 1 3010.dat
1 71 20 -576 170 0 0 1 0 1 0 -1 0 0 3004.dat
1 71 20 -576 -60 1 0 0 0 1 0 0 0 1 3005.dat
1 71 20 -576 -100 1 0 0 0 1 0 0 0 1 3005.dat
1 71 0 -576 150 0 0 1 0 1 0 -1 0 0 3004.dat
1 71 0 -576 -40 1 0 0 0 1 0 0 0 1 3005.dat
1 71 -20 -576 70 0 0 1 0 1 0 -1 0 0 3008.dat
1 71 -20 -576 -20 1 0 0 0 1 0 0 0 1 3005.dat
1 71 -40 -576 50 0 0 1 0 1 0 -1 0 0 3010.dat
1 71 0 -560 110 0 0 1 0 1 0 -1 0 0 3023.dat
1 71 0 -560 -10 0 0 1 0 1 0 -1 0 0 3023.dat
1 71 0 -560 -60 1 0 0 0 1 0 0 0 1 3070b.dat
1 71 20 -560 -40 1 0 0 0 1 0 0 0 1 3024.dat
1 71 40 -560 160 1 0 0 0 1 0 0 0 1 3070b.dat
1 71 100 -560 160 1 0 0 0 1 0 0 0 1 3024.dat
1 71 100 -560 -80 1 0 0 0 1 0 0 0 1 3070b.dat
1 71 120 -560 140 1 0 0 0 1 0 0 0 1 3024.dat
1 71 120 -560 -40 1 0 0 0 1 0 0 0 1 3024.dat
1 71 140 -560 20 1 0 0 0 1 0 0 0 1 3024.dat
1 71 180 -560 -300 0 0 1 0 1 0 -1 0 0 3623.dat
0 STEP
1 71 180 -568 -300 0 0 1 0 1 0 -1 0 0 63864.dat
1 71 160 -568 -160 1 0 0 0 1 0 0 0 1 3024.dat
1 71 140 -568 160 1 0 0 0 1 0 0 0 1 3024.dat
1 71 140 -568 20 1 0 0 0 1 0 0 0 1 3070b.dat
1 71 140 -568 -130 0 0 1 0 1 0 -1 0 0 3023.dat
1 71 120 -568 180 1 0 0 0 1 0 0 0 1 3024.dat
1 71 120 -568 140 1 0 0 0 1 0 0 0 1 3070b.dat
1 71 120 -568 -40 1 0 0 0 1 0 0 0 1 3070b.dat
1 71 120 -568 -150 0 0 1 0 1 0 -1 0 0 3023.dat
1 71 100 -568 160 1 0 0 0 1 0 0 0 1 3070b.dat
1 71 100 -568 -120 1 0 0 0 1 0 0 0 1 3024.dat
1 71 40 -568 200 1 0 0 0 1 0 0 0 1 3024.dat
1 71 40 -568 -60 1 0 0 0 1 0 0 0 1 3070b.dat
1 71 20 -568 -40 1 0 0 0 1 0 0 0 1 3070b.dat
1 71 0 -568 120 1 0 0 0 1 0 0 0 1 3070b.dat
1 71 0 -568 -10 0 0 1 0 1 0 -1 0 0 3069b.dat
1 71 -40 -568 100 1 0 0 0 1 0 0 0 1 3024.dat
0 STEP
1 71 -40 -576 -10 0 0 1 0 1 0 -1 0 0 3023.dat
1 71 -40 -576 110 0 0 1 0 1 0 -1 0 0 3023.dat
1 71 -20 -576 -40 1 0 0 0 1 0 0 0 1 3024.dat
1 71 0 -576 -80 0 0 1 0 1 0 -1 0 0 3623.dat
1 71 40 -576 200 1 0 0 0 1 0 0 0 1 3024.dat
1 71 100 -576 -120 1 0 0 0 1 0 0 0 1 3024.dat
1 71 100 -576 200 1 0 0 0 1 0 0 0 1 3024.dat
1 71 120 -576 -240 1 0 0 0 1 0 0 0 1 3024.dat
1 71 120 -576 -150 0 0 1 0 1 0 -1 0 0 3023.dat
1 71 120 -576 180 1 0 0 0 1 0 0 0 1 3024.dat
1 71 150 -576 -140 1 0 0 0 1 0 0 0 1 3023.dat
1 71 140 -576 -120 1 0 0 0 1 0 0 0 1 3024.dat
1 71 140 -576 160 1 0 0 0 1 0 0 0 1 3024.dat
1 71 160 -576 -160 1 0 0 0 1 0 0 0 1 3024.dat
1 71 160 -576 -40 1 0 0 0 1 0 0 0 1 3024.dat
1 71 160 -576 140 1 0 0 0 1 0 0 0 1 3024.dat
1 71 180 -576 20 1 0 0 0 1 0 0 0 1 3024.dat
0 STEP
1 71 -30 -600 -30 1 0 0 0 1 0 0 0 1 3003.dat
1 71 -40 -600 50 0 0 1 0 1 0 -1 0 0 3009.dat
1 71 -30 -600 120 1 0 0 0 1 0 0 0 1 3004.dat
1 71 -20 -600 -60 1 0 0 0 1 0 0 0 1 3005.dat
1 71 -20 -600 80 0 0 1 0 1 0 -1 0 0 3622.dat
1 71 -10 -600 150 1 0 0 0 1 0 0 0 1 3003.dat
1 71 30 -600 -90 1 0 0 0 1 0 0 0 1 3001.dat
1 71 10 -600 180 1 0 0 0 1 0 0 0 1 3004.dat
1 71 70 -600 200 1 0 0 0 1 0 0 0 1 3010.dat
1 71 80 -600 -100 1 0 0 0 1 0 0 0 1 3005.dat
1 71 100 -600 -120 1 0 0 0 1 0 0 0 1 3005.dat
1 71 110 -600 180 1 0 0 0 1 0 0 0 1 3004.dat
1 71 130 -600 -190 0 0 1 0 1 0 -1 0 0 3001.dat
1 71 140 -600 -140 1 0 0 0 1 0 0 0 1 3622.dat
1 71 130 -600 160 1 0 0 0 1 0 0 0 1 3004.dat
1 71 160 -600 -390 1 0 0 0 1 0 0 0 1 3002.dat
1 71 140 -600 -240 1 0 0 0 1 0 0 0 1 3005.dat
1 71 140 -600 -90 0 0 1 0 1 0 -1 0 0 3010.dat
1 71 150 -600 130 1 0 0 0 1 0 0 0 1 3003.dat
1 71 160 -600 -190 0 0 1 0 1 0 -1 0 0 3010.dat
1 71 160 -600 -120 1 0 0 0 1 0 0 0 1 3005.dat
1 71 160 -600 -10 0 0 1 0 1 0 -1 0 0 3008.dat
1 71 170 -600 90 1 0 0 0 1 0 0 0 1 3003.dat
1 71 180 -600 10 0 0 1 0 1 0 -1 0 0 3010.dat
1 71 180 -600 60 1 0 0 0 1 0 0 0 1 3005.dat
1 71 160 -584 -360 1 0 0 0 1 0 0 0 1 3623.dat
1 71 160 -584 -340 1 0 0 0 1 0 0 0 1 3070b.dat
1 71 160 -584 -270 0 0 1 0 1 0 -1 0 0 3710.dat
1 71 140 -584 -270 0 0 1 0 1 0 -1 0 0 3023.dat
1 71 140 -584 -40 1 0 0 0 1 0 0 0 1 3070b.dat
1 71 120 -584 -240 1 0 0 0 1 0 0 0 1 3070b.dat
1 71 120 -584 -110 0 0 1 0 1 0 -1 0 0 3069b.dat
1 71 100 -584 -100 1 0 0 0 1 0 0 0 1 3070b.dat
1 71 80 -584 -80 1 0 0 0 1 0 0 0 1 3070b.dat
1 71 60 -584 180 1 0 0 0 1 0 0 0 1 3623.dat
1 71 20 -584 160 1 0 0 0 1 0 0 0 1 3070b.dat
1 71 0 -584 -60 1 0 0 0 1 0 0 0 1 3070b.dat
1 71 -20 -584 20 0 0 1 0 1 0 -1 0 0 3623.dat
0 STEP
1 71 -40 -592 -60 1 0 0 0 1 0 0 0 1 3024.dat
1 71 -20 -592 20 0 0 1 0 1 0 -1 0 0 63864.dat
1 71 -20 -592 -90 0 0 1 0 1 0 -1 0 0 3023.dat
1 71 20 -592 200 1 0 0 0 1 0 0 0 1 3024.dat
1 71 40 -592 180 1 0 0 0 1 0 0 0 1 3070b.dat
1 71 70 -592 220 1 0 0 0 1 0 0 0 1 3023.dat
1 71 80 -592 -120 1 0 0 0 1 0 0 0 1 3024.dat
1 71 100 -592 -140 1 0 0 0 1 0 0 0 1 3024.dat
1 71 150 -592 -260 1 0 0 0 1 0 0 0 1 3069b.dat
1 71 160 -592 -360 1 0 0 0 1 0 0 0 1 63864.dat
1 71 160 -592 -100 1 0 0 0 1 0 0 0 1 3024.dat
1 71 160 -592 -240 1 0 0 0 1 0 0 0 1 3070b.dat
1 71 180 -592 -40 1 0 0 0 1 0 0 0 1 3024.dat
0 STEP
1 71 180 -600 -40 1 0 0 0 1 0 0 0 1 3024.dat
1 71 160 -600 -100 1 0 0 0 1 0 0 0 1 3024.dat
1 71 100 -600 -140 1 0 0 0 1 0 0 0 1 3024.dat
1 71 60 -600 220 1 0 0 0 1 0 0 0 1 3623.dat
1 71 80 -600 -120 1 0 0 0 1 0 0 0 1 3024.dat
1 71 20 -600 200 1 0 0 0 1 0 0 0 1 3024.dat
1 71 -10 -600 -120 1 0 0 0 1 0 0 0 1 3023.dat
1 71 -20 -600 -90 0 0 1 0 1 0 -1 0 0 3023.dat
1 71 -40 -600 -60 1 0 0 0 1 0 0 0 1 3024.dat
1 71 -60 -600 20 0 0 1 0 1 0 -1 0 0 3623.dat
0 STEP
1 71 170 -624 30 0 0 1 0 1 0 -1 0 0 3007.dat
1 71 150 -624 -130 0 0 1 0 1 0 -1 0 0 2456.dat
1 71 160 -624 -60 1 0 0 0 1 0 0 0 1 3005.dat
1 71 150 -624 130 1 0 0 0 1 0 0 0 1 3003.dat
1 71 130 -624 160 1 0 0 0 1 0 0 0 1 3004.dat
1 71 120 -624 -160 0 0 1 0 1 0 -1 0 0 3622.dat
1 71 110 -624 180 1 0 0 0 1 0 0 0 1 3004.dat
1 71 100 -624 -120 1 0 0 0 1 0 0 0 1 3005.dat
1 71 100 -624 200 1 0 0 0 1 0 0 0 1 3005.dat
1 71 60 -624 -100 1 0 0 0 1 0 0 0 1 3622.dat
1 71 60 -624 220 1 0 0 0 1 0 0 0 1 3622.dat
1 71 60 -624 -80 1 0 0 0 1 0 0 0 1 3005.dat
1 71 30 -624 200 1 0 0 0 1 0 0 0 1 3004.dat
1 71 0 -624 -120 1 0 0 0 1 0 0 0 1 3622.dat
1 71 10 -624 180 1 0 0 0 1 0 0 0 1 3004.dat
1 71 -10 -624 -170 0 0 1 0 1 0 -1 0 0 3001.dat
1 71 -10 -624 160 1 0 0 0 1 0 0 0 1 3004.dat
1 71 -20 -624 -90 0 0 1 0 1 0 -1 0 0 3004.dat
1 71 -30 -624 110 1 0 0 0 1 0 0 0 1 3003.dat
1 71 -20 -624 140 1 0 0 0 1 0 0 0 1 3005.dat
1 71 -40 -624 10 0 0 1 0 1 0 -1 0 0 3008.dat
1 71 -60 -624 10 0 0 1 0 1 0 -1 0 0 3009.dat
1 71 -20 -608 -60 1 0 0 0 1 0 0 0 1 3024.dat
1 71 -20 -608 80 1 0 0 0 1 0 0 0 1 3070b.dat
1 71 10 -608 -100 1 0 0 0 1 0 0 0 1 3023.dat
1 71 0 -608 -80 1 0 0 0 1 0 0 0 1 3070b.dat
1 71 0 -608 140 1 0 0 0 1 0 0 0 1 3070b.dat
1 71 40 -608 -80 1 0 0 0 1 0 0 0 1 3070b.dat
1 71 70 -608 200 1 0 0 0 1 0 0 0 1 3023.dat
1 71 80 -608 -120 1 0 0 0 1 0 0 0 1 3024.dat
1 71 100 -608 -140 1 0 0 0 1 0 0 0 1 3024.dat
1 71 140 -608 -200 1 0 0 0 1 0 0 0 1 3623.dat
1 71 150 -608 -220 1 0 0 0 1 0 0 0 1 3069b.dat
1 71 140 -608 -60 1 0 0 0 1 0 0 0 1 3070b.dat
1 71 160 -608 -390 0 0 1 0 1 0 -1 0 0 3069b.dat
0 STEP
1 71 180 -616 -60 1 0 0 0 1 0 0 0 1 3024.dat
1 71 140 -616 -200 1 0 0 0 1 0 0 0 1 63864.dat
1 71 100 -616 -140 1 0 0 0 1 0 0 0 1 3070b.dat
1 71 100 -616 220 1 0 0 0 1 0 0 0 1 3024.dat
1 71 80 -616 -120 1 0 0 0 1 0 0 0 1 3070b.dat
1 71 80 -616 200 1 0 0 0 1 0 0 0 1 3070b.dat
1 71 70 -616 240 1 0 0 0 1 0 0 0 1 3023.dat
1 71 40 -616 -120 1 0 0 0 1 0 0 0 1 3024.dat
1 71 20 -616 -140 1 0 0 0 1 0 0 0 1 3024.dat
1 71 -10 -616 -220 1 0 0 0 1 0 0 0 1 3023.dat
1 71 0 -616 -100 1 0 0 0 1 0 0 0 1 3070b.dat
1 71 -20 -616 -240 1 0 0 0 1 0 0 0 1 3024.dat
1 71 -20 -616 -60 1 0 0 0 1 0 0 0 1 3070b.dat
1 71 -40 -616 -80 1 0 0 0 1 0 0 0 1 3024.dat
1 71 -40 -616 140 1 0 0 0 1 0 0 0 1 3024.dat
1 71 -60 -616 80 1 0 0 0 1 0 0 0 1 3024.dat
0 STEP
1 71 -60 -624 80 1 0 0 0 1 0 0 0 1 3024.dat
1 71 -60 -624 -60 1 0 0 0 1 0 0 0 1 3024.dat
1 71 -40 -624 140 1 0 0 0 1 0 0 0 1 3024.dat
1 71 -40 -624 -90 0 0 1 0 1 0 -1 0 0 3023.dat
1 71 -10 -624 -240 0 0 1 0 1 0 -1 0 0 3021.dat
1 71 20 -624 220 1 0 0 0 1 0 0 0 1 3024.dat
1 71 20 -624 -170 0 0 1 0 1 0 -1 0 0 3710.dat
1 71 60 -624 240 1 0 0 0 1 0 0 0 1 3623.dat
1 71 40 -624 -120 1 0 0 0 1 0 0 0 1 3070b.dat
1 71 80 -624 -80 1 0 0 0 1 0 0 0 1 3024.dat
1 71 100 -624 220 1 0 0 0 1 0 0 0 1 3024.dat
1 71 100 -624 -100 1 0 0 0 1 0 0 0 1 3024.dat
1 71 120 -624 200 1 0 0 0 1 0 0 0 1 3024.dat
1 71 120 -624 -120 1 0 0 0 1 0 0 0 1 3024.dat
1 71 180 -624 -60 1 0 0 0 1 0 0 0 1 3024.dat
0 STEP
1 71 -50 -648 10 0 0 1 0 1 0 -1 0 0 3007.dat
1 71 -30 -648 130 1 0 0 0 1 0 0 0 1 3003.dat
1 71 -40 -648 100 1 0 0 0 1 0 0 0 1 3005.dat
1 71 -30 -648 -90 1 0 0 0 1 0 0 0 1 3003.dat
1 71 -10 -648 -190 1 0 0 0 1 0 0 0 1 3001.dat
1 71 -20 -648 -230 1 0 0 0 1 0 0 0 1 3002.dat
1 71 -10 -648 160 1 0 0 0 1 0 0 0 1 3004.dat
1 71 0 -648 -130 1 0 0 0 1 0 0 0 1 3002.dat
1 71 0 -648 -160 1 0 0 0 1 0 0 0 1 3622.dat
1 71 -10 -648 -280 0 0 1 0 1 0 -1 0 0 3002.dat
1 71 10 -648 180 1 0 0 0 1 0 0 0 1 3004.dat
1 71 30 -648 210 1 0 0 0 1 0 0 0 1 3003.dat
1 71 30 -648 -100 1 0 0 0 1 0 0 0 1 3004.dat
1 71 20 -648 -220 1 0 0 0 1 0 0 0 1 3005.dat
1 71 60 -648 240 1 0 0 0 1 0 0 0 1 3622.dat
1 71 70 -648 -80 1 0 0 0 1 0 0 0 1 3010.dat
1 71 70 -648 -60 1 0 0 0 1 0 0 0 1 3004.dat
1 71 90 -648 220 1 0 0 0 1 0 0 0 1 3004.dat
1 71 110 -648 190 1 0 0 0 1 0 0 0 1 3003.dat
1 71 130 -648 160 1 0 0 0 1 0 0 0 1 3004.dat
1 71 140 -648 -100 1 0 0 0 1 0 0 0 1 3622.dat
1 71 150 -648 130 1 0 0 0 1 0 0 0 1 3003.dat
1 71 150 -648 -80 1 0 0 0 1 0 0 0 1 3004.dat
1 71 140 -648 -120 1 0 0 0 1 0 0 0 1 3005.dat
1 71 170 -648 30 0 0 1 0 1 0 -1 0 0 3007.dat
1 71 170 -648 -60 1 0 0 0 1 0 0 0 1 3004.dat
1 71 160 -632 -130 0 0 1 0 1 0 -1 0 0 3023.dat
1 71 140 -632 -150 0 0 1 0 1 0 -1 0 0 3023.dat
1 71 120 -632 -130 0 0 1 0 1 0 -1 0 0 3023.dat
1 71 100 -632 -100 1 0 0 0 1 0 0 0 1 3024.dat
1 71 60 -632 220 1 0 0 0 1 0 0 0 1 3070b.dat
1 71 -20 -632 100 1 0 0 0 1 0 0 0 1 3070b.dat
0 STEP
1 71 -60 -640 100 1 0 0 0 1 0 0 0 1 3024.dat
1 71 -40 -640 -120 1 0 0 0 1 0 0 0 1 3024.dat
1 71 -10 -640 -320 1 0 0 0 1 0 0 0 1 3023.dat
1 71 60 -640 260 1 0 0 0 1 0 0 0 1 3623.dat
1 71 100 -640 -100 1 0 0 0 1 0 0 0 1 3070b.dat
1 71 120 -640 -120 1 0 0 0 1 0 0 0 1 3070b.dat
1 71 140 -640 -140 1 0 0 0 1 0 0 0 1 3070b.dat
1 71 160 -640 -120 1 0 0 0 1 0 0 0 1 3070b.dat
0 STEP
1 71 120 -648 -80 1 0 0 0 1 0 0 0 1 3024.dat
1 71 100 -648 -60 1 0 0 0 1 0 0 0 1 3024.dat
1 71 60 -648 260 1 0 0 0 1 0 0 0 1 3623.dat
1 71 20 -648 240 1 0 0 0 1 0 0 0 1 3024.dat
1 71 -10 -648 -330 1 0 0 0 1 0 0 0 1 3022.dat
1 71 -40 -648 -120 1 0 0 0 1 0 0 0 1 3024.dat
1 71 -60 -648 100 1 0 0 0 1 0 0 0 1 3024.dat
0 STEP
1 71 170 -672 50 0 0 1 0 1 0 -1 0 0 2456.dat
1 71 170 -672 -20 1 0 0 0 1 0 0 0 1 3004.dat
1 71 150 -672 130 1 0 0 0 1 0 0 0 1 3003.dat
1 71 160 -672 -50 0 0 1 0 1 0 -1 0 0 3004.dat
1 71 130 -672 160 1 0 0 0 1 0 0 0 1 3004.dat
1 71 110 -672 -70 1 0 0 0 1 0 0 0 1 3001.dat
1 71 110 -672 190 1 0 0 0 1 0 0 0 1 3003.dat
1 71 90 -672 230 1 0 0 0 1 0 0 0 1 3003.dat
1 71 60 -672 260 1 0 0 0 1 0 0 0 1 3622.dat
1 71 60 -672 280 1 0 0 0 1 0 0 0 1 3005.dat
1 71 60 -672 -70 0 0 1 0 1 0 -1 0 0 3004.dat
1 71 30 -672 240 1 0 0 0 1 0 0 0 1 3004.dat
1 71 40 -672 -80 1 0 0 0 1 0 0 0 1 3005.dat
1 71 20 -672 200 0 0 1 0 1 0 -1 0 0 3622.dat
1 71 20 -672 -100 1 0 0 0 1 0 0 0 1 3005.dat
1 71 0 -672 170 0 0 1 0 1 0 -1 0 0 3004.dat
1 71 -10 -672 -190 0 0 1 0 1 0 -1 0 0 3007.dat
1 71 -10 -672 -310 0 0 1 0 1 0 -1 0 0 3001.dat
1 71 -20 -672 140 0 0 1 0 1 0 -1 0 0 3622.dat
1 71 -30 -672 -90 1 0 0 0 1 0 0 0 1 3003.dat
1 71 -20 -672 -360 1 0 0 0 1 0 0 0 1 3005.dat
1 71 -40 -672 70 0 0 1 0 1 0 -1 0 0 3008.dat
1 71 -40 -672 -40 0 0 1 0 1 0 -1 0 0 3622.dat
1 71 -40 -672 -330 0 0 1 0 1 0 -1 0 0 3004.dat
1 71 -60 -672 30 0 0 1 0 1 0 -1 0 0 3009.dat
1 71 -60 -656 100 1 0 0 0 1 0 0 0 1 3070b.dat
1 71 -60 -656 -50 0 0 1 0 1 0 -1 0 0 3023.dat
1 71 -40 -656 -120 1 0 0 0 1 0 0 0 1 3024.dat
1 71 -40 -656 -210 0 0 1 0 1 0 -1 0 0 3069b.dat
1 71 20 -656 -170 0 0 1 0 1 0 -1 0 0 3666.dat
1 71 40 -656 210 0 0 1 0 1 0 -1 0 0 3023.dat
1 71 40 -656 -100 1 0 0 0 1 0 0 0 1 3070b.dat
1 71 140 -656 -100 1 0 0 0 1 0 0 0 1 3070b.dat
1 71 160 -656 -80 1 0 0 0 1 0 0 0 1 3024.dat
1 71 180 -656 -40 1 0 0 0 1 0 0 0 1 3024.dat
0 STEP
1 71 180 -664 -40 1 0 0 0 1 0 0 0 1 3070b.dat
1 71 160 -664 -80 1 0 0 0 1 0 0 0 1 3070b.dat
1 71 80 -664 280 1 0 0 0 1 0 0 0 1 3024.dat
1 71 40 -664 280 1 0 0 0 1 0 0 0 1 3024.dat
1 71 40 -664 210 0 0 1 0 1 0 -1 0 0 3069b.dat
1 71 40 -664 -60 1 0 0 0 1 0 0 0 1 3024.dat
1 71 20 -664 260 1 0 0 0 1 0 0 0 1 3024.dat
1 71 20 -664 -80 1 0 0 0 1 0 0 0 1 3024.dat
1 71 20 -664 -190 0 0 1 0 1 0 -1 0 0 2431.dat
1 71 20 -664 -320 1 0 0 0 1 0 0 0 1 3024.dat
1 71 0 -664 -100 1 0 0 0 1 0 0 0 1 3024.dat
1 71 0 -664 -370 0 0 1 0 1 0 -1 0 0 3023.dat
1 71 -20 -664 100 1 0 0 0 1 0 0 0 1 3024.dat
1 71 -20 -664 -60 1 0 0 0 1 0 0 0 1 3024.dat
1 71 -20 -664 -380 1 0 0 0 1 0 0 0 1 3024.dat
1 71 -40 -664 -120 1 0 0 0 1 0 0 0 1 3070b.dat
1 71 -60 -664 -40 1 0 0 0 1 0 0 0 1 3070b.dat
0 STEP
1 71 -20 -672 -390 1 0 0 0 1 0 0 0 1 3021.dat
1 71 -40 -672 -360 1 0 0 0 1 0 0 0 1 3024.dat
1 71 -20 -672 -50 0 0 1 0 1 0 -1 0 0 3023.dat
1 71 -20 -672 100 1 0 0 0 1 0 0 0 1 3024.dat
1 71 0 -672 -360 1 0 0 0 1 0 0 0 1 3024.dat
1 71 0 -672 -90 0 0 1 0 1 0 -1 0 0 3023.dat
1 71 0 -672 210 0 0 1 0 1 0 -1 0 0 3023.dat
1 71 20 -672 -320 1 0 0 0 1 0 0 0 1 3070b.dat
1 71 20 -672 -80 1 0 0 0 1 0 0 0 1 3024.dat
1 71 20 -672 260 1 0 0 0 1 0 0 0 1 3024.dat
1 71 40 -672 -60 1 0 0 0 1 0 0 0 1 3024.dat
1 71 40 -672 280 1 0 0 0 1 0 0 0 1 3024.dat
1 71 80 -672 280 1 0 0 0 1 0 0 0 1 3024.dat
1 71 140 -672 -40 1 0 0 0 1 0 0 0 1 3024.dat
0 STEP
1 71 -20 -696 -390 1 0 0 0 1 0 0 0 1 3002.dat
1 71 -20 -696 -360 1 0 0 0 1 0 0 0 1 3622.dat
1 71 -40 -696 50 0 0 1 0 1 0 -1 0 0 3008.dat
1 71 -10 -696 -340 1 0 0 0 1 0 0 0 1 3004.dat
1 71 -20 -696 -30 0 0 1 0 1 0 -1 0 0 3004.dat
1 71 -20 -696 120 0 0 1 0 1 0 -1 0 0 3622.dat
1 71 50 -696 -60 1 0 0 0 1 0 0 0 1 3009.dat
1 71 0 -696 190 0 0 1 0 1 0 -1 0 0 3009.dat
1 71 20 -696 230 0 0 1 0 1 0 -1 0 0 3009.dat
1 71 70 -696 -40 1 0 0 0 1 0 0 0 1 3010.dat
1 71 60 -696 280 1 0 0 0 1 0 0 0 1 3622.dat
1 71 60 -696 300 1 0 0 0 1 0 0 0 1 3005.dat
1 71 90 -696 230 1 0 0 0 1 0 0 0 1 3003.dat
1 71 80 -696 260 1 0 0 0 1 0 0 0 1 3005.dat
1 71 110 -696 190 1 0 0 0 1 0 0 0 1 3003.dat
1 71 120 -696 -50 0 0 1 0 1 0 -1 0 0 3004.dat
1 71 130 -696 160 1 0 0 0 1 0 0 0 1 3004.dat
1 71 140 -696 -20 1 0 0 0 1 0 0 0 1 3005.dat
1 71 150 -696 120 0 0 1 0 1 0 -1 0 0 3002.dat
1 71 160 -696 30 0 0 1 0 1 0 -1 0 0 3010.dat
1 71 170 -696 80 1 0 0 0 1 0 0 0 1 3004.dat
1 71 180 -696 40 0 0 1 0 1 0 -1 0 0 3622.dat
1 71 180 -680 0 1 0 0 0 1 0 0 0 1 3070b.dat
1 71 160 -680 -30 0 0 1 0 1 0 -1 0 0 3023.dat
1 71 140 -680 -50 0 0 1 0 1 0 -1 0 0 3023.dat
1 71 50 -680 260 1 0 0 0 1 0 0 0 1 3023.dat
1 71 -10 -680 -80 1 0 0 0 1 0 0 0 1 2431.dat
1 71 -10 -680 -300 0 0 1 0 1 0 -1 0 0 3021.dat
1 71 -30 -680 -60 1 0 0 0 1 0 0 0 1 3023.dat
1 71 -20 -680 160 1 0 0 0 1 0 0 0 1 3070b.dat
1 71 -40 -680 -340 1 0 0 0 1 0 0 0 1 3070b.dat
1 71 -40 -680 -40 1 0 0 0 1 0 0 0 1 3070b.dat
1 71 -60 -680 30 0 0 1 0 1 0 -1 0 0 3710.dat
1 71 -60 -680 80 1 0 0 0 1 0 0 0 1 3070b.dat
0 STEP
1 71 -60 -688 40 0 0 1 0 1 0 -1 0 0 63864.dat
1 71 -20 -688 80 1 0 0 0 1 0 0 0 1 3024.dat
1 71 -20 -688 0 1 0 0 0 1 0 0 0 1 3024.dat
1 71 -20 -688 -60 1 0 0 0 1 0 0 0 1 3070b.dat
1 71 -10 -688 -320 1 0 0 0 1 0 0 0 1 3069b.dat
1 71 10 -688 -40 1 0 0 0 1 0 0 0 1 3023.dat
1 71 20 -688 160 1 0 0 0 1 0 0 0 1 3024.dat
1 71 20 -688 -380 1 0 0 0 1 0 0 0 1 3024.dat
1 71 40 -688 300 1 0 0 0 1 0 0 0 1 3024.dat
1 71 40 -688 260 1 0 0 0 1 0 0 0 1 3070b.dat
1 71 80 -688 300 1 0 0 0 1 0 0 0 1 3024.dat
1 71 100 -688 260 1 0 0 0 1 0 0 0 1 3024.dat
1 71 140 -688 0 1 0 0 0 1 0 0 0 1 3024.dat
1 71 140 -688 -40 1 0 0 0 1 0 0 0 1 3070b.dat
1 71 160 -688 -20 1 0 0 0 1 0 0 0 1 3070b.dat
0 STEP
1 71 140 -696 0 1 0 0 0 1 0 0 0 1 3024.dat
1 71 120 -696 -20 1 0 0 0 1 0 0 0 1 3024.dat
1 71 100 -696 260 1 0 0 0 1 0 0 0 1 3024.dat
1 71 80 -696 300 1 0 0 0 1 0 0 0 1 3024.dat
1 71 30 -696 300 1 0 0 0 1 0 0 0 1 3023.dat
1 71 20 -696 160 1 0 0 0 1 0 0 0 1 3024.dat
1 71 10 -696 -40 1 0 0 0 1 0 0 0 1 3023.dat
1 71 20 -696 -380 1 0 0 0 1 0 0 0 1 3070b.dat
1 71 0 -696 260 1 0 0 0 1 0 0 0 1 3024.dat
1 71 -20 -696 50 0 0 1 0 1 0 -1 0 0 3710.dat
1 71 -20 -696 0 1 0 0 0 1 0 0 0 1 3024.dat
0 STEP
1 71 150 -720 50 0 0 1 0 1 0 -1 0 0 3001.dat
1 71 150 -720 100 1 0 0 0 1 0 0 0 1 3004.dat
1 71 140 -720 0 1 0 0 0 1 0 0 0 1 3005.dat
1 71 140 -720 130 0 0 1 0 1 0 -1 0 0 3004.dat
1 71 120 -720 160 0 0 1 0 1 0 -1 0 0 3622.dat
1 71 100 -720 210 0 0 1 0 1 0 -1 0 0 3010.dat
1 71 90 -720 260 1 0 0 0 1 0 0 0 1 3004.dat
1 71 80 -720 230 0 0 1 0 1 0 -1 0 0 3004.dat
1 71 70 -720 290 1 0 0 0 1 0 0 0 1 3003.dat
1 71 50 -720 320 1 0 0 0 1 0 0 0 1 3004.dat
1 71 30 -720 300 1 0 0 0 1 0 0 0 1 3004.dat
1 71 10 -720 230 0 0 1 0 1 0 -1 0 0 2456.dat
1 71 -20 -720 -390 1 0 0 0 1 0 0 0 1 3002.dat
1 71 -10 -720 130 1 0 0 0 1 0 0 0 1 3003.dat
1 71 0 -720 160 1 0 0 0 1 0 0 0 1 3005.dat
1 71 -20 -720 50 0 0 1 0 1 0 -1 0 0 3009.dat
1 71 -40 -720 50 0 0 1 0 1 0 -1 0 0 3004.dat
1 71 -20 -704 -360 1 0 0 0 1 0 0 0 1 3623.dat
1 71 -40 -704 10 0 0 1 0 1 0 -1 0 0 3023.dat
1 71 -40 -704 90 0 0 1 0 1 0 -1 0 0 3023.dat
1 71 50 -704 -30 1 0 0 0 1 0 0 0 1 3034.dat
1 71 20 -704 160 1 0 0 0 1 0 0 0 1 3024.dat
1 71 80 -704 200 1 0 0 0 1 0 0 0 1 3070b.dat
1 71 140 -704 -20 1 0 0 0 1 0 0 0 1 3070b.dat
1 71 140 -704 160 1 0 0 0 1 0 0 0 1 3070b.dat
1 71 160 -704 0 1 0 0 0 1 0 0 0 1 3070b.dat
1 71 160 -704 120 1 0 0 0 1 0 0 0 1 3024.dat
0 STEP
1 71 160 -712 120 1 0 0 0 1 0 0 0 1 3070b.dat
1 71 70 -712 -10 1 0 0 0 1 0 0 0 1 3795.dat
1 71 120 -712 200 1 0 0 0 1 0 0 0 1 3024.dat
1 71 100 -712 -40 1 0 0 0 1 0 0 0 1 3070b.dat
1 71 100 -712 160 1 0 0 0 1 0 0 0 1 3024.dat
1 71 20 -712 160 1 0 0 0 1 0 0 0 1 3070b.dat
1 71 20 -712 320 1 0 0 0 1 0 0 0 1 3024.dat
1 71 -20 -712 -360 1 0 0 0 1 0 0 0 1 63864.dat
1 71 0 -712 -10 0 0 1 0 1 0 -1 0 0 3023.dat
1 71 -20 -712 -20 1 0 0 0 1 0 0 0 1 3070b.dat
1 71 -40 -712 10 0 0 1 0 1 0 -1 0 0 3069b.dat
1 71 -40 -712 90 0 0 1 0 1 0 -1 0 0 3069b.dat
0 STEP
1 71 -20 -720 160 1 0 0 0 1 0 0 0 1 3024.dat
1 71 0 -720 300 1 0 0 0 1 0 0 0 1 3024.dat
1 71 0 -720 90 0 0 1 0 1 0 -1 0 0 3023.dat
1 71 0 -720 20 0 0 1 0 1 0 -1 0 0 3623.dat
1 71 20 -720 320 1 0 0 0 1 0 0 0 1 3024.dat
1 71 70 -720 10 1 0 0 0 1 0 0 0 1 3795.dat
1 71 50 -720 40 1 0 0 0 1 0 0 0 1 3023.dat
1 71 100 -720 160 1 0 0 0 1 0 0 0 1 3024.dat
1 71 120 -720 200 1 0 0 0 1 0 0 0 1 3024.dat
1 71 120 -720 120 1 0 0 0 1 0 0 0 1 3024.dat
0 STEP
1 71 -10 -744 180 1 0 0 0 1 0 0 0 1 3004.dat
1 71 0 -744 250 0 0 1 0 1 0 -1 0 0 3009.dat
1 71 0 -744 140 0 0 1 0 1 0 -1 0 0 3622.dat
1 71 50 -744 320 1 0 0 0 1 0 0 0 1 3010.dat
1 71 20 -744 120 0 0 1 0 1 0 -1 0 0 3622.dat
1 71 40 -744 340 1 0 0 0 1 0 0 0 1 3005.dat
1 71 70 -744 290 1 0 0 0 1 0 0 0 1 3003.dat
1 71 90 -744 240 0 0 1 0 1 0 -1 0 0 3002.dat
1 71 100 -744 170 0 0 1 0 1 0 -1 0 0 3010.dat
1 71 120 -744 150 0 0 1 0 1 0 -1 0 0 3010.dat
1 71 120 -744 100 1 0 0 0 1 0 0 0 1 3005.dat
1 71 140 -728 70 0 0 1 0 1 0 -1 0 0 3666.dat
1 71 120 -728 200 1 0 0 0 1 0 0 0 1 3024.dat
1 71 120 -728 50 0 0 1 0 1 0 -1 0 0 3710.dat
1 71 50 -728 50 1 0 0 0 1 0 0 0 1 3795.dat
1 71 50 -728 20 1 0 0 0 1 0 0 0 1 3666.dat
1 71 20 -728 250 0 0 1 0 1 0 -1 0 0 3666.dat
1 71 0 -728 90 0 0 1 0 1 0 -1 0 0 3023.dat
1 71 -10 -728 -400 1 0 0 0 1 0 0 0 1 3069b.dat
1 71 -20 -728 160 1 0 0 0 1 0 0 0 1 3024.dat
1 71 -20 -728 50 0 0 1 0 1 0 -1 0 0 2431.dat
1 71 -20 -728 -380 1 0 0 0 1 0 0 0 1 3070b.dat
0 STEP
1 71 -20 -736 160 1 0 0 0 1 0 0 0 1 3070b.dat
1 71 -20 -736 200 1 0 0 0 1 0 0 0 1 3024.dat
1 71 -20 -736 270 0 0 1 0 1 0 -1 0 0 3023.dat
1 71 70 -736 70 1 0 0 0 1 0 0 0 1 3034.dat
1 71 0 -736 100 1 0 0 0 1 0 0 0 1 3070b.dat
1 71 0 -736 320 1 0 0 0 1 0 0 0 1 3024.dat
1 71 20 -736 40 1 0 0 0 1 0 0 0 1 3070b.dat
1 71 20 -736 230 0 0 1 0 1 0 -1 0 0 3069b.dat
1 71 20 -736 300 1 0 0 0 1 0 0 0 1 3070b.dat
1 71 20 -736 340 1 0 0 0 1 0 0 0 1 3024.dat
1 71 60 -736 340 1 0 0 0 1 0 0 0 1 3024.dat
1 71 100 -736 40 1 0 0 0 1 0 0 0 1 63864.dat
1 71 100 -736 110 0 0 1 0 1 0 -1 0 0 3023.dat
1 71 120 -736 200 1 0 0 0 1 0 0 0 1 3070b.dat
0 STEP
1 71 70 -744 90 1 0 0 0 1 0 0 0 1 3020.dat
1 71 100 -744 120 1 0 0 0 1 0 0 0 1 3024.dat
1 71 80 -744 200 1 0 0 0 1 0 0 0 1 3024.dat
1 71 60 -744 340 1 0 0 0 1 0 0 0 1 3024.dat
1 71 20 -744 80 1 0 0 0 1 0 0 0 1 3070b.dat
1 71 20 -744 160 1 0 0 0 1 0 0 0 1 3024.dat
1 71 20 -744 340 1 0 0 0 1 0 0 0 1 3024.dat
1 71 0 -744 320 1 0 0 0 1 0 0 0 1 3024.dat
1 71 -20 -744 250 0 0 1 0 1 0 -1 0 0 3666.dat
0 STEP
1 71 90 -768 210 0 0 1 0 1 0 -1 0 0 3001.dat
1 71 90 -768 160 1 0 0 0 1 0 0 0 1 3004.dat
1 71 70 -768 300 0 0 1 0 1 0 -1 0 0 3002.dat
1 71 80 -768 260 1 0 0 0 1 0 0 0 1 3005.dat
1 71 80 -768 140 1 0 0 0 1 0 0 0 1 3005.dat
1 71 30 -768 340 1 0 0 0 1 0 0 0 1 3010.dat
1 71 60 -768 120 1 0 0 0 1 0 0 0 1 3005.dat
1 71 10 -768 150 1 0 0 0 1 0 0 0 1 3003.dat
1 71 20 -768 120 1 0 0 0 1 0 0 0 1 3005.dat
1 71 -10 -768 320 1 0 0 0 1 0 0 0 1 3004.dat
1 71 -10 -768 230 0 0 1 0 1 0 -1 0 0 3001.dat
1 71 0 -768 180 1 0 0 0 1 0 0 0 1 3005.dat
1 71 -20 -768 290 0 0 1 0 1 0 -1 0 0 3004.dat
1 71 -20 -752 180 1 0 0 0 1 0 0 0 1 3024.dat
1 71 0 -752 290 0 0 1 0 1 0 -1 0 0 3023.dat
1 71 0 -752 120 1 0 0 0 1 0 0 0 1 3070b.dat
1 71 30 -752 320 1 0 0 0 1 0 0 0 1 3023.dat
1 71 50 -752 100 1 0 0 0 1 0 0 0 1 3710.dat
1 71 40 -752 80 1 0 0 0 1 0 0 0 1 3070b.dat
1 71 90 -752 120 1 0 0 0 1 0 0 0 1 3023.dat
1 71 100 -752 260 1 0 0 0 1 0 0 0 1 3070b.dat
1 71 100 -752 140 1 0 0 0 1 0 0 0 1 3024.dat
1 71 100 -752 100 1 0 0 0 1 0 0 0 1 3070b.dat
0 STEP
1 71 100 -760 130 0 0 1 0 1 0 -1 0 0 3069b.dat
1 71 80 -760 120 1 0 0 0 1 0 0 0 1 3070b.dat
1 71 60 -760 260 1 0 0 0 1 0 0 0 1 3024.dat
1 71 40 -760 100 1 0 0 0 1 0 0 0 1 63864.dat
1 71 40 -760 360 1 0 0 0 1 0 0 0 1 3024.dat
1 71 40 -760 120 1 0 0 0 1 0 0 0 1 3024.dat
1 71 20 -760 320 1 0 0 0 1 0 0 0 1 3070b.dat
1 71 0 -760 290 0 0 1 0 1 0 -1 0 0 3069b.dat
1 71 -20 -760 180 1 0 0 0 1 0 0 0 1 3070b.dat
0 STEP
1 71 -40 -768 290 0 0 1 0 1 0 -1 0 0 3023.dat
1 71 -20 -768 340 1 0 0 0 1 0 0 0 1 3024.dat
1 71 20 -768 180 1 0 0 0 1 0 0 0 1 3024.dat
1 71 30 -768 360 1 0 0 0 1 0 0 0 1 3023.dat
1 71 40 -768 130 0 0 1 0 1 0 -1 0 0 3023.dat
1 71 60 -768 140 1 0 0 0 1 0 0 0 1 3024.dat
1 71 60 -768 260 1 0 0 0 1 0 0 0 1 3024.dat
0 STEP
1 71 -30 -792 300 0 0 1 0 1 0 -1 0 0 3002.dat
1 71 -10 -792 220 0 0 1 0 1 0 -1 0 0 3002.dat
1 71 -20 -792 260 1 0 0 0 1 0 0 0 1 3005.dat
1 71 10 -792 340 1 0 0 0 1 0 0 0 1 3010.dat
1 71 10 -792 170 1 0 0 0 1 0 0 0 1 3003.dat
1 71 20 -792 360 1 0 0 0 1 0 0 0 1 3622.dat
1 71 50 -792 160 1 0 0 0 1 0 0 0 1 3004.dat
1 71 50 -792 320 1 0 0 0 1 0 0 0 1 3004.dat
1 71 70 -792 280 0 0 1 0 1 0 -1 0 0 3002.dat
1 71 60 -792 340 1 0 0 0 1 0 0 0 1 3005.dat
1 71 80 -792 210 0 0 1 0 1 0 -1 0 0 3010.dat
1 71 100 -776 210 0 0 1 0 1 0 -1 0 0 3710.dat
1 71 80 -776 160 1 0 0 0 1 0 0 0 1 3024.dat
1 71 30 -776 140 1 0 0 0 1 0 0 0 1 3710.dat
1 71 0 -776 260 1 0 0 0 1 0 0 0 1 3024.dat
0 STEP
1 71 -40 -784 340 1 0 0 0 1 0 0 0 1 3024.dat
1 71 -20 -784 360 1 0 0 0 1 0 0 0 1 3024.dat
1 71 0 -784 260 1 0 0 0 1 0 0 0 1 3070b.dat
1 71 40 -784 140 1 0 0 0 1 0 0 0 1 63864.dat
1 71 60 -784 240 1 0 0 0 1 0 0 0 1 3024.dat
1 71 60 -784 180 1 0 0 0 1 0 0 0 1 3024.dat
1 71 80 -784 160 1 0 0 0 1 0 0 0 1 3070b.dat
1 71 100 -784 210 0 0 1 0 1 0 -1 0 0 3069b.dat
0 STEP
1 71 60 -792 210 0 0 1 0 1 0 -1 0 0 3710.dat
1 71 40 -792 180 1 0 0 0 1 0 0 0 1 3024.dat
1 71 -30 -792 360 1 0 0 0 1 0 0 0 1 3023.dat
1 71 -40 -792 340 1 0 0 0 1 0 0 0 1 3024.dat
1 71 -40 -792 260 1 0 0 0 1 0 0 0 1 3024.dat
0 STEP
1 71 60 -816 270 0 0 1 0 1 0 -1 0 0 3009.dat
1 71 40 -816 200 1 0 0 0 1 0 0 0 1 3005.dat
1 71 40 -816 340 0 0 1 0 1 0 -1 0 0 3622.dat
1 71 20 -816 350 0 0 1 0 1 0 -1 0 0 3004.dat
1 71 -10 -816 200 1 0 0 0 1 0 0 0 1 3004.dat
1 71 -20 -816 360 1 0 0 0 1 0 0 0 1 3622.dat
1 71 -20 -816 220 1 0 0 0 1 0 0 0 1 3005.dat
1 71 -40 -816 340 1 0 0 0 1 0 0 0 1 3622.dat
1 71 -50 -816 310 1 0 0 0 1 0 0 0 1 3003.dat
1 71 -30 -800 270 1 0 0 0 1 0 0 0 1 3022.dat
1 71 -10 -800 240 1 0 0 0 1 0 0 0 1 3023.dat
1 71 30 -800 180 1 0 0 0 1 0 0 0 1 3710.dat
1 71 0 -800 220 1 0 0 0 1 0 0 0 1 3070b.dat
1 71 0 -800 340 1 0 0 0 1 0 0 0 1 3024.dat
1 71 20 -800 160 1 0 0 0 1 0 0 0 1 3070b.dat
1 71 70 -800 200 1 0 0 0 1 0 0 0 1 3023.dat
1 71 60 -800 340 1 0 0 0 1 0 0 0 1 3024.dat
1 71 80 -800 250 0 0 1 0 1 0 -1 0 0 3710.dat
1 71 80 -800 300 1 0 0 0 1 0 0 0 1 3070b.dat
0 STEP
1 71 80 -808 280 1 0 0 0 1 0 0 0 1 3070b.dat
1 71 60 -808 200 1 0 0 0 1 0 0 0 1 3070b.dat
1 71 60 -808 340 1 0 0 0 1 0 0 0 1 3070b.dat
1 71 20 -808 180 1 0 0 0 1 0 0 0 1 63864.dat
1 71 40 -808 240 0 0 1 0 1 0 -1 0 0 3623.dat
1 71 40 -808 300 1 0 0 0 1 0 0 0 1 3024.dat
1 71 20 -808 200 1 0 0 0 1 0 0 0 1 3024.dat
1 71 0 -808 340 1 0 0 0 1 0 0 0 1 3070b.dat
1 71 -30 -808 240 1 0 0 0 1 0 0 0 1 3023.dat
1 71 -40 -808 220 1 0 0 0 1 0 0 0 1 3024.dat
1 71 -50 -808 270 1 0 0 0 1 0 0 0 1 3022.dat
1 71 -60 -808 360 1 0 0 0 1 0 0 0 1 3024.dat
0 STEP
1 71 -70 -816 250 0 0 1 0 1 0 -1 0 0 3020.dat
1 71 -60 -816 360 1 0 0 0 1 0 0 0 1 3024.dat
1 71 -40 -816 230 0 0 1 0 1 0 -1 0 0 3023.dat
1 71 0 -816 380 1 0 0 0 1 0 0 0 1 3024.dat
1 71 20 -816 220 1 0 0 0 1 0 0 0 1 3623.dat
1 71 20 -816 200 1 0 0 0 1 0 0 0 1 3024.dat
1 71 40 -816 270 0 0 1 0 1 0 -1 0 0 3710.dat
0 STEP
1 71 -100 -840 250 0 0 1 0 1 0 -1 0 0 3010.dat
1 71 -30 -840 360 1 0 0 0 1 0 0 0 1 3009.dat
1 71 -30 -840 220 1 0 0 0 1 0 0 0 1 3009.dat
1 71 -30 -840 200 1 0 0 0 1 0 0 0 1 3004.dat
1 71 -10 -840 380 1 0 0 0 1 0 0 0 1 3004.dat
1 71 30 -840 340 1 0 0 0 1 0 0 0 1 3004.dat
1 71 20 -840 240 1 0 0 0 1 0 0 0 1 3005.dat
1 71 40 -840 290 0 0 1 0 1 0 -1 0 0 3010.dat
1 71 60 -824 290 0 0 1 0 1 0 -1 0 0 3710.dat
1 71 40 -824 230 0 0 1 0 1 0 -1 0 0 3023.dat
1 71 10 -824 200 1 0 0 0 1 0 0 0 1 3023.dat
1 71 -60 -824 340 1 0 0 0 1 0 0 0 1 3623.dat
1 71 -70 -824 310 1 0 0 0 1 0 0 0 1 3022.dat
1 71 -70 -824 240 1 0 0 0 1 0 0 0 1 3069b.dat
1 71 -80 -824 270 0 0 1 0 1 0 -1 0 0 3069b.dat
0 STEP
1 71 -120 -832 260 0 0 1 0 1 0 -1 0 0 3623.dat
1 71 -90 -832 320 0 0 1 0 1 0 -1 0 0 3021.dat
1 71 -100 -832 370 0 0 1 0 1 0 -1 0 0 3023.dat
1 71 -70 -832 200 1 0 0 0 1 0 0 0 1 3023.dat
1 71 -80 -832 380 1 0 0 0 1 0 0 0 1 3024.dat
1 71 -60 -832 340 1 0 0 0 1 0 0 0 1 3070b.dat
1 71 -40 -832 380 1 0 0 0 1 0 0 0 1 3024.dat
1 71 0 -832 200 1 0 0 0 1 0 0 0 1 3070b.dat
1 71 20 -832 260 1 0 0 0 1 0 0 0 1 3024.dat
1 71 20 -832 320 1 0 0 0 1 0 0 0 1 3024.dat
1 71 40 -832 240 1 0 0 0 1 0 0 0 1 3070b.dat
1 71 60 -832 290 0 0 1 0 1 0 -1 0 0 3069b.dat
0 STEP
1 71 20 -840 290 0 0 1 0 1 0 -1 0 0 3710.dat
1 71 0 -840 240 1 0 0 0 1 0 0 0 1 3024.dat
1 71 -70 -840 380 1 0 0 0 1 0 0 0 1 3710.dat
1 71 -70 -840 200 1 0 0 0 1 0 0 0 1 3023.dat
1 71 -110 -840 320 0 0 1 0 1 0 -1 0 0 3021.dat
1 71 -100 -840 360 1 0 0 0 1 0 0 0 1 3024.dat
1 71 -100 -840 400 1 0 0 0 1 0 0 0 1 3024.dat
1 71 -120 -840 250 0 0 1 0 1 0 -1 0 0 3710.dat
1 71 -140 -840 310 0 0 1 0 1 0 -1 0 0 3023.dat
0 STEP
1 71 20 -864 310 0 0 1 0 1 0 -1 0 0 3010.dat
1 71 -50 -864 360 1 0 0 0 1 0 0 0 1 3009.dat
1 71 0 -864 340 1 0 0 0 1 0 0 0 1 3005.dat
1 71 0 -864 250 0 0 1 0 1 0 -1 0 0 3004.dat
1 71 -50 -864 380 1 0 0 0 1 0 0 0 1 3010.dat
1 71 -70 -864 220 1 0 0 0 1 0 0 0 1 3009.dat
1 71 -70 -864 200 1 0 0 0 1 0 0 0 1 3010.dat
1 71 -100 -864 380 1 0 0 0 1 0 0 0 1 3005.dat
1 71 -110 -864 340 1 0 0 0 1 0 0 0 1 3004.dat
1 71 -130 -864 290 0 0 1 0 1 0 -1 0 0 3001.dat
1 71 -130 -864 240 1 0 0 0 1 0 0 0 1 3004.dat
1 71 -90 -848 400 1 0 0 0 1 0 0 0 1 3023.dat
1 71 -20 -848 200 1 0 0 0 1 0 0 0 1 3070b.dat
1 71 0 -848 220 1 0 0 0 1 0 0 0 1 3024.dat
1 71 20 -848 360 1 0 0 0 1 0 0 0 1 3070b.dat
1 71 20 -848 250 0 0 1 0 1 0 -1 0 0 3023.dat
1 71 40 -848 310 0 0 1 0 1 0 -1 0 0 3710.dat
0 STEP
1 71 40 -856 310 0 0 1 0 1 0 -1 0 0 3069b.dat
1 71 20 -856 260 1 0 0 0 1 0 0 0 1 3070b.dat
1 71 0 -856 280 1 0 0 0 1 0 0 0 1 3024.dat
1 71 0 -856 220 1 0 0 0 1 0 0 0 1 3070b.dat
1 71 -20 -856 240 1 0 0 0 1 0 0 0 1 3024.dat
1 71 -90 -856 400 1 0 0 0 1 0 0 0 1 3069b.dat
1 71 -140 -856 220 1 0 0 0 1 0 0 0 1 3024.dat
0 STEP
1 71 -140 -864 220 1 0 0 0 1 0 0 0 1 3024.dat
1 71 -20 -864 250 0 0 1 0 1 0 -1 0 0 3023.dat
1 71 0 -864 300 0 0 1 0 1 0 -1 0 0 3623.dat
0 STEP
1 71 -150 -888 250 0 0 1 0 1 0 -1 0 0 3001.dat
1 71 -140 -888 310 0 0 1 0 1 0 -1 0 0 3004.dat
1 71 -90 -888 210 1 0 0 0 1 0 0 0 1 3001.dat
1 71 -120 -888 330 0 0 1 0 1 0 -1 0 0 3004.dat
1 71 -100 -888 350 0 0 1 0 1 0 -1 0 0 3004.dat
1 71 -70 -888 370 1 0 0 0 1 0 0 0 1 3003.dat
1 71 -40 -888 210 0 0 1 0 1 0 -1 0 0 3004.dat
1 71 -30 -888 360 1 0 0 0 1 0 0 0 1 3004.dat
1 71 -20 -888 250 0 0 1 0 1 0 -1 0 0 3010.dat
1 71 -20 -888 340 1 0 0 0 1 0 0 0 1 3005.dat
1 71 0 -888 290 0 0 1 0 1 0 -1 0 0 3010.dat
1 71 20 -872 310 0 0 1 0 1 0 -1 0 0 3069b.dat
1 71 0 -872 240 1 0 0 0 1 0 0 0 1 3070b.dat
1 71 0 -872 350 0 0 1 0 1 0 -1 0 0 3023.dat
1 71 -30 -872 380 1 0 0 0 1 0 0 0 1 3023.dat
1 71 -120 -872 300 1 0 0 0 1 0 0 0 1 3070b.dat
0 STEP
1 71 -160 -880 300 1 0 0 0 1 0 0 0 1 3024.dat
1 71 -140 -880 200 1 0 0 0 1 0 0 0 1 3024.dat
1 71 -40 -880 380 1 0 0 0 1 0 0 0 1 3070b.dat
1 71 -40 -880 240 1 0 0 0 1 0 0 0 1 3024.dat
1 71 -20 -880 310 0 0 1 0 1 0 -1 0 0 3023.dat
1 71 0 -880 340 1 0 0 0 1 0 0 0 1 3070b.dat
0 STEP
1 71 -20 -888 310 0 0 1 0 1 0 -1 0 0 3023.dat
1 71 -40 -888 340 1 0 0 0 1 0 0 0 1 3024.dat
1 71 -40 -888 240 1 0 0 0 1 0 0 0 1 3024.dat
1 71 -150 -888 200 1 0 0 0 1 0 0 0 1 3023.dat
1 71 -160 -888 300 1 0 0 0 1 0 0 0 1 3024.dat
0 STEP
1 71 -30 -912 290 0 0 1 0 1 0 -1 0 0 3007.dat
1 71 -90 -912 220 1 0 0 0 1 0 0 0 1 3010.dat
1 71 -60 -912 370 0 0 1 0 1 0 -1 0 0 3004.dat
1 71 -130 -912 200 1 0 0 0 1 0 0 0 1 3009.dat
1 71 -80 -912 350 0 0 1 0 1 0 -1 0 0 3004.dat
1 71 -100 -912 340 1 0 0 0 1 0 0 0 1 3005.dat
1 71 -130 -912 320 1 0 0 0 1 0 0 0 1 3004.dat
1 71 -140 -912 220 1 0 0 0 1 0 0 0 1 3005.dat
1 71 -150 -912 290 1 0 0 0 1 0 0 0 1 3003.dat
1 71 -170 -912 260 1 0 0 0 1 0 0 0 1 3004.dat
1 71 -180 -912 230 0 0 1 0 1 0 -1 0 0 3004.dat
1 71 -160 -896 230 0 0 1 0 1 0 -1 0 0 3023.dat
1 71 -120 -896 340 1 0 0 0 1 0 0 0 1 3070b.dat
1 71 -100 -896 360 1 0 0 0 1 0 0 0 1 3070b.dat
1 71 -60 -896 200 1 0 0 0 1 0 0 0 1 3024.dat
0 STEP
1 71 -40 -904 380 1 0 0 0 1 0 0 0 1 3024.dat
1 71 -60 -904 200 1 0 0 0 1 0 0 0 1 3070b.dat
1 71 -100 -904 320 1 0 0 0 1 0 0 0 1 3024.dat
1 71 -120 -904 300 1 0 0 0 1 0 0 0 1 3024.dat
1 71 -160 -904 230 0 0 1 0 1 0 -1 0 0 3069b.dat
0 STEP
1 71 -200 -912 210 0 0 1 0 1 0 -1 0 0 3710.dat
1 71 -170 -912 180 1 0 0 0 1 0 0 0 1 3023.dat
1 71 -120 -912 300 1 0 0 0 1 0 0 0 1 3024.dat
1 71 -100 -912 320 1 0 0 0 1 0 0 0 1 3024.dat
1 71 -60 -912 400 1 0 0 0 1 0 0 0 1 3024.dat
1 71 -60 -912 240 1 0 0 0 1 0 0 0 1 3024.dat
1 71 -40 -912 380 1 0 0 0 1 0 0 0 1 3024.dat
0 STEP
1 71 -190 -936 190 1 0 0 0 1 0 0 0 1 3001.dat
1 71 -190 -936 240 1 0 0 0 1 0 0 0 1 3004.dat
1 71 -200 -936 220 1 0 0 0 1 0 0 0 1 3005.dat
1 71 -170 -936 260 1 0 0 0 1 0 0 0 1 3004.dat
1 71 -150 -936 280 1 0 0 0 1 0 0 0 1 3004.dat
1 71 -130 -936 300 1 0 0 0 1 0 0 0 1 3004.dat
1 71 -130 -936 210 1 0 0 0 1 0 0 0 1 3003.dat
1 71 -100 -936 320 1 0 0 0 1 0 0 0 1 3005.dat
1 71 -90 -936 220 1 0 0 0 1 0 0 0 1 3004.dat
1 71 -70 -936 240 1 0 0 0 1 0 0 0 1 3004.dat
1 71 -60 -936 290 0 0 1 0 1 0 -1 0 0 3010.dat
1 71 -40 -936 380 0 0 1 0 1 0 -1 0 0 3622.dat
1 71 -40 -936 260 1 0 0 0 1 0 0 0 1 3005.dat
1 71 -20 -920 360 0 0 1 0 1 0 -1 0 0 3623.dat
1 71 -40 -920 310 0 0 1 0 1 0 -1 0 0 3710.dat
1 71 -40 -920 230 0 0 1 0 1 0 -1 0 0 3023.dat
1 71 -60 -920 380 0 0 1 0 1 0 -1 0 0 3623.dat
1 71 -60 -920 220 1 0 0 0 1 0 0 0 1 3024.dat
1 71 -80 -920 350 0 0 1 0 1 0 -1 0 0 3023.dat
1 71 -100 -920 340 1 0 0 0 1 0 0 0 1 3024.dat
1 71 -100 -920 200 1 0 0 0 1 0 0 0 1 3024.dat
1 71 -120 -920 320 1 0 0 0 1 0 0 0 1 3024.dat
1 71 -180 -920 220 1 0 0 0 1 0 0 0 1 3070b.dat
0 STEP
1 71 -220 -928 220 1 0 0 0 1 0 0 0 1 3024.dat
1 71 -120 -928 320 1 0 0 0 1 0 0 0 1 3070b.dat
1 71 -100 -928 200 1 0 0 0 1 0 0 0 1 3070b.dat
1 71 -70 -928 340 1 0 0 0 1 0 0 0 1 3710.dat
1 71 -80 -928 320 1 0 0 0 1 0 0 0 1 3024.dat
1 71 -60 -928 220 1 0 0 0 1 0 0 0 1 3070b.dat
1 71 -60 -928 360 1 0 0 0 1 0 0 0 1 3070b.dat
1 71 -60 -928 400 1 0 0 0 1 0 0 0 1 3070b.dat
1 71 -40 -928 240 1 0 0 0 1 0 0 0 1 3070b.dat
1 71 -40 -928 300 0 0 1 0 1 0 -1 0 0 63864.dat
1 71 -20 -928 360 1 0 0 0 1 0 0 0 1 3070b.dat
0 STEP
1 71 -60 -936 340 1 0 0 0 1 0 0 0 1 3070b.dat
1 71 -90 -936 280 0 0 1 0 1 0 -1 0 0 3021.dat
1 71 -80 -936 320 1 0 0 0 1 0 0 0 1 3024.dat
1 71 -110 -936 240 1 0 0 0 1 0 0 0 1 3023.dat
1 71 -120 -936 270 0 0 1 0 1 0 -1 0 0 3023.dat
1 71 -140 -936 260 1 0 0 0 1 0 0 0 1 3024.dat
1 71 -220 -936 220 1 0 0 0 1 0 0 0 1 3024.dat
0 STEP
1 71 -170 -960 200 1 0 0 0 1 0 0 0 1 3010.dat
1 71 -180 -960 180 1 0 0 0 1 0 0 0 1 3622.dat
1 71 -180 -960 240 1 0 0 0 1 0 0 0 1 3005.dat
1 71 -210 -960 220 1 0 0 0 1 0 0 0 1 3004.dat
1 71 -220 -960 200 1 0 0 0 1 0 0 0 1 3005.dat
1 71 -220 -944 180 1 0 0 0 1 0 0 0 1 3024.dat
1 71 -200 -944 240 1 0 0 0 1 0 0 0 1 3024.dat
1 71 -130 -944 260 1 0 0 0 1 0 0 0 1 3666.dat
1 71 -130 -944 240 1 0 0 0 1 0 0 0 1 3710.dat
1 71 -110 -944 280 1 0 0 0 1 0 0 0 1 2431.dat
1 71 -120 -944 220 1 0 0 0 1 0 0 0 1 3623.dat
1 71 -90 -944 300 1 0 0 0 1 0 0 0 1 3710.dat
1 71 -80 -944 320 1 0 0 0 1 0 0 0 1 3623.dat
1 71 -80 -944 240 1 0 0 0 1 0 0 0 1 3070b.dat
1 71 -60 -944 270 0 0 1 0 1 0 -1 0 0 3069b.dat
0 STEP
1 71 -80 -952 310 0 0 1 0 1 0 -1 0 0 3069b.dat
1 71 -100 -952 300 1 0 0 0 1 0 0 0 1 3070b.dat
1 71 -150 -952 230 1 0 0 0 1 0 0 0 1 3022.dat
1 71 -180 -952 220 1 0 0 0 1 0 0 0 1 3024.dat
1 71 -200 -952 240 1 0 0 0 1 0 0 0 1 3070b.dat
1 71 -220 -952 180 1 0 0 0 1 0 0 0 1 3070b.dat
0 STEP
1 71 -170 -960 220 1 0 0 0 1 0 0 0 1 3023.dat
0 STEP
1 71 -180 -968 210 1 0 0 0 1 0 0 0 1 3021.dat
1 71 -190 -968 180 1 0 0 0 1 0 0 0 1 3069b.dat
0 STEP
