0 small cottage house
0 Name: small cottage house.ldr
0 Author: brickify

1 2 210 -8 220 1 0 0 0 1 0 0 0 1 3021.dat
1 2 30 -8 220 1 0 0 0 1 0 0 0 1 3021.dat
1 2 120 -8 220 1 0 0 0 1 0 0 0 1 3795.dat
1 2 40 -8 120 1 0 0 0 1 0 0 0 1 3020.dat
1 2 60 -8 80 1 0 0 0 1 0 0 0 1 3795.dat
1 2 160 -8 120 1 0 0 0 1 0 0 0 1 3034.dat
1 2 180 -8 80 1 0 0 0 1 0 0 0 1 3795.dat
1 2 40 -8 170 1 0 0 0 1 0 0 0 1 3710.dat
1 2 160 -8 170 1 0 0 0 1 0 0 0 1 3460.dat
1 2 60 -8 190 1 0 0 0 1 0 0 0 1 3666.dat
1 2 180 -8 150 1 0 0 0 1 0 0 0 1 3666.dat
1 2 60 -8 150 1 0 0 0 1 0 0 0 1 3666.dat
1 2 180 -8 190 1 0 0 0 1 0 0 0 1 3666.dat
1 2 20 -8 10 1 0 0 0 1 0 0 0 1 3023.dat
1 2 220 -8 10 1 0 0 0 1 0 0 0 1 3023.dat
1 2 120 -8 10 1 0 0 0 1 0 0 0 1 3460.dat
1 2 40 -8 40 1 0 0 0 1 0 0 0 1 3020.dat
1 2 160 -8 40 1 0 0 0 1 0 0 0 1 3034.dat
1 2 10 -8 20 1 0 0 0 1 0 0 0 1 11477.dat
1 2 30 -8 20 1 0 0 0 1 0 0 0 1 11477.dat
1 2 20 -8 230 0 0 1 0 1 0 -1 0 0 11477.dat
1 2 50 -8 20 1 0 0 0 1 0 0 0 1 11477.dat
1 2 70 -8 20 1 0 0 0 1 0 0 0 1 11477.dat
1 2 90 -8 20 1 0 0 0 1 0 0 0 1 11477.dat
1 2 110 -8 20 1 0 0 0 1 0 0 0 1 11477.dat
1 2 130 -8 20 1 0 0 0 1 0 0 0 1 11477.dat
1 2 150 -8 20 1 0 0 0 1 0 0 0 1 11477.dat
1 2 170 -8 20 1 0 0 0 1 0 0 0 1 11477.dat
1 2 190 -8 20 1 0 0 0 1 0 0 0 1 11477.dat
1 2 220 -8 10 0 0 -1 0 1 0 1 0 0 11477.dat
1 2 220 -8 30 0 0 -1 0 1 0 1 0 0 11477.dat
1 2 220 -8 230 0 0 -1 0 1 0 1 0 0 11477.dat
1 4 190 -16 210 1 0 0 0 1 0 0 0 1 3623.dat
1 4 100 -16 210 1 0 0 0 1 0 0 0 1 3666.dat
1 4 30 -16 140 0 0 1 0 1 0 -1 0 0 3460.dat
1 4 40 -16 50 1 0 0 0 1 0 0 0 1 3023.dat
1 15 80 -16 50 1 0 0 0 1 0 0 0 1 3023.dat
1 4 210 -16 100 0 0 1 0 1 0 -1 0 0 3710.dat
1 4 210 -16 170 0 0 1 0 1 0 -1 0 0 3623.dat
1 4 160 -16 50 1 0 0 0 1 0 0 0 1 3666.dat
1 71 70 -16 30 1 0 0 0 1 0 0 0 1 3070b.dat
1 71 90 -16 30 1 0 0 0 1 0 0 0 1 3070b.dat
1 4 50 -24 50 1 0 0 0 1 0 0 0 1 3024.dat
1 4 30 -24 120 0 0 1 0 1 0 -1 0 0 3023.dat
1 4 40 -24 210 1 0 0 0 1 0 0 0 1 3023.dat
1 4 30 -24 70 0 0 1 0 1 0 -1 0 0 3623.dat
1 15 80 -24 50 1 0 0 0 1 0 0 0 1 3023.dat
1 4 30 -24 170 0 0 1 0 1 0 -1 0 0 3623.dat
1 4 210 -24 170 0 0 1 0 1 0 -1 0 0 3623.dat
1 4 210 -24 100 0 0 1 0 1 0 -1 0 0 3710.dat
1 4 160 -24 50 1 0 0 0 1 0 0 0 1 3666.dat
1 4 140 -24 210 1 0 0 0 1 0 0 0 1 3460.dat
1 4 210 -32 140 0 0 1 0 1 0 -1 0 0 3710.dat
1 4 30 -32 120 0 0 1 0 1 0 -1 0 0 3710.dat
1 4 160 -32 50 1 0 0 0 1 0 0 0 1 3710.dat
1 4 100 -32 210 1 0 0 0 1 0 0 0 1 3710.dat
1 2 30 -32 10 1 0 0 0 1 0 0 0 1 3062b.dat
1 2 210 -32 10 1 0 0 0 1 0 0 0 1 3062b.dat
1 15 30 -40 120 0 0 1 0 1 0 -1 0 0 3710.dat
1 15 160 -40 50 1 0 0 0 1 0 0 0 1 3710.dat
1 15 210 -40 140 0 0 1 0 1 0 -1 0 0 3710.dat
1 15 100 -40 210 1 0 0 0 1 0 0 0 1 3710.dat
1 4 30 -48 70 1 0 0 0 1 0 0 0 1 3005.dat
1 4 110 -48 50 1 0 0 0 1 0 0 0 1 3005.dat
1 4 210 -48 190 1 0 0 0 1 0 0 0 1 3005.dat
1 15 30 -48 90 1 0 0 0 1 0 0 0 1 3024.dat
1 15 30 -48 150 1 0 0 0 1 0 0 0 1 3024.dat
1 15 70 -48 210 1 0 0 0 1 0 0 0 1 3024.dat
1 15 130 -48 50 1 0 0 0 1 0 0 0 1 3024.dat
1 15 130 -48 210 1 0 0 0 1 0 0 0 1 3024.dat
1 15 190 -48 50 1 0 0 0 1 0 0 0 1 3024.dat
1 15 210 -48 110 1 0 0 0 1 0 0 0 1 3024.dat
1 15 210 -48 170 1 0 0 0 1 0 0 0 1 3024.dat
1 15 80 -48 50 1 0 0 0 1 0 0 0 1 3004.dat
1 4 40 -48 50 1 0 0 0 1 0 0 0 1 3004.dat
1 4 30 -48 180 0 0 1 0 1 0 -1 0 0 3004.dat
1 4 210 -48 70 0 0 1 0 1 0 -1 0 0 3622.dat
1 4 40 -48 210 1 0 0 0 1 0 0 0 1 3004.dat
1 4 180 -48 210 1 0 0 0 1 0 0 0 1 3010.dat
1 0 30 -48 120 0 0 1 0 1 0 -1 0 0 3023.dat
1 0 160 -48 50 1 0 0 0 1 0 0 0 1 3023.dat
1 0 100 -48 210 1 0 0 0 1 0 0 0 1 3023.dat
1 0 210 -48 140 0 0 1 0 1 0 -1 0 0 3023.dat
1 2 30 -56 10 1 0 0 0 1 0 0 0 1 3062b.dat
1 2 210 -56 10 1 0 0 0 1 0 0 0 1 3062b.dat
1 288 30 -64 10 1 0 0 0 1 0 0 0 1 6141.dat
1 288 210 -64 10 1 0 0 0 1 0 0 0 1 6141.dat
1 4 30 -72 70 1 0 0 0 1 0 0 0 1 3005.dat
1 15 30 -72 90 1 0 0 0 1 0 0 0 1 3005.dat
1 15 30 -72 150 1 0 0 0 1 0 0 0 1 3005.dat
1 4 50 -72 210 1 0 0 0 1 0 0 0 1 3005.dat
1 15 70 -72 50 1 0 0 0 1 0 0 0 1 3005.dat
1 15 70 -72 210 1 0 0 0 1 0 0 0 1 3005.dat
1 4 110 -72 50 1 0 0 0 1 0 0 0 1 3005.dat
1 15 130 -72 50 1 0 0 0 1 0 0 0 1 3005.dat
1 15 130 -72 210 1 0 0 0 1 0 0 0 1 3005.dat
1 15 190 -72 50 1 0 0 0 1 0 0 0 1 3005.dat
1 15 210 -72 110 1 0 0 0 1 0 0 0 1 3005.dat
1 15 210 -72 170 1 0 0 0 1 0 0 0 1 3005.dat
1 4 40 -72 50 1 0 0 0 1 0 0 0 1 3004.dat
1 0 100 -72 210 1 0 0 0 1 0 0 0 1 3004.dat
1 0 160 -72 50 1 0 0 0 1 0 0 0 1 3004.dat
1 4 30 -72 190 0 0 1 0 1 0 -1 0 0 3622.dat
1 0 210 -72 140 0 0 1 0 1 0 -1 0 0 3004.dat
1 0 30 -72 120 0 0 1 0 1 0 -1 0 0 3004.dat
1 4 210 -72 70 0 0 1 0 1 0 -1 0 0 3622.dat
1 4 210 -72 200 0 0 1 0 1 0 -1 0 0 3004.dat
1 4 170 -72 210 1 0 0 0 1 0 0 0 1 3622.dat
1 15 90 -72 50 1 0 0 0 1 0 0 0 1 87087.dat
1 15 30 -96 90 1 0 0 0 1 0 0 0 1 3005.dat
1 15 30 -96 150 1 0 0 0 1 0 0 0 1 3005.dat
1 4 50 -96 50 1 0 0 0 1 0 0 0 1 3005.dat
1 15 70 -96 210 1 0 0 0 1 0 0 0 1 3005.dat
1 4 110 -96 50 1 0 0 0 1 0 0 0 1 3005.dat
1 15 130 -96 50 1 0 0 0 1 0 0 0 1 3005.dat
1 15 130 -96 210 1 0 0 0 1 0 0 0 1 3005.dat
1 15 190 -96 50 1 0 0 0 1 0 0 0 1 3005.dat
1 15 210 -96 110 1 0 0 0 1 0 0 0 1 3005.dat
1 15 210 -96 170 1 0 0 0 1 0 0 0 1 3005.dat
1 0 210 -96 140 0 0 1 0 1 0 -1 0 0 3004.dat
1 4 40 -96 210 1 0 0 0 1 0 0 0 1 3004.dat
1 15 80 -96 50 1 0 0 0 1 0 0 0 1 3004.dat
1 4 30 -96 60 0 0 1 0 1 0 -1 0 0 3004.dat
1 4 30 -96 180 0 0 1 0 1 0 -1 0 0 3004.dat
1 0 100 -96 210 1 0 0 0 1 0 0 0 1 3004.dat
1 4 210 -96 200 0 0 1 0 1 0 -1 0 0 3004.dat
1 0 30 -96 120 0 0 1 0 1 0 -1 0 0 3004.dat
1 4 170 -96 210 1 0 0 0 1 0 0 0 1 3622.dat
1 0 160 -96 50 1 0 0 0 1 0 0 0 1 3004.dat
1 4 210 -96 70 0 0 1 0 1 0 -1 0 0 3622.dat
1 15 160 -104 50 1 0 0 0 1 0 0 0 1 3710.dat
1 15 80 -104 50 1 0 0 0 1 0 0 0 1 3023.dat
1 15 30 -104 120 0 0 1 0 1 0 -1 0 0 3710.dat
1 15 100 -104 210 1 0 0 0 1 0 0 0 1 3710.dat
1 15 210 -104 140 0 0 1 0 1 0 -1 0 0 3710.dat
1 4 80 -112 50 1 0 0 0 1 0 0 0 1 3023.dat
1 4 210 -112 140 0 0 1 0 1 0 -1 0 0 3710.dat
1 4 160 -112 50 1 0 0 0 1 0 0 0 1 3710.dat
1 4 30 -112 120 0 0 1 0 1 0 -1 0 0 3710.dat
1 4 100 -112 210 1 0 0 0 1 0 0 0 1 3710.dat
1 4 30 -120 70 1 0 0 0 1 0 0 0 1 3005.dat
1 4 110 -120 50 1 0 0 0 1 0 0 0 1 3005.dat
1 4 40 -120 50 1 0 0 0 1 0 0 0 1 3004.dat
1 4 210 -120 70 0 0 1 0 1 0 -1 0 0 3622.dat
1 4 210 -120 140 0 0 1 0 1 0 -1 0 0 3710.dat
1 4 40 -120 210 1 0 0 0 1 0 0 0 1 3004.dat
1 4 80 -120 50 1 0 0 0 1 0 0 0 1 3023.dat
1 4 30 -120 180 0 0 1 0 1 0 -1 0 0 3004.dat
1 4 210 -120 200 0 0 1 0 1 0 -1 0 0 3004.dat
1 4 170 -120 210 1 0 0 0 1 0 0 0 1 3622.dat
1 4 30 -120 120 0 0 1 0 1 0 -1 0 0 3710.dat
1 4 100 -120 210 1 0 0 0 1 0 0 0 1 3710.dat
1 4 160 -120 50 1 0 0 0 1 0 0 0 1 3710.dat
1 4 30 -128 60 0 0 1 0 1 0 -1 0 0 3023.dat
1 4 30 -128 180 0 0 1 0 1 0 -1 0 0 3710.dat
1 4 30 -128 110 0 0 1 0 1 0 -1 0 0 3623.dat
1 4 210 -128 190 0 0 1 0 1 0 -1 0 0 3623.dat
1 4 210 -128 100 0 0 1 0 1 0 -1 0 0 3666.dat
1 272 220 -136 130 1 0 0 0 1 0 0 0 1 3023.dat
1 272 20 -136 50 1 0 0 0 1 0 0 0 1 3023.dat
1 272 220 -136 180 0 0 1 0 1 0 -1 0 0 3020.dat
1 272 220 -136 80 0 0 1 0 1 0 -1 0 0 3020.dat
1 272 20 -136 140 0 0 1 0 1 0 -1 0 0 3034.dat
1 272 30 -144 110 1 0 0 0 1 0 0 0 1 3024.dat
1 272 30 -144 210 1 0 0 0 1 0 0 0 1 3024.dat
1 272 30 -144 160 0 0 1 0 1 0 -1 0 0 3710.dat
1 272 220 -144 50 1 0 0 0 1 0 0 0 1 3023.dat
1 4 120 -144 50 1 0 0 0 1 0 0 0 1 3008.dat
1 4 120 -144 210 1 0 0 0 1 0 0 0 1 3008.dat
1 272 10 -144 160 0 0 1 0 1 0 -1 0 0 3666.dat
1 272 20 -144 70 0 0 1 0 1 0 -1 0 0 3021.dat
1 272 220 -144 140 0 0 1 0 1 0 -1 0 0 3034.dat
1 4 50 -152 50 1 0 0 0 1 0 0 0 1 3024.dat
1 4 50 -152 210 1 0 0 0 1 0 0 0 1 3024.dat
1 4 190 -152 50 1 0 0 0 1 0 0 0 1 3024.dat
1 4 190 -152 210 1 0 0 0 1 0 0 0 1 3024.dat
1 272 230 -152 210 1 0 0 0 1 0 0 0 1 3024.dat
1 272 10 -152 70 0 0 1 0 1 0 -1 0 0 3623.dat
1 272 10 -152 160 0 0 1 0 1 0 -1 0 0 3666.dat
1 272 230 -152 120 0 0 1 0 1 0 -1 0 0 3460.dat
1 272 10 -152 60 1 0 0 0 1 0 0 0 1 11477.dat
1 272 10 -152 200 -1 0 0 0 1 0 0 0 -1 11477.dat
1 272 230 -152 60 1 0 0 0 1 0 0 0 1 11477.dat
1 272 230 -152 200 -1 0 0 0 1 0 0 0 -1 11477.dat
1 272 50 -160 190 0 0 1 0 1 0 -1 0 0 3623.dat
1 272 190 -160 190 0 0 1 0 1 0 -1 0 0 3623.dat
1 272 50 -160 100 0 0 1 0 1 0 -1 0 0 3666.dat
1 272 190 -160 100 0 0 1 0 1 0 -1 0 0 3666.dat
1 272 190 -168 210 1 0 0 0 1 0 0 0 1 3024.dat
1 272 210 -168 190 0 0 1 0 1 0 -1 0 0 3622.dat
1 272 50 -168 70 0 0 1 0 1 0 -1 0 0 3623.dat
1 272 30 -168 70 0 0 1 0 1 0 -1 0 0 3622.dat
1 4 120 -168 210 1 0 0 0 1 0 0 0 1 3009.dat
1 4 120 -168 50 1 0 0 0 1 0 0 0 1 3009.dat
1 272 50 -168 160 0 0 1 0 1 0 -1 0 0 3666.dat
1 272 210 -168 100 0 0 1 0 1 0 -1 0 0 3009.dat
1 272 30 -168 160 0 0 1 0 1 0 -1 0 0 3009.dat
1 272 190 -168 120 0 0 1 0 1 0 -1 0 0 3460.dat
1 4 70 -176 50 1 0 0 0 1 0 0 0 1 3024.dat
1 4 70 -176 210 1 0 0 0 1 0 0 0 1 3024.dat
1 4 170 -176 50 1 0 0 0 1 0 0 0 1 3024.dat
1 4 170 -176 210 1 0 0 0 1 0 0 0 1 3024.dat
1 272 30 -176 200 0 0 1 0 1 0 -1 0 0 3023.dat
1 272 30 -176 150 0 0 1 0 1 0 -1 0 0 3623.dat
1 272 210 -176 190 0 0 1 0 1 0 -1 0 0 3623.dat
1 272 30 -176 80 0 0 1 0 1 0 -1 0 0 3710.dat
1 272 210 -176 100 0 0 1 0 1 0 -1 0 0 3666.dat
1 272 30 -176 60 1 0 0 0 1 0 0 0 1 11477.dat
1 272 30 -176 200 -1 0 0 0 1 0 0 0 -1 11477.dat
1 272 210 -176 60 1 0 0 0 1 0 0 0 1 11477.dat
1 272 210 -176 200 -1 0 0 0 1 0 0 0 -1 11477.dat
1 272 70 -184 130 1 0 0 0 1 0 0 0 1 3024.dat
1 272 70 -184 80 0 0 1 0 1 0 -1 0 0 3710.dat
1 272 70 -184 180 0 0 1 0 1 0 -1 0 0 3710.dat
1 272 170 -184 190 0 0 1 0 1 0 -1 0 0 3623.dat
1 272 170 -184 100 0 0 1 0 1 0 -1 0 0 3666.dat
1 272 50 -192 210 1 0 0 0 1 0 0 0 1 3005.dat
1 272 70 -192 210 1 0 0 0 1 0 0 0 1 3024.dat
1 4 120 -192 50 1 0 0 0 1 0 0 0 1 3010.dat
1 272 190 -192 110 0 0 1 0 1 0 -1 0 0 3622.dat
1 272 190 -192 180 0 0 1 0 1 0 -1 0 0 3010.dat
1 272 190 -192 60 0 0 1 0 1 0 -1 0 0 3004.dat
1 4 120 -192 210 1 0 0 0 1 0 0 0 1 3010.dat
1 272 170 -192 70 0 0 1 0 1 0 -1 0 0 3623.dat
1 272 50 -192 120 0 0 1 0 1 0 -1 0 0 3008.dat
1 272 170 -192 160 0 0 1 0 1 0 -1 0 0 3666.dat
1 272 70 -192 120 0 0 1 0 1 0 -1 0 0 3460.dat
1 272 50 -200 50 1 0 0 0 1 0 0 0 1 3024.dat
1 4 90 -200 50 1 0 0 0 1 0 0 0 1 3024.dat
1 4 90 -200 210 1 0 0 0 1 0 0 0 1 3024.dat
1 4 150 -200 50 1 0 0 0 1 0 0 0 1 3024.dat
1 4 150 -200 210 1 0 0 0 1 0 0 0 1 3024.dat
1 272 190 -200 50 1 0 0 0 1 0 0 0 1 3024.dat
1 272 190 -200 200 0 0 1 0 1 0 -1 0 0 3023.dat
1 272 190 -200 100 0 0 1 0 1 0 -1 0 0 3710.dat
1 272 180 -200 160 1 0 0 0 1 0 0 0 1 3022.dat
1 272 50 -200 140 0 0 1 0 1 0 -1 0 0 3460.dat
1 272 50 -200 60 1 0 0 0 1 0 0 0 1 11477.dat
1 272 50 -200 200 -1 0 0 0 1 0 0 0 -1 11477.dat
1 272 190 -200 60 1 0 0 0 1 0 0 0 1 11477.dat
1 272 190 -200 200 -1 0 0 0 1 0 0 0 -1 11477.dat
1 272 90 -208 210 1 0 0 0 1 0 0 0 1 3024.dat
1 4 180 -208 160 1 0 0 0 1 0 0 0 1 3022.dat
1 272 150 -208 70 0 0 1 0 1 0 -1 0 0 3623.dat
1 272 150 -208 160 0 0 1 0 1 0 -1 0 0 3666.dat
1 272 90 -208 120 0 0 1 0 1 0 -1 0 0 3460.dat
1 272 170 -216 50 1 0 0 0 1 0 0 0 1 3005.dat
1 272 90 -216 110 0 0 1 0 1 0 -1 0 0 3623.dat
1 272 90 -216 180 0 0 1 0 1 0 -1 0 0 3710.dat
1 4 120 -216 50 1 0 0 0 1 0 0 0 1 3004.dat
1 272 150 -216 70 0 0 1 0 1 0 -1 0 0 3623.dat
1 272 170 -216 200 0 0 1 0 1 0 -1 0 0 3004.dat
1 4 120 -216 210 1 0 0 0 1 0 0 0 1 3004.dat
1 272 90 -216 60 0 0 1 0 1 0 -1 0 0 3023.dat
1 272 170 -216 100 0 0 1 0 1 0 -1 0 0 3010.dat
1 272 70 -216 190 0 0 1 0 1 0 -1 0 0 3622.dat
1 272 70 -216 100 0 0 1 0 1 0 -1 0 0 3009.dat
1 4 180 -216 160 1 0 0 0 1 0 0 0 1 3022.dat
1 272 150 -216 160 0 0 1 0 1 0 -1 0 0 3666.dat
1 272 170 -224 130 1 0 0 0 1 0 0 0 1 3024.dat
1 272 170 -224 80 0 0 1 0 1 0 -1 0 0 3710.dat
1 4 120 -224 210 1 0 0 0 1 0 0 0 1 3023.dat
1 272 170 -224 200 0 0 1 0 1 0 -1 0 0 3023.dat
1 4 120 -224 50 1 0 0 0 1 0 0 0 1 3023.dat
1 272 70 -224 110 0 0 1 0 1 0 -1 0 0 3623.dat
1 272 70 -224 60 0 0 1 0 1 0 -1 0 0 3023.dat
1 272 70 -224 180 0 0 1 0 1 0 -1 0 0 3710.dat
1 272 70 -224 60 1 0 0 0 1 0 0 0 1 11477.dat
1 272 70 -224 200 -1 0 0 0 1 0 0 0 -1 11477.dat
1 272 170 -224 60 1 0 0 0 1 0 0 0 1 11477.dat
1 272 170 -224 200 -1 0 0 0 1 0 0 0 -1 11477.dat
1 272 120 -232 70 0 0 1 0 1 0 -1 0 0 3021.dat
1 272 120 -232 160 0 0 1 0 1 0 -1 0 0 3795.dat
1 272 150 -240 50 1 0 0 0 1 0 0 0 1 3005.dat
1 272 110 -240 50 1 0 0 0 1 0 0 0 1 3024.dat
1 272 130 -240 190 0 0 1 0 1 0 -1 0 0 3623.dat
1 272 90 -240 190 0 0 1 0 1 0 -1 0 0 3622.dat
1 4 180 -240 160 1 0 0 0 1 0 0 0 1 3003.dat
1 272 130 -240 100 0 0 1 0 1 0 -1 0 0 3666.dat
1 272 90 -240 100 0 0 1 0 1 0 -1 0 0 3009.dat
1 272 110 -240 140 0 0 1 0 1 0 -1 0 0 3460.dat
1 272 150 -240 140 0 0 1 0 1 0 -1 0 0 3008.dat
1 272 150 -248 210 1 0 0 0 1 0 0 0 1 3024.dat
1 272 90 -248 70 0 0 1 0 1 0 -1 0 0 3623.dat
1 272 90 -248 160 0 0 1 0 1 0 -1 0 0 3666.dat
1 272 150 -248 120 0 0 1 0 1 0 -1 0 0 3460.dat
1 272 90 -248 60 1 0 0 0 1 0 0 0 1 11477.dat
1 272 90 -248 200 -1 0 0 0 1 0 0 0 -1 11477.dat
1 272 150 -248 60 1 0 0 0 1 0 0 0 1 11477.dat
1 272 150 -248 200 -1 0 0 0 1 0 0 0 -1 11477.dat
1 4 180 -264 160 1 0 0 0 1 0 0 0 1 3003.dat
1 272 120 -264 70 0 0 1 0 1 0 -1 0 0 3002.dat
1 272 120 -264 160 0 0 1 0 1 0 -1 0 0 2456.dat
1 272 110 -272 150 0 0 1 0 1 0 -1 0 0 3623.dat
1 272 130 -272 190 0 0 1 0 1 0 -1 0 0 3623.dat
1 272 110 -272 200 0 0 1 0 1 0 -1 0 0 3023.dat
1 272 110 -272 80 0 0 1 0 1 0 -1 0 0 3710.dat
1 272 130 -272 100 0 0 1 0 1 0 -1 0 0 3666.dat
1 272 110 -272 60 1 0 0 0 1 0 0 0 1 11477.dat
1 272 110 -272 200 -1 0 0 0 1 0 0 0 -1 11477.dat
1 272 130 -272 60 1 0 0 0 1 0 0 0 1 11477.dat
1 272 130 -272 200 -1 0 0 0 1 0 0 0 -1 11477.dat
1 4 180 -288 160 1 0 0 0 1 0 0 0 1 3003.dat
1 4 180 -296 160 1 0 0 0 1 0 0 0 1 3022.dat
1 71 180 -304 160 1 0 0 0 1 0 0 0 1 3022.dat
0 STEP
1 14 90 -62 32 1 0 0 0 0 -1 0 1 0 98138.dat
0 STEP
