0 shark with blue shoes
0 Name: shark with blue shoes.ldr
0 Author: brickify

1 1 40 -8 80 1 0 0 0 1 0 0 0 1 3020.dat
1 1 40 -8 20 1 0 0 0 1 0 0 0 1 3020.dat
0 STEP
1 1 40 -16 20 1 0 0 0 1 0 0 0 1 3020.dat
1 1 40 -16 80 1 0 0 0 1 0 0 0 1 3020.dat
0 STEP
1 1 50 -24 20 1 0 0 0 1 0 0 0 1 3021.dat
1 1 50 -24 80 1 0 0 0 1 0 0 0 1 3021.dat
0 STEP
1 71 40 -48 20 1 0 0 0 1 0 0 0 1 3003.dat
1 71 40 -48 80 1 0 0 0 1 0 0 0 1 3003.dat
0 STEP
1 71 30 -72 10 1 0 0 0 1 0 0 0 1 3005.dat
1 71 30 -72 90 1 0 0 0 1 0 0 0 1 3005.dat
1 71 60 -72 80 1 0 0 0 1 0 0 0 1 3003.dat
1 15 20 -72 50 0 0 1 0 1 0 -1 0 0 3002.dat
1 71 60 -72 30 0 0 1 0 1 0 -1 0 0 3002.dat
0 STEP
1 71 70 -96 20 0 0 1 0 1 0 -1 0 0 3004.dat
1 71 50 -96 50 0 0 1 0 1 0 -1 0 0 3622.dat
1 71 70 -96 70 0 0 1 0 1 0 -1 0 0 3622.dat
1 15 20 -96 50 0 0 1 0 1 0 -1 0 0 3002.dat
1 71 40 -96 10 1 0 0 0 1 0 0 0 1 3937.dat
1 71 40 -96 90 1 0 0 0 1 0 0 0 1 3937.dat
0 STEP
1 15 10 -104 70 1 0 0 0 1 0 0 0 1 3024.dat
1 15 30 -104 50 1 0 0 0 1 0 0 0 1 3024.dat
1 15 20 -104 30 1 0 0 0 1 0 0 0 1 3023.dat
1 71 70 -104 60 0 0 1 0 1 0 -1 0 0 3023.dat
1 71 50 -104 10 1 0 0 0 1 0 0 0 1 3623.dat
1 71 50 -104 90 1 0 0 0 1 0 0 0 1 3623.dat
1 71 40 -104 10 0 0 1 0 1 0 -1 0 0 11477.dat
1 71 40 -104 90 0 0 1 0 1 0 -1 0 0 11477.dat
0 STEP
1 15 10 -120 50 1 0 0 0 1 0 0 0 1 3005.dat
1 15 30 -120 70 1 0 0 0 1 0 0 0 1 3005.dat
1 71 60 -120 30 1 0 0 0 1 0 0 0 1 3004.dat
1 71 50 -120 60 0 0 1 0 1 0 -1 0 0 3004.dat
1 71 60 -120 30 0 0 -1 0 1 0 1 0 0 11477.dat
1 71 50 -120 60 -1 0 0 0 1 0 0 0 -1 11477.dat
0 STEP
1 71 30 -128 40 0 0 1 0 1 0 -1 0 0 3937.dat
1 71 70 -128 60 0 0 1 0 1 0 -1 0 0 3937.dat
0 STEP
1 71 31.05 -127.9 40 0 -0.104528 0.994522 0 0.994522 0.104528 -1 0 0 3938.dat
0 STEP
1 15 -57.63 -145.3 50 0 -0.104528 0.994522 0 0.994522 0.104528 -1 0 0 3021.dat
0 STEP
1 71 33.55 -151.8 10 0.994522 -0.104528 0 0.104528 0.994522 0 0 0 1 3024.dat
1 71 33.55 -151.8 90 0.994522 -0.104528 0 0.104528 0.994522 0 0 0 1 3024.dat
1 71 33.55 -151.8 50 0 -0.104528 0.994522 0 0.994522 0.104528 -1 0 0 3622.dat
1 15 -56.79 -153.3 50 0 -0.104528 0.994522 0 0.994522 0.104528 -1 0 0 3021.dat
1 15 -6.227 -156 70 0.994522 -0.104528 0 0.104528 0.994522 0 0 0 1 3622.dat
1 15 -6.227 -156 40 0.994522 -0.104528 0 0.104528 0.994522 0 0 0 1 3002.dat
0 STEP
1 15 -16.17 -157 10 0.994522 -0.104528 0 0.104528 0.994522 0 0 0 1 3010.dat
1 15 -16.17 -157 90 0.994522 -0.104528 0 0.104528 0.994522 0 0 0 1 3010.dat
1 320 -46.01 -160.2 50 0 -0.104528 0.994522 0 0.994522 0.104528 -1 0 0 3623.dat
0 STEP
1 15 -25.28 -166 70 0 -0.104528 0.994522 0 0.994522 0.104528 -1 0 0 3623.dat
1 15 -25.28 -166 20 0 -0.104528 0.994522 0 0.994522 0.104528 -1 0 0 3023.dat
1 15 -45.17 -168.1 10 0.994522 -0.104528 0 0.104528 0.994522 0 0 0 1 3024.dat
1 15 -45.17 -168.1 60 0 -0.104528 0.994522 0 0.994522 0.104528 -1 0 0 3710.dat
0 STEP
1 71 -34.39 -175 90 0.994522 -0.104528 0 0.104528 0.994522 0 0 0 1 3023.dat
1 71 -34.39 -175 40 0 -0.104528 0.994522 0 0.994522 0.104528 -1 0 0 3020.dat
1 71 26.12 -176.7 20 0.994522 -0.104528 0 0.104528 0.994522 0 0 0 1 3003.dat
1 71 26.12 -176.7 70 0 -0.104528 0.994522 0 0.994522 0.104528 -1 0 0 3002.dat
1 320 -64.23 -178.2 30 0 -0.104528 0.994522 0 0.994522 0.104528 -1 0 0 87087.dat
1 320 -64.23 -178.2 50 0 -0.104528 0.994522 0 0.994522 0.104528 -1 0 0 87087.dat
1 320 -64.23 -178.2 70 0 -0.104528 0.994522 0 0.994522 0.104528 -1 0 0 87087.dat
1 71 -3.718 -179.9 90 0.994522 -0.104528 0 0.104528 0.994522 0 0 0 1 3005.dat
1 71 -3.718 -179.9 40 0 -0.104528 0.994522 0 0.994522 0.104528 -1 0 0 3010.dat
0 STEP
1 71 -23.61 -182 50 0 -0.104528 0.994522 0 0.994522 0.104528 -1 0 0 3623.dat
1 71 36.9 -183.6 40 0 -0.104528 0.994522 0 0.994522 0.104528 -1 0 0 3023.dat
1 71 -43.5 -184 20 0 -0.104528 0.994522 0 0.994522 0.104528 -1 0 0 3023.dat
1 71 -43.5 -184 70 0 -0.104528 0.994522 0 0.994522 0.104528 -1 0 0 3623.dat
1 71 26.95 -184.7 10 0 -0.104528 -0.994522 0 0.994522 -0.104528 1 0 0 11477.dat
1 71 26.95 -184.7 90 0 -0.104528 -0.994522 0 0.994522 -0.104528 1 0 0 11477.dat
1 71 17.01 -185.7 10 0.994522 -0.104528 0 0.104528 0.994522 0 0 0 1 3623.dat
1 71 17.01 -185.7 90 0.994522 -0.104528 0 0.104528 0.994522 0 0 0 1 3623.dat
1 71 -63.39 -186.1 50 0 -0.104528 0.994522 0 0.994522 0.104528 -1 0 0 3623.dat
1 71 -2.882 -187.8 30 0.994522 -0.104528 0 0.104528 0.994522 0 0 0 1 3623.dat
0 STEP
1 71 -12.83 -188.9 50 0.994522 -0.104528 0 0.104528 0.994522 0 0 0 1 3710.dat
1 71 -12.83 -188.9 70 0.994522 -0.104528 0 0.104528 0.994522 0 0 0 1 3666.dat
1 71 37.74 -191.6 60 -0.994522 -0.104528 0 -0.104528 0.994522 0 0 0 -1 11477.dat
1 71 -42.66 -192 10 0.994522 -0.104528 0 0.104528 0.994522 0 0 0 1 3024.dat
1 71 -42.66 -192 90 0.994522 -0.104528 0 0.104528 0.994522 0 0 0 1 3024.dat
1 71 27.79 -192.6 50 0 -0.104528 0.994522 0 0.994522 0.104528 -1 0 0 3021.dat
1 71 27.79 -192.6 30 0 -0.104528 -0.994522 0 0.994522 -0.104528 1 0 0 11477.dat
1 71 -52.61 -193 30 0.994522 -0.104528 0 0.104528 0.994522 0 0 0 1 3023.dat
1 71 17.84 -193.7 60 -0.994522 -0.104528 0 -0.104528 0.994522 0 0 0 -1 11477.dat
1 71 -62.55 -194.1 50 0.994522 -0.104528 0 0.104528 0.994522 0 0 0 1 3024.dat
1 71 -62.55 -194.1 40 0.994522 -0.104528 0 0.104528 0.994522 0 0 0 1 11477.dat
1 71 -2.046 -195.8 40 0.994522 -0.104528 0 0.104528 0.994522 0 0 0 1 11477.dat
0 STEP
1 71 -11.99 -196.8 50 0 -0.104528 0.994522 0 0.994522 0.104528 -1 0 0 3021.dat
1 71 -21.94 -197.9 10 0.994522 -0.104528 0 0.104528 0.994522 0 0 0 1 87087.dat
1 71 -21.94 -197.9 90 -0.994522 -0.104528 0 -0.104528 0.994522 0 0 0 -1 87087.dat
1 71 -21.94 -197.9 40 0.994522 -0.104528 0 0.104528 0.994522 0 0 0 1 11477.dat
1 71 -31.88 -198.9 70 0 -0.104528 0.994522 0 0.994522 0.104528 -1 0 0 11477.dat
1 71 -41.83 -200 50 0 -0.104528 0.994522 0 0.994522 0.104528 -1 0 0 3623.dat
1 71 -41.83 -200 40 0.994522 -0.104528 0 0.104528 0.994522 0 0 0 1 11477.dat
0 STEP
1 0 -22.98 -187.9 -8 1 0 0 0 0 -1 0 1 0 98138.dat
0 STEP
1 0 -22.98 -187.9 108 1 0 0 0 0 1 0 -1 0 98138.dat
0 STEP
1 15 -83.17 -170.1 30 0.104528 0.994522 0 -0.994522 0.104528 0 0 0 1 98138.dat
0 STEP
1 15 -83.17 -170.1 50 0.104528 0.994522 0 -0.994522 0.104528 0 0 0 1 98138.dat
0 STEP
1 15 -83.17 -170.1 70 0.104528 0.994522 0 -0.994522 0.104528 0 0 0 1 98138.dat
0 STEP
1 71 74.23 -127.1 60 0 -0.422618 0.906308 0 0.906308 0.422618 -1 0 0 3938.dat
0 STEP
1 71 93.43 -144.6 60 0.906308 -0.422618 0 0.422618 0.906308 0 0 0 1 3003.dat
0 STEP
1 71 87.75 -156.1 60 0 -0.422618 0.906308 0 0.906308 0.422618 -1 0 0 3023.dat
1 71 112.6 -162.1 60 0 -0.422618 0.906308 0 0.906308 0.422618 -1 0 0 3004.dat
0 STEP
1 71 40 -92.72 -17.03 1 0 0 0 0.573576 -0.819152 0 0.819152 0.573576 3022.dat
0 STEP
1 71 40 -92.72 117 1 0 0 0 0.573576 0.819152 0 -0.819152 0.573576 3022.dat
0 STEP
