0 yellow school bus
0 Name: yellow school bus.ldr
0 Author: brickify

1 71 60 -3 12 -1 0 0 0 1 0 0 0 -1 4624.dat
1 0 60 -3 12 -1 0 0 0 1 0 0 0 -1 3641.dat
1 71 60 -3 68 1 0 0 0 1 0 0 0 1 4624.dat
1 0 60 -3 68 1 0 0 0 1 0 0 0 1 3641.dat
1 71 200 -3 12 -1 0 0 0 1 0 0 0 -1 4624.dat
1 0 200 -3 12 -1 0 0 0 1 0 0 0 -1 3641.dat
1 71 200 -3 68 1 0 0 0 1 0 0 0 1 4624.dat
1 0 200 -3 68 1 0 0 0 1 0 0 0 1 3641.dat
0 STEP
1 0 30 -8 50 1 0 0 0 1 0 0 0 1 3024.dat
1 0 10 -8 60 0 0 1 0 1 0 -1 0 0 3023.dat
1 0 60 -8 10 1 0 0 0 1 0 0 0 1 3023.dat
1 0 20 -8 20 1 0 0 0 1 0 0 0 1 3022.dat
1 0 40 -8 70 1 0 0 0 1 0 0 0 1 3023.dat
1 0 110 -8 50 1 0 0 0 1 0 0 0 1 3623.dat
1 0 180 -8 10 1 0 0 0 1 0 0 0 1 3710.dat
1 0 250 -8 20 1 0 0 0 1 0 0 0 1 3021.dat
1 0 160 -8 40 1 0 0 0 1 0 0 0 1 3022.dat
1 0 140 -8 70 1 0 0 0 1 0 0 0 1 3460.dat
1 0 250 -8 60 1 0 0 0 1 0 0 0 1 3021.dat
1 0 110 -8 20 1 0 0 0 1 0 0 0 1 3021.dat
1 0 60 -8 40 0 0 1 0 1 0 -1 0 0 4600.dat
1 0 200 -8 40 0 0 1 0 1 0 -1 0 0 4600.dat
0 STEP
1 14 90 -16 40 0 0 1 0 1 0 -1 0 0 3710.dat
1 14 180 -16 40 0 0 1 0 1 0 -1 0 0 3020.dat
1 14 130 -16 60 1 0 0 0 1 0 0 0 1 3021.dat
1 0 20 -16 40 0 0 1 0 1 0 -1 0 0 3020.dat
1 0 260 -16 40 0 0 1 0 1 0 -1 0 0 3020.dat
1 14 220 -16 40 0 0 1 0 1 0 -1 0 0 3020.dat
1 14 130 -16 20 1 0 0 0 1 0 0 0 1 3021.dat
1 14 60 -16 40 0 0 1 0 1 0 -1 0 0 3020.dat
0 STEP
1 14 130 -24 50 1 0 0 0 1 0 0 0 1 3024.dat
1 14 30 -24 20 0 0 1 0 1 0 -1 0 0 3023.dat
1 14 180 -24 50 1 0 0 0 1 0 0 0 1 3710.dat
1 14 110 -24 50 0 0 1 0 1 0 -1 0 0 3623.dat
1 14 150 -24 70 1 0 0 0 1 0 0 0 1 3623.dat
1 14 240 -24 10 1 0 0 0 1 0 0 0 1 3710.dat
1 14 200 -24 70 1 0 0 0 1 0 0 0 1 3023.dat
1 25 10 -24 40 0 0 1 0 1 0 -1 0 0 3710.dat
1 14 70 -24 30 1 0 0 0 1 0 0 0 1 3623.dat
1 14 120 -24 10 1 0 0 0 1 0 0 0 1 3460.dat
1 14 200 -24 30 1 0 0 0 1 0 0 0 1 3460.dat
1 14 60 -24 60 1 0 0 0 1 0 0 0 1 3020.dat
1 14 250 -24 60 1 0 0 0 1 0 0 0 1 3021.dat
0 STEP
1 25 10 -32 40 0 0 1 0 1 0 -1 0 0 3023.dat
1 14 220 -32 10 1 0 0 0 1 0 0 0 1 3710.dat
1 14 50 -32 70 1 0 0 0 1 0 0 0 1 3623.dat
1 14 230 -32 70 1 0 0 0 1 0 0 0 1 3623.dat
1 14 100 -32 10 1 0 0 0 1 0 0 0 1 3460.dat
1 14 140 -32 70 1 0 0 0 1 0 0 0 1 3666.dat
0 STEP
1 14 250 -40 10 1 0 0 0 1 0 0 0 1 3024.dat
1 25 10 -40 40 0 0 1 0 1 0 -1 0 0 3023.dat
1 14 200 -40 10 1 0 0 0 1 0 0 0 1 3710.dat
1 14 130 -40 10 1 0 0 0 1 0 0 0 1 3623.dat
1 14 60 -40 10 1 0 0 0 1 0 0 0 1 3710.dat
1 14 180 -40 70 1 0 0 0 1 0 0 0 1 3460.dat
1 14 60 -40 70 1 0 0 0 1 0 0 0 1 3710.dat
0 STEP
1 14 10 -48 40 0 0 1 0 1 0 -1 0 0 3023.dat
1 0 60 -48 70 1 0 0 0 1 0 0 0 1 3710.dat
1 0 220 -48 10 1 0 0 0 1 0 0 0 1 3710.dat
1 0 180 -48 70 1 0 0 0 1 0 0 0 1 3460.dat
1 14 100 -48 40 1 0 0 0 1 0 0 0 1 3003.dat
1 0 100 -48 10 1 0 0 0 1 0 0 0 1 3460.dat
1 14 50 -48 40 1 0 0 0 1 0 0 0 1 3002.dat
1 14 200 -48 40 1 0 0 0 1 0 0 0 1 3007.dat
1 14 10 -48 10 0 0 1 0 1 0 -1 0 0 87087.dat
1 14 10 -48 70 0 0 1 0 1 0 -1 0 0 87087.dat
1 14 270 -48 10 0 0 -1 0 1 0 1 0 0 87087.dat
1 14 270 -48 70 0 0 -1 0 1 0 1 0 0 87087.dat
0 STEP
1 14 10 -56 30 1 0 0 0 1 0 0 0 1 3024.dat
1 14 190 -56 30 1 0 0 0 1 0 0 0 1 3024.dat
1 0 240 -56 10 1 0 0 0 1 0 0 0 1 3710.dat
1 14 240 -56 30 1 0 0 0 1 0 0 0 1 3710.dat
1 14 40 -56 70 1 0 0 0 1 0 0 0 1 3710.dat
1 0 240 -56 70 1 0 0 0 1 0 0 0 1 3710.dat
1 14 40 -56 10 1 0 0 0 1 0 0 0 1 3710.dat
1 14 60 -56 50 1 0 0 0 1 0 0 0 1 3666.dat
1 0 140 -56 70 1 0 0 0 1 0 0 0 1 3666.dat
1 0 140 -56 10 1 0 0 0 1 0 0 0 1 3666.dat
1 14 100 -56 30 1 0 0 0 1 0 0 0 1 3460.dat
1 14 200 -56 50 1 0 0 0 1 0 0 0 1 3460.dat
1 14 10 -56 20 1 0 0 0 1 0 0 0 1 11477.dat
1 14 10 -56 60 -1 0 0 0 1 0 0 0 -1 11477.dat
1 14 30 -56 20 1 0 0 0 1 0 0 0 1 11477.dat
1 14 30 -56 60 -1 0 0 0 1 0 0 0 -1 11477.dat
1 14 50 -56 20 1 0 0 0 1 0 0 0 1 11477.dat
1 14 50 -56 60 -1 0 0 0 1 0 0 0 -1 11477.dat
1 14 70 -56 20 1 0 0 0 1 0 0 0 1 11477.dat
1 14 70 -56 60 -1 0 0 0 1 0 0 0 -1 11477.dat
0 STEP
1 14 90 -64 10 1 0 0 0 1 0 0 0 1 3024.dat
1 14 90 -64 70 1 0 0 0 1 0 0 0 1 3024.dat
1 14 150 -64 10 1 0 0 0 1 0 0 0 1 3024.dat
1 14 150 -64 70 1 0 0 0 1 0 0 0 1 3024.dat
1 14 210 -64 10 1 0 0 0 1 0 0 0 1 3024.dat
1 14 210 -64 70 1 0 0 0 1 0 0 0 1 3024.dat
1 14 270 -64 10 1 0 0 0 1 0 0 0 1 3024.dat
1 14 270 -64 70 1 0 0 0 1 0 0 0 1 3024.dat
1 47 270 -64 40 0 0 1 0 1 0 -1 0 0 3023.dat
1 47 180 -64 70 1 0 0 0 1 0 0 0 1 3023.dat
1 47 180 -64 10 1 0 0 0 1 0 0 0 1 3023.dat
1 47 90 -64 40 0 0 1 0 1 0 -1 0 0 3023.dat
1 47 240 -64 10 1 0 0 0 1 0 0 0 1 3023.dat
1 47 240 -64 70 1 0 0 0 1 0 0 0 1 3023.dat
1 47 120 -64 10 1 0 0 0 1 0 0 0 1 3023.dat
1 47 120 -64 70 1 0 0 0 1 0 0 0 1 3023.dat
0 STEP
1 14 90 -72 10 1 0 0 0 1 0 0 0 1 3024.dat
1 14 90 -72 70 1 0 0 0 1 0 0 0 1 3024.dat
1 14 150 -72 10 1 0 0 0 1 0 0 0 1 3024.dat
1 14 150 -72 70 1 0 0 0 1 0 0 0 1 3024.dat
1 14 210 -72 10 1 0 0 0 1 0 0 0 1 3024.dat
1 14 210 -72 70 1 0 0 0 1 0 0 0 1 3024.dat
1 14 270 -72 10 1 0 0 0 1 0 0 0 1 3024.dat
1 14 270 -72 70 1 0 0 0 1 0 0 0 1 3024.dat
1 47 90 -72 40 0 0 1 0 1 0 -1 0 0 3023.dat
1 47 270 -72 40 0 0 1 0 1 0 -1 0 0 3023.dat
1 47 180 -72 70 1 0 0 0 1 0 0 0 1 3023.dat
1 47 120 -72 70 1 0 0 0 1 0 0 0 1 3023.dat
1 47 240 -72 10 1 0 0 0 1 0 0 0 1 3023.dat
1 47 180 -72 10 1 0 0 0 1 0 0 0 1 3023.dat
1 47 240 -72 70 1 0 0 0 1 0 0 0 1 3023.dat
1 47 120 -72 10 1 0 0 0 1 0 0 0 1 3023.dat
0 STEP
1 14 90 -80 10 1 0 0 0 1 0 0 0 1 3024.dat
1 14 90 -80 70 1 0 0 0 1 0 0 0 1 3024.dat
1 14 150 -80 10 1 0 0 0 1 0 0 0 1 3024.dat
1 14 150 -80 70 1 0 0 0 1 0 0 0 1 3024.dat
1 14 210 -80 10 1 0 0 0 1 0 0 0 1 3024.dat
1 14 210 -80 70 1 0 0 0 1 0 0 0 1 3024.dat
1 14 270 -80 10 1 0 0 0 1 0 0 0 1 3024.dat
1 14 270 -80 70 1 0 0 0 1 0 0 0 1 3024.dat
1 47 240 -80 10 1 0 0 0 1 0 0 0 1 3023.dat
1 47 180 -80 70 1 0 0 0 1 0 0 0 1 3023.dat
1 47 90 -80 40 0 0 1 0 1 0 -1 0 0 3023.dat
1 47 180 -80 10 1 0 0 0 1 0 0 0 1 3023.dat
1 47 120 -80 10 1 0 0 0 1 0 0 0 1 3023.dat
1 47 240 -80 70 1 0 0 0 1 0 0 0 1 3023.dat
1 47 270 -80 40 0 0 1 0 1 0 -1 0 0 3023.dat
1 47 120 -80 70 1 0 0 0 1 0 0 0 1 3023.dat
0 STEP
1 0 250 -88 70 1 0 0 0 1 0 0 0 1 3024.dat
1 0 200 -88 70 1 0 0 0 1 0 0 0 1 3710.dat
1 0 130 -88 70 1 0 0 0 1 0 0 0 1 3623.dat
1 0 90 -88 40 0 0 1 0 1 0 -1 0 0 3023.dat
1 0 270 -88 50 0 0 1 0 1 0 -1 0 0 3623.dat
1 0 130 -88 10 1 0 0 0 1 0 0 0 1 3623.dat
1 0 220 -88 10 1 0 0 0 1 0 0 0 1 3666.dat
0 STEP
1 14 270 -96 40 0 0 1 0 1 0 -1 0 0 3710.dat
1 14 90 -96 40 0 0 1 0 1 0 -1 0 0 3023.dat
1 14 110 -96 40 0 0 1 0 1 0 -1 0 0 3710.dat
1 14 170 -96 40 0 0 1 0 1 0 -1 0 0 3710.dat
1 14 200 -96 40 0 0 1 0 1 0 -1 0 0 3020.dat
1 14 140 -96 40 0 0 1 0 1 0 -1 0 0 3020.dat
1 14 240 -96 40 0 0 1 0 1 0 -1 0 0 3020.dat
0 STEP
1 14 270 -104 10 1 0 0 0 1 0 0 0 1 3024.dat
1 14 120 -104 50 1 0 0 0 1 0 0 0 1 3710.dat
1 14 130 -104 70 1 0 0 0 1 0 0 0 1 3623.dat
1 14 260 -104 50 0 0 1 0 1 0 -1 0 0 3021.dat
1 14 160 -104 30 1 0 0 0 1 0 0 0 1 3460.dat
1 14 200 -104 60 1 0 0 0 1 0 0 0 1 3020.dat
1 14 180 -104 10 1 0 0 0 1 0 0 0 1 3460.dat
1 14 90 -104 10 0 0 1 0 1 0 -1 0 0 87087.dat
1 14 90 -104 70 0 0 1 0 1 0 -1 0 0 87087.dat
1 14 90 -104 20 1 0 0 0 1 0 0 0 1 11477.dat
1 14 90 -104 60 -1 0 0 0 1 0 0 0 -1 11477.dat
1 14 110 -104 20 1 0 0 0 1 0 0 0 1 11477.dat
1 14 110 -104 60 -1 0 0 0 1 0 0 0 -1 11477.dat
1 14 130 -104 20 1 0 0 0 1 0 0 0 1 11477.dat
1 14 130 -104 60 -1 0 0 0 1 0 0 0 -1 11477.dat
1 14 150 -104 20 1 0 0 0 1 0 0 0 1 11477.dat
1 14 150 -104 60 -1 0 0 0 1 0 0 0 -1 11477.dat
1 14 170 -104 20 1 0 0 0 1 0 0 0 1 11477.dat
1 14 170 -104 60 -1 0 0 0 1 0 0 0 -1 11477.dat
1 14 190 -104 20 1 0 0 0 1 0 0 0 1 11477.dat
1 14 190 -104 60 -1 0 0 0 1 0 0 0 -1 11477.dat
1 14 210 -104 20 1 0 0 0 1 0 0 0 1 11477.dat
1 14 210 -104 60 -1 0 0 0 1 0 0 0 -1 11477.dat
1 14 230 -104 20 1 0 0 0 1 0 0 0 1 11477.dat
1 14 230 -104 60 -1 0 0 0 1 0 0 0 -1 11477.dat
1 14 260 -104 10 0 0 -1 0 1 0 1 0 0 11477.dat
1 14 260 -104 30 0 0 -1 0 1 0 1 0 0 11477.dat
1 14 250 -104 60 -1 0 0 0 1 0 0 0 -1 11477.dat
1 14 270 -104 60 -1 0 0 0 1 0 0 0 -1 11477.dat
0 STEP
1 191 -8 -38 10 0 1 0 -1 0 0 0 0 1 98138.dat
0 STEP
1 191 -8 -38 70 0 1 0 -1 0 0 0 0 1 98138.dat
0 STEP
1 4 288 -38 10 0 -1 0 1 0 0 0 0 1 98138.dat
0 STEP
1 4 288 -38 70 0 -1 0 1 0 0 0 0 1 98138.dat
0 STEP
1 25 72 -94 10 0 1 0 -1 0 0 0 0 1 6141.dat
0 STEP
1 25 72 -94 70 0 1 0 -1 0 0 0 0 1 6141.dat
0 STEP
