0 sitting red fox
0 Name: sitting red fox.ldr
0 Author: brickify

1 0 20 -24 80 1 0 0 0 1 0 0 0 1 3003.dat
1 0 110 -24 70 0 0 1 0 1 0 -1 0 0 3622.dat
1 0 110 -24 20 0 0 1 0 1 0 -1 0 0 3004.dat
1 0 80 -24 80 1 0 0 0 1 0 0 0 1 3003.dat
1 0 80 -24 30 0 0 1 0 1 0 -1 0 0 3002.dat
1 0 20 -24 20 1 0 0 0 1 0 0 0 1 3003.dat
0 STEP
1 320 20 -48 80 1 0 0 0 1 0 0 0 1 3003.dat
1 320 90 -48 10 1 0 0 0 1 0 0 0 1 3622.dat
1 320 70 -48 60 0 0 1 0 1 0 -1 0 0 3010.dat
1 320 100 -48 60 0 0 1 0 1 0 -1 0 0 3001.dat
1 320 20 -48 20 1 0 0 0 1 0 0 0 1 3003.dat
0 STEP
1 320 70 -72 90 1 0 0 0 1 0 0 0 1 3005.dat
1 320 90 -72 10 1 0 0 0 1 0 0 0 1 3622.dat
1 320 100 -72 80 1 0 0 0 1 0 0 0 1 3003.dat
1 320 60 -72 70 1 0 0 0 1 0 0 0 1 3004.dat
1 320 20 -72 20 1 0 0 0 1 0 0 0 1 3003.dat
1 320 80 -72 30 1 0 0 0 1 0 0 0 1 3010.dat
1 320 60 -72 50 1 0 0 0 1 0 0 0 1 3009.dat
1 320 20 -72 80 1 0 0 0 1 0 0 0 1 3003.dat
0 STEP
1 320 10 -96 10 1 0 0 0 1 0 0 0 1 3005.dat
1 320 10 -96 90 1 0 0 0 1 0 0 0 1 3005.dat
1 320 50 -96 90 1 0 0 0 1 0 0 0 1 3005.dat
1 320 110 -96 20 0 0 1 0 1 0 -1 0 0 3004.dat
1 320 30 -96 30 0 0 1 0 1 0 -1 0 0 3622.dat
1 320 30 -96 80 0 0 1 0 1 0 -1 0 0 3004.dat
1 15 10 -96 50 0 0 1 0 1 0 -1 0 0 3622.dat
1 320 50 -96 40 0 0 1 0 1 0 -1 0 0 3010.dat
1 320 70 -96 20 0 0 1 0 1 0 -1 0 0 3004.dat
1 320 90 -96 30 0 0 1 0 1 0 -1 0 0 3622.dat
1 320 70 -96 70 0 0 1 0 1 0 -1 0 0 3622.dat
1 320 110 -96 70 0 0 1 0 1 0 -1 0 0 3622.dat
1 320 90 -96 80 0 0 1 0 1 0 -1 0 0 3937.dat
1 320 100 -96 10 0 0 -1 0 1 0 1 0 0 11477.dat
1 320 100 -96 30 0 0 -1 0 1 0 1 0 0 11477.dat
1 320 100 -96 50 0 0 -1 0 1 0 1 0 0 11477.dat
0 STEP
1 320 70 -120 40 0 0 1 0 1 0 -1 0 0 3004.dat
1 320 40 -120 10 1 0 0 0 1 0 0 0 1 3010.dat
1 320 40 -120 90 1 0 0 0 1 0 0 0 1 3010.dat
1 320 50 -120 70 1 0 0 0 1 0 0 0 1 3622.dat
1 320 40 -120 30 1 0 0 0 1 0 0 0 1 3004.dat
1 15 10 -120 50 0 0 1 0 1 0 -1 0 0 3622.dat
1 320 40 -120 50 1 0 0 0 1 0 0 0 1 3937.dat
0 STEP
1 320 40 -120 50 1 0 0 0 1 0 0 0 1 3938.dat
0 STEP
1 15 10 -128 50 1 0 0 0 1 0 0 0 1 3024.dat
1 15 0 -128 30 1 0 0 0 1 0 0 0 1 3023.dat
1 15 0 -128 70 1 0 0 0 1 0 0 0 1 3023.dat
1 320 40 -128 -10 1 0 0 0 1 0 0 0 1 3710.dat
1 320 30 -128 10 1 0 0 0 1 0 0 0 1 3623.dat
0 STEP
1 15 -10 -136 70 1 0 0 0 1 0 0 0 1 3024.dat
1 15 -10 -136 30 1 0 0 0 1 0 0 0 1 3024.dat
1 320 70 -136 -10 1 0 0 0 1 0 0 0 1 3024.dat
1 15 10 -136 50 0 0 1 0 1 0 -1 0 0 3623.dat
1 320 30 -136 0 1 0 0 0 1 0 0 0 1 3021.dat
0 STEP
1 320 70 -144 20 0 0 1 0 1 0 -1 0 0 3004.dat
1 320 40 -144 30 1 0 0 0 1 0 0 0 1 3004.dat
1 320 50 -144 60 1 0 0 0 1 0 0 0 1 3002.dat
1 320 40 -144 100 1 0 0 0 1 0 0 0 1 3001.dat
1 15 -10 -144 30 1 0 0 0 1 0 0 0 1 3024.dat
1 15 0 -144 70 1 0 0 0 1 0 0 0 1 3023.dat
1 320 40 -144 -10 1 0 0 0 1 0 0 0 1 3710.dat
1 15 10 -144 40 0 0 1 0 1 0 -1 0 0 3023.dat
1 320 30 -144 10 1 0 0 0 1 0 0 0 1 3623.dat
1 15 -10 -144 50 0 0 1 0 1 0 -1 0 0 87087.dat
0 STEP
1 320 10 -152 -10 1 0 0 0 1 0 0 0 1 3024.dat
1 320 -10 -152 50 1 0 0 0 1 0 0 0 1 3024.dat
1 320 0 -152 10 1 0 0 0 1 0 0 0 1 3023.dat
1 320 10 -152 50 0 0 1 0 1 0 -1 0 0 3623.dat
0 STEP
1 320 10 -160 70 1 0 0 0 1 0 0 0 1 3024.dat
1 320 -10 -160 10 1 0 0 0 1 0 0 0 1 3024.dat
1 320 0 -160 50 1 0 0 0 1 0 0 0 1 3023.dat
1 320 10 -160 10 0 0 1 0 1 0 -1 0 0 3623.dat
0 STEP
1 320 10 -168 110 1 0 0 0 1 0 0 0 1 3005.dat
1 320 0 -168 90 1 0 0 0 1 0 0 0 1 3004.dat
1 320 40 -168 10 0 0 1 0 1 0 -1 0 0 3002.dat
1 320 70 -168 90 0 0 1 0 1 0 -1 0 0 3622.dat
1 320 70 -168 20 0 0 1 0 1 0 -1 0 0 3010.dat
1 320 40 -168 80 0 0 1 0 1 0 -1 0 0 3001.dat
1 320 10 -168 -10 1 0 0 0 1 0 0 0 1 3024.dat
1 320 -10 -168 50 1 0 0 0 1 0 0 0 1 3024.dat
1 320 0 -168 10 1 0 0 0 1 0 0 0 1 3023.dat
1 320 10 -168 50 0 0 1 0 1 0 -1 0 0 3623.dat
1 320 -10 -168 30 0 0 1 0 1 0 -1 0 0 87087.dat
1 320 -10 -168 70 0 0 1 0 1 0 -1 0 0 87087.dat
1 320 -10 -168 20 1 0 0 0 1 0 0 0 1 11477.dat
1 320 -10 -168 80 -1 0 0 0 1 0 0 0 -1 11477.dat
0 STEP
1 320 30 -176 70 1 0 0 0 1 0 0 0 1 3623.dat
1 320 40 -176 10 1 0 0 0 1 0 0 0 1 3710.dat
1 320 40 -176 40 1 0 0 0 1 0 0 0 1 3020.dat
0 STEP
1 320 50 -184 10 1 0 0 0 1 0 0 0 1 3623.dat
1 320 70 -184 40 0 0 1 0 1 0 -1 0 0 3023.dat
1 320 10 -184 40 0 0 1 0 1 0 -1 0 0 3710.dat
1 320 40 -184 50 0 0 1 0 1 0 -1 0 0 3021.dat
0 STEP
1 320 10 -192 90 1 0 0 0 1 0 0 0 1 3005.dat
1 320 70 -192 -10 1 0 0 0 1 0 0 0 1 3005.dat
1 320 40 -192 110 1 0 0 0 1 0 0 0 1 3004.dat
1 320 70 -192 90 0 0 1 0 1 0 -1 0 0 3622.dat
1 320 30 -192 70 1 0 0 0 1 0 0 0 1 3623.dat
1 320 40 -192 50 1 0 0 0 1 0 0 0 1 3710.dat
1 320 40 -192 20 1 0 0 0 1 0 0 0 1 3020.dat
1 320 40 -192 -10 1 0 0 0 1 0 0 0 1 3937.dat
1 320 40 -192 90 1 0 0 0 1 0 0 0 1 3937.dat
1 320 10 -192 20 1 0 0 0 1 0 0 0 1 11477.dat
1 320 10 -192 80 -1 0 0 0 1 0 0 0 -1 11477.dat
1 320 20 -192 50 0 0 1 0 1 0 -1 0 0 11477.dat
1 320 60 -192 30 0 0 -1 0 1 0 1 0 0 11477.dat
1 320 60 -192 50 0 0 -1 0 1 0 1 0 0 11477.dat
1 320 60 -192 70 0 0 -1 0 1 0 1 0 0 11477.dat
1 320 70 -192 100 -1 0 0 0 1 0 0 0 -1 11477.dat
0 STEP
1 320 40 -191.8 -12.08 1 0 0 0 0.978148 -0.207912 0 0.207912 0.978148 3938.dat
0 STEP
1 25 30 -217.3 -7.288 0 0 1 0.207912 0.978148 0 -0.978148 0.207912 0 3004.dat
1 320 50 -217.3 -7.288 0 0 1 0.207912 0.978148 0 -0.978148 0.207912 0 3004.dat
0 STEP
1 320 50 -225.2 -8.951 0 0 1 0.207912 0.978148 0 -0.978148 0.207912 0 3023.dat
1 25 30 -225.2 -8.951 0 0 1 0.207912 0.978148 0 -0.978148 0.207912 0 3023.dat
0 STEP
1 0 30 -233 -10.61 0 0 1 0.207912 0.978148 0 -0.978148 0.207912 0 3023.dat
1 320 50 -233 -10.61 0 0 1 0.207912 0.978148 0 -0.978148 0.207912 0 3023.dat
0 STEP
1 0 40 -238.7 -22.06 1 0 0 0 0.978148 -0.207912 0 0.207912 0.978148 3023.dat
0 STEP
1 0 40 -246.6 -23.72 1 0 0 0 0.978148 -0.207912 0 0.207912 0.978148 3023.dat
0 STEP
1 320 40 -191.8 92.08 1 0 0 0 0.978148 0.207912 0 -0.207912 0.978148 3938.dat
0 STEP
1 25 50 -221 108.5 0 0 1 -0.207912 0.978148 0 -0.978148 -0.207912 0 3023.dat
1 320 30 -221 108.5 0 0 1 -0.207912 0.978148 0 -0.978148 -0.207912 0 3023.dat
0 STEP
1 320 30 -228.8 110.2 0 0 1 -0.207912 0.978148 0 -0.978148 -0.207912 0 3023.dat
1 0 50 -228.8 110.2 0 0 1 -0.207912 0.978148 0 -0.978148 -0.207912 0 3023.dat
1 0 40 -234.6 121.6 1 0 0 0 0.978148 0.207912 0 -0.207912 0.978148 3023.dat
0 STEP
1 0 40 -242.4 123.3 1 0 0 0 0.978148 0.207912 0 -0.207912 0.978148 3023.dat
0 STEP
1 0 -28 -158 30 0 1 0 -1 0 0 0 0 1 98138.dat
0 STEP
1 0 -28 -158 70 0 1 0 -1 0 0 0 0 1 98138.dat
0 STEP
1 0 -28 -144 50 0 1 0 -1 0 0 0 0 1 3069b.dat
0 STEP
1 320 154.1 -128.9 80 0 -0.422618 0.906308 0 0.906308 0.422618 -1 0 0 3023.dat
1 320 132.6 -130.1 80 0.906308 -0.422618 0 0.422618 0.906308 0 0 0 1 3002.dat
0 STEP
1 320 157.5 -136.2 80 0 -0.422618 0.906308 0 0.906308 0.422618 -1 0 0 3023.dat
0 STEP
1 15 160.9 -143.4 80 0 -0.422618 0.906308 0 0.906308 0.422618 -1 0 0 3023.dat
0 STEP
1 320 142.8 -151.9 80 0 -0.422618 0.906308 0 0.906308 0.422618 -1 0 0 3004.dat
0 STEP
1 320 146.2 -159.1 80 0 -0.422618 0.906308 0 0.906308 0.422618 -1 0 0 3023.dat
0 STEP
1 15 171 -165.2 80 0 -0.422618 0.906308 0 0.906308 0.422618 -1 0 0 3004.dat
0 STEP
