0 Rover
0 Name: bld_demo.ldr
0 Author: Bricolage
0 !LICENSE Redistributable under CC BY 4.0
1 72 10 8 10 1 0 0 0 1 0 0 0 1 4073.dat
1 72 70 8 10 1 0 0 0 1 0 0 0 1 4073.dat
0 STEP
1 72 10 8 130 1 0 0 0 1 0 0 0 1 4073.dat
1 72 70 8 130 1 0 0 0 1 0 0 0 1 4073.dat
0 STEP
1 72 20 0 40 1 0 0 0 1 0 0 0 1 3001.dat
1 72 20 0 120 1 0 0 0 1 0 0 0 1 3001.dat
1 72 60 0 40 1 0 0 0 1 0 0 0 1 3001.dat
1 72 60 0 120 1 0 0 0 1 0 0 0 1 3001.dat
0 STEP
1 72 70 -24 140 1 0 0 0 1 0 0 0 1 3004.dat
1 72 10 -24 40 1 0 0 0 1 0 0 0 1 3010.dat
1 72 10 -24 120 1 0 0 0 1 0 0 0 1 3010.dat
1 72 40 -24 40 1 0 0 0 1 0 0 0 1 3001.dat
1 72 40 -24 120 1 0 0 0 1 0 0 0 1 3001.dat
1 72 70 -24 60 1 0 0 0 1 0 0 0 1 3009.dat
0 STEP
1 15 10 -48 10 1 0 0 0 1 0 0 0 1 3005.dat
1 15 10 -48 70 1 0 0 0 1 0 0 0 1 3005.dat
1 15 30 -48 10 1 0 0 0 1 0 0 0 1 3005.dat
1 15 30 -48 70 1 0 0 0 1 0 0 0 1 3005.dat
1 15 50 -48 10 1 0 0 0 1 0 0 0 1 3005.dat
1 15 50 -48 70 1 0 0 0 1 0 0 0 1 3005.dat
0 STEP
1 15 70 -48 10 1 0 0 0 1 0 0 0 1 3005.dat
1 15 70 -48 70 1 0 0 0 1 0 0 0 1 3005.dat
1 15 10 -48 30 1 0 0 0 1 0 0 0 1 3005.dat
1 15 70 -48 30 1 0 0 0 1 0 0 0 1 3005.dat
1 15 10 -48 50 1 0 0 0 1 0 0 0 1 3005.dat
1 15 70 -48 50 1 0 0 0 1 0 0 0 1 3005.dat
0 STEP
1 15 10 -72 10 1 0 0 0 1 0 0 0 1 3005.dat
1 15 10 -72 70 1 0 0 0 1 0 0 0 1 3005.dat
1 15 30 -72 10 1 0 0 0 1 0 0 0 1 3005.dat
1 15 30 -72 70 1 0 0 0 1 0 0 0 1 3005.dat
1 15 50 -72 10 1 0 0 0 1 0 0 0 1 3005.dat
1 15 50 -72 70 1 0 0 0 1 0 0 0 1 3005.dat
0 STEP
1 15 70 -72 10 1 0 0 0 1 0 0 0 1 3005.dat
1 15 70 -72 70 1 0 0 0 1 0 0 0 1 3005.dat
1 15 10 -72 30 1 0 0 0 1 0 0 0 1 3005.dat
1 15 70 -72 30 1 0 0 0 1 0 0 0 1 3005.dat
1 15 10 -72 50 1 0 0 0 1 0 0 0 1 3005.dat
1 15 70 -72 50 1 0 0 0 1 0 0 0 1 3005.dat
0 STEP
1 15 10 -96 20 1 0 0 0 1 0 0 0 1 3023.dat
1 15 10 -96 60 1 0 0 0 1 0 0 0 1 3023.dat
1 15 40 -96 40 1 0 0 0 1 0 0 0 1 3020.dat
1 15 70 -96 10 1 0 0 0 1 0 0 0 1 3024.dat
1 15 70 -96 40 1 0 0 0 1 0 0 0 1 3023.dat
1 15 70 -96 70 1 0 0 0 1 0 0 0 1 3024.dat
0 STEP
