0 sitting dog
0 Name: sitting dog.ldr
0 Author: brickify

1 19 20 -24 20 1 0 0 0 1 0 0 0 1 3003.dat
1 19 20 -24 100 1 0 0 0 1 0 0 0 1 3003.dat
1 19 130 -24 20 1 0 0 0 1 0 0 0 1 3002.dat
1 15 50 -24 60 1 0 0 0 1 0 0 0 1 3002.dat
1 19 130 -24 100 1 0 0 0 1 0 0 0 1 3002.dat
1 19 150 -48 20 0 0 1 0 1 0 -1 0 0 3004.dat
1 19 140 -48 100 1 0 0 0 1 0 0 0 1 3003.dat
1 15 40 -48 60 1 0 0 0 1 0 0 0 1 3003.dat
1 19 70 -48 60 0 0 1 0 1 0 -1 0 0 3004.dat
1 19 40 -48 100 1 0 0 0 1 0 0 0 1 3003.dat
1 19 130 -48 40 0 0 1 0 1 0 -1 0 0 3010.dat
1 19 40 -48 20 1 0 0 0 1 0 0 0 1 3003.dat
1 19 100 -48 60 0 0 1 0 1 0 -1 0 0 2456.dat
1 19 150 -48 20 1 0 0 0 1 0 0 0 1 11477.dat
1 19 150 -48 100 -1 0 0 0 1 0 0 0 -1 11477.dat
1 19 40 -72 10 1 0 0 0 1 0 0 0 1 3004.dat
1 19 110 -72 10 1 0 0 0 1 0 0 0 1 3622.dat
1 19 140 -72 60 1 0 0 0 1 0 0 0 1 3003.dat
1 19 110 -72 110 1 0 0 0 1 0 0 0 1 3622.dat
1 19 100 -72 90 1 0 0 0 1 0 0 0 1 3010.dat
1 19 40 -72 100 1 0 0 0 1 0 0 0 1 3003.dat
1 15 40 -72 60 1 0 0 0 1 0 0 0 1 3003.dat
1 19 80 -72 30 1 0 0 0 1 0 0 0 1 3009.dat
1 19 90 -72 60 1 0 0 0 1 0 0 0 1 3002.dat
1 19 150 -96 50 1 0 0 0 1 0 0 0 1 3005.dat
1 19 50 -96 30 1 0 0 0 1 0 0 0 1 3622.dat
1 19 120 -96 70 1 0 0 0 1 0 0 0 1 3010.dat
1 19 70 -96 60 0 0 1 0 1 0 -1 0 0 3004.dat
1 19 80 -96 90 1 0 0 0 1 0 0 0 1 3009.dat
1 19 110 -96 40 1 0 0 0 1 0 0 0 1 3002.dat
1 15 40 -96 60 1 0 0 0 1 0 0 0 1 3003.dat
1 19 150 -104 60 0 0 1 0 1 0 -1 0 0 3023.dat
1 70 150 -112 60 0 0 1 0 1 0 -1 0 0 3023.dat
1 70 150 -120 60 0 0 1 0 1 0 -1 0 0 3023.dat
1 15 30 -120 60 0 0 1 0 1 0 -1 0 0 3010.dat
1 19 80 -120 80 1 0 0 0 1 0 0 0 1 3001.dat
1 19 80 -120 40 1 0 0 0 1 0 0 0 1 3001.dat
1 19 30 -144 110 1 0 0 0 1 0 0 0 1 3005.dat
1 19 70 -144 110 1 0 0 0 1 0 0 0 1 3005.dat
1 19 50 -144 90 0 0 1 0 1 0 -1 0 0 3622.dat
1 19 50 -144 40 0 0 1 0 1 0 -1 0 0 3004.dat
1 19 70 -144 60 0 0 1 0 1 0 -1 0 0 3010.dat
1 19 50 -144 10 1 0 0 0 1 0 0 0 1 3622.dat
1 19 90 -144 60 0 0 1 0 1 0 -1 0 0 3009.dat
1 15 20 -144 60 0 0 1 0 1 0 -1 0 0 3001.dat
1 19 120 -144 60 0 0 1 0 1 0 -1 0 0 2456.dat
1 15 10 -168 30 1 0 0 0 1 0 0 0 1 3005.dat
1 15 10 -168 90 1 0 0 0 1 0 0 0 1 3005.dat
1 19 40 -168 70 1 0 0 0 1 0 0 0 1 3010.dat
1 19 50 -168 50 1 0 0 0 1 0 0 0 1 3622.dat
1 19 130 -168 40 0 0 1 0 1 0 -1 0 0 3010.dat
1 19 50 -168 20 1 0 0 0 1 0 0 0 1 3002.dat
1 19 100 -168 40 0 0 1 0 1 0 -1 0 0 3001.dat
1 19 80 -168 100 1 0 0 0 1 0 0 0 1 2456.dat
1 19 10 -168 50 0 0 1 0 1 0 -1 0 0 87087.dat
1 19 30 -176 30 1 0 0 0 1 0 0 0 1 3024.dat
1 19 30 -176 90 1 0 0 0 1 0 0 0 1 3024.dat
1 15 10 -176 60 0 0 1 0 1 0 -1 0 0 3710.dat
1 15 30 -176 60 0 0 1 0 1 0 -1 0 0 3023.dat
1 19 30 -184 60 0 0 1 0 1 0 -1 0 0 3023.dat
1 19 30 -192 110 1 0 0 0 1 0 0 0 1 3005.dat
1 19 50 -192 30 1 0 0 0 1 0 0 0 1 3005.dat
1 19 90 -192 70 1 0 0 0 1 0 0 0 1 3005.dat
1 19 30 -192 60 0 0 1 0 1 0 -1 0 0 3023.dat
1 19 40 -192 10 1 0 0 0 1 0 0 0 1 3004.dat
1 19 70 -192 40 0 0 1 0 1 0 -1 0 0 3010.dat
1 19 80 -192 100 1 0 0 0 1 0 0 0 1 3003.dat
1 19 130 -192 60 0 0 1 0 1 0 -1 0 0 3009.dat
1 19 110 -192 90 0 0 1 0 1 0 -1 0 0 3622.dat
1 19 50 -192 80 0 0 1 0 1 0 -1 0 0 3010.dat
1 19 100 -192 30 0 0 1 0 1 0 -1 0 0 3002.dat
1 19 30 -200 30 0 0 1 0 1 0 -1 0 0 87087.dat
1 19 30 -200 90 0 0 1 0 1 0 -1 0 0 87087.dat
1 19 30 -208 30 1 0 0 0 1 0 0 0 1 3024.dat
1 19 30 -208 90 1 0 0 0 1 0 0 0 1 3024.dat
1 19 30 -216 30 1 0 0 0 1 0 0 0 1 3024.dat
1 19 30 -216 90 1 0 0 0 1 0 0 0 1 3024.dat
1 19 60 -216 90 1 0 0 0 1 0 0 0 1 3004.dat
1 19 110 -216 90 1 0 0 0 1 0 0 0 1 3622.dat
1 19 120 -216 40 1 0 0 0 1 0 0 0 1 3003.dat
1 19 70 -216 30 1 0 0 0 1 0 0 0 1 3622.dat
1 19 60 -216 50 1 0 0 0 1 0 0 0 1 3010.dat
1 19 80 -216 110 1 0 0 0 1 0 0 0 1 3009.dat
1 19 80 -216 10 1 0 0 0 1 0 0 0 1 3009.dat
1 19 80 -216 70 1 0 0 0 1 0 0 0 1 3009.dat
1 19 130 -240 10 1 0 0 0 1 0 0 0 1 3005.dat
1 19 130 -240 110 1 0 0 0 1 0 0 0 1 3005.dat
1 19 130 -240 60 0 0 1 0 1 0 -1 0 0 3010.dat
1 19 90 -240 40 0 0 1 0 1 0 -1 0 0 3010.dat
1 19 30 -240 60 0 0 1 0 1 0 -1 0 0 3009.dat
1 19 60 -240 40 0 0 1 0 1 0 -1 0 0 3001.dat
1 19 110 -240 60 0 0 1 0 1 0 -1 0 0 3009.dat
1 19 70 -240 100 1 0 0 0 1 0 0 0 1 3002.dat
1 19 30 -240 20 1 0 0 0 1 0 0 0 1 11477.dat
1 19 30 -240 100 -1 0 0 0 1 0 0 0 -1 11477.dat
1 19 50 -240 20 1 0 0 0 1 0 0 0 1 11477.dat
1 19 40 -240 50 0 0 1 0 1 0 -1 0 0 11477.dat
1 19 40 -240 70 0 0 1 0 1 0 -1 0 0 11477.dat
1 19 50 -240 100 -1 0 0 0 1 0 0 0 -1 11477.dat
1 19 120 -240 10 0 0 -1 0 1 0 1 0 0 11477.dat
1 19 120 -240 30 0 0 -1 0 1 0 1 0 0 11477.dat
1 19 120 -240 50 0 0 -1 0 1 0 1 0 0 11477.dat
1 19 120 -240 70 0 0 -1 0 1 0 1 0 0 11477.dat
1 19 110 -240 100 -1 0 0 0 1 0 0 0 -1 11477.dat
1 19 130 -240 100 -1 0 0 0 1 0 0 0 -1 11477.dat
1 70 80 -264 10 1 0 0 0 1 0 0 0 1 3937.dat
1 70 80 -264 110 1 0 0 0 1 0 0 0 1 3937.dat
0 STEP
1 0 -24 -158 50 0 1 0 -1 0 0 0 0 1 3062b.dat
0 STEP
1 0 12 -190 30 0 1 0 -1 0 0 0 0 1 98138.dat
0 STEP
1 0 12 -190 90 0 1 0 -1 0 0 0 0 1 98138.dat
0 STEP
1 70 80 -175.9 -14.9 1 0 0 0 0.0871557 -0.996195 0 0.996195 0.0871557 3023.dat
1 70 70 -176.6 -22.87 1 0 0 0 0.0871557 -0.996195 0 0.996195 0.0871557 3024.dat
1 70 80 -177.3 -30.84 1 0 0 0 0.0871557 -0.996195 0 0.996195 0.0871557 3023.dat
1 70 90 -186.5 -22 0 0 1 0.996195 0.0871557 0 -0.0871557 0.996195 0 3023.dat
1 70 70 -195.8 -13.16 1 0 0 0 0.0871557 -0.996195 0 0.996195 0.0871557 3623.dat
1 70 110 -215.7 -11.42 0 0 1 0.996195 0.0871557 0 -0.0871557 0.996195 0 3623.dat
1 70 50 -216.4 -19.39 0 0 1 0.996195 0.0871557 0 -0.0871557 0.996195 0 3623.dat
1 70 110 -216.4 -19.39 0 0 1 0.996195 0.0871557 0 -0.0871557 0.996195 0 3623.dat
1 70 100 -217.1 -27.36 0 0 1 0.996195 0.0871557 0 -0.0871557 0.996195 0 3021.dat
1 70 60 -217.1 -27.36 0 0 1 0.996195 0.0871557 0 -0.0871557 0.996195 0 3021.dat
1 70 70 -225.7 -10.55 1 0 0 0 0.0871557 -0.996195 0 0.996195 0.0871557 3021.dat
1 70 70 -226.4 -18.52 0 0 1 0.996195 0.0871557 0 -0.0871557 0.996195 0 3710.dat
1 70 90 -236.3 -17.64 0 0 1 0.996195 0.0871557 0 -0.0871557 0.996195 0 3623.dat
1 70 80 -254.9 0.03805 1 0 0 0 0.0871557 -0.996195 0 0.996195 0.0871557 3938.dat
1 70 80 -255.6 -7.932 1 0 0 0 0.0871557 -0.996195 0 0.996195 0.0871557 3023.dat
1 70 80 -257 -23.87 1 0 0 0 0.0871557 -0.996195 0 0.996195 0.0871557 3023.dat
0 STEP
1 70 80 -175.9 134.9 1 0 0 0 0.0871557 0.996195 0 -0.996195 0.0871557 3023.dat
1 70 80 -177.3 150.8 1 0 0 0 0.0871557 0.996195 0 -0.996195 0.0871557 3023.dat
1 70 90 -196.5 141.1 0 0 1 -0.996195 0.0871557 0 -0.0871557 -0.996195 0 3623.dat
1 70 70 -205.8 132.3 1 0 0 0 0.0871557 0.996195 0 -0.996195 0.0871557 3021.dat
1 70 70 -206.5 140.3 0 0 1 -0.996195 0.0871557 0 -0.0871557 -0.996195 0 3710.dat
1 70 110 -215.7 131.4 0 0 1 -0.996195 0.0871557 0 -0.0871557 -0.996195 0 3623.dat
1 70 50 -216.4 139.4 0 0 1 -0.996195 0.0871557 0 -0.0871557 -0.996195 0 3623.dat
1 70 110 -216.4 139.4 0 0 1 -0.996195 0.0871557 0 -0.0871557 -0.996195 0 3623.dat
1 70 100 -217.1 147.4 0 0 1 -0.996195 0.0871557 0 -0.0871557 -0.996195 0 3021.dat
1 70 60 -217.1 147.4 0 0 1 -0.996195 0.0871557 0 -0.0871557 -0.996195 0 3021.dat
1 70 70 -235.6 129.7 1 0 0 0 0.0871557 0.996195 0 -0.996195 0.0871557 3623.dat
1 70 90 -246.3 136.8 0 0 1 -0.996195 0.0871557 0 -0.0871557 -0.996195 0 3023.dat
1 70 80 -254.9 120 1 0 0 0 0.0871557 0.996195 0 -0.996195 0.0871557 3938.dat
1 70 80 -255.6 127.9 1 0 0 0 0.0871557 0.996195 0 -0.996195 0.0871557 3023.dat
1 70 70 -256.3 135.9 1 0 0 0 0.0871557 0.996195 0 -0.996195 0.0871557 3024.dat
1 70 80 -257 143.9 1 0 0 0 0.0871557 0.996195 0 -0.996195 0.0871557 3023.dat
0 STEP
