0 sitting cat with tall ears and curled tail
0 Name: sitting cat with tall ears and curled tail.ldr
0 Author: brickify

1 25 10 -24 130 1 0 0 0 1 0 0 0 1 3005.dat
1 25 30 -24 170 1 0 0 0 1 0 0 0 1 3005.dat
1 25 170 -24 110 1 0 0 0 1 0 0 0 1 3005.dat
1 25 30 -24 150 1 0 0 0 1 0 0 0 1 3622.dat
1 25 70 -24 130 0 0 1 0 1 0 -1 0 0 3622.dat
1 25 150 -24 170 1 0 0 0 1 0 0 0 1 3622.dat
1 25 100 -24 190 1 0 0 0 1 0 0 0 1 3004.dat
1 19 190 -24 100 0 0 1 0 1 0 -1 0 0 3004.dat
1 25 120 -24 110 1 0 0 0 1 0 0 0 1 3010.dat
1 25 40 -24 120 1 0 0 0 1 0 0 0 1 3003.dat
1 19 60 -24 20 1 0 0 0 1 0 0 0 1 3003.dat
1 19 10 -24 100 0 0 1 0 1 0 -1 0 0 3004.dat
1 25 80 -24 170 1 0 0 0 1 0 0 0 1 3010.dat
1 19 140 -24 20 1 0 0 0 1 0 0 0 1 3003.dat
1 25 100 -24 50 1 0 0 0 1 0 0 0 1 3008.dat
1 25 100 -24 80 1 0 0 0 1 0 0 0 1 3007.dat
1 25 140 -24 140 1 0 0 0 1 0 0 0 1 2456.dat
0 STEP
1 25 10 -32 120 0 0 1 0 1 0 -1 0 0 3023.dat
1 25 190 -32 120 0 0 1 0 1 0 -1 0 0 3023.dat
0 STEP
1 70 10 -40 120 0 0 1 0 1 0 -1 0 0 3023.dat
1 70 190 -40 120 0 0 1 0 1 0 -1 0 0 3023.dat
0 STEP
1 25 10 -48 150 1 0 0 0 1 0 0 0 1 3005.dat
1 25 70 -48 10 1 0 0 0 1 0 0 0 1 3005.dat
1 25 130 -48 10 1 0 0 0 1 0 0 0 1 3005.dat
1 25 150 -48 90 1 0 0 0 1 0 0 0 1 3005.dat
1 25 170 -48 130 1 0 0 0 1 0 0 0 1 3005.dat
1 25 170 -48 170 1 0 0 0 1 0 0 0 1 3005.dat
1 25 190 -48 90 1 0 0 0 1 0 0 0 1 3005.dat
1 25 190 -48 120 0 0 1 0 1 0 -1 0 0 3023.dat
1 25 170 -48 60 0 0 1 0 1 0 -1 0 0 3010.dat
1 25 10 -48 120 0 0 1 0 1 0 -1 0 0 3023.dat
1 25 30 -48 50 0 0 1 0 1 0 -1 0 0 3622.dat
1 25 50 -48 40 0 0 1 0 1 0 -1 0 0 3010.dat
1 25 140 -48 110 1 0 0 0 1 0 0 0 1 3010.dat
1 25 110 -48 160 0 0 1 0 1 0 -1 0 0 3010.dat
1 25 70 -48 70 0 0 1 0 1 0 -1 0 0 3622.dat
1 25 30 -48 90 1 0 0 0 1 0 0 0 1 3622.dat
1 25 180 -48 150 1 0 0 0 1 0 0 0 1 3004.dat
1 25 150 -48 40 0 0 1 0 1 0 -1 0 0 3010.dat
1 19 100 -48 30 1 0 0 0 1 0 0 0 1 3010.dat
1 25 90 -48 120 0 0 1 0 1 0 -1 0 0 3008.dat
1 25 140 -48 150 0 0 1 0 1 0 -1 0 0 3002.dat
1 25 30 -48 140 0 0 1 0 1 0 -1 0 0 3010.dat
1 25 60 -48 140 0 0 1 0 1 0 -1 0 0 3001.dat
1 25 120 -48 70 0 0 1 0 1 0 -1 0 0 3002.dat
0 STEP
1 25 190 -56 100 0 0 1 0 1 0 -1 0 0 3023.dat
1 25 10 -56 100 0 0 1 0 1 0 -1 0 0 3023.dat
0 STEP
1 70 190 -64 100 0 0 1 0 1 0 -1 0 0 3023.dat
1 70 10 -64 100 0 0 1 0 1 0 -1 0 0 3023.dat
0 STEP
1 25 10 -72 150 1 0 0 0 1 0 0 0 1 3005.dat
1 25 10 -72 100 0 0 1 0 1 0 -1 0 0 3023.dat
1 25 30 -72 160 0 0 1 0 1 0 -1 0 0 3004.dat
1 25 60 -72 170 1 0 0 0 1 0 0 0 1 3004.dat
1 25 100 -72 190 1 0 0 0 1 0 0 0 1 3004.dat
1 25 110 -72 170 1 0 0 0 1 0 0 0 1 3622.dat
1 25 170 -72 60 0 0 1 0 1 0 -1 0 0 3010.dat
1 25 160 -72 170 1 0 0 0 1 0 0 0 1 3004.dat
1 25 190 -72 100 0 0 1 0 1 0 -1 0 0 3023.dat
1 25 30 -72 60 0 0 1 0 1 0 -1 0 0 3010.dat
1 25 160 -72 130 1 0 0 0 1 0 0 0 1 3010.dat
1 25 60 -72 130 1 0 0 0 1 0 0 0 1 3009.dat
1 25 120 -72 150 1 0 0 0 1 0 0 0 1 3008.dat
1 19 100 -72 30 1 0 0 0 1 0 0 0 1 3009.dat
1 25 100 -72 90 1 0 0 0 1 0 0 0 1 3009.dat
1 25 100 -72 110 1 0 0 0 1 0 0 0 1 3008.dat
1 25 100 -72 60 1 0 0 0 1 0 0 0 1 2456.dat
1 25 10 -72 140 -1 0 0 0 1 0 0 0 -1 11477.dat
1 25 190 -72 140 -1 0 0 0 1 0 0 0 -1 11477.dat
0 STEP
1 25 170 -80 60 0 0 1 0 1 0 -1 0 0 3023.dat
1 25 30 -80 60 0 0 1 0 1 0 -1 0 0 3023.dat
0 STEP
1 70 30 -88 60 0 0 1 0 1 0 -1 0 0 3023.dat
1 70 170 -88 60 0 0 1 0 1 0 -1 0 0 3023.dat
0 STEP
1 25 50 -96 30 1 0 0 0 1 0 0 0 1 3005.dat
1 25 110 -96 190 1 0 0 0 1 0 0 0 1 3005.dat
1 25 150 -96 170 1 0 0 0 1 0 0 0 1 3005.dat
1 25 130 -96 160 0 0 1 0 1 0 -1 0 0 3004.dat
1 25 170 -96 60 0 0 1 0 1 0 -1 0 0 3023.dat
1 25 130 -96 110 0 0 1 0 1 0 -1 0 0 3622.dat
1 25 30 -96 120 0 0 1 0 1 0 -1 0 0 3010.dat
1 25 30 -96 60 0 0 1 0 1 0 -1 0 0 3023.dat
1 25 110 -96 140 0 0 1 0 1 0 -1 0 0 3010.dat
1 25 150 -96 50 0 0 1 0 1 0 -1 0 0 3622.dat
1 25 130 -96 60 0 0 1 0 1 0 -1 0 0 3004.dat
1 25 110 -96 70 0 0 1 0 1 0 -1 0 0 3622.dat
1 19 100 -96 30 1 0 0 0 1 0 0 0 1 3010.dat
1 25 60 -96 150 0 0 1 0 1 0 -1 0 0 3002.dat
1 25 160 -96 120 0 0 1 0 1 0 -1 0 0 3001.dat
1 25 60 -96 80 0 0 1 0 1 0 -1 0 0 3001.dat
1 25 90 -96 120 0 0 1 0 1 0 -1 0 0 3008.dat
1 25 60 -96 170 0 0 1 0 1 0 -1 0 0 11477.dat
1 25 140 -96 170 0 0 -1 0 1 0 1 0 0 11477.dat
0 STEP
1 25 50 -104 30 1 0 0 0 1 0 0 0 1 3024.dat
1 25 150 -104 30 1 0 0 0 1 0 0 0 1 3024.dat
1 25 170 -104 120 0 0 1 0 1 0 -1 0 0 3023.dat
1 25 30 -104 120 0 0 1 0 1 0 -1 0 0 3023.dat
1 70 100 -104 130 1 0 0 0 1 0 0 0 1 3710.dat
1 25 100 -104 90 1 0 0 0 1 0 0 0 1 3666.dat
1 25 100 -104 150 1 0 0 0 1 0 0 0 1 3666.dat
0 STEP
1 70 30 -112 110 1 0 0 0 1 0 0 0 1 3024.dat
1 25 30 -112 130 1 0 0 0 1 0 0 0 1 3024.dat
1 25 50 -112 30 1 0 0 0 1 0 0 0 1 3024.dat
1 25 50 -112 150 1 0 0 0 1 0 0 0 1 3024.dat
1 25 150 -112 30 1 0 0 0 1 0 0 0 1 3024.dat
1 25 150 -112 150 1 0 0 0 1 0 0 0 1 3024.dat
1 70 170 -112 110 1 0 0 0 1 0 0 0 1 3024.dat
1 25 170 -112 130 1 0 0 0 1 0 0 0 1 3024.dat
1 25 100 -112 140 1 0 0 0 1 0 0 0 1 3020.dat
1 70 100 -112 90 1 0 0 0 1 0 0 0 1 3666.dat
1 25 60 -112 150 0 0 1 0 1 0 -1 0 0 11477.dat
1 25 140 -112 150 0 0 -1 0 1 0 1 0 0 11477.dat
0 STEP
1 25 70 -120 110 1 0 0 0 1 0 0 0 1 3005.dat
1 25 150 -120 130 1 0 0 0 1 0 0 0 1 3005.dat
1 25 30 -120 110 1 0 0 0 1 0 0 0 1 3024.dat
1 19 50 -120 30 1 0 0 0 1 0 0 0 1 3024.dat
1 19 150 -120 30 1 0 0 0 1 0 0 0 1 3024.dat
1 25 170 -120 110 1 0 0 0 1 0 0 0 1 3024.dat
1 25 170 -120 80 0 0 1 0 1 0 -1 0 0 3004.dat
1 25 30 -120 70 0 0 1 0 1 0 -1 0 0 3622.dat
1 25 100 -120 190 1 0 0 0 1 0 0 0 1 3004.dat
1 25 80 -120 50 1 0 0 0 1 0 0 0 1 3010.dat
1 25 50 -120 120 0 0 1 0 1 0 -1 0 0 3004.dat
1 25 120 -120 110 1 0 0 0 1 0 0 0 1 3010.dat
1 19 100 -120 10 1 0 0 0 1 0 0 0 1 3710.dat
1 19 100 -120 30 1 0 0 0 1 0 0 0 1 3010.dat
1 25 100 -120 130 1 0 0 0 1 0 0 0 1 3710.dat
1 25 150 -120 50 1 0 0 0 1 0 0 0 1 3622.dat
1 25 100 -120 90 1 0 0 0 1 0 0 0 1 3666.dat
1 25 100 -120 70 1 0 0 0 1 0 0 0 1 3009.dat
0 STEP
1 19 90 -128 10 1 0 0 0 1 0 0 0 1 3024.dat
1 70 100 -128 190 1 0 0 0 1 0 0 0 1 3023.dat
0 STEP
1 19 30 -136 30 1 0 0 0 1 0 0 0 1 3024.dat
1 25 30 -136 130 1 0 0 0 1 0 0 0 1 3024.dat
1 19 50 -136 10 1 0 0 0 1 0 0 0 1 3024.dat
1 19 90 -136 10 1 0 0 0 1 0 0 0 1 3024.dat
1 19 150 -136 10 1 0 0 0 1 0 0 0 1 3024.dat
1 19 170 -136 30 1 0 0 0 1 0 0 0 1 3024.dat
1 25 170 -136 130 1 0 0 0 1 0 0 0 1 3024.dat
1 25 190 -136 80 0 0 1 0 1 0 -1 0 0 3710.dat
1 70 100 -136 190 1 0 0 0 1 0 0 0 1 3023.dat
1 25 10 -136 80 0 0 1 0 1 0 -1 0 0 3710.dat
0 STEP
1 19 50 -144 30 1 0 0 0 1 0 0 0 1 3005.dat
1 25 110 -144 50 1 0 0 0 1 0 0 0 1 3005.dat
1 19 30 -144 30 1 0 0 0 1 0 0 0 1 3024.dat
1 25 30 -144 130 1 0 0 0 1 0 0 0 1 3024.dat
1 19 50 -144 10 1 0 0 0 1 0 0 0 1 3024.dat
1 19 150 -144 10 1 0 0 0 1 0 0 0 1 3024.dat
1 19 170 -144 30 1 0 0 0 1 0 0 0 1 3024.dat
1 25 170 -144 130 1 0 0 0 1 0 0 0 1 3024.dat
1 19 120 -144 10 1 0 0 0 1 0 0 0 1 3004.dat
1 25 100 -144 190 1 0 0 0 1 0 0 0 1 3023.dat
1 25 130 -144 60 0 0 1 0 1 0 -1 0 0 3004.dat
1 25 130 -144 110 0 0 1 0 1 0 -1 0 0 3622.dat
1 19 70 -144 20 0 0 1 0 1 0 -1 0 0 3004.dat
1 25 60 -144 130 1 0 0 0 1 0 0 0 1 3004.dat
1 25 90 -144 60 0 0 1 0 1 0 -1 0 0 3004.dat
1 25 150 -144 120 0 0 1 0 1 0 -1 0 0 3004.dat
1 25 90 -144 110 0 0 1 0 1 0 -1 0 0 3622.dat
1 25 190 -144 80 0 0 1 0 1 0 -1 0 0 3710.dat
1 25 110 -144 100 0 0 1 0 1 0 -1 0 0 3010.dat
1 25 150 -144 70 0 0 1 0 1 0 -1 0 0 3622.dat
1 25 10 -144 80 0 0 1 0 1 0 -1 0 0 3710.dat
1 25 170 -144 80 0 0 1 0 1 0 -1 0 0 3010.dat
1 25 50 -144 110 1 0 0 0 1 0 0 0 1 3622.dat
1 25 30 -144 70 0 0 1 0 1 0 -1 0 0 3622.dat
1 19 120 -144 30 1 0 0 0 1 0 0 0 1 3010.dat
1 25 60 -144 70 0 0 1 0 1 0 -1 0 0 3002.dat
0 STEP
1 25 100 -152 190 1 0 0 0 1 0 0 0 1 3023.dat
1 19 130 -152 10 1 0 0 0 1 0 0 0 1 3623.dat
1 19 60 -152 10 1 0 0 0 1 0 0 0 1 3023.dat
1 19 100 -152 30 1 0 0 0 1 0 0 0 1 3460.dat
0 STEP
1 19 30 -160 30 1 0 0 0 1 0 0 0 1 3024.dat
1 19 90 -160 30 1 0 0 0 1 0 0 0 1 3024.dat
1 19 150 -160 10 1 0 0 0 1 0 0 0 1 3024.dat
1 70 100 -160 190 1 0 0 0 1 0 0 0 1 3023.dat
1 19 160 -160 30 1 0 0 0 1 0 0 0 1 3023.dat
1 19 60 -160 20 1 0 0 0 1 0 0 0 1 3022.dat
1 19 120 -160 20 1 0 0 0 1 0 0 0 1 3022.dat
1 19 90 -160 10 1 0 0 0 1 0 0 0 1 87087.dat
0 STEP
1 25 110 -168 90 1 0 0 0 1 0 0 0 1 3005.dat
1 25 10 -168 30 1 0 0 0 1 0 0 0 1 3024.dat
1 25 70 -168 10 1 0 0 0 1 0 0 0 1 3024.dat
1 25 170 -168 10 1 0 0 0 1 0 0 0 1 3024.dat
1 25 60 -168 30 1 0 0 0 1 0 0 0 1 3023.dat
1 25 170 -168 30 1 0 0 0 1 0 0 0 1 3623.dat
1 25 180 -168 70 1 0 0 0 1 0 0 0 1 3004.dat
1 25 50 -168 130 1 0 0 0 1 0 0 0 1 3622.dat
1 25 30 -168 20 0 0 1 0 1 0 -1 0 0 3023.dat
1 25 160 -168 90 1 0 0 0 1 0 0 0 1 3010.dat
1 25 120 -168 110 1 0 0 0 1 0 0 0 1 3004.dat
1 25 90 -168 110 0 0 1 0 1 0 -1 0 0 3622.dat
1 25 170 -168 110 1 0 0 0 1 0 0 0 1 3622.dat
1 25 140 -168 130 1 0 0 0 1 0 0 0 1 3010.dat
1 25 40 -168 50 1 0 0 0 1 0 0 0 1 3010.dat
1 70 100 -168 190 1 0 0 0 1 0 0 0 1 3023.dat
1 25 140 -168 50 1 0 0 0 1 0 0 0 1 3009.dat
1 25 80 -168 70 1 0 0 0 1 0 0 0 1 3008.dat
1 25 110 -168 20 1 0 0 0 1 0 0 0 1 3021.dat
1 25 40 -168 100 1 0 0 0 1 0 0 0 1 3001.dat
0 STEP
1 70 10 -176 70 0 0 1 0 1 0 -1 0 0 3623.dat
1 70 190 -176 70 0 0 1 0 1 0 -1 0 0 3623.dat
0 STEP
1 25 190 -184 70 0 0 1 0 1 0 -1 0 0 3623.dat
1 25 10 -184 70 0 0 1 0 1 0 -1 0 0 3623.dat
1 25 50 -184 10 1 0 0 0 1 0 0 0 1 87087.dat
1 25 150 -184 10 1 0 0 0 1 0 0 0 1 87087.dat
0 STEP
1 25 10 -192 30 1 0 0 0 1 0 0 0 1 3005.dat
1 25 10 -192 110 1 0 0 0 1 0 0 0 1 3005.dat
1 25 170 -192 90 1 0 0 0 1 0 0 0 1 3005.dat
1 25 190 -192 30 1 0 0 0 1 0 0 0 1 3005.dat
1 25 50 -192 10 1 0 0 0 1 0 0 0 1 3024.dat
1 25 150 -192 10 1 0 0 0 1 0 0 0 1 3024.dat
1 25 150 -192 60 0 0 1 0 1 0 -1 0 0 3010.dat
1 25 130 -192 80 0 0 1 0 1 0 -1 0 0 3004.dat
1 25 190 -192 70 0 0 1 0 1 0 -1 0 0 3623.dat
1 25 10 -192 70 0 0 1 0 1 0 -1 0 0 3623.dat
1 25 170 -192 40 0 0 1 0 1 0 -1 0 0 3010.dat
1 25 120 -192 30 0 0 1 0 1 0 -1 0 0 3002.dat
1 25 100 -192 190 1 0 0 0 1 0 0 0 1 3004.dat
1 25 160 -192 110 1 0 0 0 1 0 0 0 1 3010.dat
1 25 50 -192 40 0 0 1 0 1 0 -1 0 0 3004.dat
1 25 30 -192 30 0 0 1 0 1 0 -1 0 0 3622.dat
1 25 110 -192 90 0 0 1 0 1 0 -1 0 0 3622.dat
1 25 40 -192 100 0 0 1 0 1 0 -1 0 0 3001.dat
1 25 120 -192 130 1 0 0 0 1 0 0 0 1 3009.dat
1 25 80 -192 60 0 0 1 0 1 0 -1 0 0 2456.dat
0 STEP
1 25 100 -200 190 1 0 0 0 1 0 0 0 1 3023.dat
1 70 190 -200 70 0 0 1 0 1 0 -1 0 0 3623.dat
1 70 10 -200 70 0 0 1 0 1 0 -1 0 0 3623.dat
0 STEP
1 25 10 -208 70 0 0 1 0 1 0 -1 0 0 3623.dat
1 25 190 -208 70 0 0 1 0 1 0 -1 0 0 3623.dat
0 STEP
1 25 140 -216 70 1 0 0 0 1 0 0 0 1 3004.dat
1 25 40 -216 70 1 0 0 0 1 0 0 0 1 3004.dat
1 25 50 -216 10 1 0 0 0 1 0 0 0 1 3622.dat
1 25 100 -216 130 1 0 0 0 1 0 0 0 1 3004.dat
1 25 50 -216 130 1 0 0 0 1 0 0 0 1 3622.dat
1 70 100 -216 10 1 0 0 0 1 0 0 0 1 3004.dat
1 25 160 -216 110 1 0 0 0 1 0 0 0 1 3010.dat
1 25 120 -216 50 1 0 0 0 1 0 0 0 1 3010.dat
1 25 150 -216 130 1 0 0 0 1 0 0 0 1 3622.dat
1 25 60 -216 110 1 0 0 0 1 0 0 0 1 3009.dat
1 25 160 -216 30 1 0 0 0 1 0 0 0 1 3010.dat
1 25 90 -216 70 1 0 0 0 1 0 0 0 1 3622.dat
1 25 190 -216 70 0 0 1 0 1 0 -1 0 0 3623.dat
1 25 50 -216 50 1 0 0 0 1 0 0 0 1 3622.dat
1 25 10 -216 70 0 0 1 0 1 0 -1 0 0 3623.dat
1 25 150 -216 10 1 0 0 0 1 0 0 0 1 3622.dat
1 25 170 -216 60 0 0 1 0 1 0 -1 0 0 3004.dat
1 25 100 -216 90 1 0 0 0 1 0 0 0 1 3008.dat
1 25 60 -216 30 1 0 0 0 1 0 0 0 1 3009.dat
1 25 10 -216 40 1 0 0 0 1 0 0 0 1 11477.dat
1 25 10 -216 100 -1 0 0 0 1 0 0 0 -1 11477.dat
1 25 190 -216 40 1 0 0 0 1 0 0 0 1 11477.dat
1 25 190 -216 100 -1 0 0 0 1 0 0 0 -1 11477.dat
0 STEP
1 25 30 -224 110 1 0 0 0 1 0 0 0 1 3024.dat
1 25 170 -224 110 1 0 0 0 1 0 0 0 1 3024.dat
1 70 100 -224 10 1 0 0 0 1 0 0 0 1 3023.dat
1 25 140 -224 10 1 0 0 0 1 0 0 0 1 3023.dat
1 25 60 -224 10 1 0 0 0 1 0 0 0 1 3023.dat
1 25 100 -224 130 1 0 0 0 1 0 0 0 1 3666.dat
1 25 100 -224 50 1 0 0 0 1 0 0 0 1 3023.dat
0 STEP
1 25 30 -232 110 1 0 0 0 1 0 0 0 1 3024.dat
1 25 170 -232 110 1 0 0 0 1 0 0 0 1 3024.dat
1 25 100 -232 50 1 0 0 0 1 0 0 0 1 3023.dat
1 25 140 -232 10 1 0 0 0 1 0 0 0 1 3023.dat
1 25 60 -232 10 1 0 0 0 1 0 0 0 1 3023.dat
1 70 100 -232 10 1 0 0 0 1 0 0 0 1 3023.dat
1 25 100 -232 130 1 0 0 0 1 0 0 0 1 3666.dat
1 25 60 -232 10 0 0 1 0 1 0 -1 0 0 11477.dat
1 25 60 -232 130 0 0 1 0 1 0 -1 0 0 11477.dat
1 25 140 -232 10 0 0 -1 0 1 0 1 0 0 11477.dat
1 25 140 -232 130 0 0 -1 0 1 0 1 0 0 11477.dat
0 STEP
1 25 130 -240 40 0 0 1 0 1 0 -1 0 0 3004.dat
1 70 100 -240 50 1 0 0 0 1 0 0 0 1 3023.dat
1 70 100 -240 30 1 0 0 0 1 0 0 0 1 3004.dat
1 25 150 -240 50 0 0 1 0 1 0 -1 0 0 3622.dat
1 25 130 -240 90 0 0 1 0 1 0 -1 0 0 3622.dat
1 25 150 -240 100 0 0 1 0 1 0 -1 0 0 3004.dat
1 25 60 -240 40 1 0 0 0 1 0 0 0 1 3003.dat
1 25 30 -240 60 0 0 1 0 1 0 -1 0 0 3010.dat
1 25 60 -240 90 0 0 1 0 1 0 -1 0 0 3002.dat
1 25 170 -240 60 0 0 1 0 1 0 -1 0 0 3010.dat
1 25 100 -240 90 0 0 1 0 1 0 -1 0 0 3002.dat
1 25 40 -240 30 0 0 1 0 1 0 -1 0 0 11477.dat
1 25 50 -240 100 -1 0 0 0 1 0 0 0 -1 11477.dat
1 25 70 -240 40 1 0 0 0 1 0 0 0 1 11477.dat
1 25 70 -240 100 -1 0 0 0 1 0 0 0 -1 11477.dat
1 70 90 -240 40 1 0 0 0 1 0 0 0 1 11477.dat
1 25 90 -240 100 -1 0 0 0 1 0 0 0 -1 11477.dat
1 70 110 -240 40 1 0 0 0 1 0 0 0 1 11477.dat
1 25 110 -240 100 -1 0 0 0 1 0 0 0 -1 11477.dat
1 25 130 -240 40 1 0 0 0 1 0 0 0 1 11477.dat
1 25 130 -240 100 -1 0 0 0 1 0 0 0 -1 11477.dat
1 25 160 -240 30 0 0 -1 0 1 0 1 0 0 11477.dat
1 25 150 -240 100 -1 0 0 0 1 0 0 0 -1 11477.dat
0 STEP
1 25 160 -264 70 1 0 0 0 1 0 0 0 1 3004.dat
1 19 160 -264 50 1 0 0 0 1 0 0 0 1 3004.dat
1 25 40 -264 70 1 0 0 0 1 0 0 0 1 3004.dat
1 19 40 -264 50 1 0 0 0 1 0 0 0 1 3004.dat
0 STEP
1 19 30 -272 50 1 0 0 0 1 0 0 0 1 3024.dat
1 25 30 -272 70 1 0 0 0 1 0 0 0 1 3024.dat
1 19 170 -272 50 1 0 0 0 1 0 0 0 1 3024.dat
1 25 170 -272 70 1 0 0 0 1 0 0 0 1 3024.dat
0 STEP
1 19 30 -280 50 1 0 0 0 1 0 0 0 1 3024.dat
1 25 30 -280 70 1 0 0 0 1 0 0 0 1 3024.dat
1 19 170 -280 50 1 0 0 0 1 0 0 0 1 3024.dat
1 25 170 -280 70 1 0 0 0 1 0 0 0 1 3024.dat
0 STEP
1 0 50 -174 -24 1 0 0 0 0 -1 0 1 0 3062b.dat
1 0 50 -174 -32 1 0 0 0 0 -1 0 1 0 98138.dat
0 STEP
1 0 150 -174 -24 1 0 0 0 0 -1 0 1 0 3062b.dat
1 0 150 -174 -32 1 0 0 0 0 -1 0 1 0 98138.dat
0 STEP
1 29 90 -150 -8 1 0 0 0 0 -1 0 1 0 6141.dat
1 29 90 -150 -16 1 0 0 0 0 -1 0 1 0 98138.dat
0 STEP
