0 lego chess knight
0 Name: lego chess knight.ldr
0 Author: brickify

1 191 50 -8 110 1 0 0 0 1 0 0 0 1 3024.dat
1 191 100 -8 130 1 0 0 0 1 0 0 0 1 3023.dat
1 191 90 -8 10 1 0 0 0 1 0 0 0 1 3623.dat
1 191 40 -8 10 1 0 0 0 1 0 0 0 1 3023.dat
1 191 20 -8 100 1 0 0 0 1 0 0 0 1 3022.dat
1 191 50 -8 130 1 0 0 0 1 0 0 0 1 3623.dat
1 191 110 -8 90 1 0 0 0 1 0 0 0 1 3623.dat
1 191 110 -8 30 1 0 0 0 1 0 0 0 1 3623.dat
1 191 40 -8 30 1 0 0 0 1 0 0 0 1 3710.dat
1 191 100 -8 110 1 0 0 0 1 0 0 0 1 3710.dat
0 STEP
1 191 10 -16 30 1 0 0 0 1 0 0 0 1 3024.dat
1 191 30 -16 90 1 0 0 0 1 0 0 0 1 3024.dat
1 191 130 -16 30 1 0 0 0 1 0 0 0 1 3024.dat
1 191 130 -16 100 0 0 1 0 1 0 -1 0 0 3023.dat
1 191 10 -16 100 0 0 1 0 1 0 -1 0 0 3023.dat
1 191 100 -16 20 1 0 0 0 1 0 0 0 1 3022.dat
1 191 50 -16 120 1 0 0 0 1 0 0 0 1 3021.dat
1 191 100 -16 110 0 0 1 0 1 0 -1 0 0 3021.dat
1 191 50 -16 20 1 0 0 0 1 0 0 0 1 3021.dat
0 STEP
1 191 60 -24 90 1 0 0 0 1 0 0 0 1 3004.dat
1 191 30 -24 60 1 0 0 0 1 0 0 0 1 3002.dat
1 191 100 -24 60 1 0 0 0 1 0 0 0 1 3001.dat
1 191 30 -24 130 1 0 0 0 1 0 0 0 1 3024.dat
1 191 30 -24 90 1 0 0 0 1 0 0 0 1 3024.dat
1 191 130 -24 30 1 0 0 0 1 0 0 0 1 3024.dat
1 191 10 -24 100 0 0 1 0 1 0 -1 0 0 3023.dat
1 191 50 -24 110 1 0 0 0 1 0 0 0 1 3623.dat
1 191 100 -24 20 1 0 0 0 1 0 0 0 1 3022.dat
1 191 40 -24 30 1 0 0 0 1 0 0 0 1 3710.dat
1 191 50 -24 10 1 0 0 0 1 0 0 0 1 3623.dat
1 191 80 -24 130 1 0 0 0 1 0 0 0 1 3710.dat
1 191 110 -24 100 1 0 0 0 1 0 0 0 1 3021.dat
1 191 10 -24 40 1 0 0 0 1 0 0 0 1 11477.dat
1 191 10 -24 100 -1 0 0 0 1 0 0 0 -1 11477.dat
1 191 30 -24 20 1 0 0 0 1 0 0 0 1 11477.dat
1 191 30 -24 120 -1 0 0 0 1 0 0 0 -1 11477.dat
1 191 100 -24 10 0 0 -1 0 1 0 1 0 0 11477.dat
1 191 100 -24 130 0 0 -1 0 1 0 1 0 0 11477.dat
1 191 120 -24 30 0 0 -1 0 1 0 1 0 0 11477.dat
1 191 120 -24 110 0 0 -1 0 1 0 1 0 0 11477.dat
0 STEP
1 191 90 -32 110 1 0 0 0 1 0 0 0 1 3024.dat
1 191 90 -32 60 0 0 1 0 1 0 -1 0 0 3710.dat
1 191 60 -32 100 1 0 0 0 1 0 0 0 1 3022.dat
1 191 110 -32 70 0 0 1 0 1 0 -1 0 0 3623.dat
1 191 60 -32 50 0 0 1 0 1 0 -1 0 0 3021.dat
0 STEP
1 191 70 -40 30 1 0 0 0 1 0 0 0 1 3623.dat
1 191 70 -40 110 1 0 0 0 1 0 0 0 1 3623.dat
1 191 80 -40 60 1 0 0 0 1 0 0 0 1 3020.dat
1 191 80 -40 90 1 0 0 0 1 0 0 0 1 3710.dat
0 STEP
1 191 30 -48 70 0 0 1 0 1 0 -1 0 0 3622.dat
1 191 70 -48 110 1 0 0 0 1 0 0 0 1 3024.dat
1 191 110 -48 70 0 0 1 0 1 0 -1 0 0 3623.dat
1 191 50 -48 100 0 0 1 0 1 0 -1 0 0 3023.dat
1 191 90 -48 100 0 0 1 0 1 0 -1 0 0 3023.dat
1 191 50 -48 50 0 0 1 0 1 0 -1 0 0 3623.dat
1 191 70 -48 60 0 0 1 0 1 0 -1 0 0 3710.dat
1 191 90 -48 50 0 0 1 0 1 0 -1 0 0 3623.dat
1 191 30 -48 60 1 0 0 0 1 0 0 0 1 11477.dat
1 191 60 -48 30 0 0 1 0 1 0 -1 0 0 11477.dat
1 191 60 -48 110 0 0 1 0 1 0 -1 0 0 11477.dat
1 191 110 -48 60 1 0 0 0 1 0 0 0 1 11477.dat
0 STEP
1 191 90 -72 60 0 0 1 0 1 0 -1 0 0 3004.dat
1 191 80 -72 90 1 0 0 0 1 0 0 0 1 3004.dat
1 191 50 -72 70 0 0 1 0 1 0 -1 0 0 3622.dat
1 191 70 -72 60 0 0 1 0 1 0 -1 0 0 3937.dat
0 STEP
1 191 70 -72 60 0 0 1 0 1 0 -1 0 0 3938.dat
0 STEP
1 191 110 -96 50 1 0 0 0 1 0 0 0 1 3005.dat
1 191 40 -96 80 1 0 0 0 1 0 0 0 1 3003.dat
1 191 60 -96 50 1 0 0 0 1 0 0 0 1 3010.dat
1 191 90 -96 80 1 0 0 0 1 0 0 0 1 3002.dat
0 STEP
1 191 50 -120 70 0 0 1 0 1 0 -1 0 0 3622.dat
1 226 110 -120 70 0 0 1 0 1 0 -1 0 0 3622.dat
1 191 80 -120 70 0 0 1 0 1 0 -1 0 0 3002.dat
0 STEP
1 191 80 -128 70 0 0 1 0 1 0 -1 0 0 3021.dat
0 STEP
1 191 80 -136 70 0 0 1 0 1 0 -1 0 0 3021.dat
0 STEP
1 226 110 -144 70 0 0 1 0 1 0 -1 0 0 3622.dat
1 191 80 -144 70 0 0 1 0 1 0 -1 0 0 3021.dat
0 STEP
1 191 70 -152 90 1 0 0 0 1 0 0 0 1 3623.dat
1 191 70 -152 60 1 0 0 0 1 0 0 0 1 3021.dat
1 191 20 -152 70 0 0 1 0 1 0 -1 0 0 3021.dat
0 STEP
1 191 20 -160 50 1 0 0 0 1 0 0 0 1 3023.dat
1 191 20 -160 90 1 0 0 0 1 0 0 0 1 3023.dat
1 191 80 -160 90 1 0 0 0 1 0 0 0 1 3023.dat
1 191 80 -160 50 1 0 0 0 1 0 0 0 1 3023.dat
1 191 60 -160 70 1 0 0 0 1 0 0 0 1 3710.dat
0 STEP
1 226 110 -168 70 0 0 1 0 1 0 -1 0 0 3622.dat
1 191 70 -168 90 1 0 0 0 1 0 0 0 1 3024.dat
1 191 20 -168 90 1 0 0 0 1 0 0 0 1 3023.dat
1 191 80 -168 50 1 0 0 0 1 0 0 0 1 3023.dat
1 191 50 -168 70 1 0 0 0 1 0 0 0 1 3623.dat
1 191 20 -168 50 1 0 0 0 1 0 0 0 1 3023.dat
1 191 90 -168 80 0 0 1 0 1 0 -1 0 0 3023.dat
1 191 20 -168 50 0 0 1 0 1 0 -1 0 0 11477.dat
1 191 30 -168 80 -1 0 0 0 1 0 0 0 -1 11477.dat
0 STEP
1 191 80 -176 70 0 0 1 0 1 0 -1 0 0 3021.dat
1 191 50 -176 50 1 0 0 0 1 0 0 0 1 87087.dat
1 191 50 -176 90 -1 0 0 0 1 0 0 0 -1 87087.dat
1 191 10 -176 70 0 0 1 0 1 0 -1 0 0 87087.dat
0 STEP
1 191 80 -184 70 0 0 1 0 1 0 -1 0 0 3021.dat
1 191 90 -184 60 1 0 0 0 1 0 0 0 1 11477.dat
0 STEP
1 226 110 -192 70 0 0 1 0 1 0 -1 0 0 3622.dat
1 191 70 -192 50 1 0 0 0 1 0 0 0 1 3024.dat
1 191 70 -192 90 1 0 0 0 1 0 0 0 1 3024.dat
1 226 110 -192 60 1 0 0 0 1 0 0 0 1 11477.dat
0 STEP
1 0 50 -166 32 1 0 0 0 0 -1 0 1 0 98138.dat
0 STEP
1 0 50 -166 108 1 0 0 0 0 1 0 -1 0 98138.dat
0 STEP
1 191 -8 -166 70 0 1 0 -1 0 0 0 0 1 3024.dat
1 191 -8 -166 70 0 1 0 -1 0 0 0 0 1 85861.dat
1 0 -4 -166 70 0 -1 0 -1 0 0 0 0 -1 30374.dat
0 STEP
