0 chunky mars rover
0 Name: chunky mars rover.ldr
0 Author: brickify

1 72 20 -3 12 -1 0 0 0 1 0 0 0 -1 4624.dat
1 0 20 -3 12 -1 0 0 0 1 0 0 0 -1 3641.dat
1 72 20 -3 68 1 0 0 0 1 0 0 0 1 4624.dat
1 0 20 -3 68 1 0 0 0 1 0 0 0 1 3641.dat
1 72 60 -3 12 -1 0 0 0 1 0 0 0 -1 4624.dat
1 0 60 -3 12 -1 0 0 0 1 0 0 0 -1 3641.dat
1 72 60 -3 68 1 0 0 0 1 0 0 0 1 4624.dat
1 0 60 -3 68 1 0 0 0 1 0 0 0 1 3641.dat
1 72 100 -3 12 -1 0 0 0 1 0 0 0 -1 4624.dat
1 0 100 -3 12 -1 0 0 0 1 0 0 0 -1 3641.dat
1 72 100 -3 68 1 0 0 0 1 0 0 0 1 4624.dat
1 0 100 -3 68 1 0 0 0 1 0 0 0 1 3641.dat
0 STEP
1 71 60 -8 40 1 0 0 0 1 0 0 0 1 3795.dat
1 0 20 -8 40 0 0 1 0 1 0 -1 0 0 4600.dat
1 0 60 -8 40 0 0 1 0 1 0 -1 0 0 4600.dat
1 0 100 -8 40 0 0 1 0 1 0 -1 0 0 4600.dat
0 STEP
1 72 80 -16 20 1 0 0 0 1 0 0 0 1 3020.dat
1 72 20 -16 40 0 0 1 0 1 0 -1 0 0 3020.dat
1 72 80 -16 60 1 0 0 0 1 0 0 0 1 3020.dat
0 STEP
1 28 10 -24 10 1 0 0 0 1 0 0 0 1 3024.dat
1 28 20 -24 30 1 0 0 0 1 0 0 0 1 3023.dat
1 28 60 -24 10 1 0 0 0 1 0 0 0 1 3710.dat
1 28 70 -24 30 1 0 0 0 1 0 0 0 1 3623.dat
1 28 110 -24 20 0 0 1 0 1 0 -1 0 0 3023.dat
1 28 60 -24 60 1 0 0 0 1 0 0 0 1 3795.dat
0 STEP
1 71 90 -48 30 1 0 0 0 1 0 0 0 1 3005.dat
1 71 100 -48 60 1 0 0 0 1 0 0 0 1 3003.dat
1 71 70 -48 10 1 0 0 0 1 0 0 0 1 3622.dat
1 71 110 -48 20 0 0 1 0 1 0 -1 0 0 3004.dat
1 71 60 -48 50 0 0 1 0 1 0 -1 0 0 3002.dat
1 71 20 -48 40 0 0 1 0 1 0 -1 0 0 3001.dat
0 STEP
1 72 40 -56 30 1 0 0 0 1 0 0 0 1 3069b.dat
1 320 10 -56 30 1 0 0 0 1 0 0 0 1 3070b.dat
1 320 10 -56 50 1 0 0 0 1 0 0 0 1 3070b.dat
0 STEP
1 72 100 -72 30 1 0 0 0 1 0 0 0 1 3937.dat
1 71 40 -72 10 1 0 0 0 1 0 0 0 1 3937.dat
1 71 40 -72 70 1 0 0 0 1 0 0 0 1 3937.dat
0 STEP
1 72 100 -72 30 1 0 0 0 1 0 0 0 1 3938.dat
0 STEP
1 71 100 -80 30 1 0 0 0 1 0 0 0 1 3023.dat
0 STEP
1 71 110 -88 30 1 0 0 0 1 0 0 0 1 3024.dat
0 STEP
1 71 110 -96 30 1 0 0 0 1 0 0 0 1 3024.dat
0 STEP
1 71 110 -120 30 1 0 0 0 1 0 0 0 1 3005.dat
0 STEP
1 71 110 -128 30 1 0 0 0 1 0 0 0 1 3024.dat
0 STEP
1 71 110 -136 30 1 0 0 0 1 0 0 0 1 3024.dat
1 71 90 -136 30 0 0 1 0 1 0 -1 0 0 3623.dat
0 STEP
1 71 90 -144 10 1 0 0 0 1 0 0 0 1 3024.dat
1 71 90 -144 50 1 0 0 0 1 0 0 0 1 3024.dat
1 71 100 -144 30 1 0 0 0 1 0 0 0 1 3023.dat
0 STEP
1 71 110 -152 30 1 0 0 0 1 0 0 0 1 3024.dat
1 71 90 -152 30 0 0 1 0 1 0 -1 0 0 3623.dat
1 71 110 -152 10 0 0 -1 0 1 0 1 0 0 87087.dat
1 71 110 -152 50 0 0 -1 0 1 0 1 0 0 87087.dat
0 STEP
1 0 90 -156 30 1 0 0 0 -1 0 0 0 -1 30374.dat
1 72 90 -160 30 1 0 0 0 1 0 0 0 1 85861.dat
0 STEP
1 15 128 -142 10 0 -1 0 1 0 0 0 0 1 6141.dat
1 0 136 -142 10 0 -1 0 1 0 0 0 0 1 98138.dat
0 STEP
1 15 128 -142 50 0 -1 0 1 0 0 0 0 1 6141.dat
1 0 136 -142 50 0 -1 0 1 0 0 0 0 1 98138.dat
0 STEP
1 71 40 -71.4 13.42 1 0 0 0 0.939693 0.34202 0 -0.34202 0.939693 3938.dat
0 STEP
1 71 60 -96.02 -30.83 1 0 0 0 0.939693 0.34202 0 -0.34202 0.939693 3020.dat
1 272 40 -96.69 -9.298 0 0 1 -0.34202 0.939693 0 -0.939693 -0.34202 0 3020.dat
0 STEP
1 71 40 -71.4 66.58 1 0 0 0 0.939693 -0.34202 0 0.34202 0.939693 3938.dat
0 STEP
1 71 60 -82.33 73.24 1 0 0 0 0.939693 -0.34202 0 0.34202 0.939693 3020.dat
0 STEP
1 71 60 -96.02 110.8 1 0 0 0 0.939693 -0.34202 0 0.34202 0.939693 3020.dat
1 272 40 -96.69 89.3 0 0 1 0.34202 0.939693 0 -0.939693 0.34202 0 3020.dat
1 272 80 -96.69 89.3 0 0 1 0.34202 0.939693 0 -0.939693 0.34202 0 3020.dat
0 STEP
