0 chunky mars rover
0 Name: chunky mars rover.ldr
0 Author: brickify

1 4 90 -8 50 1 0 0 0 1 0 0 0 1 3024.dat
1 4 20 -8 110 1 0 0 0 1 0 0 0 1 3023.dat
1 4 80 -8 30 1 0 0 0 1 0 0 0 1 3023.dat
1 4 180 -8 90 1 0 0 0 1 0 0 0 1 3023.dat
1 4 190 -8 40 0 0 1 0 1 0 -1 0 0 3023.dat
1 4 100 -8 10 1 0 0 0 1 0 0 0 1 3710.dat
1 4 170 -8 10 1 0 0 0 1 0 0 0 1 3623.dat
1 4 80 -8 90 1 0 0 0 1 0 0 0 1 3460.dat
1 4 140 -8 40 1 0 0 0 1 0 0 0 1 3020.dat
1 4 120 -8 110 1 0 0 0 1 0 0 0 1 3460.dat
1 4 160 -8 70 1 0 0 0 1 0 0 0 1 3710.dat
1 4 30 -8 20 1 0 0 0 1 0 0 0 1 3021.dat
1 4 180 -8 140 1 0 0 0 1 0 0 0 1 3022.dat
1 4 40 -8 60 1 0 0 0 1 0 0 0 1 3020.dat
1 4 80 -8 140 1 0 0 0 1 0 0 0 1 3034.dat
0 STEP
1 72 100 -24 70 1 0 0 0 1 0 0 0 1 3937.dat
0 STEP
1 72 100 -24 70 1 0 0 0 1 0 0 0 1 3938.dat
0 STEP
1 71 50 -48 70 1 0 0 0 1 0 0 0 1 3005.dat
1 71 70 -48 110 1 0 0 0 1 0 0 0 1 3005.dat
1 71 130 -48 50 1 0 0 0 1 0 0 0 1 3005.dat
1 71 130 -48 110 1 0 0 0 1 0 0 0 1 3005.dat
1 71 170 -48 50 1 0 0 0 1 0 0 0 1 3005.dat
1 71 170 -48 110 1 0 0 0 1 0 0 0 1 3005.dat
1 71 80 -48 50 1 0 0 0 1 0 0 0 1 3004.dat
1 71 90 -48 100 0 0 1 0 1 0 -1 0 0 3004.dat
1 72 30 -48 80 0 0 1 0 1 0 -1 0 0 3010.dat
1 71 60 -48 90 1 0 0 0 1 0 0 0 1 3004.dat
1 71 140 -48 90 1 0 0 0 1 0 0 0 1 3010.dat
1 71 120 -48 70 1 0 0 0 1 0 0 0 1 3009.dat
1 72 50 -48 50 1 0 0 0 1 0 0 0 1 87087.dat
1 72 110 -48 50 1 0 0 0 1 0 0 0 1 87087.dat
1 72 150 -48 50 1 0 0 0 1 0 0 0 1 87087.dat
1 72 50 -48 110 -1 0 0 0 1 0 0 0 -1 87087.dat
1 72 110 -48 110 -1 0 0 0 1 0 0 0 -1 87087.dat
1 72 150 -48 110 -1 0 0 0 1 0 0 0 -1 87087.dat
0 STEP
1 71 30 -56 90 1 0 0 0 1 0 0 0 1 3024.dat
1 71 50 -56 80 0 0 1 0 1 0 -1 0 0 3023.dat
1 71 40 -56 110 1 0 0 0 1 0 0 0 1 3023.dat
1 71 170 -56 80 0 0 1 0 1 0 -1 0 0 3710.dat
1 71 50 -56 50 1 0 0 0 1 0 0 0 1 3623.dat
1 71 70 -56 90 0 0 1 0 1 0 -1 0 0 3623.dat
1 71 100 -56 80 1 0 0 0 1 0 0 0 1 3022.dat
1 71 140 -56 80 0 0 1 0 1 0 -1 0 0 3020.dat
1 71 30 -56 100 -1 0 0 0 1 0 0 0 -1 11477.dat
1 71 170 -56 60 1 0 0 0 1 0 0 0 1 11477.dat
1 71 170 -56 100 -1 0 0 0 1 0 0 0 -1 11477.dat
0 STEP
1 0 150 -60 90 1 0 0 0 -1 0 0 0 -1 30374.dat
1 71 60 -64 110 1 0 0 0 1 0 0 0 1 3023.dat
1 71 80 -64 90 1 0 0 0 1 0 0 0 1 3710.dat
1 71 100 -64 70 1 0 0 0 1 0 0 0 1 3023.dat
1 71 60 -64 60 1 0 0 0 1 0 0 0 1 3022.dat
1 71 140 -64 80 0 0 1 0 1 0 -1 0 0 3020.dat
1 71 50 -64 60 1 0 0 0 1 0 0 0 1 11477.dat
1 71 50 -64 100 -1 0 0 0 1 0 0 0 -1 11477.dat
1 71 140 -64 70 0 0 -1 0 1 0 1 0 0 11477.dat
1 71 150 -64 100 -1 0 0 0 1 0 0 0 -1 11477.dat
1 0 150 -64 90 1 0 0 0 1 0 0 0 1 85861.dat
0 STEP
1 72 30 -72 70 0 0 1 0 1 0 -1 0 0 87087.dat
1 72 100 -72 50 1 0 0 0 1 0 0 0 1 3937.dat
1 72 100 -72 110 1 0 0 0 1 0 0 0 1 3937.dat
0 STEP
1 71 70 -88 80 0 0 1 0 1 0 -1 0 0 3937.dat
0 STEP
1 0 60 -48 16 1 0 0 0 0 -1 0 1 0 3003.dat
1 0 60 -48 8 1 0 0 0 0 -1 0 1 0 3022.dat
0 STEP
1 0 120 -48 16 1 0 0 0 0 -1 0 1 0 3003.dat
1 0 120 -48 8 1 0 0 0 0 -1 0 1 0 3022.dat
0 STEP
1 0 160 -48 16 1 0 0 0 0 -1 0 1 0 3003.dat
1 0 160 -48 8 1 0 0 0 0 -1 0 1 0 3022.dat
0 STEP
1 0 60 -28 144 1 0 0 0 0 1 0 -1 0 3003.dat
1 0 60 -28 152 1 0 0 0 0 1 0 -1 0 3022.dat
0 STEP
1 0 120 -28 144 1 0 0 0 0 1 0 -1 0 3003.dat
1 0 120 -28 152 1 0 0 0 0 1 0 -1 0 3022.dat
0 STEP
1 0 160 -28 144 1 0 0 0 0 1 0 -1 0 3003.dat
1 0 160 -28 152 1 0 0 0 0 1 0 -1 0 3022.dat
0 STEP
1 0 12 -62 70 0 1 0 -1 0 0 0 0 1 3024.dat
1 0 4 -62 70 0 1 0 -1 0 0 0 0 1 3024.dat
1 72 4 -62 70 0 1 0 -1 0 0 0 0 1 85861.dat
1 0 8 -62 70 0 -1 0 -1 0 0 0 0 -1 30374.dat
0 STEP
1 72 100 -71.9 51.39 1 0 0 0 0.990268 0.139173 0 -0.139173 0.990268 3938.dat
0 STEP
1 71 100 -79.82 52.51 1 0 0 0 0.990268 0.139173 0 -0.139173 0.990268 3710.dat
0 STEP
1 71 100 -84 22.8 1 0 0 0 0.990268 0.139173 0 -0.139173 0.990268 3020.dat
0 STEP
1 72 100 -71.9 108.6 1 0 0 0 0.990268 -0.139173 0 0.139173 0.990268 3938.dat
0 STEP
1 71 100 -85.39 147.1 1 0 0 0 0.990268 -0.139173 0 0.139173 0.990268 3710.dat
0 STEP
1 71 70 -88 80 0 0 1 0 1 0 -1 0 0 3938.dat
0 STEP
1 71 70 -96 80 0 0 1 0 1 0 -1 0 0 3023.dat
0 STEP
1 71 70 -104 80 0 0 1 0 1 0 -1 0 0 3023.dat
0 STEP
1 71 70 -112 70 1 0 0 0 1 0 0 0 1 3024.dat
0 STEP
1 71 70 -120 70 1 0 0 0 1 0 0 0 1 3024.dat
0 STEP
1 71 70 -144 70 0 0 1 0 1 0 -1 0 0 87087.dat
0 STEP
1 72 52 -144 80 0 1 0 -1 0 0 0 0 1 3022.dat
1 0 36 -144 80 0 1 0 -1 0 0 0 0 1 3022.dat
1 72 44 -144 80 0 1 0 -1 0 0 0 0 1 3022.dat
0 STEP
