0 standing penguin with orange beak and feet
0 Name: standing penguin with orange beak and feet.ldr
0 Author: brickify

1 25 30 -8 50 1 0 0 0 1 0 0 0 1 3024.dat
1 25 40 -8 20 1 0 0 0 1 0 0 0 1 3022.dat
1 0 80 -8 50 1 0 0 0 1 0 0 0 1 3710.dat
1 25 130 -8 50 1 0 0 0 1 0 0 0 1 3024.dat
1 25 120 -8 20 1 0 0 0 1 0 0 0 1 3022.dat
0 STEP
1 15 30 -16 30 1 0 0 0 1 0 0 0 1 3024.dat
1 0 30 -16 80 0 0 1 0 1 0 -1 0 0 3710.dat
1 0 80 -16 110 1 0 0 0 1 0 0 0 1 3710.dat
1 0 130 -16 80 0 0 1 0 1 0 -1 0 0 3710.dat
1 15 130 -16 30 1 0 0 0 1 0 0 0 1 3024.dat
1 15 80 -16 40 1 0 0 0 1 0 0 0 1 3020.dat
0 STEP
1 0 130 -24 80 0 0 1 0 1 0 -1 0 0 3710.dat
1 0 30 -24 80 0 0 1 0 1 0 -1 0 0 3710.dat
1 15 80 -24 30 1 0 0 0 1 0 0 0 1 3666.dat
1 0 80 -24 110 1 0 0 0 1 0 0 0 1 3710.dat
1 15 80 -24 50 1 0 0 0 1 0 0 0 1 3710.dat
1 0 80 -24 80 1 0 0 0 1 0 0 0 1 3001.dat
0 STEP
1 15 10 -48 30 1 0 0 0 1 0 0 0 1 3005.dat
1 15 130 -48 50 1 0 0 0 1 0 0 0 1 3005.dat
1 0 150 -48 80 0 0 1 0 1 0 -1 0 0 3010.dat
1 0 100 -48 70 1 0 0 0 1 0 0 0 1 3010.dat
1 15 140 -48 30 1 0 0 0 1 0 0 0 1 3004.dat
1 15 110 -48 40 0 0 1 0 1 0 -1 0 0 3004.dat
1 0 10 -48 80 0 0 1 0 1 0 -1 0 0 3010.dat
1 15 80 -48 10 1 0 0 0 1 0 0 0 1 3009.dat
1 0 80 -48 110 0 0 1 0 1 0 -1 0 0 3002.dat
1 15 60 -48 40 1 0 0 0 1 0 0 0 1 3001.dat
1 0 120 -48 110 0 0 1 0 1 0 -1 0 0 3002.dat
1 0 40 -48 100 0 0 1 0 1 0 -1 0 0 3001.dat
0 STEP
1 0 10 -72 50 1 0 0 0 1 0 0 0 1 3005.dat
1 0 150 -72 50 1 0 0 0 1 0 0 0 1 3005.dat
1 0 70 -72 120 0 0 1 0 1 0 -1 0 0 3004.dat
1 0 40 -72 130 1 0 0 0 1 0 0 0 1 3004.dat
1 0 30 -72 110 1 0 0 0 1 0 0 0 1 3622.dat
1 0 110 -72 130 1 0 0 0 1 0 0 0 1 3622.dat
1 0 120 -72 70 1 0 0 0 1 0 0 0 1 3010.dat
1 0 120 -72 100 1 0 0 0 1 0 0 0 1 3001.dat
1 0 40 -72 80 1 0 0 0 1 0 0 0 1 3001.dat
1 15 80 -72 50 1 0 0 0 1 0 0 0 1 3009.dat
1 15 80 -72 10 1 0 0 0 1 0 0 0 1 3009.dat
1 15 80 -72 30 1 0 0 0 1 0 0 0 1 3008.dat
0 STEP
1 15 10 -96 30 1 0 0 0 1 0 0 0 1 3005.dat
1 15 150 -96 30 1 0 0 0 1 0 0 0 1 3005.dat
1 15 30 -96 30 0 0 1 0 1 0 -1 0 0 3622.dat
1 15 70 -96 50 1 0 0 0 1 0 0 0 1 3622.dat
1 0 10 -96 80 0 0 1 0 1 0 -1 0 0 3010.dat
1 15 70 -96 20 1 0 0 0 1 0 0 0 1 3002.dat
1 0 150 -96 80 0 0 1 0 1 0 -1 0 0 3010.dat
1 15 120 -96 30 0 0 1 0 1 0 -1 0 0 3002.dat
1 0 40 -96 100 0 0 1 0 1 0 -1 0 0 3001.dat
1 0 120 -96 100 0 0 1 0 1 0 -1 0 0 3001.dat
1 0 80 -96 100 0 0 1 0 1 0 -1 0 0 3001.dat
0 STEP
1 0 150 -120 50 1 0 0 0 1 0 0 0 1 3005.dat
1 15 90 -120 40 0 0 1 0 1 0 -1 0 0 3004.dat
1 15 130 -120 30 1 0 0 0 1 0 0 0 1 3622.dat
1 15 120 -120 50 1 0 0 0 1 0 0 0 1 3004.dat
1 15 50 -120 50 1 0 0 0 1 0 0 0 1 3622.dat
1 0 60 -120 110 1 0 0 0 1 0 0 0 1 3010.dat
1 0 10 -120 80 0 0 1 0 1 0 -1 0 0 3010.dat
1 15 40 -120 30 1 0 0 0 1 0 0 0 1 3010.dat
1 0 130 -120 110 1 0 0 0 1 0 0 0 1 3622.dat
1 0 80 -120 130 1 0 0 0 1 0 0 0 1 3009.dat
1 0 60 -120 80 1 0 0 0 1 0 0 0 1 3001.dat
1 0 130 -120 80 1 0 0 0 1 0 0 0 1 3002.dat
1 15 80 -120 10 1 0 0 0 1 0 0 0 1 3009.dat
0 STEP
1 15 30 -144 10 1 0 0 0 1 0 0 0 1 3005.dat
1 15 30 -144 50 1 0 0 0 1 0 0 0 1 3005.dat
1 15 150 -144 30 1 0 0 0 1 0 0 0 1 3005.dat
1 15 20 -144 30 1 0 0 0 1 0 0 0 1 3004.dat
1 0 150 -144 100 0 0 1 0 1 0 -1 0 0 3004.dat
1 15 130 -144 30 0 0 1 0 1 0 -1 0 0 3622.dat
1 0 10 -144 100 0 0 1 0 1 0 -1 0 0 3004.dat
1 15 60 -144 30 0 0 1 0 1 0 -1 0 0 3002.dat
1 15 100 -144 30 0 0 1 0 1 0 -1 0 0 3002.dat
1 0 120 -144 100 0 0 1 0 1 0 -1 0 0 3001.dat
1 0 40 -144 100 0 0 1 0 1 0 -1 0 0 3001.dat
1 0 80 -144 100 0 0 1 0 1 0 -1 0 0 3001.dat
1 0 10 -144 60 0 0 1 0 1 0 -1 0 0 3937.dat
1 0 150 -144 60 0 0 1 0 1 0 -1 0 0 3937.dat
1 0 10 -144 40 1 0 0 0 1 0 0 0 1 11477.dat
1 0 10 -144 100 -1 0 0 0 1 0 0 0 -1 11477.dat
1 15 40 -144 10 0 0 1 0 1 0 -1 0 0 11477.dat
1 0 40 -144 130 0 0 1 0 1 0 -1 0 0 11477.dat
1 15 120 -144 10 0 0 -1 0 1 0 1 0 0 11477.dat
1 0 120 -144 130 0 0 -1 0 1 0 1 0 0 11477.dat
1 0 150 -144 40 1 0 0 0 1 0 0 0 1 11477.dat
1 0 150 -144 100 -1 0 0 0 1 0 0 0 -1 11477.dat
0 STEP
1 15 30 -152 30 1 0 0 0 1 0 0 0 1 3024.dat
1 15 130 -152 30 1 0 0 0 1 0 0 0 1 3024.dat
1 15 80 -152 50 1 0 0 0 1 0 0 0 1 3710.dat
0 STEP
1 15 30 -160 30 1 0 0 0 1 0 0 0 1 3024.dat
1 15 130 -160 30 1 0 0 0 1 0 0 0 1 3024.dat
1 15 80 -160 50 1 0 0 0 1 0 0 0 1 3710.dat
0 STEP
1 0 30 -168 50 1 0 0 0 1 0 0 0 1 3005.dat
1 0 130 -168 50 1 0 0 0 1 0 0 0 1 3005.dat
1 15 80 -168 30 1 0 0 0 1 0 0 0 1 3010.dat
1 0 80 -168 70 1 0 0 0 1 0 0 0 1 3009.dat
1 0 80 -168 50 1 0 0 0 1 0 0 0 1 3710.dat
1 0 80 -168 100 1 0 0 0 1 0 0 0 1 2456.dat
0 STEP
1 15 80 -176 30 1 0 0 0 1 0 0 0 1 3710.dat
0 STEP
1 0 80 -184 30 1 0 0 0 1 0 0 0 1 3666.dat
0 STEP
1 0 40 -192 30 1 0 0 0 1 0 0 0 1 3023.dat
1 0 80 -192 110 1 0 0 0 1 0 0 0 1 3010.dat
1 0 120 -192 30 1 0 0 0 1 0 0 0 1 3023.dat
1 0 30 -192 80 0 0 1 0 1 0 -1 0 0 3010.dat
1 0 130 -192 80 0 0 1 0 1 0 -1 0 0 3010.dat
1 0 60 -192 70 0 0 1 0 1 0 -1 0 0 3002.dat
1 0 100 -192 70 0 0 1 0 1 0 -1 0 0 3002.dat
0 STEP
1 0 80 -208 30 1 0 0 0 1 0 0 0 1 11211.dat
0 STEP
1 0 30 -216 70 1 0 0 0 1 0 0 0 1 3005.dat
1 0 130 -216 70 1 0 0 0 1 0 0 0 1 3005.dat
1 0 40 -216 30 1 0 0 0 1 0 0 0 1 3004.dat
1 0 80 -216 70 1 0 0 0 1 0 0 0 1 3010.dat
1 0 80 -216 30 1 0 0 0 1 0 0 0 1 3023.dat
1 0 120 -216 30 1 0 0 0 1 0 0 0 1 3004.dat
1 0 80 -216 50 1 0 0 0 1 0 0 0 1 3009.dat
1 0 80 -216 100 1 0 0 0 1 0 0 0 1 2456.dat
0 STEP
1 0 30 -224 30 1 0 0 0 1 0 0 0 1 3024.dat
1 0 130 -224 30 1 0 0 0 1 0 0 0 1 3024.dat
0 STEP
1 0 50 -240 100 0 0 1 0 1 0 -1 0 0 3004.dat
1 0 90 -240 30 1 0 0 0 1 0 0 0 1 3622.dat
1 0 30 -240 80 0 0 1 0 1 0 -1 0 0 3010.dat
1 0 50 -240 50 0 0 1 0 1 0 -1 0 0 3622.dat
1 0 120 -240 80 0 0 1 0 1 0 -1 0 0 3001.dat
1 0 80 -240 80 0 0 1 0 1 0 -1 0 0 3001.dat
0 STEP
1 0 80 -248 30 1 0 0 0 1 0 0 0 1 3710.dat
1 0 80 -248 110 1 0 0 0 1 0 0 0 1 3666.dat
1 0 30 -248 30 1 0 0 0 1 0 0 0 1 87087.dat
1 0 130 -248 30 1 0 0 0 1 0 0 0 1 87087.dat
0 STEP
1 0 80 -256 30 1 0 0 0 1 0 0 0 1 3666.dat
1 0 80 -256 110 1 0 0 0 1 0 0 0 1 3666.dat
1 0 40 -256 30 0 0 1 0 1 0 -1 0 0 11477.dat
1 0 40 -256 110 0 0 1 0 1 0 -1 0 0 11477.dat
1 0 120 -256 30 0 0 -1 0 1 0 1 0 0 11477.dat
1 0 120 -256 110 0 0 -1 0 1 0 1 0 0 11477.dat
0 STEP
1 0 80 -264 90 1 0 0 0 1 0 0 0 1 3009.dat
1 0 80 -264 60 1 0 0 0 1 0 0 0 1 2456.dat
1 0 30 -264 60 1 0 0 0 1 0 0 0 1 11477.dat
1 0 130 -264 60 1 0 0 0 1 0 0 0 1 11477.dat
0 STEP
1 0 100 -272 70 0 0 1 0 1 0 -1 0 0 3021.dat
1 0 60 -272 70 0 0 1 0 1 0 -1 0 0 3021.dat
1 0 50 -272 60 1 0 0 0 1 0 0 0 1 11477.dat
1 0 70 -272 60 1 0 0 0 1 0 0 0 1 11477.dat
1 0 60 -272 90 0 0 1 0 1 0 -1 0 0 11477.dat
1 0 100 -272 50 0 0 -1 0 1 0 1 0 0 11477.dat
1 0 90 -272 80 -1 0 0 0 1 0 0 0 -1 11477.dat
1 0 110 -272 80 -1 0 0 0 1 0 0 0 -1 11477.dat
0 STEP
1 0 -19.88 -68.19 50 0 0.984808 0.173648 0 0.173648 -0.984808 -1 0 0 11477.dat
0 STEP
1 0 -18.15 -78.04 50 0.173648 0.984808 0 -0.984808 0.173648 0 0 0 1 3623.dat
0 STEP
1 0 -16.41 -87.89 70 0 0.984808 0.173648 0 0.173648 -0.984808 -1 0 0 11477.dat
0 STEP
1 0 -12.94 -107.6 70 0.173648 0.984808 0 -0.984808 0.173648 0 0 0 1 3710.dat
0 STEP
1 0 -20.81 -109 50 0.173648 0.984808 0 -0.984808 0.173648 0 0 0 1 3023.dat
1 0 -20.81 -109 50 0 0.984808 0.173648 0 0.173648 -0.984808 -1 0 0 11477.dat
0 STEP
1 0 -19.08 -118.8 70 0.173648 0.984808 0 -0.984808 0.173648 0 0 0 1 3024.dat
0 STEP
1 0 -9.463 -127.3 50 0.173648 0.984808 0 -0.984808 0.173648 0 0 0 1 3023.dat
0 STEP
1 0 0.1519 -135.7 60 0 0.984808 0.173648 0 0.173648 -0.984808 -1 0 0 3938.dat
1 0 -15.61 -138.5 60 0 0.984808 0.173648 0 0.173648 -0.984808 -1 0 0 3023.dat
0 STEP
1 0 179.9 -68.19 50 0 -0.984808 -0.173648 0 0.173648 -0.984808 1 0 0 11477.dat
0 STEP
1 0 176.4 -87.89 50 0.173648 -0.984808 0 0.984808 0.173648 0 0 0 1 3710.dat
1 0 176.4 -87.89 70 0 -0.984808 -0.173648 0 0.173648 -0.984808 1 0 0 11477.dat
0 STEP
1 0 182.6 -99.12 50 0.173648 -0.984808 0 0.984808 0.173648 0 0 0 1 3024.dat
0 STEP
1 0 172.9 -107.6 70 0.173648 -0.984808 0 0.984808 0.173648 0 0 0 1 3710.dat
0 STEP
1 0 177.3 -128.7 60 0.173648 -0.984808 0 0.984808 0.173648 0 0 0 1 3022.dat
1 0 177.3 -128.7 50 0 -0.984808 0.173648 0 0.173648 0.984808 -1 0 0 11477.dat
0 STEP
1 0 159.8 -135.7 60 0 -0.984808 0.173648 0 0.173648 0.984808 -1 0 0 3938.dat
1 0 167.7 -137.1 50 0.173648 -0.984808 0 0.984808 0.173648 0 0 0 1 3024.dat
0 STEP
1 0 30 -238 4 1 0 0 0 0 -1 0 1 0 98138.dat
0 STEP
1 15 40 -248 12 1 0 0 0 0 -1 0 1 0 3022.dat
0 STEP
1 0 130 -238 4 1 0 0 0 0 -1 0 1 0 98138.dat
0 STEP
1 15 140 -248 12 1 0 0 0 0 -1 0 1 0 3022.dat
0 STEP
1 25 80 -198 -12 1 0 0 0 0 -1 0 1 0 3023.dat
0 STEP
1 25 80 -208 -4 1 0 0 0 0 -1 0 1 0 3003.dat
0 STEP
