0 sitting frog
0 Name: sitting frog.ldr
0 Author: brickify

1 2 20 -8 60 0 0 1 0 1 0 -1 0 0 3020.dat
0 STEP
1 2 20 -16 60 0 0 1 0 1 0 -1 0 0 3020.dat
0 STEP
1 2 110 -24 30 1 0 0 0 1 0 0 0 1 3024.dat
1 2 110 -24 90 1 0 0 0 1 0 0 0 1 3024.dat
1 27 60 -24 90 1 0 0 0 1 0 0 0 1 3710.dat
1 2 130 -24 60 1 0 0 0 1 0 0 0 1 3021.dat
1 27 60 -24 30 1 0 0 0 1 0 0 0 1 3710.dat
1 2 140 -24 100 1 0 0 0 1 0 0 0 1 3003.dat
1 27 60 -24 60 1 0 0 0 1 0 0 0 1 3020.dat
1 2 140 -24 20 1 0 0 0 1 0 0 0 1 3003.dat
0 STEP
1 2 100 -40 10 1 0 0 0 1 0 0 0 1 3023.dat
1 27 50 -40 10 1 0 0 0 1 0 0 0 1 3623.dat
1 27 50 -40 110 1 0 0 0 1 0 0 0 1 3623.dat
1 2 100 -40 110 1 0 0 0 1 0 0 0 1 3023.dat
1 27 10 -40 60 0 0 1 0 1 0 -1 0 0 3710.dat
1 2 170 -40 60 0 0 1 0 1 0 -1 0 0 3710.dat
0 STEP
1 2 130 -48 10 1 0 0 0 1 0 0 0 1 3005.dat
1 2 130 -48 110 1 0 0 0 1 0 0 0 1 3005.dat
1 2 100 -48 10 1 0 0 0 1 0 0 0 1 3023.dat
1 27 50 -48 110 1 0 0 0 1 0 0 0 1 3623.dat
1 2 100 -48 110 1 0 0 0 1 0 0 0 1 3023.dat
1 2 170 -48 60 0 0 1 0 1 0 -1 0 0 3710.dat
1 27 10 -48 60 0 0 1 0 1 0 -1 0 0 3710.dat
1 27 50 -48 10 1 0 0 0 1 0 0 0 1 3623.dat
1 2 150 -48 60 0 0 1 0 1 0 -1 0 0 3009.dat
1 27 90 -48 60 0 0 1 0 1 0 -1 0 0 3010.dat
1 27 30 -48 60 0 0 1 0 1 0 -1 0 0 3010.dat
1 27 60 -48 60 0 0 1 0 1 0 -1 0 0 3001.dat
1 2 120 -48 60 0 0 1 0 1 0 -1 0 0 3001.dat
0 STEP
1 27 10 -56 40 0 0 1 0 1 0 -1 0 0 3023.dat
1 27 50 -56 110 1 0 0 0 1 0 0 0 1 3623.dat
1 27 20 -56 80 1 0 0 0 1 0 0 0 1 3022.dat
1 27 50 -56 10 1 0 0 0 1 0 0 0 1 3623.dat
1 27 60 -56 40 1 0 0 0 1 0 0 0 1 3020.dat
1 27 70 -56 80 1 0 0 0 1 0 0 0 1 3021.dat
0 STEP
1 2 10 -64 60 0 0 1 0 1 0 -1 0 0 3710.dat
1 2 60 -64 100 1 0 0 0 1 0 0 0 1 3022.dat
1 2 40 -64 20 1 0 0 0 1 0 0 0 1 3022.dat
1 2 30 -64 80 0 0 1 0 1 0 -1 0 0 3710.dat
1 2 50 -64 60 0 0 1 0 1 0 -1 0 0 3023.dat
1 2 70 -64 40 0 0 1 0 1 0 -1 0 0 3710.dat
1 2 90 -64 60 0 0 1 0 1 0 -1 0 0 3710.dat
0 STEP
1 2 60 -72 10 1 0 0 0 1 0 0 0 1 3023.dat
1 2 60 -72 110 1 0 0 0 1 0 0 0 1 3023.dat
1 2 70 -72 30 1 0 0 0 1 0 0 0 1 3623.dat
1 2 120 -72 10 1 0 0 0 1 0 0 0 1 3010.dat
1 2 70 -72 90 1 0 0 0 1 0 0 0 1 3623.dat
1 2 120 -72 110 1 0 0 0 1 0 0 0 1 3010.dat
1 2 60 -72 60 1 0 0 0 1 0 0 0 1 3020.dat
1 2 140 -72 40 1 0 0 0 1 0 0 0 1 3001.dat
1 2 140 -72 80 1 0 0 0 1 0 0 0 1 3001.dat
0 STEP
1 2 80 -80 110 1 0 0 0 1 0 0 0 1 3023.dat
1 2 30 -80 60 0 0 1 0 1 0 -1 0 0 3023.dat
1 2 90 -80 10 1 0 0 0 1 0 0 0 1 3623.dat
1 2 140 -80 10 1 0 0 0 1 0 0 0 1 3023.dat
1 2 130 -80 110 1 0 0 0 1 0 0 0 1 3623.dat
1 2 50 -80 60 0 0 1 0 1 0 -1 0 0 3666.dat
1 2 130 -80 60 0 0 1 0 1 0 -1 0 0 3710.dat
1 2 160 -80 60 0 0 1 0 1 0 -1 0 0 3020.dat
0 STEP
1 2 50 -88 30 1 0 0 0 1 0 0 0 1 3024.dat
1 2 70 -88 110 1 0 0 0 1 0 0 0 1 3024.dat
1 2 50 -88 80 0 0 1 0 1 0 -1 0 0 3710.dat
1 2 120 -88 110 1 0 0 0 1 0 0 0 1 3710.dat
1 2 30 -88 60 0 0 1 0 1 0 -1 0 0 3023.dat
1 2 100 -88 10 1 0 0 0 1 0 0 0 1 3666.dat
1 2 140 -88 60 0 0 1 0 1 0 -1 0 0 3020.dat
1 2 30 -88 30 0 0 1 0 1 0 -1 0 0 87087.dat
1 2 30 -88 90 0 0 1 0 1 0 -1 0 0 87087.dat
1 2 30 -88 40 1 0 0 0 1 0 0 0 1 11477.dat
1 2 30 -88 80 -1 0 0 0 1 0 0 0 -1 11477.dat
1 2 50 -88 20 1 0 0 0 1 0 0 0 1 11477.dat
1 2 50 -88 100 -1 0 0 0 1 0 0 0 -1 11477.dat
1 2 140 -88 10 0 0 -1 0 1 0 1 0 0 11477.dat
1 2 140 -88 110 0 0 -1 0 1 0 1 0 0 11477.dat
0 STEP
1 2 110 -96 60 0 0 1 0 1 0 -1 0 0 3010.dat
1 2 80 -96 60 0 0 1 0 1 0 -1 0 0 3001.dat
1 2 150 -96 30 1 0 0 0 1 0 0 0 1 3024.dat
1 2 150 -96 90 1 0 0 0 1 0 0 0 1 3024.dat
1 2 160 -96 60 1 0 0 0 1 0 0 0 1 3022.dat
1 2 130 -96 60 0 0 1 0 1 0 -1 0 0 3710.dat
1 2 30 -96 50 1 0 0 0 1 0 0 0 1 6141.dat
1 2 30 -96 70 1 0 0 0 1 0 0 0 1 6141.dat
1 2 70 -96 40 1 0 0 0 1 0 0 0 1 11477.dat
1 2 70 -96 80 -1 0 0 0 1 0 0 0 -1 11477.dat
0 STEP
1 2 120 -104 90 1 0 0 0 1 0 0 0 1 3710.dat
1 2 140 -104 50 0 0 1 0 1 0 -1 0 0 3021.dat
1 2 100 -104 50 0 0 1 0 1 0 -1 0 0 3021.dat
1 2 90 -104 40 1 0 0 0 1 0 0 0 1 11477.dat
1 2 90 -104 80 -1 0 0 0 1 0 0 0 -1 11477.dat
1 2 140 -104 30 0 0 -1 0 1 0 1 0 0 11477.dat
1 2 140 -104 90 0 0 -1 0 1 0 1 0 0 11477.dat
0 STEP
1 2 130 -112 60 1 0 0 0 1 0 0 0 1 3021.dat
1 2 120 -112 50 0 0 1 0 1 0 -1 0 0 11477.dat
1 2 120 -112 70 0 0 1 0 1 0 -1 0 0 11477.dat
0 STEP
1 15 -4 -78 30 0 1 0 -1 0 0 0 0 1 3062b.dat
1 15 -28 -78 30 0 1 0 -1 0 0 0 0 1 3062b.dat
1 0 -36 -78 30 0 1 0 -1 0 0 0 0 1 98138.dat
0 STEP
1 15 -4 -78 90 0 1 0 -1 0 0 0 0 1 3062b.dat
1 15 -28 -78 90 0 1 0 -1 0 0 0 0 1 3062b.dat
1 0 -36 -78 90 0 1 0 -1 0 0 0 0 1 98138.dat
0 STEP
